<svg width="93" height="92" viewBox="0 0 93 92" fill="none" xmlns="http://www.w3.org/2000/svg">
<path d="M61.1854 33.4545C64.6497 33.4545 67.4581 30.6461 67.4581 27.1818C67.4581 23.7175 64.6497 20.9091 61.1854 20.9091C57.7211 20.9091 54.9127 23.7175 54.9127 27.1818C54.9127 30.6461 57.7211 33.4545 61.1854 33.4545Z" fill="#C9C9C9"/>
<path d="M29.7661 42.8639C28.9514 42.8769 28.1737 43.2065 27.5976 43.7828L18.1885 53.1919C17.8882 53.481 17.6485 53.8272 17.4834 54.2101C17.3184 54.5929 17.2314 55.0049 17.2274 55.4218C17.2235 55.8387 17.3027 56.2522 17.4604 56.6381C17.6181 57.0241 17.8512 57.3747 18.146 57.6695C18.4408 57.9643 18.7914 58.1974 19.1774 58.3551C19.5633 58.5128 19.9768 58.592 20.3938 58.5881C20.8107 58.5841 21.2226 58.4971 21.6055 58.3321C21.9884 58.1671 22.3345 57.9274 22.6237 57.627L29.8153 50.4353L43.2797 63.8997C43.5689 64.2001 43.915 64.4398 44.2979 64.6048C44.6808 64.7698 45.0927 64.8569 45.5096 64.8608C45.9265 64.8648 46.3401 64.7856 46.726 64.6279C47.1119 64.4701 47.4626 64.2371 47.7574 63.9422C48.0522 63.6474 48.2853 63.2968 48.443 62.9109C48.6007 62.5249 48.6799 62.1114 48.676 61.6945C48.672 61.2776 48.585 60.8657 48.4199 60.4828C48.2549 60.0999 48.0152 59.7538 47.7149 59.4646L45.2278 56.9776L51.77 50.4354L68.3708 67.0362C68.6599 67.3365 69.0061 67.5762 69.3889 67.7413C69.7718 67.9063 70.1837 67.9933 70.6006 67.9973C71.0176 68.0012 71.4311 67.922 71.817 67.7643C72.203 67.6066 72.5536 67.3735 72.8484 67.0787C73.1432 66.7839 73.3763 66.4333 73.534 66.0473C73.6917 65.6614 73.7709 65.2479 73.767 64.831C73.763 64.414 73.676 64.0021 73.511 63.6192C73.3459 63.2364 73.1062 62.8902 72.8059 62.6011L53.9877 43.7829C53.6907 43.4857 53.337 43.2513 52.9477 43.0934C52.5583 42.9356 52.1412 42.8576 51.7212 42.864C50.9064 42.877 50.1287 43.2065 49.5527 43.7829L40.7928 52.5427L32.0329 43.7829C31.7359 43.4857 31.3823 43.2513 30.9929 43.0934C30.6036 42.9356 30.1865 42.8576 29.7664 42.864L29.7661 42.8639Z" fill="#C9C9C9"/>
<rect x="1.25" y="0.75" width="90.5" height="90.5" rx="7.25" stroke="#D0D0D0" stroke-width="1.5"/>
</svg>
