<svg width="67" height="67" viewBox="0 0 67 67" fill="none" xmlns="http://www.w3.org/2000/svg">
<path d="M33.5 0L39.086 7.22011L47.1257 2.89623L49.292 11.7641L58.3954 11.0841L56.7675 20.0665L65.3604 23.1479L60.2198 30.6916L66.8165 37.0017L59.052 41.8024L62.5118 50.25L53.4661 51.4775L53.1908 60.6021L44.4278 58.0442L40.465 66.2679L33.5 60.367L26.535 66.2679L22.5722 58.0442L13.8092 60.6021L13.5339 51.4775L4.48815 50.25L7.94797 41.8024L0.183517 37.0017L6.78018 30.6916L1.63961 23.1479L10.2325 20.0665L8.60465 11.0841L17.708 11.7641L19.8743 2.89623L27.914 7.22011L33.5 0Z" fill="#2DAB0E"/>
<path d="M29 41H26C25.4696 41 24.9609 40.7893 24.5858 40.4142C24.2107 40.0391 24 39.5304 24 39V32C24 31.4696 24.2107 30.9609 24.5858 30.5858C24.9609 30.2107 25.4696 30 26 30H29M36 28V24C36 23.2044 35.6839 22.4413 35.1213 21.8787C34.5587 21.3161 33.7956 21 33 21L29 30V41H40.28C40.7623 41.0055 41.2304 40.8364 41.5979 40.524C41.9654 40.2116 42.2077 39.7769 42.28 39.3L43.66 30.3C43.7035 30.0134 43.6842 29.7207 43.6033 29.4423C43.5225 29.1638 43.3821 28.9063 43.1919 28.6875C43.0016 28.4687 42.7661 28.2939 42.5016 28.1752C42.2371 28.0565 41.9499 27.9967 41.66 28H36Z" stroke="white" stroke-width="2" stroke-linecap="round" stroke-linejoin="round"/>
</svg>
