<svg width="340" height="74" viewBox="0 0 340 74" fill="none" xmlns="http://www.w3.org/2000/svg">
<path d="M75.5108 34.6609L74.5692 34.882L74.3477 33.9423L75.8985 33.5H76.7293V38.9176H75.5108V34.6609Z" fill="#BD9E5E"/>
<path d="M77.9474 38.3107L78.5567 37.4262C78.9444 37.7579 79.2767 37.8684 79.7198 37.8684C80.3844 37.8684 80.7167 37.3709 80.8275 36.6522C80.5506 36.8734 80.2183 37.0392 79.7198 37.0392C78.5567 37.0392 77.7812 36.3758 77.7812 35.2702C77.7812 34.1646 78.612 33.3906 79.8306 33.3906C80.5506 33.3906 80.9937 33.5565 81.3814 33.9987C81.7691 34.3857 82.046 34.9385 82.046 36.0441C82.046 37.8131 81.2152 38.974 79.7198 38.974C78.9444 38.974 78.4459 38.6976 77.9474 38.3107ZM80.8829 35.2702C80.8829 34.7727 80.5506 34.441 79.9413 34.441C79.3321 34.441 78.9998 34.7727 78.9998 35.2702C78.9998 35.7677 79.3321 36.0994 79.9413 36.0994C80.5506 36.0441 80.8829 35.7124 80.8829 35.2702Z" fill="#BD9E5E"/>
<path d="M85.536 34.4951H82.9883V33.5H86.8653V34.3845L84.4283 38.8623H83.0991L85.536 34.4951Z" fill="#BD9E5E"/>
<path d="M87.5859 38.0325L88.4167 37.2585C88.8044 37.6455 89.1922 37.9219 89.6906 37.9219C90.1337 37.9219 90.466 37.6455 90.466 37.2585C90.466 36.8163 90.0783 36.5952 89.4137 36.5952H88.9152L88.7491 35.8212L90.023 34.5498H87.9183V33.5547H91.5738V34.4392L90.1891 35.7107C90.9091 35.8212 91.6292 36.2082 91.6292 37.2033C91.6292 38.1983 90.9091 38.9723 89.6906 38.9723C88.6937 38.9723 88.029 38.5853 87.5859 38.0325Z" fill="#BD9E5E"/>
<path d="M0.628906 33.5H4.6721V34.5503H1.79202V35.656H4.33979V36.7063H1.79202V37.8119H4.72749V38.8623H0.628906V33.5Z" fill="#BD9E5E"/>
<path d="M5.39062 38.0884L6.11065 37.2591C6.60912 37.6461 7.1076 37.9225 7.71685 37.9225C8.21533 37.9225 8.49226 37.7567 8.49226 37.425C8.49226 37.1486 8.3261 36.9827 7.38453 36.7616C6.27681 36.4852 5.61217 36.2088 5.61217 35.1032C5.61217 34.1081 6.38758 33.5 7.49531 33.5C8.27072 33.5 8.93536 33.7211 9.48922 34.1634L8.87997 35.0479C8.38149 34.7162 7.9384 34.4951 7.49531 34.4951C7.05221 34.4951 6.83067 34.7162 6.83067 34.9926C6.83067 35.3243 7.05222 35.4349 7.99378 35.7113C9.10151 35.9877 9.71076 36.3746 9.71076 37.3144C9.71076 38.3648 8.87997 38.9729 7.71685 38.9729C6.88606 38.9729 6.05526 38.6412 5.39062 38.0884Z" fill="#BD9E5E"/>
<path d="M11.9272 34.6056H10.2656V33.5H14.7519V34.6056H13.0903V38.8623H11.9272V34.6056Z" fill="#BD9E5E"/>
<path d="M15.5273 37.6445H16.7458V38.8607H15.5273V37.6445Z" fill="#BD9E5E"/>
<path d="M61.2204 0H29.8164V4.09083H61.2204V0Z" fill="#1C2473"/>
<path d="M41.1166 10.8906H22.0084L9.26953 19.7909L23.5038 29.7416L37.0181 20.3438V32.3951L9.26953 51.7436L23.5592 61.6943H41.1166V10.8906ZM37.0181 55.2816V57.6035H29.3747L37.0181 52.2412V55.2816ZM37.0181 47.2105L23.5038 56.6084L16.4144 51.6884L36.9627 37.3152V47.2105H37.0181ZM37.0181 15.2579L23.5038 24.6557L16.4144 19.7357L23.2823 14.9262H37.0181V15.2579Z" fill="#1C2473"/>
<path d="M61.2204 68.4375H29.8164V72.5283H61.2204V68.4375Z" fill="#1C2473"/>
<path d="M67.7034 42.8433L54.1337 52.3517V40.3004L81.993 20.8413L67.7034 10.8906H50.0352V61.6943H69.2542L81.993 52.794L67.7034 42.8433ZM54.0784 20.2885V14.9815H61.8878L54.0784 20.399V20.2885ZM54.0784 25.4297L67.7034 15.9212L74.7928 20.8413L54.1337 35.2698V25.4297H54.0784ZM67.9249 57.6035H53.746L67.7034 47.8739L74.7928 52.794L67.9249 57.6035Z" fill="#1C2473"/>
<path d="M271.428 16.985C272.318 16.985 273.039 16.259 273.039 15.3636C273.039 14.4681 272.318 13.7422 271.428 13.7422C270.538 13.7422 269.816 14.4681 269.816 15.3636C269.816 16.259 270.538 16.985 271.428 16.985Z" fill="#1C2473"/>
<path d="M276.377 16.985C277.267 16.985 277.988 16.259 277.988 15.3636C277.988 14.4681 277.267 13.7422 276.377 13.7422C275.487 13.7422 274.766 14.4681 274.766 15.3636C274.766 16.259 275.487 16.985 276.377 16.985Z" fill="#1C2473"/>
<path d="M295.311 30.1889L294.62 28.7991C296.462 27.9884 297.785 26.1933 297.785 23.9928C297.785 21.1554 295.483 18.7812 292.606 18.7812H288.462H286.851H285.239H282.938L285.239 21.5608V34.3002H288.462V33.1421V29.1465H291.225L292.606 31.9261C293.296 33.3737 294.62 34.3002 296.231 34.3002H298.418V31.4049H297.325C296.231 31.4049 295.598 30.7679 295.311 30.1889ZM292.433 26.1933H288.52V21.8503H292.433C293.642 21.8503 294.562 22.8347 294.562 23.9928C294.562 25.2668 293.584 26.1933 292.433 26.1933Z" fill="#1C2473"/>
<path d="M164.215 18.8945L166.517 21.6741V34.4136H169.682V18.8945H166.517H164.215Z" fill="#1C2473"/>
<path d="M121.168 18.8945L123.47 21.6741V34.4136H126.635V18.8945H123.47H121.168Z" fill="#1C2473"/>
<path d="M141.827 28.8545L133.482 18.8945H131.583H129.281L131.583 21.6741V34.4136H134.806V25.4959L142.172 34.4136H145.05V18.8945H141.827V28.8545Z" fill="#1C2473"/>
<path d="M300.203 18.8945L302.505 21.6741V34.4136H305.67V18.8945H302.505H300.203Z" fill="#1C2473"/>
<path d="M235.577 28.8545L227.175 18.8945H225.333H223.031L225.333 21.6741V34.4136H228.498V25.4959L235.865 34.4136H238.742V18.8945H235.577V28.8545Z" fill="#1C2473"/>
<path d="M201.161 25.1485H193.853V18.8945H190.688V34.4136H193.853V28.1017H194.543H201.161V34.4136H204.384V18.8945H201.161V25.1485Z" fill="#1C2473"/>
<path d="M319.312 30.9396C318.621 31.287 317.815 31.4608 317.01 31.4608C316.319 31.4608 315.686 31.3449 315.053 31.1133C314.42 30.8817 313.902 30.5343 313.442 30.1289C312.981 29.7236 312.578 29.2024 312.348 28.6233C312.061 28.0443 311.945 27.3494 311.945 26.6545C311.945 25.9596 312.061 25.2647 312.348 24.6857C312.636 24.1066 312.981 23.5855 313.442 23.1801C313.902 22.7748 314.478 22.4273 315.053 22.1957C315.686 21.9641 316.319 21.8482 317.01 21.8482C317.873 21.8482 318.621 22.022 319.312 22.3694C319.945 22.7168 320.52 23.1801 320.981 23.7592L323.513 21.7324L323.225 21.385C322.419 20.5164 321.499 19.8215 320.463 19.3583C319.369 18.8371 318.218 18.6055 316.952 18.6055C315.801 18.6055 314.708 18.8371 313.672 19.2424C312.694 19.6478 311.773 20.2848 311.082 20.9796C310.334 21.7324 309.759 22.601 309.356 23.6434C308.953 24.6278 308.723 25.6701 308.723 26.7124C308.723 27.8126 308.953 28.855 309.356 29.7815C309.759 30.7659 310.392 31.6924 311.082 32.4452C311.83 33.198 312.694 33.777 313.672 34.1824C314.65 34.5877 315.744 34.8193 316.952 34.8193C318.218 34.8193 319.369 34.5877 320.463 34.0666C321.556 33.5454 322.477 32.9084 323.225 32.0398L323.513 31.6924L320.981 29.6657C320.52 30.1289 320.002 30.5922 319.312 30.9396Z" fill="#1C2473"/>
<path d="M183.55 30.9396C182.859 31.287 182.054 31.4608 181.248 31.4608C180.557 31.4608 179.924 31.3449 179.291 31.1133C178.658 30.8817 178.14 30.5343 177.68 30.1289C177.22 29.7236 176.817 29.2024 176.587 28.6233C176.299 28.0443 176.184 27.3494 176.184 26.6545C176.184 25.9596 176.299 25.2647 176.587 24.6857C176.874 24.1066 177.22 23.5855 177.68 23.1801C178.14 22.7748 178.716 22.4273 179.291 22.1957C179.924 21.9641 180.557 21.8482 181.248 21.8482C182.111 21.8482 182.859 22.022 183.55 22.3694C184.183 22.7168 184.759 23.1801 185.219 23.7592L187.751 21.7324L187.463 21.385C186.658 20.5164 185.737 19.8215 184.701 19.3583C183.608 18.8371 182.457 18.6055 181.19 18.6055C180.039 18.6055 178.946 18.8371 177.91 19.2424C176.932 19.6478 176.011 20.2848 175.32 20.9796C174.572 21.7324 173.997 22.601 173.594 23.6434C173.191 24.6278 172.961 25.6701 172.961 26.7124C172.961 27.8126 173.191 28.855 173.594 29.7815C173.997 30.7659 174.63 31.6924 175.32 32.4452C176.069 33.198 176.932 33.777 177.91 34.1824C178.889 34.5877 179.982 34.8193 181.19 34.8193C182.457 34.8193 183.608 34.5877 184.701 34.0666C185.794 33.5454 186.715 32.9084 187.463 32.0398L187.751 31.6924L185.219 29.6657C184.759 30.1289 184.183 30.5922 183.55 30.9396Z" fill="#1C2473"/>
<path d="M336.634 18.8945V25.1485H329.383V18.8945H326.16V34.4136H329.383V28.1017H330.016H336.634V34.4136H339.857V18.8945H336.634Z" fill="#1C2473"/>
<path d="M153.337 31.1708V28.3912V28.1017H159.207V25.1485H153.337V25.0327V22.1373V21.7899H153.452H161.337V18.8945H151.726H150.114H147.812L150.114 21.6741V34.4136H151.726H153.625H162.2V31.4603H153.337V31.1708Z" fill="#1C2473"/>
<path d="M212.556 31.1708V28.3912V28.1017H218.426V25.1485H212.556V25.0327V22.1373V21.7899H212.671H220.555V18.8945H210.945H209.333H207.031L209.333 21.6741V34.4136H210.945H212.844H221.361V31.4603H212.556V31.1708Z" fill="#1C2473"/>
<path d="M277.703 28.047C277.703 30.1317 275.862 31.4635 273.905 31.4635C271.948 31.4635 270.107 30.1317 270.107 28.047V18.8398H266.884H264.582L266.884 21.6194V28.2207C266.884 31.4056 269.589 34.7063 273.905 34.7063C278.221 34.7063 280.926 31.4056 280.926 28.2207V18.8398H277.703V28.047Z" fill="#1C2473"/>
<path d="M260.611 18.8945H249.676V21.7899H258.078L248.41 31.9815L250.367 34.3556L250.424 34.4136H262.74V31.4603H253.59L262.855 21.6162L260.611 18.8945Z" fill="#1C2473"/>
<path d="M123.606 50.694H121.168V49.0078H127.871V50.694H125.434V57.2091H123.682V50.694H123.606Z" fill="#BD9E5E"/>
<path d="M130.996 49.0117H132.748V52.2309H136.1V49.0117H137.852V57.213H136.1V53.9172H132.824V57.213H131.072V49.0117H130.996Z" fill="#BD9E5E"/>
<path d="M141.582 49.0117H147.752V50.6213H143.41V52.3076H147.219V53.9172H143.41V55.6034H147.828V57.213H141.658V49.0117H141.582Z" fill="#BD9E5E"/>
<path d="M155.75 56.0618L156.816 54.7588C157.578 55.372 158.34 55.7552 159.254 55.7552C160.016 55.7552 160.397 55.4486 160.397 54.9887C160.397 54.5288 160.092 54.2989 158.721 53.9157C157.045 53.5324 156.055 53.0725 156.055 51.3863C156.055 49.93 157.273 48.9336 158.873 48.9336C160.092 48.9336 161.082 49.3168 161.92 50.0067L161.006 51.3863C160.32 50.8498 159.559 50.5432 158.873 50.5432C158.188 50.5432 157.807 50.8498 157.807 51.3097C157.807 51.8462 158.188 51.9995 159.559 52.3827C161.235 52.8426 162.149 53.3791 162.149 54.8354C162.149 56.445 160.93 57.3648 159.178 57.3648C158.035 57.3648 156.74 56.9049 155.75 56.0618Z" fill="#BD9E5E"/>
<path d="M164.891 49.0102H166.795L168.471 54.5288L170.299 48.9336H171.822L173.651 54.5288L175.326 49.0102H177.231L174.489 57.2881H172.965L171.137 51.9228L169.309 57.2881H167.785L164.891 49.0102Z" fill="#BD9E5E"/>
<path d="M180.43 49.0117H182.182V57.213H180.43V49.0117Z" fill="#BD9E5E"/>
<path d="M185.383 56.0618L186.449 54.7588C187.211 55.372 187.973 55.7552 188.887 55.7552C189.649 55.7552 190.029 55.4486 190.029 54.9887C190.029 54.5288 189.725 54.2989 188.354 53.9157C186.678 53.5324 185.688 53.0725 185.688 51.3863C185.688 49.93 186.906 48.9336 188.506 48.9336C189.725 48.9336 190.715 49.3168 191.553 50.0067L190.639 51.3863C189.953 50.8498 189.192 50.5432 188.506 50.5432C187.82 50.5432 187.44 50.8498 187.44 51.3097C187.44 51.8462 187.82 51.9995 189.192 52.3827C190.867 52.8426 191.781 53.3791 191.781 54.8354C191.781 56.445 190.563 57.3648 188.811 57.3648C187.592 57.3648 186.373 56.9049 185.383 56.0618Z" fill="#BD9E5E"/>
<path d="M194.602 56.0618L195.668 54.7588C196.43 55.372 197.191 55.7552 198.106 55.7552C198.867 55.7552 199.248 55.4486 199.248 54.9887C199.248 54.5288 198.943 54.2989 197.572 53.9157C195.897 53.5324 194.906 53.0725 194.906 51.3863C194.906 49.93 196.125 48.9336 197.725 48.9336C198.943 48.9336 199.934 49.3168 200.772 50.0067L199.858 51.3863C199.172 50.8498 198.41 50.5432 197.725 50.5432C197.039 50.5432 196.658 50.8498 196.658 51.3097C196.658 51.8462 197.039 51.9995 198.41 52.3827C200.086 52.8426 201 53.3791 201 54.8354C201 56.445 199.781 57.3648 198.029 57.3648C196.811 57.3648 195.592 56.9049 194.602 56.0618Z" fill="#BD9E5E"/>
<path d="M212.348 49.0117H214.024L217.528 57.2897H215.623L214.861 55.4501H211.434L210.672 57.2897H208.844L212.348 49.0117ZM214.252 53.7639L213.186 51.0812L212.119 53.7639H214.252Z" fill="#BD9E5E"/>
<path d="M220.348 53.6857V49.0102H222.1V53.6091C222.1 54.9121 222.785 55.6019 223.852 55.6019C224.918 55.6019 225.604 54.9121 225.604 53.6091V48.9336H227.356V53.5324C227.356 55.9851 225.985 57.2115 223.775 57.2115C221.719 57.3648 220.348 56.1384 220.348 53.6857Z" fill="#BD9E5E"/>
<path d="M230.629 53.1492C230.629 50.8498 232.381 48.9336 234.895 48.9336C236.418 48.9336 237.256 49.5468 238.018 50.2366L236.951 51.463C236.342 50.9264 235.809 50.5432 234.895 50.5432C233.524 50.5432 232.533 51.6929 232.533 53.1492C232.533 54.5288 233.524 55.7552 234.895 55.7552C235.809 55.7552 236.418 55.372 237.028 54.7588L238.17 55.9851C237.332 56.9049 236.418 57.3648 234.818 57.3648C232.457 57.3648 230.629 55.5253 230.629 53.1492Z" fill="#BD9E5E"/>
<path d="M243.274 50.698H240.836V49.0117H247.539V50.698H245.026V57.213H243.274V50.698Z" fill="#BD9E5E"/>
<path d="M250.738 49.0117H252.49V57.213H250.738V49.0117Z" fill="#BD9E5E"/>
<path d="M255.922 53.1492C255.922 50.8498 257.75 48.9336 260.264 48.9336C262.778 48.9336 264.606 50.8498 264.606 53.1492C264.606 55.4486 262.778 57.3648 260.264 57.3648C257.75 57.3648 255.922 55.4486 255.922 53.1492ZM262.701 53.1492C262.701 51.7695 261.711 50.5432 260.264 50.5432C258.817 50.5432 257.826 51.6929 257.826 53.1492C257.826 54.5288 258.817 55.7552 260.264 55.7552C261.711 55.6786 262.701 54.5288 262.701 53.1492Z" fill="#BD9E5E"/>
<path d="M267.879 49.0117H269.555L273.363 54.0704V49.0117H275.115V57.213H273.592L269.631 52.001V57.213H267.879V49.0117Z" fill="#BD9E5E"/>
<path d="M278.848 49.0117H285.018V50.6213H280.676V52.3076H284.485V53.9172H280.676V55.6034H285.094V57.213H278.924V49.0117H278.848Z" fill="#BD9E5E"/>
<path d="M288.371 49.0117H294.541V50.6213H290.199V52.3076H294.008V53.9172H290.199V55.6034H294.617V57.213H288.447V49.0117H288.371Z" fill="#BD9E5E"/>
<path d="M297.891 49.0117H301.623C302.69 49.0117 303.451 49.3183 303.985 49.8548C304.442 50.3147 304.67 50.9279 304.67 51.771C304.67 53.074 303.985 53.9172 302.918 54.3004L304.899 57.213H302.842L301.09 54.607H299.719V57.213H297.967V49.0117H297.891ZM301.471 52.9974C302.309 52.9974 302.842 52.5375 302.842 51.8477C302.842 51.0812 302.309 50.698 301.471 50.698H299.719V53.074H301.471V52.9974Z" fill="#BD9E5E"/>
</svg>
