<svg width="191" height="70" viewBox="0 0 191 70" fill="none" xmlns="http://www.w3.org/2000/svg">
<path d="M69.8701 0.680786L73.6183 5.19451V25.7021H78.778V0.680786H73.6183H69.8701Z" fill="#24236A"/>
<path d="M0 0.680786L3.73887 5.19451V25.7021H8.90785V0.680786H3.73887H0Z" fill="#24236A"/>
<path d="M33.5656 16.8145L19.9841 0.680786H16.9557H13.2168L16.9557 5.19451V25.7021H22.1153V11.3682L34.089 25.7021H38.7906V0.680786H33.5656V16.8145Z" fill="#24236A"/>
<path d="M185.775 16.8145L172.194 0.680786H169.165H165.426L169.165 5.19451V25.7021H174.334V11.3682L186.298 25.7021H191V0.680786H185.775V16.8145Z" fill="#24236A"/>
<path d="M129.916 10.8273H118.092L118.101 0.680786H112.867V25.7021H118.092V15.5649H119.158H129.916V25.7021H135.141V0.680786H129.916V10.8273Z" fill="#24236A"/>
<path d="M101.314 20.1253C100.155 20.7076 98.8728 21.0049 97.5751 20.9926C96.4971 20.9988 95.428 20.7993 94.4251 20.405C93.4486 20.0257 92.5491 19.4727 91.7705 18.773C91.0047 18.0874 90.3876 17.2527 89.9571 16.3203C89.5252 15.3089 89.3026 14.2209 89.3026 13.1215C89.3026 12.0222 89.5252 10.9341 89.9571 9.92276C90.3876 8.99036 91.0047 8.15567 91.7705 7.47005C92.5491 6.77036 93.4486 6.2174 94.4251 5.83802C95.428 5.44372 96.4971 5.2443 97.5751 5.25049C98.8728 5.23813 100.155 5.53549 101.314 6.11779C102.365 6.66488 103.297 7.41637 104.053 8.32801L108.193 5.03598L107.707 4.50443C106.445 3.10716 104.908 1.98348 103.193 1.20306C101.474 0.439427 99.6183 0.0308586 97.7372 0.0020087C95.856 -0.0268412 93.9885 0.324631 92.2472 1.0352C90.66 1.70269 89.2161 2.66833 87.9942 3.87958C86.7923 5.10255 85.8399 6.54684 85.1901 8.13218C84.5117 9.7085 84.1619 11.406 84.1619 13.1215C84.1619 14.837 84.5117 16.5346 85.1901 18.1109C85.9101 19.7545 86.9502 21.2391 88.2498 22.4786C89.5494 23.7182 91.0828 24.6879 92.7609 25.3316C94.439 25.9753 96.2286 26.2802 98.0258 26.2285C99.8229 26.1769 101.592 25.7697 103.23 25.0307C104.943 24.2502 106.479 23.1302 107.745 21.7386L108.231 21.207L104.09 17.9057C103.326 18.8269 102.381 19.5822 101.314 20.1253Z" fill="#24236A"/>
<path d="M52.2693 20.461V16.0685V15.5649H61.7848V10.8273H52.2693V10.6595V5.93125V5.41833H52.4563H65.2432V0.680786H49.6521H47.0443H43.3054L47.0443 5.19451V25.7021H49.6521V25.7114H52.7087H66.6079V20.9739H52.2693V20.461Z" fill="#24236A"/>
<path d="M148.433 20.461V16.0685V15.5649H157.939V10.8273H148.433V10.6595V5.93125V5.41833H148.62H161.397V0.680786H145.816H143.208H139.469L143.208 5.19451V25.7021H145.816V25.7114H148.863H162.771V20.9739H148.433V20.461Z" fill="#24236A"/>
<path d="M10.8334 46.7879H4.86991L3.76695 49.6976H0.224365L5.83267 36.4548H9.88935L15.4976 49.6976H11.9644L10.8334 46.7879ZM9.95477 44.4937L8.68355 41.1551C8.32406 40.3929 8.05431 39.5918 7.8797 38.7677H7.82362C7.64901 39.5918 7.37925 40.3929 7.01976 41.1551L5.74854 44.4937H9.95477Z" fill="#24236A"/>
<path d="M23.2745 36.4548V44.2886C23.3183 45.0888 23.6678 45.842 24.2511 46.393C24.8344 46.9441 25.6072 47.2512 26.4105 47.2512C27.2138 47.2512 27.9866 46.9441 28.5699 46.393C29.1532 45.842 29.5027 45.0888 29.5465 44.2886V36.4548H32.9488V44.531C32.9488 47.8697 30.5746 50.0706 26.4058 50.0706C22.237 50.0706 19.8628 47.8697 19.8628 44.4751V36.4175L23.2745 36.4548Z" fill="#24236A"/>
<path d="M38.4543 43.1135C38.4543 38.9169 41.4081 36.0818 45.9321 36.0818C49.6709 36.0818 52.2508 37.947 52.8303 40.9313L49.3531 41.5468C49.2477 40.7228 48.8268 39.9714 48.1787 39.4499C47.5306 38.9285 46.7055 38.6773 45.876 38.749C43.4457 38.749 41.9595 40.409 41.9595 43.0762C41.9595 45.7434 43.4644 47.3847 45.9321 47.3847C46.7453 47.4475 47.5526 47.205 48.1959 46.7047C48.8391 46.2044 49.2718 45.4824 49.4092 44.6802L52.849 45.4263C52.0264 48.3173 49.5775 50.0892 45.8573 50.0892C41.2024 50.0706 38.4543 47.3288 38.4543 43.1135Z" fill="#24236A"/>
<path d="M69.4962 39.122H64.9348V49.6976H61.5418V39.122H56.9617V36.4548H69.4962V39.122Z" fill="#24236A"/>
<path d="M74.9082 49.6976V36.4548H78.2919V49.6976H74.9082Z" fill="#24236A"/>
<path d="M84.031 43.0762C84.031 38.8049 87.0034 36.0818 91.5742 36.0818C96.1449 36.0818 99.108 38.8049 99.108 43.0762C99.108 47.3474 96.1543 50.0706 91.5742 50.0706C86.9941 50.0706 84.031 47.3288 84.031 43.0762ZM95.5748 43.0762C95.5748 40.3717 94.0418 38.6744 91.5742 38.6744C89.1065 38.6744 87.5829 40.3717 87.5829 43.0762C87.5829 45.7807 89.1159 47.478 91.5742 47.478C94.0325 47.478 95.5748 45.7807 95.5748 43.0762Z" fill="#24236A"/>
<path d="M104.856 36.4548H108.595L113.998 44.0088C114.362 44.5179 114.675 45.0614 114.933 45.6315H114.989C114.989 45.0719 114.989 44.4937 114.989 43.8596V36.4548H118.092V49.6976H114.577L108.969 42.069C108.613 41.5681 108.3 41.0377 108.034 40.4836H107.978C107.978 41.0618 107.978 41.64 107.978 42.2742V49.7349H104.875L104.856 36.4548Z" fill="#24236A"/>
<path d="M135.824 47.2542V49.6976H124.803V36.4548H135.693V38.8982H128.215V41.7706H135.384V44.1207H128.187V47.2542H135.824Z" fill="#24236A"/>
<path d="M153.144 47.2542V49.6976H142.114V36.4548H153.004V38.8982H145.526V41.7706H152.714V44.1207H145.526V47.2542H153.144Z" fill="#24236A"/>
<path d="M165.538 44.7735H162.809V49.6976H159.425V36.4548H166.604C170.343 36.4548 171.717 38.32 171.717 40.5769C171.735 41.4221 171.469 42.249 170.961 42.9253C170.452 43.6017 169.731 44.0883 168.913 44.3072L172.091 49.6789H168.352L165.538 44.7735ZM162.809 42.5353H165.875C167.52 42.5353 168.165 41.696 168.165 40.6142C168.165 39.5324 167.548 38.749 165.875 38.749H162.809V42.5353Z" fill="#24236A"/>
<path d="M176.063 46.8625L178.55 45.1279C179.023 45.9012 179.696 46.5329 180.499 46.9564C181.302 47.3798 182.204 47.5794 183.111 47.534C184.85 47.534 185.915 47.049 185.915 46.0045C185.915 44.96 185.336 44.7362 183.868 44.4937L181.139 44.102C178.428 43.6544 176.989 42.4234 176.989 40.1106C176.989 37.6112 179.232 36.0818 182.971 36.0818C185.775 36.0818 188.009 36.9584 189.261 38.7676L187.056 40.6328C186.585 39.9474 185.944 39.396 185.195 39.033C184.446 38.67 183.615 38.5078 182.784 38.5625C181.176 38.5625 180.241 39.0661 180.241 39.9427C180.241 40.8193 180.784 41.1737 182.316 41.4162L184.98 41.8265C187.897 42.2742 189.261 43.3746 189.261 45.7247C189.261 48.4106 186.981 50.1079 182.952 50.1079C179.634 50.0706 177.166 48.8209 176.063 46.8625Z" fill="#24236A"/>
<path d="M59.719 67.9576V69.7295H51.7366V60.1332H59.6723V61.9331H54.2416V64.0128H59.4386V65.6635H54.2416V67.9297L59.719 67.9576Z" fill="#C6A55A"/>
<path d="M63.1401 67.6779L64.9442 66.4189C65.287 66.9801 65.7754 67.4385 66.3579 67.7454C66.9404 68.0524 67.5952 68.1966 68.253 68.1628C69.5149 68.1628 70.2907 67.8084 70.2907 67.053C70.2907 66.2976 69.8701 66.1205 68.8139 65.9619L66.8323 65.6728C64.8694 65.3464 63.8225 64.4605 63.8225 62.7818C63.8225 61.1031 65.4489 59.8628 68.1596 59.8628C70.1879 59.8628 71.805 60.4969 72.7116 61.8119L71.1133 63.1362C70.7744 62.6376 70.3103 62.2366 69.7674 61.9731C69.2244 61.7096 68.6217 61.5929 68.0194 61.6347C66.8603 61.6347 66.1499 61.9984 66.1499 62.6326C66.1499 63.2667 66.5425 63.5652 67.6548 63.705L69.5803 64.0035C71.6928 64.3206 72.6836 65.1226 72.6836 66.8012C72.6836 68.741 71.0291 69.972 68.1128 69.972C65.7293 70 63.944 69.0954 63.1401 67.6779Z" fill="#C6A55A"/>
<path d="M84.9096 62.0637H81.61V69.7295H79.1424V62.0637H75.8335V60.1332H84.9096V62.0637Z" fill="#C6A55A"/>
<path d="M89.5833 69.7295H87.0596V67.5286H89.5833V69.7295Z" fill="#C6A55A"/>
<path d="M102.875 63.3507C102.348 63.7758 101.682 63.9917 101.006 63.9569H100.52V61.9331H100.8C101.332 61.982 101.865 61.8539 102.317 61.5688C102.768 61.2837 103.112 60.8577 103.296 60.3571H105.259V69.7482H102.903L102.875 63.3507Z" fill="#C6A55A"/>
<path d="M118.466 64.8615C118.466 68.0976 116.961 69.9907 113.97 69.9907C111.783 69.9907 110.297 69.0581 109.932 67.3421L112.26 66.9691C112.354 67.357 112.586 67.6977 112.912 67.929C113.238 68.1602 113.637 68.2664 114.035 68.2281C115.447 68.2281 116.167 67.2023 116.195 65.4304C115.85 65.7925 115.429 66.0727 114.961 66.2502C114.493 66.4278 113.992 66.4982 113.493 66.4562C111.213 66.4562 109.811 65.3091 109.811 63.3693C109.811 61.4296 111.437 60.1705 113.979 60.1705C116.868 60.1332 118.466 61.7653 118.466 64.8615ZM116.139 63.5092C116.08 63.0044 115.826 62.5421 115.432 62.2202C115.038 61.8982 114.534 61.7418 114.026 61.7839C112.867 61.7839 112.157 62.3621 112.157 63.2947C112.157 64.2273 112.876 64.7869 113.979 64.7869C114.426 64.8117 114.869 64.7035 115.254 64.4759C115.638 64.2484 115.946 63.9119 116.139 63.5092Z" fill="#C6A55A"/>
<path d="M123.355 69.543C123.405 68.1175 123.772 66.7209 124.428 65.4535C125.084 64.1861 126.014 63.0794 127.149 62.2129H121.588V60.3477H129.524V62.0917C128.421 62.9502 127.527 64.0461 126.909 65.2976C126.291 66.5492 125.964 67.924 125.953 69.3192V69.7389H123.355V69.543Z" fill="#C6A55A"/>
<path d="M132.776 66.8106L135.188 66.5961C135.191 66.8378 135.245 67.0761 135.348 67.2951C135.451 67.514 135.599 67.7086 135.783 67.8658C135.967 68.0229 136.183 68.139 136.415 68.2064C136.648 68.2737 136.892 68.2906 137.132 68.2561C138.301 68.2561 138.936 67.7805 138.936 66.9505C138.936 66.1205 138.31 65.7194 137.067 65.7194H136.319V64.218H137.067C138.188 64.218 138.759 63.7983 138.759 63.0149C138.759 62.2316 138.179 61.8492 137.076 61.8492C136.844 61.8175 136.608 61.8371 136.384 61.9066C136.161 61.9761 135.955 62.0937 135.782 62.2511C135.609 62.4086 135.473 62.6021 135.383 62.8179C135.293 63.0337 135.252 63.2665 135.263 63.4999L132.889 63.2294C132.889 61.3643 134.478 60.1332 137.142 60.1332C139.805 60.1332 141.208 61.1218 141.208 62.7631C141.187 63.3118 140.962 63.8332 140.577 64.2248C140.191 64.6165 139.673 64.8502 139.123 64.8801C140.6 65.0666 141.451 65.8127 141.451 67.1183C141.451 68.8436 139.824 69.9907 137.142 69.9907C134.459 69.9907 132.851 68.7877 132.776 66.8106Z" fill="#C6A55A"/>
</svg>
