<svg width="32" height="32" viewBox="0 0 32 32" fill="none" xmlns="http://www.w3.org/2000/svg">
<path d="M22.5101 0H8.91113V1.77285H22.5101V0Z" fill="#1C2473"/>
<path d="M13.804 4.71924H5.52951L0.0131836 8.57639L6.17708 12.8887L12.0292 8.81596V14.0387L0.0131836 22.4238L6.20106 26.7361H13.804V4.71924ZM12.0292 23.9571V24.9633H8.71938L12.0292 22.6394V23.9571ZM12.0292 20.4593L6.17708 24.532L3.10712 22.3998L12.0052 16.1709V20.4593H12.0292ZM12.0292 6.61188L6.17708 10.6846L3.10712 8.55243L6.08114 6.46813H12.0292V6.61188Z" fill="#1C2473"/>
<path d="M22.5101 29.6589H8.91113V31.4318H22.5101V29.6589Z" fill="#1C2473"/>
<path d="M25.3164 18.5666L19.4403 22.6873V17.4646L31.5043 9.03158L25.3164 4.71924H17.6655V26.7361H25.988L31.5043 22.879L25.3164 18.5666ZM19.4164 8.79201V6.49209H22.7981L19.4164 8.83992V8.79201ZM19.4164 11.02L25.3164 6.89937L28.3864 9.03158L19.4403 15.2845V11.02H19.4164ZM25.4124 24.9633H19.2725L25.3164 20.7468L28.3864 22.879L25.4124 24.9633Z" fill="#1C2473"/>
</svg>
