<svg width="336" height="459" viewBox="0 0 336 459" fill="none" xmlns="http://www.w3.org/2000/svg">
<g clip-path="url(#clip0_1_393)">
<rect width="336" height="459" rx="14" fill="white"/>
<path d="M292.856 157.606C274.543 120.63 248.477 21.6647 239.166 0.417888C236.03 -6.72417 231.274 -14.2355 222.464 -14.1827H112.609C106.978 -13.9928 102.765 -12.1361 100.035 -8.52812C98.052 -5.54822 96.3287 -2.40724 94.8832 0.860984C86.5535 20.0401 75.6853 73.5158 36.607 165.033" stroke="#4A4A4A" stroke-opacity="0.3" stroke-linecap="round" stroke-linejoin="round"/>
<path d="M298.086 272.047C258.142 351.17 243.146 435.984 232.705 521.83L225.063 533.781H110.937L103.295 521.83C92.8542 435.984 77.8581 351.17 37.9144 272.047" stroke="#4A4A4A" stroke-opacity="0.3" stroke-linecap="round" stroke-linejoin="round"/>
<path d="M184.955 321.07C242.961 311.902 282.451 258.073 273.16 200.837C263.869 143.602 209.315 104.636 151.309 113.803C93.3035 122.971 53.8125 176.801 63.1035 234.036C72.3945 291.271 126.949 330.238 184.955 321.07Z" stroke="#4A4A4A" stroke-opacity="0.3" stroke-linecap="round" stroke-linejoin="round"/>
<path fill-rule="evenodd" clip-rule="evenodd" d="M44.5192 268.488C37.332 235.391 35.9245 201.703 44.3167 167.014C62.562 137.647 87.4828 115.245 115.4 95.9722C132.931 91.2094 150.462 89.5866 168.003 89.6498C185.545 89.7131 203.065 91.2515 220.596 95.9722C248.513 115.245 273.434 137.647 291.679 167.014C300.071 201.703 298.664 235.391 291.477 268.488C272.282 298.54 248.289 320.69 221.609 338.529C205.763 343.471 187.603 344.736 168.003 344.851C148.393 344.683 130.233 343.418 114.398 338.529C87.7387 320.69 63.6817 298.488 44.5192 268.488ZM168.003 82.5161C149.491 82.5161 130.99 84.2126 112.478 89.2389C83.0148 109.586 56.7077 133.232 37.4493 164.222C28.5985 200.839 30.0809 236.402 37.6627 271.333C57.9234 303.061 83.2599 326.432 111.422 345.262C128.143 350.478 147.305 351.806 168.003 351.985C188.691 351.806 207.864 350.478 224.584 345.262C252.747 326.432 278.115 303.061 298.333 271.333C305.915 236.402 307.408 200.839 298.546 164.222C279.288 133.232 252.981 109.586 223.518 89.2389C205.017 84.2126 186.505 82.5056 168.003 82.5161Z" stroke="#4A4A4A" stroke-opacity="0.3" stroke-linecap="round" stroke-linejoin="round"/>
<path fill-rule="evenodd" clip-rule="evenodd" d="M168.016 112.927C189.14 112.927 209.789 119.088 227.353 130.631C244.917 142.174 258.607 158.58 266.69 177.775C274.774 196.97 276.89 218.092 272.768 238.469C268.647 258.847 258.475 277.564 243.538 292.256C228.601 306.947 209.571 316.952 188.852 321.005C168.134 325.058 146.659 322.978 127.143 315.027C107.627 307.076 90.9466 293.612 79.2108 276.337C67.4749 259.062 61.2108 238.752 61.2108 217.975C61.2108 190.115 72.4636 163.395 92.4934 143.695C112.523 123.994 139.689 112.927 168.016 112.927V112.927ZM43.6994 167.643C35.2652 202.343 36.6798 236.042 43.903 269.15C63.1934 299.212 87.3173 321.369 114.131 339.214C130.046 344.158 148.297 345.423 168.005 345.539C187.703 345.37 205.954 344.105 221.879 339.214C248.671 321.369 272.849 299.16 292.096 269.15C299.32 236.042 300.734 202.343 292.3 167.643C273.963 138.267 248.918 115.857 220.861 96.5782C203.242 91.8138 185.624 90.1905 168.005 90.2538C150.386 90.317 132.757 91.856 115.138 96.5782C87.0923 115.804 62.0468 138.214 43.6994 167.643Z" stroke="#4A4A4A" stroke-opacity="0.3" stroke-linecap="round" stroke-linejoin="round"/>
<path fill-rule="evenodd" clip-rule="evenodd" d="M160.809 212.232L159.557 214.028C158.093 213.145 156.809 212.725 155.346 211.843L151.672 212.998L118.291 189.734C111.027 184.672 117.312 177.351 124.06 181.973L157.22 204.733C157.293 206.455 157.357 208.188 157.43 209.911C158.62 210.73 159.641 211.412 160.809 212.232Z" stroke="#4A4A4A" stroke-opacity="0.3" stroke-linecap="round" stroke-linejoin="round"/>
<path fill-rule="evenodd" clip-rule="evenodd" d="M176.027 212.849L179.617 210.141L183.408 210.851C193.608 202.046 222.476 175.704 232.612 166.909C239.264 161.152 232.38 154.984 226.161 161.152C216.014 169.772 187.093 194.796 176.924 203.375L177.304 208.442L174.506 210.872C172.911 209.348 170.784 208.471 168.552 208.416C166.32 208.361 164.149 209.133 162.478 210.577C160.806 212.02 159.757 214.028 159.543 216.195C159.328 218.363 159.964 220.529 161.322 222.257C162.679 223.986 164.658 225.149 166.859 225.511C169.061 225.874 171.322 225.409 173.186 224.211C175.05 223.013 176.38 221.171 176.907 219.055C177.434 216.939 177.12 214.707 176.027 212.808V212.849Z" stroke="#4A4A4A" stroke-opacity="0.3" stroke-linecap="round" stroke-linejoin="round"/>
<path d="M240.56 211.449H222.257V224.342H240.56V211.449Z" stroke="#4A4A4A" stroke-opacity="0.3" stroke-linecap="round" stroke-linejoin="round"/>
<path d="M215.72 135.379L205.261 156.008" stroke="#4A4A4A" stroke-opacity="0.3" stroke-linecap="round" stroke-linejoin="round"/>
<path d="M172.576 122.486V146.983" stroke="#4A4A4A" stroke-opacity="0.3" stroke-linecap="round" stroke-linejoin="round"/>
<path d="M163.424 122.486V146.983" stroke="#4A4A4A" stroke-opacity="0.3" stroke-linecap="round" stroke-linejoin="round"/>
<path d="M120.28 135.379L132.047 156.008" stroke="#4A4A4A" stroke-opacity="0.3" stroke-linecap="round" stroke-linejoin="round"/>
<path d="M84.9805 170.191L105.899 181.795" stroke="#4A4A4A" stroke-opacity="0.3" stroke-linecap="round" stroke-linejoin="round"/>
<path d="M71.907 217.896H95.4401" stroke="#4A4A4A" stroke-opacity="0.3" stroke-linecap="round" stroke-linejoin="round"/>
<path d="M105.899 252.707L84.9805 265.601" stroke="#4A4A4A" stroke-opacity="0.3" stroke-linecap="round" stroke-linejoin="round"/>
<path d="M132.047 278.495L120.28 300.413" stroke="#4A4A4A" stroke-opacity="0.3" stroke-linecap="round" stroke-linejoin="round"/>
<path d="M168.654 288.809V312.016" stroke="#4A4A4A" stroke-opacity="0.3" stroke-linecap="round" stroke-linejoin="round"/>
<path d="M205.261 278.495L215.72 300.413" stroke="#4A4A4A" stroke-opacity="0.3" stroke-linecap="round" stroke-linejoin="round"/>
<path d="M230.101 252.707L252.327 265.601" stroke="#4A4A4A" stroke-opacity="0.3" stroke-linecap="round" stroke-linejoin="round"/>
<path d="M248.404 217.896H264.093" stroke="#4A4A4A" stroke-opacity="0.3" stroke-linecap="round" stroke-linejoin="round"/>
<path d="M230.101 181.795L252.327 170.191" stroke="#4A4A4A" stroke-opacity="0.3" stroke-linecap="round" stroke-linejoin="round"/>
<path d="M137.397 34.8114H114.93C113.552 34.8114 112.436 35.8993 112.436 37.2412V60.7467C112.436 62.0887 113.552 63.1766 114.93 63.1766H137.397C138.774 63.1766 139.891 62.0887 139.891 60.7467V37.2412C139.891 35.8993 138.774 34.8114 137.397 34.8114Z" stroke="#4A4A4A" stroke-opacity="0.3" stroke-linecap="round" stroke-linejoin="round"/>
<path d="M222.259 34.8114H198.722C197.279 34.8114 196.109 35.8993 196.109 37.2412V60.7467C196.109 62.0887 197.279 63.1766 198.722 63.1766H222.259C223.702 63.1766 224.872 62.0887 224.872 60.7467V37.2412C224.872 35.8993 223.702 34.8114 222.259 34.8114Z" stroke="#4A4A4A" stroke-opacity="0.3" stroke-linecap="round" stroke-linejoin="round"/>
<path d="M218.057 5.15692H197.694C196.819 5.15692 196.109 5.84122 196.109 6.68534V20.3898C196.109 21.2339 196.819 21.9182 197.694 21.9182H218.057C218.932 21.9182 219.642 21.2339 219.642 20.3898V6.68534C219.642 5.84122 218.932 5.15692 218.057 5.15692Z" stroke="#4A4A4A" stroke-opacity="0.3" stroke-linecap="round" stroke-linejoin="round"/>
<path d="M138.306 5.15692H117.943C117.068 5.15692 116.358 5.84122 116.358 6.68534V20.3898C116.358 21.2339 117.068 21.9182 117.943 21.9182H138.306C139.181 21.9182 139.891 21.2339 139.891 20.3898V6.68534C139.891 5.84122 139.181 5.15692 138.306 5.15692Z" stroke="#4A4A4A" stroke-opacity="0.3" stroke-linecap="round" stroke-linejoin="round"/>
<path d="M228.936 402.27H253.104V402.131V401.889C253.389 400.608 253.662 399.327 253.946 398.034V397.896L254.001 397.619V397.469L254.854 393.637L254.942 393.245H228.794" stroke="#4A4A4A" stroke-opacity="0.3" stroke-linecap="round" stroke-linejoin="round"/>
<path d="M139.891 402.269H197.416" stroke="#4A4A4A" stroke-opacity="0.3" stroke-linecap="round" stroke-linejoin="round"/>
<path d="M108.514 393.245H81.0584L81.1453 393.637C81.4383 394.918 81.7095 396.199 81.9917 397.469V397.619L82.0568 397.896V398.034C82.3281 399.327 82.6103 400.608 82.8816 401.889L82.9358 402.131V402.27H108.427" stroke="#4A4A4A" stroke-opacity="0.3" stroke-linecap="round" stroke-linejoin="round"/>
<path d="M197.417 393.245H139.891" stroke="#4A4A4A" stroke-opacity="0.3" stroke-linecap="round" stroke-linejoin="round"/>
<path d="M137.044 373.903H111.362C109.789 373.903 108.514 375.138 108.514 376.662V403.378C108.514 404.902 109.789 406.137 111.362 406.137H137.044C138.616 406.137 139.891 404.902 139.891 403.378V376.662C139.891 375.138 138.616 373.903 137.044 373.903Z" stroke="#4A4A4A" stroke-opacity="0.3" stroke-linecap="round" stroke-linejoin="round"/>
<path d="M225.946 376.483H200.264C198.691 376.483 197.416 377.767 197.416 379.351V407.137C197.416 408.721 198.691 410.005 200.264 410.005H225.946C227.519 410.005 228.794 408.721 228.794 407.137V379.351C228.794 377.767 227.519 376.483 225.946 376.483Z" stroke="#4A4A4A" stroke-opacity="0.3" stroke-linecap="round" stroke-linejoin="round"/>
<path d="M222.564 424.188H199.723C198.449 424.188 197.416 425.186 197.416 426.417V446.457C197.416 447.688 198.449 448.686 199.723 448.686H222.564C223.838 448.686 224.871 447.688 224.871 446.457V426.417C224.871 425.186 223.838 424.188 222.564 424.188Z" stroke="#4A4A4A" stroke-opacity="0.3" stroke-linecap="round" stroke-linejoin="round"/>
<path fill-rule="evenodd" clip-rule="evenodd" d="M139.892 429.105V426.414C139.889 425.825 139.656 425.26 139.245 424.843C138.834 424.427 138.276 424.191 137.694 424.188H115.941C115.359 424.191 114.802 424.427 114.39 424.843C113.979 425.26 113.746 425.825 113.744 426.414V446.459C113.746 447.049 113.979 447.614 114.39 448.03C114.802 448.447 115.359 448.683 115.941 448.686H137.694C138.276 448.683 138.834 448.447 139.245 448.03C139.656 447.614 139.889 447.049 139.892 446.459V429.105Z" stroke="#4A4A4A" stroke-opacity="0.3" stroke-linecap="round" stroke-linejoin="round"/>
<path fill-rule="evenodd" clip-rule="evenodd" d="M115.051 95.7181L112.141 88.9631C82.8001 109.376 56.6023 133.098 37.4241 164.188C28.6101 200.924 30.0863 236.602 37.6365 271.646L37.8914 272.047L38.7091 271.646L44.4646 268.791C37.3072 235.587 35.9056 201.791 44.2629 166.99C44.9 165.933 45.5371 164.939 46.1849 163.935C64.1632 135.963 88.2158 114.387 115.051 95.7181Z" stroke="#4A4A4A" stroke-opacity="0.3" stroke-linecap="round" stroke-linejoin="round"/>
<path fill-rule="evenodd" clip-rule="evenodd" d="M112.436 88.9577L115.36 95.4093C132.905 90.8457 150.45 89.2909 168.005 89.3514C185.561 89.412 203.095 90.8861 220.64 95.4093L223.564 88.9577C205.048 84.1417 186.521 82.506 168.005 82.5161C149.489 82.5262 130.963 84.1417 112.436 88.9577Z" stroke="#4A4A4A" stroke-opacity="0.3" stroke-linecap="round" stroke-linejoin="round"/>
<path fill-rule="evenodd" clip-rule="evenodd" d="M220.949 95.7187C245.781 112.949 268.241 132.64 285.808 157.521C288.126 160.796 290.35 164.16 292.482 167.612L299.393 164.788C297.812 162.231 296.185 159.723 294.511 157.265C275.678 129.561 251.125 107.866 223.89 88.9631L220.949 95.7187Z" stroke="#4A4A4A" stroke-opacity="0.3" stroke-linecap="round" stroke-linejoin="round"/>
<path fill-rule="evenodd" clip-rule="evenodd" d="M291.751 167.796C300.131 202.116 298.726 235.445 291.549 268.19L296.01 271.005L297.671 272.047L298.342 271.005C301.071 258.707 302.939 246.241 303.933 233.693C304.796 222.688 304.849 211.637 304.093 200.625C303.264 188.63 301.411 176.725 298.555 165.033L291.751 167.796Z" stroke="#4A4A4A" stroke-opacity="0.3" stroke-linecap="round" stroke-linejoin="round"/>
<path fill-rule="evenodd" clip-rule="evenodd" d="M289.952 271.046C270.831 299.883 247.145 321.352 220.949 338.754L223.967 345.539C252.206 326.767 277.688 303.536 298.086 272.108L296.398 271.046L291.813 268.179C291.196 269.092 290.58 270.048 289.952 271.046Z" stroke="#4A4A4A" stroke-opacity="0.3" stroke-linecap="round" stroke-linejoin="round"/>
<path fill-rule="evenodd" clip-rule="evenodd" d="M168.202 344.825C148.561 344.656 130.373 343.387 114.513 338.48C88.6347 321.145 65.2451 299.76 46.3732 271.035C45.7538 270.094 45.1342 269.142 44.5254 268.179L38.7368 271.035L37.9144 271.437C58.1321 303.07 83.4441 326.433 111.533 345.238C128.28 350.473 147.472 351.806 168.202 351.986C188.922 351.806 208.125 350.473 224.872 345.238L221.892 338.48C206.021 343.387 187.833 344.656 168.202 344.825Z" stroke="#4A4A4A" stroke-opacity="0.3" stroke-linecap="round" stroke-linejoin="round"/>
<path d="M115.05 339.092L111.128 345.538" stroke="#4A4A4A" stroke-opacity="0.3" stroke-linecap="round" stroke-linejoin="round"/>
<path d="M36.607 165.033L44.4514 167.612" stroke="#4A4A4A" stroke-opacity="0.3" stroke-linecap="round" stroke-linejoin="round"/>
<path d="M224.872 428.056H245.79" stroke="#4A4A4A" stroke-opacity="0.3" stroke-linecap="round" stroke-linejoin="round"/>
<path d="M141.199 428.056H196.109" stroke="#4A4A4A" stroke-opacity="0.3" stroke-linecap="round" stroke-linejoin="round"/>
<path d="M90.2098 428.056H113.743" stroke="#4A4A4A" stroke-opacity="0.3" stroke-linecap="round" stroke-linejoin="round"/>
<path d="M224.872 434.502H245.79" stroke="#4A4A4A" stroke-opacity="0.3" stroke-linecap="round" stroke-linejoin="round"/>
<path d="M141.199 434.502H196.109" stroke="#4A4A4A" stroke-opacity="0.3" stroke-linecap="round" stroke-linejoin="round"/>
<path d="M91.5176 434.502H113.743" stroke="#4A4A4A" stroke-opacity="0.3" stroke-linecap="round" stroke-linejoin="round"/>
<path d="M81.0583 46.4153H112.436" stroke="#4A4A4A" stroke-opacity="0.3" stroke-linecap="round" stroke-linejoin="round"/>
<path d="M83.6732 39.9687H112.436" stroke="#4A4A4A" stroke-opacity="0.3" stroke-linecap="round" stroke-linejoin="round"/>
<path d="M139.891 47.7047L196.109 46.4153" stroke="#4A4A4A" stroke-opacity="0.3" stroke-linecap="round" stroke-linejoin="round"/>
<path d="M141.198 39.9687H194.802" stroke="#4A4A4A" stroke-opacity="0.3" stroke-linecap="round" stroke-linejoin="round"/>
<path d="M224.872 46.4153H254.942" stroke="#4A4A4A" stroke-opacity="0.3" stroke-linecap="round" stroke-linejoin="round"/>
<path d="M226.179 39.9687H253.634" stroke="#4A4A4A" stroke-opacity="0.3" stroke-linecap="round" stroke-linejoin="round"/>
<path d="M91.5176 14.1816H116.358" stroke="#4A4A4A" stroke-opacity="0.3" stroke-linecap="round" stroke-linejoin="round"/>
<path d="M91.5176 11.6039H116.358" stroke="#4A4A4A" stroke-opacity="0.3" stroke-linecap="round" stroke-linejoin="round"/>
<path d="M139.891 15.471L196.109 14.1816" stroke="#4A4A4A" stroke-opacity="0.3" stroke-linecap="round" stroke-linejoin="round"/>
<path d="M141.199 11.6039H194.802" stroke="#4A4A4A" stroke-opacity="0.3" stroke-linecap="round" stroke-linejoin="round"/>
<path d="M220.949 14.1816H245.79" stroke="#4A4A4A" stroke-opacity="0.3" stroke-linecap="round" stroke-linejoin="round"/>
<path d="M220.949 11.6039H245.79" stroke="#4A4A4A" stroke-opacity="0.3" stroke-linecap="round" stroke-linejoin="round"/>
</g>
<defs>
<clipPath id="clip0_1_393">
<rect width="336" height="459" rx="15" fill="white"/>
</clipPath>
</defs>
</svg>
