<svg width="98" height="36" viewBox="0 0 98 36" fill="none" xmlns="http://www.w3.org/2000/svg">
<g clip-path="url(#clip0_99:6562)">
<path d="M35.8496 0.353516L37.7728 2.69923V13.3567H40.4201V0.353516H37.7728H35.8496Z" fill="#1C2473"/>
<path d="M0 0.353516L1.91837 2.69923V13.3567H4.57052V0.353516H1.91837H0Z" fill="#1C2473"/>
<path d="M17.222 8.73801L10.2535 0.353516H8.69962H6.78125L8.69962 2.69923V13.3567H11.347V5.90764L17.4906 13.3567H19.9029V0.353516H17.222V8.73801Z" fill="#1C2473"/>
<path d="M95.3187 8.73801L88.3502 0.353516H86.7963H84.8779L86.7963 2.69923V13.3567H89.4485V5.90764L95.5872 13.3567H97.9996V0.353516H95.3187V8.73801Z" fill="#1C2473"/>
<path d="M66.6584 5.62654H60.5916L60.5964 0.353516H57.9106V13.3567H60.5916V8.08857H61.1383H66.6584V13.3567H69.3394V0.353516H66.6584V5.62654Z" fill="#1C2473"/>
<path d="M51.9784 10.4537C51.3837 10.7563 50.7259 10.9109 50.06 10.9044C49.507 10.9072 48.9585 10.8036 48.4438 10.5991C47.943 10.4037 47.4815 10.118 47.0818 9.7558C46.6723 9.38776 46.3473 8.93382 46.1295 8.42571C45.9116 7.91759 45.8062 7.36754 45.8204 6.81396C45.8052 6.26097 45.9103 5.71134 46.1282 5.20386C46.3462 4.69639 46.6717 4.24343 47.0818 3.87697C47.4813 3.51335 47.9428 3.22599 48.4438 3.02883C48.9585 2.82438 49.507 2.72075 50.06 2.7235C50.7263 2.71876 51.384 2.87496 51.9784 3.17907C52.5208 3.45891 52.9995 3.85013 53.3836 4.32769L55.5082 2.61203L55.2588 2.33577C54.6105 1.61148 53.8221 1.02922 52.9424 0.624948C52.1044 0.224393 51.1946 -0.00018654 50.2682 -0.0352C49.3419 -0.0702135 48.4181 0.0850701 47.5528 0.421247C46.6875 0.757424 45.8987 1.2675 45.2341 1.92063C44.5695 2.57376 44.0429 3.35636 43.6862 4.22107C43.3382 5.04026 43.1587 5.92245 43.1587 6.81396C43.1587 7.70548 43.3382 8.58766 43.6862 9.40685C44.0208 10.2316 44.5092 10.9836 45.125 11.6217C46.1381 12.6152 47.423 13.2784 48.8134 13.5256C50.2037 13.7727 51.6355 13.5923 52.9232 13.0078C53.803 12.6036 54.5913 12.0213 55.2396 11.297L55.489 11.0207L53.3644 9.30508C52.9846 9.77927 52.513 10.1701 51.9784 10.4537Z" fill="#1C2473"/>
<path d="M26.819 10.633V8.35028V8.08857H31.7013V5.62654H26.819V5.5393V3.08211V2.81555H26.9149H33.4758V0.353516H25.4762H24.1381H22.2197L24.1381 2.69923V13.3567H25.4762V13.3616H27.0444H34.176V10.8996H26.819V10.633Z" fill="#1C2473"/>
<path d="M76.1594 10.633V8.35028V8.08857H81.0368V5.62654H76.1594V5.5393V3.08211V2.81555H76.2553H82.8113V0.353516H74.8165H73.4784H71.5601L73.4784 2.69923V13.3567H74.8165V13.3616H76.38H83.5163V10.8996H76.1594V10.633Z" fill="#1C2473"/>
<path d="M5.55333 24.3104H2.49352L1.92761 25.8274H0.114746L2.9923 18.9453H5.04975L7.92731 25.8274H6.11445L5.55333 24.3104ZM5.10251 23.1182L4.45026 21.3831C4.26581 20.987 4.1274 20.5707 4.03781 20.1424H4.00904C3.91945 20.5707 3.78104 20.987 3.59659 21.3831L2.94434 23.1182H5.10251Z" fill="#1C2473"/>
<path d="M11.9418 18.9403V23.0114C11.9418 23.442 12.1111 23.8549 12.4124 24.1594C12.7137 24.4639 13.1224 24.6349 13.5485 24.6349C13.9746 24.6349 14.3832 24.4639 14.6845 24.1594C14.9858 23.8549 15.1551 23.442 15.1551 23.0114V18.9403H16.9008V23.1374C16.9008 24.8724 15.6827 26.0162 13.5437 26.0162C11.4047 26.0162 10.1865 24.8724 10.1865 23.1083V18.9209L11.9418 18.9403Z" fill="#1C2473"/>
<path d="M19.7305 22.4009C19.7305 20.2199 21.246 18.7466 23.5672 18.7466C25.4856 18.7466 26.8093 19.7159 27.1066 21.2668L25.3225 21.5866C25.2684 21.1584 25.0525 20.768 24.7199 20.497C24.3874 20.226 23.964 20.0954 23.5384 20.1327C22.2915 20.1327 21.5337 20.9954 21.5337 22.3815C21.5337 23.7676 22.3011 24.6206 23.5672 24.6206C23.9844 24.6532 24.3987 24.5272 24.7287 24.2671C25.0588 24.0071 25.2808 23.6319 25.3513 23.2151L27.1162 23.6028C26.6942 25.1052 25.4376 26.0261 23.5288 26.0261C21.1405 26.0164 19.7305 24.5915 19.7305 22.4009Z" fill="#1C2473"/>
<path d="M35.6531 20.3265H33.3127V25.8273H31.567V20.3265H29.2266V18.9404H35.6531V20.3265Z" fill="#1C2473"/>
<path d="M38.4346 25.8274V18.9453H40.1707V25.8274H38.4346Z" fill="#1C2473"/>
<path d="M43.1152 22.3815C43.1152 20.1618 44.6403 18.7466 46.9807 18.7466C49.3212 18.7466 50.8463 20.1618 50.8463 22.3815C50.8463 24.6012 49.3308 26.0164 46.9807 26.0164C44.6307 26.0164 43.1152 24.5915 43.1152 22.3815ZM49.0334 22.3815C49.0334 20.976 48.2469 20.0939 46.9807 20.0939C45.7146 20.0939 44.9377 20.976 44.9377 22.3815C44.9377 23.787 45.7242 24.669 46.9807 24.669C48.2373 24.669 49.0334 23.787 49.0334 22.3815Z" fill="#1C2473"/>
<path d="M53.8008 18.9404H55.7192L58.4912 22.8661C58.6764 23.1317 58.8369 23.414 58.9708 23.7094H58.9996C58.9996 23.4186 58.9996 23.1181 58.9996 22.7886V18.9404H60.5918V25.8273H58.7646L55.887 21.8629C55.7042 21.6026 55.5438 21.3269 55.4074 21.039C55.4074 21.3395 55.4074 21.6399 55.4074 21.9695V25.8467H53.8152L53.8008 18.9404Z" fill="#1C2473"/>
<path d="M69.6848 24.5527V25.8274H64.04V18.9453H69.6225V20.2151H65.7858V21.7078H69.469V22.9195H65.7858V24.5479L69.6848 24.5527Z" fill="#1C2473"/>
<path d="M78.567 24.5527V25.8274H72.9126V18.9453H78.4998V20.2151H74.6631V21.7078H78.3464V22.9195H74.6631V24.5479L78.567 24.5527Z" fill="#1C2473"/>
<path d="M84.9361 23.2636H83.5357V25.8274H81.7852V18.9453H85.4684C87.3868 18.9453 88.087 19.9146 88.087 21.0875C88.0965 21.5267 87.9599 21.9565 87.699 22.3079C87.4381 22.6594 87.0682 22.9123 86.6482 23.0261L88.2788 25.8177H86.3605L84.9361 23.2636ZM83.5357 22.1004H85.1087C85.9528 22.1004 86.2789 21.6642 86.2789 21.102C86.2789 20.5398 85.9624 20.1327 85.1087 20.1327H83.5357V22.1004Z" fill="#1C2473"/>
<path d="M90.3364 24.3731L91.6121 23.4716C91.8549 23.8735 92.2004 24.2018 92.6123 24.4219C93.0242 24.642 93.4872 24.7456 93.9526 24.722C94.8446 24.722 95.3913 24.47 95.3913 23.9272C95.3913 23.3844 95.094 23.2681 94.3458 23.1421L92.9454 22.9385C91.5546 22.7059 90.816 22.0661 90.816 20.8642C90.816 19.5653 91.9671 18.7705 93.8854 18.7705C95.3242 18.7705 96.4656 19.2261 97.1083 20.1663L95.9764 21.1356C95.741 20.7679 95.4131 20.47 95.0263 20.2725C94.6395 20.0749 94.2077 19.9847 93.7751 20.0112C92.9502 20.0112 92.4706 20.2729 92.4706 20.7285C92.4706 21.1841 92.7488 21.3682 93.5353 21.4943L94.8974 21.7075C96.3937 21.9401 97.0939 22.512 97.0939 23.7333C97.0939 25.1291 95.9237 26.0112 93.8614 26.0112C92.1685 26.0161 90.8975 25.3666 90.3364 24.3731Z" fill="#1C2473"/>
<path d="M36.4967 35.2681V35.8981H33.6719V32.4619H36.4631V33.0968H34.5447V33.8432H36.3864V34.4538H34.5447V35.2681H36.4967Z" fill="#C6A55A"/>
<path d="M37.7056 35.166L38.3434 34.7153C38.4648 34.9162 38.6376 35.0804 38.8435 35.1904C39.0495 35.3004 39.281 35.3523 39.5136 35.3405C39.9597 35.3405 40.233 35.2145 40.233 34.9431C40.233 34.6717 40.0843 34.6135 39.7103 34.5505L39.0101 34.4487C38.3147 34.3324 37.9454 34.0125 37.9454 33.4116C37.9454 32.8106 38.5209 32.3647 39.4801 32.3647C39.7848 32.3374 40.0915 32.3869 40.3727 32.5087C40.6539 32.6305 40.9009 32.8208 41.0915 33.0626L40.5256 33.5473C40.4056 33.369 40.2415 33.2256 40.0497 33.1312C39.8579 33.0368 39.645 32.9948 39.4321 33.0093C39.0197 33.0093 38.7799 33.1402 38.7799 33.368C38.7799 33.5957 38.9189 33.6878 39.3122 33.7508L39.9932 33.8575C40.7414 33.9738 41.0915 34.2597 41.0915 34.8704C41.0915 35.5634 40.5064 36.0045 39.4753 36.0045C39.133 36.0378 38.7882 35.9776 38.4768 35.8301C38.1655 35.6826 37.8991 35.4532 37.7056 35.166Z" fill="#C6A55A"/>
<path d="M45.4027 33.155H44.2325V35.8981H43.3597V33.155H42.1895V32.4619H45.4027V33.155Z" fill="#C6A55A"/>
<path d="M47.0625 35.8984H46.1704V35.1133H47.0625V35.8984Z" fill="#C6A55A"/>
<path d="M51.7576 33.6159C51.5681 33.7733 51.3261 33.8514 51.0814 33.834H50.9087V33.0973H51.0142C51.2026 33.1142 51.3912 33.0678 51.5507 32.9652C51.7103 32.8627 51.8319 32.7098 51.8967 32.5303H52.5921V35.8938H51.7576V33.6159Z" fill="#C6A55A"/>
<path d="M57.2728 34.1582C57.2728 35.3165 56.7405 35.9902 55.6806 35.9902C54.9084 35.9902 54.3809 35.6509 54.2418 35.0451L55.0667 34.9143C55.1006 35.053 55.1826 35.1749 55.298 35.2576C55.4133 35.3403 55.5542 35.3784 55.695 35.365C56.1746 35.365 56.4479 34.9966 56.4575 34.3472C56.3358 34.4782 56.1862 34.5795 56.02 34.6433C55.8538 34.7071 55.6754 34.7318 55.4983 34.7155C54.6926 34.7155 54.1938 34.3036 54.1938 33.6105C54.1938 32.9175 54.7694 32.4619 55.671 32.4619C56.7069 32.4619 57.2728 33.0483 57.2728 34.1582ZM56.4479 33.6735C56.4274 33.4922 56.3378 33.3261 56.1982 33.2103C56.0585 33.0945 55.8798 33.0382 55.6998 33.0532C55.2921 33.0532 55.0379 33.2616 55.0379 33.596C55.0379 33.9304 55.2921 34.1291 55.6806 34.1291C55.8388 34.139 55.9964 34.101 56.1331 34.0198C56.2699 33.9386 56.3795 33.8181 56.4479 33.6735Z" fill="#C6A55A"/>
<path d="M58.9994 35.8351C59.017 35.3242 59.1466 34.8235 59.3788 34.3693C59.6111 33.915 59.9401 33.5185 60.3423 33.2083H58.376V32.5347H61.1624V33.1599C60.7724 33.4681 60.4564 33.8614 60.238 34.3104C60.0196 34.7594 59.9044 35.2525 59.9011 35.7528V35.8982H58.9803L58.9994 35.8351Z" fill="#C6A55A"/>
<path d="M62.3325 34.8564L63.1862 34.7789C63.1862 35.1618 63.4548 35.3702 63.872 35.3702C64.2892 35.3702 64.5099 35.2054 64.5099 34.8855C64.5099 34.5657 64.2892 34.4445 63.8432 34.4445H63.5603V33.9065H63.824C64.2221 33.9065 64.4235 33.7563 64.4235 33.4752C64.4235 33.1941 64.2173 33.0584 63.8288 33.0584C63.7467 33.0469 63.6631 33.0539 63.5839 33.0787C63.5047 33.1035 63.4319 33.1456 63.3706 33.202C63.3093 33.2584 63.261 33.3278 63.2291 33.4051C63.1973 33.4825 63.1826 33.566 63.1862 33.6497L62.3469 33.5527C62.3469 32.8936 62.908 32.4429 63.8528 32.4429C64.7976 32.4429 65.2916 32.7967 65.2916 33.388C65.2835 33.5842 65.2034 33.7704 65.0669 33.9102C64.9303 34.05 64.7471 34.1333 64.553 34.144C65.0758 34.2119 65.3779 34.4784 65.3779 34.9485C65.3779 35.564 64.8024 35.9711 63.8528 35.9711C62.9032 35.9711 62.3565 35.564 62.3325 34.8564Z" fill="#C6A55A"/>
</g>
<defs>
<clipPath id="clip0_99:6562">
<rect width="98" height="36" fill="white"/>
</clipPath>
</defs>
</svg>
