<svg width="657" height="485" viewBox="0 0 657 485" fill="none" xmlns="http://www.w3.org/2000/svg">
<g opacity="0.5" clip-path="url(#clip0_36:348)">
<path d="M46.8723 79.7778H0.297852V484.734H328.503V74.2275C328.503 74.2275 232.039 -20.0677 95.655 4.33688V408.155C95.655 408.155 280.828 397.043 328.503 484.704" stroke="#1D2474" stroke-linecap="round" stroke-linejoin="round"/>
<path d="M68.9719 49.8516H46.8721V441.468C46.8721 441.468 249.782 435.923 328.503 484.732" stroke="#1D2474" stroke-linecap="round" stroke-linejoin="round"/>
<path d="M610.14 79.7768H656.709V484.733H328.503V74.2265C328.503 74.2265 424.968 -20.0686 561.352 4.3359V408.154C561.352 408.154 376.185 397.042 328.503 484.703" stroke="#1D2474" stroke-linecap="round" stroke-linejoin="round"/>
<path d="M328.503 484.703C407.231 435.87 610.14 441.438 610.14 441.438V49.8516H561.334" stroke="#1D2474" stroke-linecap="round" stroke-linejoin="round"/>
<path d="M525.693 190.11L526.646 189.002H534.502L535.544 191.289C535.681 191.289 535.818 191.289 535.961 191.289C536.856 191.292 537.714 191.649 538.348 192.283C538.981 192.917 539.338 193.775 539.341 194.671V205.82C539.338 206.716 538.981 207.574 538.348 208.208C537.714 208.842 536.856 209.199 535.961 209.202C535.826 209.211 535.691 209.211 535.556 209.202L534.228 212.18H526.289L525.693 210.81" stroke="#1D2474" stroke-linecap="round" stroke-linejoin="round"/>
<path d="M519.926 166.123C509.706 145.25 495.16 89.3835 489.963 77.3897C488.214 73.358 485.559 69.1178 480.643 69.1476H419.337C416.194 69.2548 413.843 70.3029 412.319 72.3396C411.213 74.0218 410.251 75.7949 409.445 77.6398C404.796 88.4664 398.731 118.653 376.923 170.315" stroke="#1D2474" stroke-linecap="round" stroke-linejoin="round"/>
<path d="M522.515 230.891C500.177 275.68 491.791 323.691 485.952 372.286L481.678 379.051H417.855L413.581 372.286C407.742 323.691 399.356 275.68 377.018 230.891" stroke="#1D2474" stroke-linecap="round" stroke-linejoin="round"/>
<path d="M459.155 258.935C491.503 253.751 513.526 223.311 508.345 190.946C503.163 158.58 472.74 136.545 440.392 141.73C408.044 146.914 386.021 177.354 391.202 209.719C396.384 242.085 426.807 264.119 459.155 258.935Z" stroke="#1D2474" stroke-linecap="round" stroke-linejoin="round"/>
<path fill-rule="evenodd" clip-rule="evenodd" d="M380.845 229.253C376.833 210.548 376.048 191.509 380.732 171.904C390.916 155.307 404.826 142.646 420.408 131.754C430.193 129.063 439.978 128.145 449.769 128.181C459.56 128.217 469.34 129.086 479.125 131.754C494.707 142.646 508.617 155.307 518.801 171.904C523.485 191.509 522.699 210.548 518.688 229.253C507.974 246.238 494.582 258.756 479.69 268.838C470.845 271.631 460.709 272.345 449.769 272.411C438.824 272.316 428.687 271.601 419.849 268.838C404.969 258.756 391.541 246.208 380.845 229.253ZM449.769 124.149C439.437 124.149 429.11 125.108 418.777 127.949C402.332 139.448 387.648 152.812 376.899 170.326C371.959 191.021 372.786 211.12 377.018 230.861C388.327 248.792 402.469 262.001 418.188 272.643C427.521 275.591 438.216 276.341 449.769 276.443C461.316 276.341 472.018 275.591 481.351 272.643C497.07 262.001 511.23 248.792 522.515 230.861C526.747 211.12 527.58 191.021 522.634 170.326C511.884 152.812 497.201 139.448 480.755 127.949C470.429 125.108 460.096 124.143 449.769 124.149Z" stroke="#1D2474" stroke-linecap="round" stroke-linejoin="round"/>
<path fill-rule="evenodd" clip-rule="evenodd" d="M449.77 141.021C461.501 141.021 472.97 144.501 482.725 151.023C492.479 157.544 500.082 166.814 504.572 177.658C509.061 188.503 510.236 200.436 507.947 211.949C505.659 223.462 500.009 234.037 491.713 242.337C483.418 250.637 472.848 256.29 461.342 258.58C449.835 260.87 437.909 259.695 427.07 255.203C416.231 250.711 406.967 243.104 400.449 233.343C393.931 223.583 390.452 212.109 390.452 200.371C390.452 184.63 396.701 169.534 407.826 158.404C418.95 147.274 434.038 141.021 449.77 141.021V141.021ZM380.726 171.934C376.042 191.539 376.828 210.578 380.839 229.283C391.553 246.267 404.951 258.785 419.843 268.868C428.682 271.661 438.818 272.375 449.764 272.441C460.703 272.345 470.84 271.631 479.684 268.868C494.564 258.785 507.992 246.238 518.682 229.283C522.694 210.578 523.479 191.539 518.795 171.934C508.611 155.337 494.701 142.676 479.119 131.784C469.334 129.092 459.549 128.175 449.764 128.211C439.978 128.247 430.187 129.116 420.402 131.784C404.826 142.646 390.916 155.307 380.726 171.934Z" stroke="#1D2474" stroke-linecap="round" stroke-linejoin="round"/>
<path fill-rule="evenodd" clip-rule="evenodd" d="M445.835 197.118L445.127 198.136C444.299 197.636 443.573 197.398 442.746 196.898L440.669 197.553L421.795 184.362C417.688 181.492 421.241 177.341 425.057 179.961L443.805 192.866C443.847 193.843 443.883 194.825 443.925 195.802C444.597 196.266 445.174 196.654 445.835 197.118Z" stroke="#1D2474" stroke-linecap="round" stroke-linejoin="round"/>
<path fill-rule="evenodd" clip-rule="evenodd" d="M453.971 197.935L455.995 196.368L458.132 196.779C463.881 191.688 480.154 176.454 485.868 171.368C489.618 168.039 485.737 164.472 482.231 168.039C476.511 173.024 460.209 187.495 454.477 192.456L454.691 195.386L453.114 196.791C452.215 195.91 451.016 195.402 449.757 195.371C448.499 195.339 447.276 195.786 446.334 196.62C445.391 197.455 444.8 198.616 444.679 199.869C444.558 201.123 444.917 202.375 445.682 203.375C446.447 204.375 447.563 205.047 448.804 205.257C450.045 205.467 451.319 205.198 452.37 204.505C453.421 203.812 454.17 202.747 454.467 201.523C454.765 200.3 454.587 199.009 453.971 197.911V197.935Z" stroke="#1D2474" stroke-linecap="round" stroke-linejoin="round"/>
<path d="M490.052 196.196H480.184V204.147H490.052V196.196Z" stroke="#1D2474" stroke-linecap="round" stroke-linejoin="round"/>
<path d="M476.554 153.938L469.816 165.616" stroke="#1D2474" stroke-linecap="round" stroke-linejoin="round"/>
<path d="M452.216 146.821V160.25" stroke="#1D2474" stroke-linecap="round" stroke-linejoin="round"/>
<path d="M447.126 146.827V160.25" stroke="#1D2474" stroke-linecap="round" stroke-linejoin="round"/>
<path d="M422.974 153.938L429.711 165.616" stroke="#1D2474" stroke-linecap="round" stroke-linejoin="round"/>
<path d="M403.362 173.56L415.034 180.301" stroke="#1D2474" stroke-linecap="round" stroke-linejoin="round"/>
<path d="M396.189 200.364H409.67" stroke="#1D2474" stroke-linecap="round" stroke-linejoin="round"/>
<path d="M415.034 220.428L403.362 227.169" stroke="#1D2474" stroke-linecap="round" stroke-linejoin="round"/>
<path d="M429.711 235.113L422.974 246.791" stroke="#1D2474" stroke-linecap="round" stroke-linejoin="round"/>
<path d="M449.764 240.484V253.967" stroke="#1D2474" stroke-linecap="round" stroke-linejoin="round"/>
<path d="M469.816 235.113L476.554 246.791" stroke="#1D2474" stroke-linecap="round" stroke-linejoin="round"/>
<path d="M484.493 220.428L496.165 227.169" stroke="#1D2474" stroke-linecap="round" stroke-linejoin="round"/>
<path d="M495.213 200.364H503.337" stroke="#1D2474" stroke-linecap="round" stroke-linejoin="round"/>
<path d="M484.493 180.301L496.165 173.56" stroke="#1D2474" stroke-linecap="round" stroke-linejoin="round"/>
<path d="M432.818 96.5635H420.003C419.217 96.5635 418.581 97.2007 418.581 97.9868V111.755C418.581 112.541 419.217 113.179 420.003 113.179H432.818C433.603 113.179 434.24 112.541 434.24 111.755V97.9868C434.24 97.2007 433.603 96.5635 432.818 96.5635Z" stroke="#1D2474" stroke-linecap="round" stroke-linejoin="round"/>
<path d="M479.798 96.5635H466.983C466.197 96.5635 465.561 97.2007 465.561 97.9868V111.755C465.561 112.541 466.197 113.179 466.983 113.179H479.798C480.583 113.179 481.22 112.541 481.22 111.755V97.9868C481.22 97.2007 480.583 96.5635 479.798 96.5635Z" stroke="#1D2474" stroke-linecap="round" stroke-linejoin="round"/>
<path d="M477.839 80.1826H466.447C465.958 80.1826 465.561 80.5799 465.561 81.0699V89.0261C465.561 89.5162 465.958 89.9135 466.447 89.9135H477.839C478.329 89.9135 478.726 89.5162 478.726 89.0261V81.0699C478.726 80.5799 478.329 80.1826 477.839 80.1826Z" stroke="#1D2474" stroke-linecap="round" stroke-linejoin="round"/>
<path d="M433.354 80.1826H421.962C421.472 80.1826 421.075 80.5799 421.075 81.0699V89.0261C421.075 89.5162 421.472 89.9135 421.962 89.9135H433.354C433.843 89.9135 434.24 89.5162 434.24 89.0261V81.0699C434.24 80.5799 433.843 80.1826 433.354 80.1826Z" stroke="#1D2474" stroke-linecap="round" stroke-linejoin="round"/>
<path d="M476.691 72.2314H465.953C465.736 72.2314 465.561 72.4074 465.561 72.6245V76.1678C465.561 76.3849 465.736 76.5609 465.953 76.5609H476.691C476.908 76.5609 477.084 76.3849 477.084 76.1678V72.6245C477.084 72.4074 476.908 72.2314 476.691 72.2314Z" stroke="#1D2474" stroke-linecap="round" stroke-linejoin="round"/>
<path d="M433.848 72.2314H423.111C422.894 72.2314 422.718 72.4074 422.718 72.6245V76.1678C422.718 76.3849 422.894 76.5609 423.111 76.5609H433.848C434.065 76.5609 434.241 76.3849 434.241 76.1678V72.6245C434.241 72.4074 434.065 72.2314 433.848 72.2314Z" stroke="#1D2474" stroke-linecap="round" stroke-linejoin="round"/>
<path d="M483.839 304.689H496.993V304.618V304.493C497.148 303.832 497.297 303.171 497.451 302.504V302.432L497.481 302.289V302.212L497.945 300.235L497.993 300.032H483.762" stroke="#1D2474" stroke-linecap="round" stroke-linejoin="round"/>
<path d="M434.289 304.683H466.066" stroke="#1D2474" stroke-linecap="round" stroke-linejoin="round"/>
<path d="M416.521 300.032H401.463L401.511 300.235C401.671 300.896 401.82 301.557 401.975 302.212V302.289L402.011 302.432V302.504C402.159 303.171 402.314 303.832 402.463 304.493L402.493 304.618V304.689H416.474" stroke="#1D2474" stroke-linecap="round" stroke-linejoin="round"/>
<path d="M466.066 300.032H434.289" stroke="#1D2474" stroke-linecap="round" stroke-linejoin="round"/>
<path d="M432.675 288.568H418.129C417.238 288.568 416.516 289.291 416.516 290.182V305.815C416.516 306.706 417.238 307.429 418.129 307.429H432.675C433.566 307.429 434.288 306.706 434.288 305.815V290.182C434.288 289.291 433.566 288.568 432.675 288.568Z" stroke="#1D2474" stroke-linecap="round" stroke-linejoin="round"/>
<path d="M482.226 290.437H467.679C466.789 290.437 466.066 291.159 466.066 292.05V307.683C466.066 308.574 466.789 309.297 467.679 309.297H482.226C483.117 309.297 483.839 308.574 483.839 307.683V292.05C483.839 291.159 483.117 290.437 482.226 290.437Z" stroke="#1D2474" stroke-linecap="round" stroke-linejoin="round"/>
<path d="M479.756 316.836H467.322C466.629 316.836 466.066 317.399 466.066 318.092V329.39C466.066 330.084 466.629 330.646 467.322 330.646H479.756C480.45 330.646 481.012 330.084 481.012 329.39V318.092C481.012 317.399 480.45 316.836 479.756 316.836Z" stroke="#1D2474" stroke-linecap="round" stroke-linejoin="round"/>
<path fill-rule="evenodd" clip-rule="evenodd" d="M434.295 319.624V318.105C434.293 317.772 434.16 317.454 433.925 317.218C433.69 316.983 433.371 316.85 433.039 316.849H420.605C420.272 316.85 419.954 316.983 419.719 317.218C419.483 317.454 419.351 317.772 419.349 318.105V329.42C419.351 329.753 419.483 330.072 419.719 330.307C419.954 330.542 420.272 330.675 420.605 330.677H433.039C433.371 330.675 433.69 330.542 433.925 330.307C434.16 330.072 434.293 329.753 434.295 329.42V319.624Z" stroke="#1D2474" stroke-linecap="round" stroke-linejoin="round"/>
<path d="M478.232 339.687H467.179C466.565 339.687 466.066 340.185 466.066 340.8V350.847C466.066 351.462 466.565 351.96 467.179 351.96H478.232C478.847 351.96 479.345 351.462 479.345 350.847V340.8C479.345 340.185 478.847 339.687 478.232 339.687Z" stroke="#1D2474" stroke-linecap="round" stroke-linejoin="round"/>
<path d="M433.176 339.687H422.123C421.508 339.687 421.01 340.185 421.01 340.8V350.847C421.01 351.462 421.508 351.96 422.123 351.96H433.176C433.79 351.96 434.289 351.462 434.289 350.847V340.8C434.289 340.185 433.79 339.687 433.176 339.687Z" stroke="#1D2474" stroke-linecap="round" stroke-linejoin="round"/>
<path d="M475.941 361.029H467.054C466.509 361.029 466.066 361.472 466.066 362.018V371.969C466.066 372.515 466.509 372.958 467.054 372.958H475.941C476.487 372.958 476.929 372.515 476.929 371.969V362.018C476.929 361.472 476.487 361.029 475.941 361.029Z" stroke="#1D2474" stroke-linecap="round" stroke-linejoin="round"/>
<path d="M433.301 361.029H424.414C423.869 361.029 423.426 361.472 423.426 362.018V371.969C423.426 372.515 423.869 372.958 424.414 372.958H433.301C433.846 372.958 434.289 372.515 434.289 371.969V362.018C434.289 361.472 433.846 361.029 433.301 361.029Z" stroke="#1D2474" stroke-linecap="round" stroke-linejoin="round"/>
<path fill-rule="evenodd" clip-rule="evenodd" d="M420.408 131.755L418.777 127.949C402.332 139.449 387.648 152.812 376.899 170.327C371.959 191.021 372.786 211.12 377.018 230.862L377.161 231.088L377.619 230.862L380.845 229.254C376.833 210.548 376.048 191.509 380.732 171.905C381.089 171.309 381.446 170.749 381.809 170.184C391.886 154.426 405.367 142.272 420.408 131.755Z" stroke="#1D2474" stroke-linecap="round" stroke-linejoin="round"/>
<path fill-rule="evenodd" clip-rule="evenodd" d="M418.778 127.949L420.409 131.754C430.194 129.063 439.979 128.145 449.77 128.181C459.561 128.217 469.34 129.086 479.125 131.754L480.756 127.949C470.429 125.108 460.097 124.143 449.77 124.149C439.443 124.155 429.111 125.108 418.778 127.949Z" stroke="#1D2474" stroke-linecap="round" stroke-linejoin="round"/>
<path fill-rule="evenodd" clip-rule="evenodd" d="M479.125 131.753C492.898 141.383 505.355 152.388 515.099 166.294C516.384 168.124 517.618 170.004 518.801 171.933L522.634 170.355C521.757 168.926 520.854 167.524 519.926 166.151C509.48 150.667 495.862 138.542 480.756 127.978L479.125 131.753Z" stroke="#1D2474" stroke-linecap="round" stroke-linejoin="round"/>
<path fill-rule="evenodd" clip-rule="evenodd" d="M518.813 171.935C523.497 191.539 522.711 210.578 518.7 229.283L521.194 230.891L522.122 231.487L522.497 230.891C524.022 223.866 525.066 216.745 525.622 209.578C526.104 203.291 526.134 196.978 525.711 190.688C525.248 183.836 524.213 177.035 522.616 170.356L518.813 171.935Z" stroke="#1D2474" stroke-linecap="round" stroke-linejoin="round"/>
<path fill-rule="evenodd" clip-rule="evenodd" d="M517.664 230.891C507.141 247.066 494.106 259.107 479.69 268.868L481.351 272.673C496.891 262.144 510.914 249.114 522.14 231.487L521.211 230.891L518.687 229.283C518.348 229.795 518.009 230.331 517.664 230.891Z" stroke="#1D2474" stroke-linecap="round" stroke-linejoin="round"/>
<path fill-rule="evenodd" clip-rule="evenodd" d="M449.77 272.441C438.824 272.346 428.688 271.631 419.849 268.868C405.428 259.107 392.393 247.066 381.876 230.891C381.53 230.361 381.185 229.825 380.846 229.283L377.62 230.891L377.162 231.117C388.429 248.93 402.535 262.085 418.189 272.673C427.521 275.621 438.217 276.371 449.77 276.472C461.317 276.371 472.019 275.621 481.351 272.673L479.691 268.868C470.846 271.631 460.71 272.346 449.77 272.441Z" stroke="#1D2474" stroke-linecap="round" stroke-linejoin="round"/>
<path d="M419.843 268.838L418.183 272.643" stroke="#1D2474" stroke-linecap="round" stroke-linejoin="round"/>
<path d="M376.899 170.32L380.732 171.898" stroke="#1D2474" stroke-linecap="round" stroke-linejoin="round"/>
<path d="M481.47 319.617H493.481" stroke="#1D2474" stroke-linecap="round" stroke-linejoin="round"/>
<path d="M434.788 319.617H465.483" stroke="#1D2474" stroke-linecap="round" stroke-linejoin="round"/>
<path d="M406.076 319.617H419.343" stroke="#1D2474" stroke-linecap="round" stroke-linejoin="round"/>
<path d="M481.47 323.411H493.082" stroke="#1D2474" stroke-linecap="round" stroke-linejoin="round"/>
<path d="M434.788 323.411H465.483" stroke="#1D2474" stroke-linecap="round" stroke-linejoin="round"/>
<path d="M479.345 343.927L489.737 343.921" stroke="#1D2474" stroke-linecap="round" stroke-linejoin="round"/>
<path d="M434.788 343.928H465.483" stroke="#1D2474" stroke-linecap="round" stroke-linejoin="round"/>
<path d="M409.79 343.921L421.009 343.927" stroke="#1D2474" stroke-linecap="round" stroke-linejoin="round"/>
<path d="M479.345 346.435L489.368 346.429" stroke="#1D2474" stroke-linecap="round" stroke-linejoin="round"/>
<path d="M410.498 346.429L421.009 346.435" stroke="#1D2474" stroke-linecap="round" stroke-linejoin="round"/>
<path d="M434.788 346.433H465.483" stroke="#1D2474" stroke-linecap="round" stroke-linejoin="round"/>
<path d="M477.41 368.469L486.41 368.457" stroke="#1D2474" stroke-linecap="round" stroke-linejoin="round"/>
<path d="M434.788 368.469H465.483" stroke="#1D2474" stroke-linecap="round" stroke-linejoin="round"/>
<path d="M413.373 368.457L423.158 368.469" stroke="#1D2474" stroke-linecap="round" stroke-linejoin="round"/>
<path d="M477.184 370.708L486.136 370.696" stroke="#1D2474" stroke-linecap="round" stroke-linejoin="round"/>
<path d="M413.802 370.696L423.426 370.702" stroke="#1D2474" stroke-linecap="round" stroke-linejoin="round"/>
<path d="M434.788 370.701H465.483" stroke="#1D2474" stroke-linecap="round" stroke-linejoin="round"/>
<path d="M406.79 323.411H419.343" stroke="#1D2474" stroke-linecap="round" stroke-linejoin="round"/>
<path d="M401.058 103.984H418.58" stroke="#1D2474" stroke-linecap="round" stroke-linejoin="round"/>
<path d="M402.309 99.8818H418.581" stroke="#1D2474" stroke-linecap="round" stroke-linejoin="round"/>
<path d="M434.24 104.461L465.56 103.984" stroke="#1D2474" stroke-linecap="round" stroke-linejoin="round"/>
<path d="M434.461 99.8818H464.995" stroke="#1D2474" stroke-linecap="round" stroke-linejoin="round"/>
<path d="M481.22 103.984H498.279" stroke="#1D2474" stroke-linecap="round" stroke-linejoin="round"/>
<path d="M482.005 99.8818H497.397" stroke="#1D2474" stroke-linecap="round" stroke-linejoin="round"/>
<path d="M406.874 85.8203H421.075" stroke="#1D2474" stroke-linecap="round" stroke-linejoin="round"/>
<path d="M407.272 83.7666H421.075" stroke="#1D2474" stroke-linecap="round" stroke-linejoin="round"/>
<path d="M434.24 86.2967L465.56 85.8203" stroke="#1D2474" stroke-linecap="round" stroke-linejoin="round"/>
<path d="M434.461 83.7666H464.995" stroke="#1D2474" stroke-linecap="round" stroke-linejoin="round"/>
<path d="M412.73 72.2314H486.922" stroke="#1D2474" stroke-linecap="round" stroke-linejoin="round"/>
<path d="M434.461 73.7852H465.34" stroke="#1D2474" stroke-linecap="round" stroke-linejoin="round"/>
<path d="M479.19 85.8203H492.993" stroke="#1D2474" stroke-linecap="round" stroke-linejoin="round"/>
<path d="M479.19 83.7666H492.315" stroke="#1D2474" stroke-linecap="round" stroke-linejoin="round"/>
<path d="M422.718 73.6309H411.91" stroke="#1D2474" stroke-linecap="round" stroke-linejoin="round"/>
<path d="M487.898 73.6309H477.083" stroke="#1D2474" stroke-linecap="round" stroke-linejoin="round"/>
<path d="M314.617 477.21H8.51758V88.1074H46.8663" stroke="#1D2474" stroke-linecap="round" stroke-linejoin="round"/>
<path d="M341.889 477.21H647.983V88.1074H609.634" stroke="#1D2474" stroke-linecap="round" stroke-linejoin="round"/>
<path d="M95.655 29.4727H68.9722V421.422C68.9722 421.422 275.179 433.565 328.48 484.703" stroke="#1D2474" stroke-linecap="round" stroke-linejoin="round"/>
<path fill-rule="evenodd" clip-rule="evenodd" d="M207.403 135.792L232.473 186.608L288.523 194.761L247.966 234.315L257.537 290.169L207.403 263.8L157.276 290.169L166.847 234.315L126.29 194.761L182.34 186.608L207.403 135.792Z" stroke="#1D2474" stroke-miterlimit="10"/>
</g>
<defs>
<clipPath id="clip0_36:348">
<rect width="657" height="485" fill="white"/>
</clipPath>
</defs>
</svg>
