<svg width="115" height="115" viewBox="0 0 115 115" fill="none" xmlns="http://www.w3.org/2000/svg">
<path d="M34.3974 60.8226C42.0616 60.8226 48.2747 54.6095 48.2747 46.9452C48.2747 39.281 42.0616 33.0679 34.3974 33.0679C26.7331 33.0679 20.52 39.281 20.52 46.9452C20.52 54.6095 26.7331 60.8226 34.3974 60.8226Z" stroke="white" stroke-linecap="round" stroke-linejoin="round"/>
<path d="M114.376 57.5C114.376 88.9118 88.9116 114.376 57.4997 114.376C26.0879 114.376 0.623535 88.9118 0.623535 57.5C0.623535 26.0881 26.0879 0.623779 57.4997 0.623779C88.9116 0.623779 114.376 26.0881 114.376 57.5Z" stroke="white" stroke-linecap="round" stroke-linejoin="round"/>
<path d="M34.3972 64.0733C43.8569 64.0733 51.5254 56.4047 51.5254 46.9451C51.5254 37.4854 43.8569 29.8169 34.3972 29.8169C24.9376 29.8169 17.269 37.4854 17.269 46.9451C17.269 56.4047 24.9376 64.0733 34.3972 64.0733Z" stroke="white" stroke-linecap="round" stroke-linejoin="round"/>
<path d="M51.1317 43.2837H54.2786V50.8871H51.0005" stroke="white" stroke-linecap="round" stroke-linejoin="round"/>
<path d="M27.314 43.7365L34.3975 46.9453L41.1765 42.4937" stroke="white" stroke-linecap="round" stroke-linejoin="round"/>
<path d="M20.52 46.9453H23.2905" stroke="white" stroke-linecap="round" stroke-linejoin="round"/>
<path d="M45.5039 46.9453H48.2769" stroke="white" stroke-linecap="round" stroke-linejoin="round"/>
<path d="M34.397 33.0679V35.8409" stroke="white" stroke-linecap="round" stroke-linejoin="round"/>
<path d="M34.397 58.0518V60.8247" stroke="white" stroke-linecap="round" stroke-linejoin="round"/>
<path d="M21.6636 35.4944L24.3623 26.0613H44.4492L47.133 35.4944" stroke="white" stroke-linecap="round" stroke-linejoin="round"/>
<path d="M26.0386 26.0612V19.0718H42.4116V26.0612" stroke="white" stroke-linecap="round" stroke-linejoin="round"/>
<path d="M21.6636 58.3936L24.3623 67.8267H44.4492L47.133 58.3936" stroke="white" stroke-linecap="round" stroke-linejoin="round"/>
<path d="M26.041 67.8267V74.8136H42.4116V67.8267" stroke="white" stroke-linecap="round" stroke-linejoin="round"/>
<path d="M76.413 82.7713C84.0772 82.7713 90.2903 76.5582 90.2903 68.8939C90.2903 61.2297 84.0772 55.0166 76.413 55.0166C68.7487 55.0166 62.5356 61.2297 62.5356 68.8939C62.5356 76.5582 68.7487 82.7713 76.413 82.7713Z" stroke="white" stroke-linecap="round" stroke-linejoin="round"/>
<path d="M76.4129 86.022C85.8725 86.022 93.5411 78.3534 93.5411 68.8938C93.5411 59.4342 85.8725 51.7656 76.4129 51.7656C66.9532 51.7656 59.2847 59.4342 59.2847 68.8938C59.2847 78.3534 66.9532 86.022 76.4129 86.022Z" stroke="white" stroke-linecap="round" stroke-linejoin="round"/>
<path d="M93.1478 65.2295H96.2947V72.8354H93.0166" stroke="white" stroke-linecap="round" stroke-linejoin="round"/>
<path d="M69.3296 65.6853L76.4131 68.8941L83.1946 64.4399" stroke="white" stroke-linecap="round" stroke-linejoin="round"/>
<path d="M62.5356 68.894H65.3086" stroke="white" stroke-linecap="round" stroke-linejoin="round"/>
<path d="M87.5195 68.894H90.2925" stroke="white" stroke-linecap="round" stroke-linejoin="round"/>
<path d="M76.4131 55.0142V57.7872" stroke="white" stroke-linecap="round" stroke-linejoin="round"/>
<path d="M76.4131 80.001V82.7715" stroke="white" stroke-linecap="round" stroke-linejoin="round"/>
<path d="M63.6792 57.4405L66.3804 48.0073H86.4648L89.1486 57.4405" stroke="white" stroke-linecap="round" stroke-linejoin="round"/>
<path d="M68.0571 48.0075V41.0205H84.4277V48.0075" stroke="white" stroke-linecap="round" stroke-linejoin="round"/>
<path d="M63.6792 80.3398L66.3804 89.773H86.4648L89.1486 80.3398" stroke="white" stroke-linecap="round" stroke-linejoin="round"/>
<path d="M68.0571 89.7734V96.7629H84.4277V89.7734" stroke="white" stroke-linecap="round" stroke-linejoin="round"/>
<path d="M52.0137 23.5902C52.0137 23.5902 65.6954 18.5493 77.5896 30.857" stroke="white" stroke-linecap="round" stroke-linejoin="round"/>
<path d="M78.6049 31.9536C77.882 31.5825 77.1034 31.3316 76.2998 31.2108L77.4536 30.7157L78.0255 29.604C78.0884 30.4137 78.2841 31.2075 78.6049 31.9536Z" fill="white"/>
<path d="M60.5728 92.8978C60.5728 92.8978 45.7175 96.7329 34.5908 82.5684" stroke="white" stroke-linecap="round" stroke-linejoin="round"/>
<path d="M33.6919 81.375C34.3764 81.8197 35.1291 82.1492 35.9202 82.3505L34.7243 82.7219L34.0435 83.7717C34.0582 82.9589 33.9394 82.1493 33.6919 81.375Z" fill="white"/>
</svg>
