<svg width="436" height="311" viewBox="0 0 436 311" fill="none" xmlns="http://www.w3.org/2000/svg">
<g clip-path="url(#clip0_36:3810)">
<path d="M218.092 75.8286L204.054 85.4922L228.227 120.536L242.265 110.873L218.092 75.8286Z" stroke="white" stroke-linecap="round" stroke-linejoin="round"/>
<path d="M204.204 85.7126C203.446 84.6142 201.941 84.3369 200.842 85.0933C199.743 85.8497 199.467 87.3533 200.224 88.4517L224.294 123.346C225.051 124.444 226.556 124.721 227.655 123.965C228.754 123.208 229.03 121.705 228.273 120.606L204.204 85.7126Z" stroke="white" stroke-linecap="round" stroke-linejoin="round"/>
<path fill-rule="evenodd" clip-rule="evenodd" d="M200.15 94.9516C198.442 96.1283 196.195 95.8311 195.132 94.2921L218.218 127.759C217.158 126.211 217.682 124.016 219.39 122.839C221.098 121.662 223.348 121.956 224.408 123.499L201.322 90.0312C202.385 91.5702 201.861 93.7719 200.15 94.9516Z" stroke="white" stroke-linecap="round" stroke-linejoin="round"/>
<path d="M195.66 95.0724C194.342 93.1615 191.723 92.6798 189.81 93.9966C187.897 95.3134 187.415 97.93 188.733 99.8409L211.179 132.381C212.497 134.292 215.116 134.774 217.029 133.457C218.942 132.14 219.424 129.524 218.106 127.613L195.66 95.0724Z" stroke="white" stroke-linecap="round" stroke-linejoin="round"/>
<path d="M189.09 100.354L211.13 132.305C209.645 133.328 207.814 133.719 206.04 133.393C204.266 133.067 202.694 132.05 201.671 130.566L187.349 109.803C186.326 108.32 185.934 106.49 186.261 104.718C186.587 102.946 187.605 101.376 189.09 100.354V100.354Z" stroke="white" stroke-linecap="round" stroke-linejoin="round"/>
<path d="M242.112 110.303C242.87 111.401 244.375 111.679 245.474 110.922C246.573 110.166 246.849 108.662 246.092 107.564L222.022 72.6701C221.265 71.5717 219.76 71.2944 218.661 72.0508C217.562 72.8072 217.285 74.3108 218.043 75.4092L242.112 110.303Z" stroke="white" stroke-linecap="round" stroke-linejoin="round"/>
<path fill-rule="evenodd" clip-rule="evenodd" d="M246.168 101.056C247.879 99.8791 250.124 100.173 251.187 101.715L228.1 68.248C229.163 69.7963 228.636 71.9918 226.929 73.1684C225.221 74.3451 222.973 74.0509 221.91 72.5089L244.997 105.976C243.934 104.462 244.46 102.245 246.168 101.056Z" stroke="white" stroke-linecap="round" stroke-linejoin="round"/>
<path d="M250.658 100.947C251.976 102.858 254.596 103.34 256.509 102.023C258.421 100.706 258.904 98.0895 257.585 96.1786L235.14 63.6382C233.821 61.7273 231.202 61.2457 229.289 62.5624C227.376 63.8792 226.894 66.4958 228.212 68.4068L250.658 100.947Z" stroke="white" stroke-linecap="round" stroke-linejoin="round"/>
<path d="M258.371 97.1049L236.231 65.2867C237.71 64.2597 239.537 63.8616 241.31 64.1802C243.082 64.4987 244.656 65.5077 245.684 66.9852L260.071 87.6615C261.099 89.139 261.498 90.964 261.179 92.7349C260.86 94.5059 259.85 96.0778 258.371 97.1049V97.1049Z" stroke="white" stroke-width="0.998649" stroke-linecap="round" stroke-linejoin="round"/>
<path d="M238.99 110.76L229.684 117.222C228.787 117.845 228.565 119.075 229.188 119.971C229.811 120.866 231.043 121.087 231.94 120.464L241.246 114.003C242.143 113.38 242.365 112.149 241.742 111.253C241.119 110.358 239.887 110.137 238.99 110.76Z" stroke="white" stroke-width="0.998649" stroke-linecap="round" stroke-linejoin="round"/>
<path d="M246.59 139.823C246.59 139.823 238.057 126.818 232.071 126.369C226.086 125.92 240.515 116.822 240.515 116.822" stroke="white" stroke-linecap="round" stroke-linejoin="round"/>
<path d="M255.13 133.943C255.13 133.943 245.995 121.343 247.709 115.609C249.423 109.874 235.775 120.092 235.775 120.092" stroke="white" stroke-linecap="round" stroke-linejoin="round"/>
<path d="M255.82 133.494L246.085 140.195C245.428 140.647 245.262 141.546 245.715 142.202L245.717 142.204C246.17 142.861 247.069 143.026 247.726 142.574L257.461 135.873C258.118 135.42 258.283 134.522 257.83 133.866L257.829 133.863C257.376 133.207 256.477 133.042 255.82 133.494Z" stroke="white" stroke-linecap="round" stroke-linejoin="round"/>
<path d="M261.45 161.27L248.273 142.171L256.956 136.191L275.207 162.645" stroke="white" stroke-linecap="round" stroke-linejoin="round"/>
<path d="M260.898 160.471C252.405 167.853 241.63 186.218 241.63 186.218C241.63 186.218 250.173 195.214 262.587 178.003" stroke="white" stroke-linecap="round" stroke-linejoin="round"/>
<path d="M268.896 153.499C268.896 153.499 273.254 150.755 277.401 151.87C285.401 154.022 320.326 156.601 322.827 157.893C325.329 159.184 353.037 205.465 359.224 213.813C365.411 222.161 368.213 221.845 368.213 221.845" stroke="white" stroke-linecap="round" stroke-linejoin="round"/>
<path d="M243.184 187.365C243.184 187.365 249.259 183.959 250.313 179.884C251.367 175.809 248.927 174.861 248.927 174.861" stroke="white" stroke-linecap="round" stroke-linejoin="round"/>
<path d="M283.659 169.209C283.728 168.775 304.539 176.566 308.231 175.876C308.231 175.876 309.867 187.868 311.33 189.534C309.707 190.116 307.959 190.256 306.263 189.941C304.568 189.626 302.987 188.867 301.681 187.741C296.97 183.834 283.585 168.435 279.955 165.756C276.326 163.078 266.89 156.662 261.19 161.926C255.542 167.143 261.537 175.29 262.913 177.006C264.289 178.721 277.352 190.652 282.615 196.111C287.878 201.571 290.435 203.571 294.527 212.294C298.619 221.017 310.218 234.948 324.904 240.11C339.59 245.272 344.832 251.146 344.832 251.146" stroke="white" stroke-linecap="round" stroke-linejoin="round"/>
<path fill-rule="evenodd" clip-rule="evenodd" d="M273.272 164.569C276.468 168.697 277.944 173.893 274.583 176.491C271.223 179.089 265.405 177.599 262.209 173.471C259.014 169.344 258.133 164.885 261.18 161.931C263.973 159.243 270.083 160.441 273.272 164.569Z" stroke="white" stroke-linecap="round" stroke-linejoin="round"/>
<path d="M264.953 179.936C264.953 179.936 257.802 192.662 257.154 198.905C256.506 205.147 260.808 215.992 261.146 219.004C261.484 222.017 263.654 221.042 264.764 220.599C265.873 220.156 270.73 215.865 268.452 207.972C268.452 207.972 268.948 202.537 268.294 200.521C268.294 200.521 273.464 194.108 274.949 188.612" stroke="white" stroke-linecap="round" stroke-linejoin="round"/>
<path d="M268.486 215.628C268.775 215.913 274.478 232.083 274.934 234.659C275.411 237.325 281.471 235.439 282.094 231.11C282.379 229.122 282.178 223.128 279.487 218.904C279.487 218.904 279.853 206.094 277.761 203.604C277.761 203.604 281.958 196.692 281.917 195.404" stroke="white" stroke-linecap="round" stroke-linejoin="round"/>
<path d="M258.704 208.861C261.069 209.939 262.305 212.546 263.096 215.023C263.716 216.949 264.184 218.972 263.979 220.984" stroke="white" stroke-linecap="round" stroke-linejoin="round"/>
<path d="M271.626 224.211C272.616 224.782 273.475 225.553 274.15 226.475C276.247 229.122 277.596 232.283 278.055 235.628" stroke="white" stroke-linecap="round" stroke-linejoin="round"/>
<path d="M282.261 227.52C282.571 227.52 288.101 236.137 288.721 238.119C289.341 240.101 294.356 237.147 294.61 233.992C294.865 230.836 294.744 223.773 291.033 220.057C291.033 220.057 291.625 210.458 289.533 207.925L290.463 204.986" stroke="white" stroke-linecap="round" stroke-linejoin="round"/>
<path d="M283.709 229.48C283.821 229.303 284.087 229.35 284.282 229.421C287.875 230.721 290.993 234.131 292.208 237.748" stroke="white" stroke-linecap="round" stroke-linejoin="round"/>
<path d="M291.086 212.379C291.086 212.379 308.218 235.021 312.39 240.948C316.562 246.874 326.94 259.734 331.413 259.753C335.886 259.771 333.102 254.43 332.402 252.299C331.472 249.466 324.916 240.115 324.916 240.115" stroke="white" stroke-linecap="round" stroke-linejoin="round"/>
<path d="M435.845 256.931L381.501 221.43C371.309 226.279 341.1 269.026 339.77 269.835C339.77 269.835 386.975 310.709 403.875 310.845" stroke="white" stroke-linecap="round" stroke-linejoin="round"/>
<path d="M380.227 222.161C380.227 222.161 372.692 218.377 371.359 217.959C371.359 217.959 340.75 255.789 338.167 261.205L342.467 266.5" stroke="white" stroke-linecap="round" stroke-linejoin="round"/>
<path d="M209.084 263.004C209.084 270.745 162.313 277 104.624 277C46.9359 277 0.164551 270.733 0.164551 263.004" stroke="white" stroke-linecap="round" stroke-linejoin="round"/>
<path d="M194.605 250.949C203.805 253.036 209.084 255.467 209.084 258.071C209.084 265.813 162.313 272.068 104.624 272.068C46.9359 272.068 0.164551 265.8 0.164551 258.071C0.164551 255.476 5.43404 253.046 14.6432 250.949" stroke="white" stroke-linecap="round" stroke-linejoin="round"/>
<path d="M209.083 258.061V263.009" stroke="white" stroke-linecap="round" stroke-linejoin="round"/>
<path d="M0.154785 258.061V263.009" stroke="white" stroke-linecap="round" stroke-linejoin="round"/>
<path d="M136.923 207.786C170.266 209.709 193.905 214.527 193.905 220.172C193.905 227.505 153.919 233.45 104.618 233.45C55.3172 233.45 15.3467 227.505 15.3467 220.172C15.3467 214.422 39.9396 209.523 74.3432 207.678" stroke="white" stroke-linecap="round" stroke-linejoin="round"/>
<path d="M193.92 252.457C193.92 259.79 153.934 265.735 104.634 265.735C55.3329 265.735 15.3623 259.79 15.3623 252.457" stroke="white" stroke-linecap="round" stroke-linejoin="round"/>
<path d="M193.904 220.166V252.454" stroke="white" stroke-linecap="round" stroke-linejoin="round"/>
<path d="M15.334 220.166V252.454" stroke="white" stroke-linecap="round" stroke-linejoin="round"/>
<path d="M58.7983 146.265C60.8627 151.325 63.2402 160.064 64.5173 168.492C65.7262 176.494 65.5774 182.461 69.9758 189.762C70.121 194.267 71.4417 198.655 73.8071 202.492C73.649 206.422 74.8951 210.642 76.8665 214.878C77.1113 220.638 80.5179 220.626 84.0144 220.616C100.238 220.573 111.912 220.526 128.139 220.483C131.79 220.483 135.026 219.028 134.648 213.887C136.313 210.496 137.398 206.851 137.859 203.102C139.719 198.238 140.649 193.587 140.54 189.168C142.508 185.684 143.848 181.881 144.499 177.934C144.604 173.013 145.76 171.273 145.903 168.644C146.346 160.342 150.084 152.096 152.57 144.801" stroke="white" stroke-linecap="round" stroke-linejoin="round"/>
<path d="M171.602 97.3013L173.67 97.1465V99.506C174.628 100.039 175.356 102.835 175.356 106.204C175.356 109.573 174.628 112.372 173.67 112.905V115.249L171.24 115.001" stroke="white" stroke-linecap="round" stroke-linejoin="round"/>
<path d="M149.879 60.6546C147.482 54.6632 146.06 48.327 145.667 41.8866C145.59 40.648 145.146 39.8057 144.464 39.2421L144.343 34.4301C143.712 31.2065 142.448 28.1397 140.624 25.4068C140.723 21.8613 139.843 18.1269 138.094 14.2222C137.654 11.3021 136.972 8.39759 135.326 5.55188C135.689 1.42111 133.157 0.259913 129.71 0.25372L83.8002 0.148439C80.5052 0.148439 77.2908 0.129858 77.0615 4.75298C75.2016 8.15916 74.3709 11.5375 74.5166 14.6928C72.3258 17.6663 71.069 21.223 70.9055 24.9114C67.3005 30.0083 66.0018 34.972 66.5659 39.8274C65.8189 39.9605 65.8995 41.1527 65.7507 41.9949C64.5418 48.7763 63.522 55.2264 61.563 59.2829" stroke="white" stroke-linecap="round" stroke-linejoin="round"/>
<path d="M53.9283 140.276C50.717 136.773 48.0389 133.463 44.1147 130.738C42.2549 129.444 40.7856 129.58 40.4354 126.772C39.3567 112.667 38.932 99.6522 40.3765 85.4546C40.5686 82.1846 42.01 82.6925 44.0527 81.3393C48.7766 78.2118 50.9185 74.948 52.8465 70.5293" stroke="white" stroke-linecap="round" stroke-linejoin="round"/>
<path fill-rule="evenodd" clip-rule="evenodd" d="M74.8451 147.282C70.0449 143.672 65.8088 139.368 62.2759 134.512C53.8044 115.487 53.9625 96.3259 62.0682 76.0343C65.5537 70.1404 70.1671 64.9899 75.6448 60.8768C94.0105 54.755 116.077 54.8014 134.44 60.9233C139.976 65.0664 145.078 69.5936 148.649 75.5482C156.758 95.8428 156.321 115.493 147.849 134.512C144.316 139.368 140.08 143.672 135.28 147.282C117.813 155.439 92.3119 155.439 74.8451 147.282Z" stroke="white" stroke-linecap="round" stroke-linejoin="round"/>
<path d="M102.296 102.96C101.692 102.616 100.97 102.208 100.545 101.96L99.0323 102.458L85.0837 93.0263C82.046 90.9702 84.6002 87.8984 87.424 89.7749L101.286 98.9995L101.407 101.145C101.738 101.371 102.337 101.765 102.833 102.099" stroke="white" stroke-linecap="round" stroke-linejoin="round"/>
<path d="M105.51 108.051H105.681C106.316 108.043 106.939 107.869 107.486 107.545C108.034 107.222 108.487 106.761 108.8 106.209C109.114 105.656 109.277 105.031 109.273 104.396C109.27 103.761 109.1 103.138 108.78 102.589L110.247 101.421L111.815 101.7C115.962 97.9192 129.313 85.1336 133.463 81.3528C136.172 78.8756 133.29 76.3147 130.763 78.9592C126.632 82.675 113.219 94.8908 109.09 98.5974C109.152 99.3127 109.217 100.025 109.279 100.74L108.142 101.781C107.837 101.494 107.486 101.26 107.103 101.09" stroke="white" stroke-linecap="round" stroke-linejoin="round"/>
<path d="M105.361 100.795C104.526 100.855 103.737 101.202 103.128 101.776C102.519 102.35 102.126 103.117 102.017 103.946C101.908 104.776 102.088 105.618 102.528 106.33C102.968 107.042 103.64 107.581 104.432 107.855" stroke="white" stroke-linecap="round" stroke-linejoin="round"/>
<path d="M106.434 103.953L109.494 90.6224L108.493 89.4023L106.964 90.2167L104.959 103.532" stroke="white" stroke-linecap="round" stroke-linejoin="round"/>
<path d="M104.76 105.195C104.722 105.951 104.639 106.704 104.512 107.45L98.2666 142.97L98.7316 143.041L105.467 107.682C105.777 106.065 105.6 107.01 105.969 105.403" stroke="white" stroke-linecap="round" stroke-linejoin="round"/>
<path d="M106.065 105.35C106.293 105.209 106.457 104.985 106.525 104.726C106.592 104.467 106.558 104.192 106.428 103.957" stroke="white" stroke-linecap="round" stroke-linejoin="round"/>
<path d="M106.428 103.957C106.34 103.794 106.21 103.657 106.052 103.561C105.894 103.464 105.713 103.411 105.527 103.407C105.342 103.402 105.159 103.447 104.996 103.537C104.834 103.626 104.698 103.757 104.602 103.916C104.507 104.075 104.455 104.256 104.453 104.441C104.45 104.627 104.497 104.809 104.588 104.971C104.679 105.132 104.811 105.267 104.971 105.361C105.131 105.455 105.313 105.505 105.498 105.506C105.695 105.506 105.887 105.45 106.053 105.345" stroke="white" stroke-linecap="round" stroke-linejoin="round"/>
<path d="M156.135 140.277C159.346 136.775 162.74 133.464 166.655 130.739C168.515 129.445 169.984 129.581 170.331 126.773L171.233 114.987C170.533 113.881 169.83 112.778 169.126 111.677C167.182 108.999 166.252 106.103 167.201 102.778C167.864 100.325 169.085 98.3095 171.596 97.3031C171.193 93.3561 170.791 89.407 170.39 85.4558C170.198 82.1859 168.76 82.6937 166.714 81.3405C162.441 78.5493 159.096 74.5514 157.105 69.8555" stroke="white" stroke-linecap="round" stroke-linejoin="round"/>
<path d="M123.762 32.7734H87.4613C86.3468 32.7734 85.4434 33.676 85.4434 34.7893V39.0873C85.4434 40.2006 86.3468 41.1031 87.4613 41.1031H123.762C124.876 41.1031 125.78 40.2006 125.78 39.0873V34.7893C125.78 33.676 124.876 32.7734 123.762 32.7734Z" stroke="white" stroke-linecap="round" stroke-linejoin="round"/>
<path d="M121.837 21.6172H89.3892C88.6565 21.6172 88.0625 22.2106 88.0625 22.9425V25.7634C88.0625 26.4954 88.6565 27.0888 89.3892 27.0888H121.837C122.569 27.0888 123.163 26.4954 123.163 25.7634V22.9425C123.163 22.2106 122.569 21.6172 121.837 21.6172Z" stroke="white" stroke-linecap="round" stroke-linejoin="round"/>
<path d="M120.634 11.5723H90.5947C89.862 11.5723 89.2681 12.1656 89.2681 12.8976V15.7185C89.2681 16.4505 89.862 17.0438 90.5947 17.0438H120.634C121.367 17.0438 121.961 16.4505 121.961 15.7185V12.8976C121.961 12.1656 121.367 11.5723 120.634 11.5723Z" stroke="white" stroke-linecap="round" stroke-linejoin="round"/>
<path d="M119.691 3.39258H91.5338C91.0802 3.39258 90.7124 3.75996 90.7124 4.21316V5.96889C90.7124 6.42209 91.0802 6.78947 91.5338 6.78947H119.691C120.145 6.78947 120.513 6.42209 120.513 5.96889V4.21316C120.513 3.75996 120.145 3.39258 119.691 3.39258Z" stroke="white" stroke-linecap="round" stroke-linejoin="round"/>
<path d="M88.1553 172.43H123.058C123.724 172.43 124.362 172.694 124.833 173.164C125.304 173.635 125.569 174.273 125.569 174.938V180.292C125.569 180.957 125.304 181.595 124.833 182.065C124.362 182.536 123.724 182.8 123.058 182.8H88.1553C87.4894 182.8 86.8508 182.536 86.3799 182.065C85.9091 181.595 85.6446 180.957 85.6446 180.292V174.953C85.6429 174.623 85.7067 174.295 85.8321 173.989C85.9575 173.683 86.1421 173.405 86.3754 173.171C86.6086 172.936 86.8859 172.75 87.1914 172.623C87.4968 172.496 87.8244 172.43 88.1553 172.43V172.43Z" stroke="white" stroke-linecap="round" stroke-linejoin="round"/>
<path d="M89.4915 186.705H121.728C122.166 186.705 122.585 186.879 122.894 187.188C123.204 187.497 123.377 187.916 123.377 188.352V191.87C123.377 192.308 123.203 192.728 122.893 193.037C122.584 193.347 122.163 193.521 121.725 193.521H89.4884C89.051 193.521 88.6316 193.347 88.3223 193.038C88.0131 192.729 87.8394 192.31 87.8394 191.873V188.352C87.8402 187.915 88.0146 187.496 88.3243 187.187C88.6341 186.879 89.0539 186.705 89.4915 186.705Z" stroke="white" stroke-linecap="round" stroke-linejoin="round"/>
<path d="M90.9046 198.779H120.305C120.743 198.779 121.164 198.953 121.473 199.263C121.783 199.572 121.957 199.992 121.957 200.43V203.947C121.957 204.164 121.915 204.378 121.832 204.578C121.749 204.778 121.627 204.959 121.474 205.112C121.321 205.265 121.139 205.387 120.939 205.469C120.739 205.552 120.525 205.595 120.308 205.595H90.9046C90.6876 205.595 90.4728 205.552 90.2723 205.469C90.0719 205.386 89.8898 205.265 89.7363 205.111C89.5829 204.958 89.4612 204.776 89.3782 204.576C89.2952 204.376 89.2524 204.161 89.2524 203.944V200.43C89.252 200.213 89.2945 199.998 89.3774 199.798C89.4603 199.597 89.5819 199.415 89.7354 199.262C89.8889 199.108 90.0712 198.987 90.2718 198.904C90.4725 198.821 90.6875 198.779 90.9046 198.779Z" stroke="white" stroke-linecap="round" stroke-linejoin="round"/>
<path d="M119.425 209.805H91.7853C91.2186 209.805 90.7593 210.264 90.7593 210.83V213.01C90.7593 213.576 91.2186 214.035 91.7853 214.035H119.425C119.992 214.035 120.451 213.576 120.451 213.01V210.83C120.451 210.264 119.992 209.805 119.425 209.805Z" stroke="white" stroke-linecap="round" stroke-linejoin="round"/>
<path d="M144.232 101.338H136.591C136.357 101.338 136.167 101.528 136.167 101.762V108.07C136.167 108.304 136.357 108.494 136.591 108.494H144.232C144.466 108.494 144.657 108.304 144.657 108.07V101.762C144.657 101.528 144.466 101.338 144.232 101.338Z" stroke="white" stroke-linecap="round" stroke-linejoin="round"/>
<path d="M124.266 69.1254L119.235 77.8301L121.453 79.1089L126.483 70.4042L124.266 69.1254Z" stroke="white" stroke-linecap="round" stroke-linejoin="round"/>
<path d="M108.483 64.4609H105.923V74.4689H108.483V64.4609Z" stroke="white" stroke-linecap="round" stroke-linejoin="round"/>
<path d="M104.686 64.4629H102.125V74.4647H104.686V64.4629Z" stroke="white" stroke-linecap="round" stroke-linejoin="round"/>
<path d="M86.483 69.1274L84.2656 70.4062L89.2964 79.111L91.5138 77.8321L86.483 69.1274Z" stroke="white" stroke-linecap="round" stroke-linejoin="round"/>
<path d="M71.371 83.281L70.0908 85.4961L78.8044 90.5218L80.0846 88.3067L71.371 83.281Z" stroke="white" stroke-linecap="round" stroke-linejoin="round"/>
<path d="M75.4405 103.094H65.3789V105.652H75.4405V103.094Z" stroke="white" stroke-linecap="round" stroke-linejoin="round"/>
<path d="M79.7712 118.898L71.0176 123.924L72.2978 126.149L81.0514 121.123L79.7712 118.898Z" stroke="white" stroke-width="1.00344" stroke-linecap="round" stroke-linejoin="round"/>
<path d="M89.2959 129.629L84.2651 138.334L86.4824 139.613L91.5132 130.908L89.2959 129.629Z" stroke="white" stroke-linecap="round" stroke-linejoin="round"/>
<path d="M106.655 134.273H104.094V144.325H106.655V134.273Z" stroke="white" stroke-linecap="round" stroke-linejoin="round"/>
<path d="M121.452 129.633L119.235 130.912L124.266 139.617L126.483 138.338L121.452 129.633Z" stroke="white" stroke-linecap="round" stroke-linejoin="round"/>
<path d="M131.941 118.219L130.661 120.434L139.374 125.459L140.654 123.244L131.941 118.219Z" stroke="white" stroke-linecap="round" stroke-linejoin="round"/>
<path d="M139.375 83.2888L130.662 88.3145L131.942 90.5295L140.655 85.5038L139.375 83.2888Z" stroke="white" stroke-linecap="round" stroke-linejoin="round"/>
<path fill-rule="evenodd" clip-rule="evenodd" d="M66.9597 130.732C59.4182 113.782 59.0307 96.2803 66.2437 78.2027C68.4135 74.5891 71.2032 71.5452 74.3029 68.8047C75.7598 67.5228 77.2879 66.3058 78.8564 65.1323C95.198 59.6793 114.869 59.6793 131.207 65.1323C136.133 68.8202 140.64 72.8984 143.82 78.2027C151.033 96.2803 150.639 113.782 143.107 130.732C139.965 135.057 136.197 138.892 131.926 142.109C116.384 149.373 93.6915 149.373 78.1496 142.109C76.7878 141.089 75.5077 140.031 74.3091 138.935C71.5923 136.454 69.1322 133.705 66.9659 130.732H66.9597ZM74.3029 55.5361C69.5356 57.0844 60.4225 67.7055 57.8218 72.1304C49.0404 94.5586 49.5147 116.268 58.6898 137.294C62.501 142.648 67.0894 147.404 72.3036 151.408C72.9608 151.717 73.6272 152.027 74.3029 152.315C93.1305 160.409 119.5 160.109 137.76 151.408C142.974 147.404 147.562 142.648 151.374 137.294C160.552 116.268 161.026 94.5617 152.245 72.1304C148.373 65.5565 142.89 60.4906 136.886 55.9201C117.379 49.2842 93.9643 49.1573 74.3029 55.5361Z" stroke="white" stroke-linecap="round" stroke-linejoin="round"/>
<path d="M136.886 55.9199C142.884 60.4966 148.355 65.5563 152.239 72.1365C161.02 94.5646 160.546 116.274 151.368 137.3" stroke="white" stroke-linecap="round" stroke-linejoin="round"/>
<path d="M156.135 140.276C166.252 117.553 166.776 94.091 157.093 69.8545C155.061 66.514 152.64 63.4258 149.88 60.6547C148.392 59.1374 141.436 52.7493 139.84 52.2198C139.273 52.034 138.764 51.873 138.191 51.6934" stroke="white" stroke-linecap="round" stroke-linejoin="round"/>
<path d="M138.191 51.6939C118.142 45.5009 94.6122 45.2438 74.303 50.9755C72.8172 51.3884 71.349 51.8395 69.8983 52.3287C66.9828 54.4779 64.1994 56.8003 61.5632 59.2835C56.6781 63.9593 53.597 67.7649 51.3683 74.0973C43.5478 96.3304 44.3506 117.907 53.3025 138.858C53.5092 139.331 53.7158 139.804 53.9225 140.276" stroke="white" stroke-linecap="round" stroke-linejoin="round"/>
<path d="M58.6898 137.299C49.5147 116.274 49.0404 94.5674 57.8218 72.1361C60.4225 67.7112 69.5356 57.0839 74.3029 55.5356C93.9643 49.1506 117.389 49.2775 136.892 55.9134" stroke="white" stroke-linecap="round" stroke-linejoin="round"/>
<path d="M151.374 137.301C147.563 142.655 142.974 147.411 137.76 151.415C119.5 160.116 93.1245 160.416 74.3031 152.322C73.6274 152.028 72.961 151.728 72.3038 151.415C67.0895 147.411 62.5012 142.655 58.6899 137.301" stroke="white" stroke-linecap="round" stroke-linejoin="round"/>
<path d="M53.9287 140.275C58.1465 146.077 63.206 151.217 68.9405 155.529C70.6681 156.334 72.4556 157.073 74.303 157.746C94.761 165.202 121.986 164.462 141.123 155.529C146.858 151.218 151.918 146.077 156.135 140.275" stroke="white" stroke-linecap="round" stroke-linejoin="round"/>
</g>
<defs>
<clipPath id="clip0_36:3810">
<rect width="436" height="311" fill="white"/>
</clipPath>
</defs>
</svg>
