<svg width="145" height="38" viewBox="0 0 145 38" fill="none" xmlns="http://www.w3.org/2000/svg">
<g clip-path="url(#clip0_124:612)">
<path d="M52.8687 0.518555L55.7048 3.95749V19.5819H59.609V0.518555H55.7048H52.8687Z" fill="#1C2473"/>
<path d="M0 0.518555L2.82909 3.95749V19.5819H6.74031V0.518555H2.82909H0Z" fill="#1C2473"/>
<path d="M25.3978 12.8106L15.1211 0.518555H12.8296H10.0005L12.8296 3.95749V19.5819H16.7337V8.66117L25.7939 19.5819H29.3515V0.518555H25.3978V12.8106Z" fill="#1C2473"/>
<path d="M140.57 12.8106L130.294 0.518555H128.002H125.173L128.002 3.95749V19.5819H131.913V8.66117L140.966 19.5819H144.524V0.518555H140.57V12.8106Z" fill="#1C2473"/>
<path d="M98.304 8.24906H89.357L89.3641 0.518555H85.4033V19.5819H89.357V11.8585H90.1633H98.304V19.5819H102.258V0.518555H98.304V8.24906Z" fill="#1C2473"/>
<path d="M76.6542 15.3258C75.7771 15.7694 74.8071 15.996 73.8251 15.9865C73.0096 15.9906 72.2007 15.8386 71.4416 15.5389C70.7031 15.2524 70.0225 14.8335 69.433 14.3026C68.8292 13.763 68.3499 13.0975 68.0286 12.3526C67.7073 11.6077 67.5518 10.8013 67.5728 9.98971C67.5504 9.179 67.7053 8.37321 68.0267 7.62923C68.3481 6.88524 68.8282 6.22119 69.433 5.68394C70.0222 5.15085 70.7027 4.72956 71.4416 4.44052C72.2007 4.14078 73.0096 3.98886 73.8251 3.99288C74.8077 3.98595 75.7776 4.21493 76.6542 4.66078C77.4542 5.07103 78.16 5.64459 78.7265 6.34472L81.8597 3.82947L81.492 3.42446C80.5359 2.36262 79.3732 1.50899 78.0758 0.916311C76.84 0.329077 75.4984 -0.000167985 74.1322 -0.0514995C72.766 -0.102831 71.4036 0.124823 70.1276 0.617675C68.8515 1.11053 67.6882 1.85833 66.7081 2.81585C65.728 3.77337 64.9515 4.9207 64.4255 6.1884C63.9122 7.38938 63.6475 8.68272 63.6475 9.98971C63.6475 11.2967 63.9122 12.59 64.4255 13.791C64.9188 15.0001 65.6392 16.1026 66.5473 17.0381C68.0413 18.4946 69.9362 19.4669 71.9866 19.8292C74.037 20.1915 76.1485 19.9271 78.0476 19.0702C79.345 18.4775 80.5076 17.6239 81.4637 16.5621L81.8315 16.1571L78.6982 13.6418C78.1381 14.337 77.4425 14.91 76.6542 15.3258Z" fill="#1C2473"/>
<path d="M39.5508 15.5888V12.2422V11.8585H46.7509V8.24906H39.5508V8.12117V4.51881V4.12802H39.6923H49.3678V0.518555H37.5704H35.5972H32.7681L35.5972 3.95749V19.5819H37.5704V19.589H39.8832H50.4004V15.9796H39.5508V15.5888Z" fill="#1C2473"/>
<path d="M112.314 15.5888V12.2422V11.8585H119.507V8.24906H112.314V8.12117V4.51881V4.12802H112.456H122.124V0.518555H110.334H108.361H105.532L108.361 3.95749V19.5819H110.334V19.589H112.64H123.164V15.9796H112.314V15.5888Z" fill="#1C2473"/>
<path d="M8.19039 35.6399H3.67799L2.84341 37.8639H0.169922L4.41356 27.7744H7.44776L11.6914 37.8639H9.0179L8.19039 35.6399ZM7.52556 33.892L6.56366 31.3484C6.29165 30.7677 6.08753 30.1573 5.95541 29.5294H5.91297C5.78085 30.1573 5.57674 30.7677 5.30472 31.3484L4.34283 33.892H7.52556Z" fill="#1C2473"/>
<path d="M17.6111 27.7677V33.7361C17.6111 34.3674 17.8607 34.9728 18.305 35.4192C18.7494 35.8656 19.352 36.1163 19.9804 36.1163C20.6088 36.1163 21.2115 35.8656 21.6558 35.4192C22.1002 34.9728 22.3498 34.3674 22.3498 33.7361V27.7677H24.9243V33.9208C24.9243 36.4645 23.1278 38.1413 19.9734 38.1413C16.8189 38.1413 15.0225 36.4645 15.0225 33.8782V27.7393L17.6111 27.7677Z" fill="#1C2473"/>
<path d="M29.0972 32.8408C29.0972 29.6434 31.3322 27.4834 34.7554 27.4834C37.5844 27.4834 39.5365 28.9044 39.975 31.1781L37.344 31.6471C37.2642 31.0193 36.9457 30.4468 36.4553 30.0495C35.9649 29.6522 35.3406 29.4609 34.7129 29.5155C32.874 29.5155 31.7565 30.7802 31.7565 32.8123C31.7565 34.8444 32.8882 36.095 34.7554 36.095C35.3707 36.1428 35.9816 35.958 36.4683 35.5768C36.955 35.1956 37.2825 34.6456 37.3864 34.0344L39.9892 34.6029C39.3668 36.8055 37.5137 38.1555 34.6988 38.1555C31.1765 38.1413 29.0972 36.0523 29.0972 32.8408Z" fill="#1C2473"/>
<path d="M52.579 29.7997H49.1275V37.8641H46.5531V29.7997H43.1016V27.7676H52.579V29.7997Z" fill="#1C2473"/>
<path d="M56.6807 37.8639V27.7744H59.241V37.8639H56.6807Z" fill="#1C2473"/>
<path d="M63.5835 32.8123C63.5835 29.5581 65.8326 27.4834 69.2841 27.4834C72.7356 27.4834 74.9847 29.5581 74.9847 32.8123C74.9847 36.0665 72.7497 38.1413 69.2841 38.1413C65.8185 38.1413 63.5835 36.0523 63.5835 32.8123ZM72.3112 32.8123C72.3112 30.7518 71.1513 29.4587 69.2841 29.4587C67.4169 29.4587 66.2711 30.7518 66.2711 32.8123C66.2711 34.8729 67.4311 36.166 69.2841 36.166C71.1372 36.166 72.3112 34.8729 72.3112 32.8123Z" fill="#1C2473"/>
<path d="M79.3418 27.7676H82.1709L86.2589 33.5228C86.532 33.9122 86.7688 34.3261 86.9662 34.7591H87.0086C87.0086 34.3328 87.0086 33.8923 87.0086 33.4091V27.7676H89.3568V37.8641H86.6621L82.4184 32.0521C82.1489 31.6704 81.9122 31.2663 81.7112 30.8442C81.7112 31.2847 81.7112 31.7252 81.7112 32.2084V37.8926H79.363L79.3418 27.7676Z" fill="#1C2473"/>
<path d="M102.767 35.9952V37.8639H94.4424V27.7744H102.675V29.636H97.0169V31.8244H102.449V33.6007H97.0169V35.9881L102.767 35.9952Z" fill="#1C2473"/>
<path d="M115.866 35.9952V37.8639H107.527V27.7744H115.767V29.636H110.108V31.8244H115.54V33.6007H110.108V35.9881L115.866 35.9952Z" fill="#1C2473"/>
<path d="M125.258 34.1052H123.193V37.8639H120.611V27.7744H126.043C128.872 27.7744 129.905 29.1955 129.905 30.9149C129.919 31.5589 129.717 32.1889 129.333 32.7042C128.948 33.2195 128.402 33.5902 127.783 33.757L130.188 37.8497H127.359L125.258 34.1052ZM123.193 32.3999H125.513C126.758 32.3999 127.238 31.7605 127.238 30.9362C127.238 30.112 126.772 29.5152 125.513 29.5152H123.193V32.3999Z" fill="#1C2473"/>
<path d="M133.222 35.7322L135.104 34.4106C135.461 34.9998 135.971 35.4811 136.579 35.8038C137.186 36.1264 137.869 36.2784 138.555 36.2438C139.871 36.2438 140.677 35.8743 140.677 35.0785C140.677 34.2828 140.238 34.1122 139.135 33.9275L137.07 33.6291C135.019 33.288 133.929 32.3501 133.929 30.588C133.929 28.6838 135.627 27.5186 138.456 27.5186C140.578 27.5186 142.261 28.1865 143.209 29.5649L141.54 30.9859C141.192 30.4469 140.709 30.0102 140.139 29.7205C139.568 29.4309 138.931 29.2987 138.293 29.3375C137.077 29.3375 136.37 29.7212 136.37 30.3891C136.37 31.057 136.78 31.327 137.94 31.5117L139.948 31.8243C142.155 32.1654 143.188 33.0038 143.188 34.7943C143.188 36.8406 141.462 38.1338 138.421 38.1338C135.924 38.1409 134.05 37.1888 133.222 35.7322Z" fill="#1C2473"/>
</g>
<defs>
<clipPath id="clip0_124:612">
<rect width="145" height="38" fill="white"/>
</clipPath>
</defs>
</svg>
