<svg width="115" height="115" viewBox="0 0 115 115" fill="none" xmlns="http://www.w3.org/2000/svg">
<path d="M114.376 57.5002C114.376 88.9121 88.9121 114.376 57.5002 114.376C26.0884 114.376 0.624023 88.9121 0.624023 57.5002C0.624023 26.0884 26.0884 0.624023 57.5002 0.624023C88.9121 0.624023 114.376 26.0884 114.376 57.5002Z" stroke="#342885" stroke-linecap="round" stroke-linejoin="round"/>
<path d="M87.0125 36.3662L80.7188 38.5128L88.6416 66.8716L94.9353 64.9454" stroke="#1D2474" stroke-linecap="round" stroke-linejoin="round"/>
<path fill-rule="evenodd" clip-rule="evenodd" d="M86.2749 33.1791L95.9804 68.3293L107.696 65.3582L97.7284 29.8564L86.2749 33.1791Z" stroke="#1D2474" stroke-linecap="round" stroke-linejoin="round"/>
<path d="M27.9873 38.2354L34.281 40.3819L26.3582 68.7408L20.0645 66.8145" stroke="#1D2474" stroke-linecap="round" stroke-linejoin="round"/>
<path fill-rule="evenodd" clip-rule="evenodd" d="M28.7251 35.0492L19.0196 70.2019L7.30371 67.2283L17.2716 31.7266L28.7251 35.0492Z" stroke="#1D2474" stroke-linecap="round" stroke-linejoin="round"/>
<path d="M81.526 42.8174C78.2044 43.2129 74.8367 42.7685 71.7314 41.525C70.3523 40.9729 69.0351 40.2648 67.6338 39.7671C66.2324 39.2694 64.7048 38.9921 63.2564 39.3338C60.8771 39.8958 59.1662 41.9954 56.9033 42.9239C55.1702 43.627 53.1201 43.6666 51.7237 44.9046C51.033 45.5136 50.5898 46.3505 50.206 47.1873C49.4954 48.7372 48.9334 50.349 48.3739 51.9584C47.5667 54.2758 46.7596 56.5932 46.0515 58.9429C45.7791 59.849 45.5192 60.7775 45.5563 61.7208C45.5934 62.6641 45.9673 63.6446 46.7422 64.1967C47.4206 64.6745 48.307 64.7538 49.1339 64.6919C53.1771 64.3799 56.4972 60.9508 57.6683 57.0711C58.1437 55.4989 58.3467 53.8103 59.2009 52.4065" stroke="#1D2474" stroke-linecap="round" stroke-linejoin="round"/>
<path d="M79.3569 66.2396C79.56 66.1579 87.6363 63.2686 87.6363 63.2686" stroke="#1D2474" stroke-linecap="round" stroke-linejoin="round"/>
<path d="M60.6619 40.5257C58.4336 39.8696 56.1038 40.9466 53.8061 41.3279C52.1919 41.5977 50.5305 41.5185 48.9187 41.823C45.9601 42.3727 43.244 44.185 40.2333 44.1281C38.1709 44.091 35.2221 43.7815 33.4717 43.2937" stroke="#1D2474" stroke-linecap="round" stroke-linejoin="round"/>
<path d="M58.3965 54.2863C58.3965 54.2863 59.6963 51.9194 62.5065 53.1375C65.3166 54.3556 79.3425 66.3439 80.1372 67.1535C82.0907 69.1639 81.4792 71.6546 80.5705 72.6574C79.6619 73.6601 78.6096 74.4846 76.1734 73.3333C74.4782 72.487 72.8688 71.4787 71.3677 70.3226" stroke="#1D2474" stroke-linecap="round" stroke-linejoin="round"/>
<path d="M66.6953 76.319C68.3641 77.6956 70.9811 78.6859 73.1029 77.9531C75.3015 76.9627 75.3015 73.9223 74.0512 72.1719" stroke="#1D2474" stroke-linecap="round" stroke-linejoin="round"/>
<path d="M60.5947 79.275C62.8701 81.2558 69.5426 82.4169 68.8196 77.7227" stroke="#1D2474" stroke-linecap="round" stroke-linejoin="round"/>
<path d="M55.7319 82.3525C57.7597 83.8603 63.1274 83.8231 62.6025 80.5352" stroke="#1D2474" stroke-linecap="round" stroke-linejoin="round"/>
<path d="M27.1929 66.0498C29.0275 67.5972 34.1253 69.0382 36.5319 69.1075" stroke="#1D2474" stroke-linecap="round" stroke-linejoin="round"/>
<path d="M52.8582 75.0415L52.4861 74.6303C51.465 73.5018 49.7224 73.4147 48.5939 74.4358L45.5389 77.2C44.4104 78.2211 44.3234 79.9638 45.3445 81.0923L45.7166 81.5035C46.7377 82.632 48.4803 82.7191 49.6088 81.698L52.6638 78.9337C53.7923 77.9126 53.8793 76.17 52.8582 75.0415Z" stroke="#1D2474" stroke-linecap="round" stroke-linejoin="round"/>
<path d="M47.5345 71.3247L47.1624 70.9135C46.1413 69.785 44.3986 69.6979 43.2701 70.719L40.2152 73.4832C39.0867 74.5043 38.9996 76.247 40.0208 77.3755L40.3929 77.7867C41.414 78.9152 43.1566 79.0023 44.2851 77.9812L47.34 75.2169C48.4685 74.1958 48.5556 72.4532 47.5345 71.3247Z" stroke="#1D2474" stroke-linecap="round" stroke-linejoin="round"/>
<path d="M42.2823 68.2153L41.9467 67.8444C41.0274 66.8285 39.4586 66.7501 38.4427 67.6694L35.6907 70.1595C34.6747 71.0788 34.5963 72.6476 35.5156 73.6636L35.8512 74.0344C36.7705 75.0504 38.3393 75.1288 39.3552 74.2095L42.1072 71.7194C43.1232 70.8001 43.2016 69.2313 42.2823 68.2153Z" stroke="#1D2474" stroke-linecap="round" stroke-linejoin="round"/>
<path d="M56.343 78.6831L56.0889 78.4022C55.3999 77.6407 54.224 77.582 53.4626 78.271L51.3972 80.1398C50.6357 80.8288 50.577 82.0046 51.266 82.7661L51.5201 83.047C52.2091 83.8085 53.385 83.8672 54.1464 83.1782L56.2118 81.3094C56.9733 80.6204 57.032 79.4445 56.343 78.6831Z" stroke="#1D2474" stroke-linecap="round" stroke-linejoin="round"/>
</svg>
