<svg width="113" height="113" viewBox="0 0 113 113" fill="none" xmlns="http://www.w3.org/2000/svg">
<path d="M112.378 56.5004C112.378 87.3612 87.3607 112.379 56.4999 112.379C25.6392 112.379 0.621582 87.3612 0.621582 56.5004C0.621582 25.6397 25.6392 0.62207 56.4999 0.62207C87.3607 0.62207 112.378 25.6397 112.378 56.5004Z" stroke="#342885" stroke-linecap="round" stroke-linejoin="round"/>
<path d="M56.5002 84.0229C71.6897 84.0229 84.0033 71.7093 84.0033 56.5197C84.0033 41.3302 71.6897 29.0166 56.5002 29.0166C41.3106 29.0166 28.9971 41.3302 28.9971 56.5197C28.9971 71.7093 41.3106 84.0229 56.5002 84.0229Z" stroke="#342885" stroke-linecap="round" stroke-linejoin="round"/>
<path d="M83.3704 50.6182H88.4258V62.831H83.1611" stroke="#342885" stroke-linecap="round" stroke-linejoin="round"/>
<path d="M36.0493 38.1102L40.3846 22.9609H72.6391L76.95 38.1102" stroke="#342885" stroke-linecap="round" stroke-linejoin="round"/>
<path d="M43.0781 22.9609V11.7383H69.3697V22.9609" stroke="#342885" stroke-linecap="round" stroke-linejoin="round"/>
<path d="M36.0493 74.8828L40.3846 90.032H72.6391L76.95 74.8828" stroke="#342885" stroke-linecap="round" stroke-linejoin="round"/>
<path d="M43.0781 90.0312V101.251H69.3697V90.0312" stroke="#342885" stroke-linecap="round" stroke-linejoin="round"/>
<path d="M54.5075 41.7402V47.7104C54.5075 47.7104 50.8582 48.8344 50.7658 52.3328C50.7025 54.4469 51.4592 55.4346 52.2401 56.1693C53.021 56.904 57.0741 57.5317 58.4876 58.7773C59.3829 59.5656 59.0277 61.4072 57.6507 61.7283C56.2737 62.0495 54.9454 61.2807 54.2447 59.9791H50.2598C50.2598 59.9791 50.7463 64.385 54.5318 65.2219V71.338" stroke="#342885" stroke-linecap="round" stroke-linejoin="round"/>
<path d="M58.5901 41.7402V47.4501C58.5901 47.4501 62.035 49.3501 62.035 52.7609H57.7629C57.7629 52.7609 57.4418 51.1407 56.3032 51.1091C54.9749 51.0726 54.6489 51.8997 54.6489 52.4374C54.6489 52.975 54.7243 53.7998 56.1938 54.1963C57.6632 54.5929 59.5681 54.661 60.787 55.6682C62.0058 56.6754 62.8329 57.7847 62.8329 59.2907C62.863 60.4878 62.5525 61.6689 61.9377 62.6966C61.4511 63.5165 60.7529 64.3461 58.4903 65.1294V71.3964" stroke="#342885" stroke-linecap="round" stroke-linejoin="round"/>
<path d="M80.9234 61.7669V51.8141H74.9994C74.5903 50.2253 73.9753 48.6967 73.17 47.2672L73.187 47.2842L77.4566 43.0122L70.4208 35.9764L66.2315 40.1658L66.2534 40.1852C64.8345 39.3422 63.3117 38.688 61.7235 38.239H61.7454V32.2031H51.7951V38.1271C50.2079 38.5367 48.6804 39.15 47.2506 39.9517V39.9395L42.9931 35.6723L35.9647 42.7056L40.154 46.895C39.3184 48.3089 38.6692 49.825 38.2224 51.4054V51.3908H32.1841V61.3435H38.1056C38.5154 62.9303 39.1296 64.4571 39.9327 65.8856V65.8856L35.6606 70.1552L42.6988 77.1934L46.8881 73.0041C48.3018 73.8402 49.8179 74.4895 51.3986 74.9358H51.384V80.9765H61.3367V75.0209C62.9234 74.6111 64.4502 73.9969 65.8787 73.1938V73.1938L70.1508 77.4659L77.1865 70.4277L72.9996 66.2408C73.8211 64.8326 74.4565 63.3239 74.89 61.7523V61.7669H80.9234Z" stroke="#342885" stroke-linecap="round" stroke-linejoin="round"/>
<path d="M56.5536 71.5642C64.8329 71.5642 71.5447 64.8525 71.5447 56.5731C71.5447 48.2938 64.8329 41.582 56.5536 41.582C48.2742 41.582 41.5625 48.2938 41.5625 56.5731C41.5625 64.8525 48.2742 71.5642 56.5536 71.5642Z" stroke="#342885" stroke-linecap="round" stroke-linejoin="round"/>
</svg>
