<svg width="115" height="115" viewBox="0 0 115 115" fill="none" xmlns="http://www.w3.org/2000/svg">
<path d="M53.3452 80.1866C50.3666 80.1866 47.4172 79.5999 44.6653 78.46C41.9135 77.3202 39.413 75.6495 37.3069 73.5433C35.2007 71.4371 33.53 68.9367 32.3901 66.1848C31.2503 63.433 30.6636 60.4836 30.6636 57.505C30.6636 54.5264 31.2503 51.5769 32.3901 48.8251C33.53 46.0732 35.2007 43.5728 37.3069 41.4667C39.413 39.3605 41.9135 37.6898 44.6653 36.5499C47.4172 35.41 50.3666 34.8234 53.3452 34.8234" stroke="#342885" stroke-linecap="round" stroke-linejoin="round"/>
<path d="M53.3454 85.4948C45.922 85.4948 38.8026 82.5459 33.5535 77.2968C28.3044 72.0477 25.3555 64.9283 25.3555 57.5049C25.3555 50.0815 28.3044 42.9622 33.5535 37.7131C38.8026 32.464 45.922 29.515 53.3454 29.515" stroke="#342885" stroke-linecap="round" stroke-linejoin="round"/>
<path d="M53.3454 45.0216V57.7328L41.8994 64.8213" stroke="#342885" stroke-linecap="round" stroke-linejoin="round"/>
<path d="M30.6636 57.5051H35.1944" stroke="#342885" stroke-linecap="round" stroke-linejoin="round"/>
<path d="M53.3457 34.8234V39.3542" stroke="#342885" stroke-linecap="round" stroke-linejoin="round"/>
<path d="M53.3457 75.6558V80.1842" stroke="#342885" stroke-linecap="round" stroke-linejoin="round"/>
<path d="M32.5332 38.7873L36.9452 23.3724H53.3455" stroke="#342885" stroke-linecap="round" stroke-linejoin="round"/>
<path d="M39.686 23.3723V11.951H53.3455" stroke="#342885" stroke-linecap="round" stroke-linejoin="round"/>
<path d="M32.5332 76.2129L36.9452 91.6278H53.3455" stroke="#342885" stroke-linecap="round" stroke-linejoin="round"/>
<path d="M39.686 91.6276V103.049H53.3455" stroke="#342885" stroke-linecap="round" stroke-linejoin="round"/>
<path d="M114.376 57.5C114.376 88.9118 88.9121 114.376 57.5002 114.376C26.0884 114.376 0.624023 88.9118 0.624023 57.5C0.624023 26.0881 26.0884 0.623779 57.5002 0.623779C88.9121 0.623779 114.376 26.0881 114.376 57.5Z" stroke="#342885" stroke-linecap="round" stroke-linejoin="round"/>
<path d="M88.2578 10.3763H54.2812V105H88.2578V10.3763Z" fill="white"/>
<path d="M77.124 33.2684H93.4055C94.2151 33.2684 94.8712 32.3969 94.8712 31.3248C94.8712 30.2503 94.2151 29.3788 93.4055 29.3788H77.124" stroke="#342885" stroke-linecap="round" stroke-linejoin="round"/>
<path d="M77.124 85.6485H93.4055C94.2151 85.6485 94.8712 84.777 94.8712 83.705C94.8712 82.6304 94.2151 81.7589 93.4055 81.7589H77.124" stroke="#342885" stroke-linecap="round" stroke-linejoin="round"/>
<path d="M89.5011 33.2684C89.5011 33.2684 90.2934 50.6863 76.6934 57.9901" stroke="#342885" stroke-linecap="round" stroke-linejoin="round"/>
<path d="M89.4937 81.7585C89.4937 81.7585 90.2934 65.2963 76.6934 57.99" stroke="#342885" stroke-linecap="round" stroke-linejoin="round"/>
<path d="M76.2002 46.1058H83.098C83.098 46.1058 80.8326 51.5528 76.6929 53.5063" stroke="#342885" stroke-linecap="round" stroke-linejoin="round"/>
<path d="M76.2002 78.1465H83.098C83.098 78.1465 80.8326 73.0016 76.6929 71.0481" stroke="#342885" stroke-linecap="round" stroke-linejoin="round"/>
<path d="M76.6934 60.3125V69.8744" stroke="#342885" stroke-linecap="round" stroke-linejoin="round"/>
<path d="M77.1239 33.2684H59.9809C59.1713 33.2684 58.5151 32.3969 58.5151 31.3248C58.5151 30.2503 59.1713 29.3788 59.9809 29.3788H77.1239" stroke="#342885" stroke-linecap="round" stroke-linejoin="round"/>
<path d="M77.7949 85.6485H59.9809C59.1712 85.6485 58.5151 84.777 58.5151 83.705C58.5151 82.6304 59.1712 81.7589 59.9809 81.7589H77.1239" stroke="#342885" stroke-linecap="round" stroke-linejoin="round"/>
<path d="M63.8856 33.2684C63.8856 33.2684 63.0933 50.6863 76.6933 57.9901" stroke="#342885" stroke-linecap="round" stroke-linejoin="round"/>
<path d="M63.8952 81.7585C63.8952 81.7585 63.093 65.2963 76.693 57.99" stroke="#342885" stroke-linecap="round" stroke-linejoin="round"/>
<path d="M76.2001 46.1058H70.2827C70.2827 46.1058 72.5481 51.5528 76.6853 53.5063" stroke="#342885" stroke-linecap="round" stroke-linejoin="round"/>
<path d="M76.2001 78.1465H70.2827C70.2827 78.1465 72.5481 73.0016 76.6853 71.0481" stroke="#342885" stroke-linecap="round" stroke-linejoin="round"/>
<path d="M76.6934 60.3125V69.8744" stroke="#342885" stroke-linecap="round" stroke-linejoin="round"/>
</svg>
