<svg width="115" height="115" viewBox="0 0 115 115" fill="none" xmlns="http://www.w3.org/2000/svg">
<path d="M114.376 57.5002C114.376 88.9121 88.9121 114.376 57.5002 114.376C26.0884 114.376 0.624023 88.9121 0.624023 57.5002C0.624023 26.0884 26.0884 0.624023 57.5002 0.624023C88.9121 0.624023 114.376 26.0884 114.376 57.5002Z" stroke="#342885" stroke-linecap="round" stroke-linejoin="round"/>
<path d="M26.9624 43.1323C29.5313 37.7539 33.4954 33.1628 38.4418 29.8372C43.3882 26.5117 49.1358 24.5734 55.086 24.2242C61.0361 23.8751 66.971 25.1279 72.2724 27.8522C77.5738 30.5765 82.0476 34.6725 85.2278 39.7136C88.4081 44.7546 90.1783 50.5563 90.3542 56.514C90.53 62.4718 89.105 68.3678 86.2277 73.5876C83.3503 78.8075 79.1258 83.1602 73.9944 86.1924C68.8629 89.2247 63.0122 90.8254 57.0519 90.8278C43.6078 90.8278 32.2435 82.8232 26.9723 71.3599" stroke="#342885" stroke-linecap="round" stroke-linejoin="round"/>
<path fill-rule="evenodd" clip-rule="evenodd" d="M86.8144 57.1805C86.8144 65.0741 83.6787 72.6443 78.0971 78.2259C72.5155 83.8075 64.9453 86.9432 57.0517 86.9432C40.6143 86.9432 27.2866 72.3156 27.2866 55.8757C27.2866 39.4359 40.6143 27.4229 57.0517 27.4229C64.9444 27.4229 72.5139 30.5579 78.0954 36.1384C83.6768 41.7189 86.8131 49.2879 86.8144 57.1805V57.1805Z" stroke="#342885" stroke-linecap="round" stroke-linejoin="round"/>
<path d="M90.3774 50.9443H92.9524C93.0025 50.945 93.0504 50.9654 93.0856 51.001C93.1208 51.0367 93.1405 51.0848 93.1405 51.135V60.6127C93.1409 60.6376 93.1362 60.6623 93.1269 60.6855C93.1176 60.7086 93.1038 60.7296 93.0863 60.7473C93.0688 60.7651 93.048 60.7792 93.025 60.7888C93.002 60.7984 92.9773 60.8033 92.9524 60.8033H90.3774" stroke="#342885" stroke-linecap="round" stroke-linejoin="round"/>
<path d="M98.4634 61.1521V50.6023C98.4634 49.507 97.5755 48.6191 96.4802 48.6191H95.1234C94.0281 48.6191 93.1402 49.507 93.1402 50.6023V61.1521C93.1402 62.2474 94.0281 63.1353 95.1234 63.1353H96.4802C97.5755 63.1353 98.4634 62.2474 98.4634 61.1521Z" stroke="#342885" stroke-linecap="round" stroke-linejoin="round"/>
<path d="M58.2082 53.2787V50.3052H63.0659L52.8306 36.9453" stroke="#342885" stroke-linecap="round" stroke-linejoin="round"/>
<path d="M47.1756 68.6441V50.3052H42.3179L52.5532 36.9453" stroke="#342885" stroke-linecap="round" stroke-linejoin="round"/>
<path d="M62.4172 77.976C68.6593 77.976 73.7196 72.9157 73.7196 66.6735C73.7196 60.4314 68.6593 55.3711 62.4172 55.3711C56.175 55.3711 51.1147 60.4314 51.1147 66.6735C51.1147 72.9157 56.175 77.976 62.4172 77.976Z" stroke="#342885" stroke-linecap="round" stroke-linejoin="round"/>
<path d="M60.9196 55.8086V60.1835C60.9196 60.1835 58.253 61.0055 58.1763 63.573C58.1292 65.1229 58.6715 65.8458 59.2582 66.3856C59.845 66.9253 62.8012 67.3759 63.8362 68.2945C64.4923 68.8739 64.2298 70.2232 63.2221 70.4584C62.2145 70.6936 61.2414 70.1316 60.7463 69.1784H57.8247C57.8247 69.1784 58.1738 72.397 60.9567 73.0185V77.4998" stroke="#342885" stroke-linecap="round" stroke-linejoin="round"/>
<path d="M63.9178 55.8086V59.9928C63.9178 59.9928 66.4432 61.3868 66.4432 63.8849H63.3137C63.3137 63.8849 63.0661 62.6965 62.2342 62.6742C61.2611 62.6495 61.021 63.2536 61.0235 63.6473C61.0259 64.0409 61.0779 64.6376 62.1549 64.9372C63.232 65.2368 64.6308 65.2789 65.5222 66.0142C66.4135 66.7495 67.0077 67.5666 67.0077 68.6708C67.0314 69.549 66.8037 70.4158 66.3516 71.169C65.9975 71.7706 65.4825 72.3797 63.8262 72.9566V77.5518" stroke="#342885" stroke-linecap="round" stroke-linejoin="round"/>
<path d="M98.4638 51.7109H93.1406" stroke="#342885" stroke-linecap="round" stroke-linejoin="round"/>
<path d="M98.4638 54.4443H93.1406" stroke="#342885" stroke-linecap="round" stroke-linejoin="round"/>
<path d="M98.4638 57.1777H93.1406" stroke="#342885" stroke-linecap="round" stroke-linejoin="round"/>
<path d="M98.4638 59.9141H93.1406" stroke="#342885" stroke-linecap="round" stroke-linejoin="round"/>
<path d="M57.0493 29.2002V32.2901" stroke="#342885" stroke-linecap="round" stroke-linejoin="round"/>
<path d="M57.0493 82.083V85.1729" stroke="#342885" stroke-linecap="round" stroke-linejoin="round"/>
<path d="M85.0367 57.1855H81.9468" stroke="#342885" stroke-linecap="round" stroke-linejoin="round"/>
<path d="M32.1544 57.1851L29.0645 55.8828" stroke="#342885" stroke-linecap="round" stroke-linejoin="round"/>
<path d="M76.8395 37.3955L74.6558 39.5817" stroke="#342885" stroke-linecap="round" stroke-linejoin="round"/>
<path d="M39.4459 74.792L37.2622 75.6734" stroke="#342885" stroke-linecap="round" stroke-linejoin="round"/>
<path d="M76.8395 76.9757L74.6558 74.792" stroke="#342885" stroke-linecap="round" stroke-linejoin="round"/>
<path d="M39.4459 39.5817L37.2622 37.3955" stroke="#342885" stroke-linecap="round" stroke-linejoin="round"/>
<path d="M89.127 46.8039C90.4841 45.8124 92.0567 45.1562 93.7161 44.8892C95.3755 44.6221 97.0745 44.7517 98.6742 45.2674C100.274 45.7831 101.729 46.6702 102.92 47.8561C104.111 49.0421 105.004 50.4932 105.527 52.0906C106.049 53.6881 106.186 55.3866 105.926 57.0471C105.666 58.7076 105.016 60.283 104.031 61.6443C103.045 63.0057 101.751 64.1142 100.254 64.8794C98.7578 65.6445 97.1014 66.0445 95.4207 66.0465C93.2493 66.0465 91.6028 65.6306 89.9192 64.5164" stroke="#342885" stroke-linecap="round" stroke-linejoin="round"/>
<path d="M26.9722 89.5337L26.9722 25.3884C26.9722 25.0315 26.6829 24.7422 26.326 24.7422H24.6126C24.2557 24.7422 23.9664 25.0315 23.9664 25.3884L23.9664 89.5337C23.9664 89.8906 24.2557 90.1799 24.6126 90.1799H26.326C26.6829 90.1799 26.9722 89.8906 26.9722 89.5337Z" stroke="#342885" stroke-linecap="round" stroke-linejoin="round"/>
<path d="M23.969 88.3074C21.1787 88.3074 20.478 86.2822 20.478 83.4918V31.4289C20.478 28.6386 21.1787 26.6133 23.969 26.6133" stroke="#342885" stroke-linecap="round" stroke-linejoin="round"/>
</svg>
