<svg width="115" height="115" viewBox="0 0 115 115" fill="none" xmlns="http://www.w3.org/2000/svg">
<path d="M52.9541 80.1817C49.9755 80.1817 47.026 79.595 44.2742 78.4552C41.5223 77.3153 39.0219 75.6446 36.9157 73.5384C34.8096 71.4322 33.1388 68.9318 31.999 66.18C30.8591 63.4281 30.2725 60.4787 30.2725 57.5001C30.2725 54.5215 30.8591 51.5721 31.999 48.8202C33.1388 46.0684 34.8096 43.5679 36.9157 41.4618C39.0219 39.3556 41.5223 37.6849 44.2742 36.545C47.026 35.4052 49.9755 34.8185 52.9541 34.8185" stroke="#342885" stroke-linecap="round" stroke-linejoin="round"/>
<path d="M114.376 57.5C114.376 88.9118 88.9121 114.376 57.5002 114.376C26.0884 114.376 0.624023 88.9118 0.624023 57.5C0.624023 26.0881 26.0884 0.623779 57.5002 0.623779C88.9121 0.623779 114.376 26.0881 114.376 57.5Z" stroke="#342885" stroke-linecap="round" stroke-linejoin="round"/>
<path d="M52.9543 85.4899C45.5309 85.4899 38.4115 82.541 33.1624 77.2919C27.9133 72.0428 24.9644 64.9234 24.9644 57.5C24.9644 50.0767 27.9133 42.9573 33.1624 37.7082C38.4115 32.4591 45.5309 29.5101 52.9543 29.5101" stroke="#342885" stroke-linecap="round" stroke-linejoin="round"/>
<path d="M52.9543 45.0167V57.7279L41.5083 64.8189" stroke="#342885" stroke-linecap="round" stroke-linejoin="round"/>
<path d="M30.2725 57.4999H34.8033" stroke="#342885" stroke-linecap="round" stroke-linejoin="round"/>
<path d="M52.9546 34.8185V39.3493" stroke="#342885" stroke-linecap="round" stroke-linejoin="round"/>
<path d="M52.9546 75.6509V80.1818" stroke="#342885" stroke-linecap="round" stroke-linejoin="round"/>
<path d="M32.1421 38.7849L36.5566 23.3676H52.9544" stroke="#342885" stroke-linecap="round" stroke-linejoin="round"/>
<path d="M39.2969 23.3674V11.9462H52.9539" stroke="#342885" stroke-linecap="round" stroke-linejoin="round"/>
<path d="M32.1421 76.2079L36.5566 91.6252H52.9544" stroke="#342885" stroke-linecap="round" stroke-linejoin="round"/>
<path d="M39.2969 91.6252V103.044H52.9539" stroke="#342885" stroke-linecap="round" stroke-linejoin="round"/>
<path d="M70.2312 85.4899H67.3814C65.039 85.4834 62.7943 84.5501 61.1377 82.894C59.4811 81.2379 58.5472 78.9935 58.54 76.651V38.3515C58.5472 36.0088 59.481 33.7642 61.1375 32.1077C62.7941 30.4511 65.0387 29.5173 67.3814 29.5101H76.104C78.4464 29.5173 80.6908 30.4512 82.347 32.1078C84.0031 33.7644 84.9363 36.0091 84.9429 38.3515V66.2275" stroke="#342885" stroke-linecap="round" stroke-linejoin="round"/>
<path d="M70.0802 77.6663C68.5821 77.6617 67.1466 77.0644 66.0875 76.0048C65.0284 74.9452 64.4317 73.5095 64.4277 72.0114V41.9912C64.4317 40.4931 65.0284 39.0574 66.0875 37.9978C67.1466 36.9382 68.5821 36.3409 70.0802 36.3363H73.4028C74.9012 36.3409 76.3369 36.9381 77.3964 37.9976C78.456 39.0572 79.0532 40.4929 79.0578 41.9912V66.2277" stroke="#342885" stroke-linecap="round" stroke-linejoin="round"/>
<path d="M76.7009 70.9862H76.5399C75.673 70.9862 74.9702 71.689 74.9702 72.5559V75.6978C74.9702 76.5647 75.673 77.2675 76.5399 77.2675H76.7009C77.5678 77.2675 78.2706 76.5647 78.2706 75.6978V72.5559C78.2706 71.689 77.5678 70.9862 76.7009 70.9862Z" stroke="#342885" stroke-linecap="round" stroke-linejoin="round"/>
<path d="M83.5192 77.6661H83.3583C82.4914 77.6661 81.7886 78.3689 81.7886 79.2358V82.3777C81.7886 83.2447 82.4914 83.9474 83.3583 83.9474H83.5192C84.3862 83.9474 85.0889 83.2447 85.0889 82.3777V79.2358C85.0889 78.3689 84.3862 77.6661 83.5192 77.6661Z" stroke="#342885" stroke-linecap="round" stroke-linejoin="round"/>
<path d="M82.9597 70.1914L76.8765 84.861" stroke="#342885" stroke-linecap="round" stroke-linejoin="round"/>
</svg>
