<svg width="113" height="113" viewBox="0 0 113 113" fill="none" xmlns="http://www.w3.org/2000/svg">
<g clip-path="url(#clip0_124:593)">
<path d="M56.4999 112.879C87.6368 112.879 112.878 87.6373 112.878 56.5004C112.878 25.3635 87.6368 0.12207 56.4999 0.12207C25.363 0.12207 0.121582 25.3635 0.121582 56.5004C0.121582 87.6373 25.363 112.879 56.4999 112.879Z" stroke="#342885" stroke-linecap="round" stroke-linejoin="round"/>
<path d="M39.4922 58.7572C43.5793 65.1774 49.6249 69.2403 56.3712 69.2403C63.6453 69.2403 70.1069 64.5133 74.1746 57.2002" stroke="#342885" stroke-linecap="round" stroke-linejoin="round"/>
<path d="M75.2959 23.2583C71.3596 14.9259 64.3482 9.55176 56.371 9.55176C48.3937 9.55176 41.4407 14.8797 37.4971 23.1513" stroke="#342885" stroke-linecap="round" stroke-linejoin="round"/>
<path d="M44.7861 36.751H50.8293" stroke="#342885" stroke-linecap="round" stroke-linejoin="round"/>
<path d="M64.0513 42.7959C67.8765 42.7959 70.9775 39.6949 70.9775 35.8696C70.9775 32.0444 67.8765 28.9434 64.0513 28.9434C60.226 28.9434 57.125 32.0444 57.125 35.8696C57.125 39.6949 60.226 42.7959 64.0513 42.7959Z" stroke="#342885" stroke-linecap="round" stroke-linejoin="round"/>
<path d="M71.6689 36.751V64.203" stroke="#342885" stroke-linecap="round" stroke-linejoin="round"/>
<path d="M71.9119 36.7184C72.3983 36.7184 72.7926 36.3241 72.7926 35.8377C72.7926 35.3513 72.3983 34.957 71.9119 34.957C71.4255 34.957 71.0312 35.3513 71.0312 35.8377C71.0312 36.3241 71.4255 36.7184 71.9119 36.7184Z" stroke="#342885" stroke-miterlimit="10"/>
<path fill-rule="evenodd" clip-rule="evenodd" d="M65.7326 54.0434C65.7326 54.0434 60.9399 47.9613 56.4197 47.9395H56.3224C51.7998 47.9638 47.0095 54.0434 47.0095 54.0434C47.0095 54.0434 46.1994 55.3523 52.4931 54.53C54.6705 54.2502 55.8091 53.372 56.3711 52.3404C56.9306 53.3671 58.0741 54.2453 60.249 54.53C66.5427 55.3523 65.7326 54.0434 65.7326 54.0434Z" stroke="#342885" stroke-linecap="round" stroke-linejoin="round"/>
<path fill-rule="evenodd" clip-rule="evenodd" d="M74.1744 57.2006C71.0118 62.0078 81.67 49.7439 83.4995 44.4355C84.3413 42.1076 84.8333 39.6677 84.9592 37.1954C85.0492 34.7285 84.638 32.213 83.5384 30.0015C82.1322 27.1673 79.658 24.9607 76.8895 23.4329C76.5678 23.2163 76.1898 23.0987 75.802 23.0947C74.9286 23.1653 74.5394 24.2138 74.3958 25.0775C73.4079 31.2718 74.7561 37.6123 78.1789 42.8688C78.1789 42.8688 78.9087 50.0042 74.1744 57.2006Z" stroke="#342885" stroke-linecap="round" stroke-linejoin="round"/>
<path fill-rule="evenodd" clip-rule="evenodd" d="M38.9838 57.8866C41.9153 62.6452 31.2814 49.7269 29.4957 44.4306C28.7075 42.0902 28.1334 39.6598 28.036 37.1905C27.9387 34.7212 28.3596 32.2081 29.4568 29.9966C30.8654 27.1624 33.3493 24.9558 36.1082 23.428C36.4296 23.211 36.8078 23.0934 37.1956 23.0898C38.069 23.1604 38.4583 24.2089 38.5994 25.0726C39.5881 31.2666 38.2407 37.6071 34.8188 42.8639C34.8188 42.8639 34.466 50.5589 38.9838 57.8866Z" stroke="#342885" stroke-linecap="round" stroke-linejoin="round"/>
<path d="M49.4155 72.5905V68.0703" stroke="#342885" stroke-linecap="round" stroke-linejoin="round"/>
<path d="M63.5845 68.0703V72.5905" stroke="#342885" stroke-linecap="round" stroke-linejoin="round"/>
<path fill-rule="evenodd" clip-rule="evenodd" d="M45.9023 78.2642L49.4153 72.5908H63.5841L67.6226 78.2642L58.8961 81.5436L56.7625 73.5615L54.4416 81.5436L45.9023 78.2642Z" stroke="#342885" stroke-linecap="round" stroke-linejoin="round"/>
<path d="M45.9027 78.2637L34.0815 85.0707" stroke="#342885" stroke-linecap="round" stroke-linejoin="round"/>
<path d="M43.8594 80.0597L56.3714 103.451L69.2654 79.4199" stroke="#342885" stroke-linecap="round" stroke-linejoin="round"/>
<path d="M37.1758 83.833L39.4918 90.0829L43.8588 88.29L42.3747 94.2285L56.3708 103.451" stroke="#342885" stroke-linecap="round" stroke-linejoin="round"/>
<path d="M67.6982 78.2637L79.5194 85.0707" stroke="#342885" stroke-linecap="round" stroke-linejoin="round"/>
<path d="M76.4249 83.833L74.1088 90.0829L69.7419 88.29L71.2259 94.2285L56.3711 103.451" stroke="#342885" stroke-linecap="round" stroke-linejoin="round"/>
</g>
<defs>
<clipPath id="clip0_124:593">
<rect width="113" height="113" fill="white"/>
</clipPath>
</defs>
</svg>
