<svg width="115" height="115" viewBox="0 0 115 115" fill="none" xmlns="http://www.w3.org/2000/svg">
<path d="M114.376 57.5C114.376 88.9118 88.9121 114.376 57.5002 114.376C26.0884 114.376 0.624023 88.9118 0.624023 57.5C0.624023 26.0881 26.0884 0.623779 57.5002 0.623779C88.9121 0.623779 114.376 26.0881 114.376 57.5Z" stroke="#342885" stroke-linecap="round" stroke-linejoin="round"/>
<path d="M57.5002 85.4899C72.9586 85.4899 85.4901 72.9584 85.4901 57.5C85.4901 42.0416 72.9586 29.5101 57.5002 29.5101C42.0418 29.5101 29.5103 42.0416 29.5103 57.5C29.5103 72.9584 42.0418 85.4899 57.5002 85.4899Z" stroke="#342885" stroke-linecap="round" stroke-linejoin="round"/>
<path d="M84.8462 51.5133H89.9911V63.9423H84.6333" stroke="#342885" stroke-linecap="round" stroke-linejoin="round"/>
<path d="M36.6875 38.7849L41.0995 23.3676H73.9248L78.3121 38.7849" stroke="#342885" stroke-linecap="round" stroke-linejoin="round"/>
<path d="M43.8408 23.3674V11.9462H70.5977V23.3674" stroke="#342885" stroke-linecap="round" stroke-linejoin="round"/>
<path d="M36.6875 76.2079L41.0995 91.6252H73.9248L78.3121 76.2079" stroke="#342885" stroke-linecap="round" stroke-linejoin="round"/>
<path d="M43.8408 91.6252V103.044H70.5977V91.6252" stroke="#342885" stroke-linecap="round" stroke-linejoin="round"/>
<path d="M53.2118 29.837V41.0008C53.2118 41.0008 46.4081 43.0979 46.215 49.6466C46.0961 53.608 47.5123 55.4451 48.9731 56.8267C50.3943 58.1637 58.0126 59.3719 60.6543 61.7017C62.3256 63.1872 61.6596 66.6163 59.0896 67.2205C56.5196 67.8246 54.0313 66.3836 52.7439 63.9498H45.2939C45.2939 63.9498 46.1853 72.1846 53.2811 73.7494V85.188" stroke="#342885" stroke-linecap="round" stroke-linejoin="round"/>
<path d="M60.8597 29.837V40.5106C60.8597 40.5106 67.297 44.066 67.297 50.4389H59.3172C59.3172 50.4389 58.7131 47.4109 56.5665 47.3539C54.0906 47.2871 53.4741 48.8395 53.4766 49.8298C53.479 50.8202 53.6152 52.3775 56.3659 53.1153C59.1166 53.8531 62.672 53.9893 64.9523 55.866C67.2326 57.7428 68.7775 59.8275 68.7775 62.6425C68.7775 65.4576 68.0843 67.3467 67.0989 69.0179C66.1977 70.5505 64.8854 72.1029 60.6616 73.581V85.2969" stroke="#342885" stroke-linecap="round" stroke-linejoin="round"/>
</svg>
