<svg width="240" height="272" viewBox="0 0 240 272" fill="none" xmlns="http://www.w3.org/2000/svg">
<g clip-path="url(#clipWatch)" filter="url(#filterWatch)">
<path fill-rule="evenodd" clip-rule="evenodd" d="M84.0023 208.617C83.665 203.049 83.7656 197.462 84.3033 191.909C92.5332 197.241 101.884 200.599 111.627 201.721C123.126 203.07 134.783 201.508 145.527 197.179L155.175 192.294C155.606 196.202 154.684 206.482 155.335 209.132L161.565 206.615C163.245 201.253 164.711 196.31 166.346 191.241L169.878 179.762C177.71 170.217 182.998 158.844 185.248 146.704C187.604 146.007 190.78 147.625 192.026 143.94C192.466 138.784 192.465 133.601 192.024 128.447C190.918 125.038 188.226 125.774 185.373 125.795C184.292 120.449 182.776 115.2 180.84 110.102C175.61 97.6362 171.421 96.7663 169.296 89.5713C168.067 85.7836 162.391 66.1351 161.767 65.5008L155.575 63.1889L155.489 79.269C155.463 79.4938 155.357 79.7018 155.19 79.8548C150.512 77.0414 145.551 74.7259 140.39 72.9462C128.994 69.2431 116.809 68.6765 105.113 71.3062C97.866 73.1168 90.9178 75.9657 84.4839 79.7646L84.408 62.9696C76.4974 65.6836 78.1381 65.1496 76.718 69.59L71.2914 87.0591C69.6565 92.1277 70.3728 91.755 67.0285 95.4256C58.6696 106.174 53.814 119.231 53.1201 132.828C52.4263 146.425 55.9276 159.903 63.1495 171.435C65.3549 174.308 67.3234 177.355 69.0356 180.546L75.9454 203.353C76.9267 206.593 76.3417 206.295 78.8526 207.153C80.4695 207.94 82.2128 208.436 84.0023 208.617Z" stroke="white" stroke-width="2" stroke-miterlimit="22.93"/>
<path fill-rule="evenodd" clip-rule="evenodd" d="M94.4864 88.2357C82.1961 94.6411 72.8597 105.559 68.4365 118.698C66.3188 125.018 65.3561 131.667 65.5945 138.327C65.9284 146.371 68.029 154.242 71.7471 161.38C75.1232 167.742 79.745 173.359 85.3372 177.894C87.7687 179.913 90.3812 181.703 93.1416 183.241C101.312 187.768 110.519 190.093 119.862 189.99C129.204 189.886 138.361 187.357 146.437 182.65C154.512 177.942 161.229 171.219 165.93 163.137C170.631 155.054 173.154 145.891 173.254 136.544C173.353 127.196 171.024 117.985 166.496 109.812C161.968 101.639 155.395 94.7835 147.422 89.918C139.448 85.0525 130.346 82.3431 121.008 82.0551C111.67 81.7672 102.415 83.9105 94.1503 88.2753L94.4864 88.2357Z" stroke="white" stroke-width="0.52" stroke-miterlimit="22.93"/>
<path fill-rule="evenodd" clip-rule="evenodd" d="M86.6057 71.4676C102.66 63.4236 121.106 61.569 138.429 66.2571C142.127 67.3221 145.748 68.6388 149.266 70.1981C150.428 70.9405 151.66 71.5681 152.944 72.072L151.334 52.9146C150.757 46.4025 150.053 39.9316 149.308 33.3344C148.838 29.0904 148.725 27.452 145.305 24.8662C137.459 20.5986 128.595 18.5601 119.671 18.9712C112.962 18.8254 106.275 19.7989 99.8837 21.8516C89.8683 25.3902 90.5989 28.5024 89.5716 36.3045C89.5105 38.6973 86.7093 68.9912 86.6057 71.4676Z" stroke="white" stroke-miterlimit="22.93"/>
<path fill-rule="evenodd" clip-rule="evenodd" d="M152.718 200.424C141.517 206.128 129.036 208.843 116.484 208.308C111.167 208.122 105.892 207.308 100.767 205.885C95.852 204.305 91.0207 202.477 86.2915 200.407C86.1692 203.568 86.3546 206.733 86.8455 209.858L89.7174 239.143C90.1888 243.177 90.3819 245.278 93.7613 247.737C103.734 254.821 127.484 254.908 139.183 250.752C148.736 247.294 148.763 243.935 149.454 236.173C150.145 228.41 151.483 218.553 152.477 209.575C152.744 206.532 152.824 203.476 152.718 200.424Z" stroke="white" stroke-miterlimit="22.93"/>
<path fill-rule="evenodd" clip-rule="evenodd" d="M129.745 129.175C127.351 129.535 121.248 131.8 119.534 131.032C118.16 130.424 116.821 129.742 115.522 128.988C86.662 111.859 94.3025 116.701 114.075 136.787C116.281 139.07 117.726 142.02 121.179 140.407C153.326 124.222 189.784 114.66 129.745 129.175Z" stroke="white" stroke-width="0.31" stroke-miterlimit="22.93"/>
<path d="M88.0249 114.863C87.5497 116.389 86.8214 117.824 85.8704 119.108C82.7206 117.438 79.6543 115.616 76.6824 113.646C77.2394 112.248 77.947 110.914 78.7926 109.669C81.9604 111.234 85.0423 112.968 88.0249 114.863Z" stroke="white"/>
<path d="M122.019 98.2977L117.523 98.1956C117.227 94.6749 117.218 91.1357 117.495 87.613C119.035 87.3879 120.599 87.3871 122.138 87.6106C122.366 91.1708 122.327 94.7432 122.019 98.2977Z" stroke="white"/>
<path d="M98.666 167.702L98.7089 167.643L98.7333 167.574C98.7592 167.502 98.7885 167.43 98.8212 167.361C100.21 167.921 101.547 168.603 102.818 169.397C101.318 172.688 99.4932 175.82 97.3708 178.748C95.9532 178.107 94.6237 177.287 93.4143 176.308C94.193 175.194 95.0518 173.695 95.9009 172.212L95.9088 172.198C96.8688 170.521 97.8188 168.861 98.666 167.702Z" stroke="white"/>
<path d="M121.969 173.507L121.92 184.364L117.204 184.226L117.02 173.611L121.969 173.507Z" stroke="white"/>
<path d="M139.009 174.423L139.009 174.423L139.005 174.417C138.88 174.2 138.755 173.985 138.631 173.773C137.877 172.475 137.158 171.239 136.467 169.835C137.708 168.874 139.1 168.128 140.586 167.628C142.679 170.469 144.347 173.6 145.536 176.923L141.856 178.941L141.127 178.201L140.498 177.079L140.498 177.079L139.009 174.423Z" stroke="white"/>
<path d="M97.7349 102.438L97.7213 102.402L97.7023 102.368L93.6535 95.1996C94.8978 94.2693 96.275 93.5316 97.7389 93.0118C99.7009 95.8772 101.417 98.9039 102.868 102.059C101.709 103.012 100.413 103.787 99.0252 104.358C98.453 103.828 98.0107 103.171 97.7349 102.438Z" stroke="white"/>
<path d="M162.631 158.294C162.053 159.794 161.203 161.175 160.124 162.366C157.26 160.364 154.256 158.572 151.134 157.001C151.732 155.524 152.499 154.12 153.42 152.819C153.86 153.204 154.449 153.626 155.1 154.054C156.015 154.656 157.097 155.297 158.165 155.9C159.967 156.919 161.744 157.84 162.631 158.294Z" stroke="white"/>
<path d="M81.8496 138.244L71.3192 138.283L71.1493 133.492L81.991 133.531L81.8496 138.244Z" stroke="white"/>
<path d="M162.601 114.242C159.596 116.035 156.505 117.68 153.34 119.171C152.534 117.864 151.839 116.491 151.26 115.068L160.204 110.266L160.583 110.459L162.601 114.242Z" stroke="white"/>
<path d="M168.073 133.85L168.108 138.191C164.529 138.488 160.936 138.565 157.349 138.42C157.181 136.835 157.205 135.236 157.42 133.657L168.073 133.85Z" stroke="white"/>
<path d="M139.338 97.3977L139.347 97.3814L139.354 97.3646C140.061 95.7621 140.994 94.2701 142.124 92.934C143.453 93.6013 144.716 94.3898 145.9 95.2895L140.623 104.498C139.089 103.906 137.688 103.016 136.5 101.879C137.557 100.459 138.506 98.9611 139.338 97.3977Z" stroke="white"/>
<path d="M87.5446 156.968C84.4243 158.465 81.4231 160.199 78.5673 162.154C77.4798 160.921 76.6285 159.498 76.0564 157.956C76.3417 157.744 76.8034 157.453 77.409 157.101C78.2087 156.637 79.2014 156.1 80.2308 155.551C80.6356 155.335 81.047 155.117 81.4546 154.901C82.8761 154.148 84.2509 153.42 85.1337 152.896C86.1105 154.143 86.9209 155.512 87.5446 156.968Z" stroke="white"/>
</g>
<defs>
<filter id="filterWatch" x="-4" y="0" width="247.366" height="279.807" filterUnits="userSpaceOnUse" color-interpolation-filters="sRGB">
<feFlood flood-opacity="0" result="BackgroundImageFix"/>
<feColorMatrix in="SourceAlpha" type="matrix" values="0 0 0 0 0 0 0 0 0 0 0 0 0 0 0 0 0 0 127 0" result="hardAlpha"/>
<feOffset dy="4"/>
<feGaussianBlur stdDeviation="2"/>
<feComposite in2="hardAlpha" operator="out"/>
<feColorMatrix type="matrix" values="0 0 0 0 0 0 0 0 0 0 0 0 0 0 0 0 0 0 0.25 0"/>
<feBlend mode="normal" in2="BackgroundImageFix" result="effect1_dropShadow_32:1990"/>
<feColorMatrix in="SourceAlpha" type="matrix" values="0 0 0 0 0 0 0 0 0 0 0 0 0 0 0 0 0 0 127 0" result="hardAlpha"/>
<feOffset dy="4"/>
<feGaussianBlur stdDeviation="2"/>
<feComposite in2="hardAlpha" operator="out"/>
<feColorMatrix type="matrix" values="0 0 0 0 0 0 0 0 0 0 0 0 0 0 0 0 0 0 0.25 0"/>
<feBlend mode="normal" in2="effect1_dropShadow_32:1990" result="effect2_dropShadow_32:1990"/>
<feBlend mode="normal" in="SourceGraphic" in2="effect2_dropShadow_32:1990" result="shape"/>
</filter>
<clipPath id="clipWatch">
<rect width="152.911" height="227.143" fill="white" transform="translate(103.121) rotate(27)"/>
</clipPath>
</defs>
</svg>
