<svg width="491" height="407" viewBox="0 0 491 407" fill="none" xmlns="http://www.w3.org/2000/svg">
<g clip-path="url(#clip0_1_69)">
<path d="M16.84 325.099C11.1602 325.139 5.49943 324.44 0 323.019L3.13 304.299C6.65038 305.302 10.2897 305.827 13.95 305.859C23.09 305.859 27.66 301.309 29.34 291.689L39.06 231.109H60.95L50.12 296.499C46.75 317.429 34.49 325.099 16.81 325.099" fill="white"/>
<path d="M64.8198 283.24C64.8198 257.5 79.0098 228.51 117.38 228.51C142.63 228.51 163.56 241.12 163.56 271.28C163.56 297.02 149.49 326.02 111.12 326.02C85.8698 326.02 64.8198 313.41 64.8198 283.25V283.24ZM140.71 272.33C140.71 252.7 129.04 246.59 117.26 246.59C95.2598 246.59 87.7898 265.59 87.7898 282.21C87.7898 301.84 99.3398 307.95 111.24 307.95C133.24 307.95 140.71 288.95 140.71 272.33Z" fill="white"/>
<path d="M229.22 267.379L255.32 323.419H230.79L212.15 282.329L194.71 298.189L190.62 323.419H168.85L183.88 231.109H205.65L199.04 271.409L242.57 231.109H268.43L229.22 267.379Z" fill="white"/>
<path d="M301.14 248.139L297.89 268.159H343.96L341.31 284.539H295.25L291.64 306.379H340.59L337.82 323.409H266.98L282.02 231.109H352.01L349.25 248.139H301.14Z" fill="white"/>
<path d="M421.64 286.489L435.96 323.409H411.78L399.27 289.089H381.72L376.06 323.409H354.29L369.29 231.109H412.47C428.94 231.109 444.1 237.349 444.1 257.499C444.1 269.979 438.68 282.199 421.6 286.499L421.64 286.489ZM384.2 273.499H403.81C417.28 273.499 420.88 265.829 420.88 258.809C420.88 249.969 414.75 247.369 408.14 247.369H388.57L384.2 273.499Z" fill="white"/>
<path d="M226.87 367.47L206.62 330.52H231.81L240.7 349.21C241.604 350.757 242.236 352.448 242.57 354.21H242.87C243.873 352.42 245.067 350.743 246.43 349.21L261.06 330.52H287.06L255.06 368.21L275.71 406.34H250.28L240.99 387.65C239.878 385.827 239.046 383.849 238.52 381.78H238.33C237.121 383.845 235.697 385.776 234.08 387.54L219.66 406.34H193.38L226.87 367.47Z" fill="#BB13B4"/>
<path d="M302.24 367.47L281.99 330.52H307.18L316.06 349.21C316.964 350.757 317.596 352.448 317.93 354.21H318.23C319.234 352.42 320.427 350.743 321.79 349.21L336.41 330.52H362.41L330.41 368.21L351.06 406.34H325.65L316.36 387.65C315.248 385.827 314.416 383.849 313.89 381.78H313.7C312.491 383.845 311.067 385.776 309.45 387.54L295.06 406.34H268.75L302.24 367.47Z" fill="#BB13B4"/>
<path d="M377.61 367.47L357.36 330.52H382.54L391.44 349.21C392.344 350.757 392.976 352.448 393.31 354.21H393.61C394.614 352.42 395.807 350.743 397.17 349.21L411.79 330.52H437.79L405.79 368.21L426.44 406.34H401.06L391.77 387.65C390.658 385.827 389.826 383.849 389.3 381.78H389.06C387.852 383.845 386.427 385.776 384.81 387.54L370.38 406.34H344.12L377.61 367.47Z" fill="#BB13B4"/>
<path fill-rule="evenodd" clip-rule="evenodd" d="M453.06 331.34L421.33 367.02L442.06 406.34C442.06 406.34 484.23 360.51 489.06 346.34C493.89 332.17 482.06 279.34 455.58 263.82C467.67 271.27 495.23 326.86 453.06 331.34Z" fill="#BB13B4"/>
<path fill-rule="evenodd" clip-rule="evenodd" d="M190.98 329.9L209.98 366.97L174.47 406.34C174.47 406.34 114.86 391.84 91.4702 373.34C73.0702 358.77 56.4702 327.1 56.4702 300.34C56.4702 300.34 64.8402 344.83 99.4702 352.34C121.55 357.12 190.98 329.9 190.98 329.9Z" fill="#BB13B4"/>
<path fill-rule="evenodd" clip-rule="evenodd" d="M37.3002 222.02H72.3002C72.3002 222.02 18.8402 212.24 14.3002 157.02C14.3002 157.02 11.4202 187.34 18.3002 204.02C22.6402 214.52 37.3002 222.02 37.3002 222.02Z" fill="#009B5A"/>
<path fill-rule="evenodd" clip-rule="evenodd" d="M230.3 222.02H93.3003C93.3003 222.02 54.1003 221.02 32.3003 185.02C32.3003 185.02 50.0603 195.96 60.3003 196.02C60.3003 196.02 149.22 176.76 169.3 174.02C169.3 174.02 143.45 148.14 133.3 121.02C133.3 121.02 143.72 140.02 163.3 148.02C168.94 150.32 257.3 137.02 257.3 137.02C257.3 137.02 289.57 139.48 313.3 165.02C337.03 190.56 330.3 222.02 330.3 222.02H320.3C320.3 222.02 320.5 188.39 275.3 172.02C275.3 172.02 308.59 196.44 309.3 222.02H281.3C281.3 222.02 276.76 211.42 261.3 204.02C261.3 204.02 271.04 217.16 273.3 222.02H243.3C243.3 222.02 220.1 195.08 153.3 202.02C153.3 202.02 200.96 202.44 230.3 222.02Z" fill="#009B5A"/>
<path fill-rule="evenodd" clip-rule="evenodd" d="M339.3 222.02C339.3 222.02 347.41 178.2 291.3 124.02C291.3 124.02 258.24 99.6095 252.3 75.0195C246.36 50.4295 264.88 16.4195 286.3 0.0195312C286.3 0.0195312 259.24 24.2495 265.3 55.0195C270.4 80.8695 339.3 100.02 339.3 100.02C339.3 100.02 387.8 113.32 401.3 129.02C409.22 138.23 442.3 172.75 421.3 222.02H409.3C409.3 222.02 415.41 198.9 404.3 187.02C405.619 193.083 405.587 199.363 404.204 205.412C402.821 211.461 400.123 217.131 396.3 222.02H386.3C386.3 222.02 387.22 208.66 381.3 202.02C381.3 202.02 383.48 212.2 379.3 222.02H339.3Z" fill="#009B5A"/>
<path fill-rule="evenodd" clip-rule="evenodd" d="M428.3 223.02C428.3 223.02 446 189.36 426.3 155.02C426.3 155.02 459.93 181.6 464.3 207.02C459.089 215.873 451.902 223.403 443.3 229.02C438.611 226.318 433.56 224.297 428.3 223.02Z" fill="#009B5A"/>
</g>
<defs>
<clipPath id="clip0_1_69">
<rect width="490.12" height="406.34" fill="white"/>
</clipPath>
</defs>
</svg>
