<svg width="105" height="67" viewBox="0 0 105 67" fill="none" xmlns="http://www.w3.org/2000/svg">
<path fill-rule="evenodd" clip-rule="evenodd" d="M48.1926 24.597L55 37.8862L42.2774 52C42.2774 52 20.9201 46.8019 12.5399 40.1698C5.9475 34.9466 0 23.5932 0 14C0 14 2.99883 29.9492 15.4062 32.6415C23.317 34.3551 48.1926 24.597 48.1926 24.597Z" fill="#BB13B4"/>
<path d="M44.5808 60H57.4808L68.5808 47.58C69.6008 46.44 70.5008 45.42 71.1008 44.46H71.2208C71.4008 45.48 71.8808 46.32 72.6608 47.64L79.7408 60H92.2208L79.0208 38.4L98.7608 17.4H85.9808L75.3008 29.28C74.3408 30.36 73.7408 31.02 73.2008 31.98H73.0808C72.8408 31.08 72.5408 30.36 71.8808 29.28L65.2208 17.4H52.8608L65.5208 37.98L44.5808 60Z" fill="#BB13B4"/>
</svg>
