<svg width="100" height="100" viewBox="0 0 100 100" fill="none" xmlns="http://www.w3.org/2000/svg">
<path d="M65.9622 36.3637C69.7278 36.3637 72.7804 33.3111 72.7804 29.5455C72.7804 25.7799 69.7278 22.7273 65.9622 22.7273C62.1966 22.7273 59.144 25.7799 59.144 29.5455C59.144 33.3111 62.1966 36.3637 65.9622 36.3637Z" fill="#C9C9C9"/>
<path d="M31.8109 46.5912C30.9253 46.6054 30.08 46.9636 29.4538 47.59L19.2266 57.8173C18.9001 58.1316 18.6396 58.5078 18.4602 58.924C18.2808 59.3402 18.1862 59.7879 18.1819 60.2411C18.1776 60.6942 18.2637 61.1437 18.4351 61.5632C18.6066 61.9827 18.8599 62.3638 19.1804 62.6843C19.5008 63.0047 19.8819 63.2581 20.3014 63.4295C20.7209 63.6009 21.1704 63.687 21.6236 63.6827C22.0767 63.6784 22.5245 63.5838 22.9407 63.4044C23.3568 63.2251 23.7331 62.9645 24.0474 62.6381L31.8644 54.821L46.4996 69.4562C46.8139 69.7827 47.1902 70.0433 47.6064 70.2226C48.0225 70.402 48.4703 70.4966 48.9234 70.5009C49.3766 70.5052 49.8261 70.4191 50.2456 70.2477C50.6651 70.0763 51.0462 69.8229 51.3666 69.5025C51.6871 69.182 51.9404 68.8009 52.1119 68.3814C52.2833 67.9619 52.3694 67.5124 52.3651 67.0593C52.3608 66.6061 52.2662 66.1583 52.0868 65.7422C51.9074 65.326 51.6469 64.9498 51.3204 64.6355L48.6171 61.9321L55.7281 54.8211L73.7725 72.8654C74.0868 73.1919 74.463 73.4525 74.8792 73.6318C75.2954 73.8112 75.7431 73.9058 76.1963 73.9101C76.6494 73.9144 77.0989 73.8283 77.5184 73.6569C77.9379 73.4854 78.319 73.2321 78.6395 72.9117C78.9599 72.5912 79.2133 72.2101 79.3847 71.7906C79.5561 71.3711 79.6422 70.9216 79.6379 70.4685C79.6336 70.0153 79.539 69.5675 79.3596 69.1514C79.1803 68.7352 78.9197 68.3589 78.5933 68.0446L58.1387 47.5901C57.8159 47.2671 57.4315 47.0123 57.0083 46.8407C56.5851 46.6692 56.1317 46.5843 55.6751 46.5913C54.7895 46.6055 53.9442 46.9637 53.318 47.5901L43.7964 57.1117L34.2748 47.5901C33.952 47.2671 33.5676 47.0123 33.1444 46.8407C32.7212 46.6692 32.2678 46.5843 31.8112 46.5913L31.8109 46.5912Z" fill="#C9C9C9"/>
</svg>
