<svg width="115" height="115" viewBox="0 0 115 115" fill="none" xmlns="http://www.w3.org/2000/svg">
<g clip-path="url(#clip0_32:1921)">
<path d="M57.5002 114.876C89.1882 114.876 114.876 89.188 114.876 57.5C114.876 25.812 89.1882 0.123789 57.5002 0.123789C25.8122 0.123789 0.124023 25.812 0.124023 57.5C0.124023 89.188 25.8122 114.876 57.5002 114.876Z" stroke="#342885" stroke-linecap="round" stroke-linejoin="round"/>
<path d="M54.4226 80.1048C53.8019 80.1577 53.1739 80.1832 52.5384 80.1816C47.691 80.1768 42.9728 78.6177 39.077 75.7332C35.1812 72.8486 32.3132 68.7908 30.8941 64.1558C29.475 59.5207 29.5797 54.5527 31.1929 49.9815C32.8061 45.4104 35.8426 41.4771 39.8565 38.7593C43.8704 36.0415 48.6501 34.6826 53.4934 34.8822C58.3368 35.0817 62.9885 36.8292 66.7652 39.8679C70.542 42.9066 73.2447 47.0764 74.4763 51.7648C75.708 56.4531 75.4038 61.4129 73.6082 65.9155" stroke="#342885" stroke-linecap="round" stroke-linejoin="round"/>
<path d="M54.4298 85.5814C36.9822 85.4923 24.5483 72.9544 24.5483 57.4999C24.55 53.4693 25.4222 49.4867 27.1052 45.8243C28.7882 42.1619 31.2424 38.9062 34.2998 36.2798C37.3572 33.6535 40.9458 31.7184 44.8201 30.607C48.6944 29.4956 52.7631 29.234 56.7478 29.8402C60.7325 30.4464 64.5394 31.906 67.9079 34.1193C71.2764 36.3325 74.1273 39.2472 76.2654 42.6639C78.4035 46.0807 79.7784 49.9189 80.2962 53.9161C80.814 57.9132 80.4624 61.9751 79.2654 65.8239" stroke="#342885" stroke-linecap="round" stroke-linejoin="round"/>
<path d="M79.8843 51.5133H85.0292V63.9422H79.6714" stroke="#342885" stroke-linecap="round" stroke-linejoin="round"/>
<path d="M52.5386 45.0167V57.7279L42.1226 63.9424" stroke="#342885" stroke-linecap="round" stroke-linejoin="round"/>
<path d="M29.8569 57.4998H34.3878" stroke="#342885" stroke-linecap="round" stroke-linejoin="round"/>
<path d="M70.6895 57.4998H75.2203" stroke="#342885" stroke-linecap="round" stroke-linejoin="round"/>
<path d="M52.5381 34.8185V39.3493" stroke="#342885" stroke-linecap="round" stroke-linejoin="round"/>
<path d="M52.5381 75.6509V80.1817" stroke="#342885" stroke-linecap="round" stroke-linejoin="round"/>
<path d="M31.7261 38.7848L36.1381 23.3675H68.9634L73.3507 38.7848" stroke="#342885" stroke-linecap="round" stroke-linejoin="round"/>
<path d="M38.8789 23.3674V11.9462H65.6358V23.3674" stroke="#342885" stroke-linecap="round" stroke-linejoin="round"/>
<path d="M31.7261 76.2079L36.1406 91.6253H54.43" stroke="#342885" stroke-linecap="round" stroke-linejoin="round"/>
<path d="M38.8789 91.6253V103.044H54.4299" stroke="#342885" stroke-linecap="round" stroke-linejoin="round"/>
<path d="M69.0054 71.0852H78.9857C79.4808 71.0852 79.8844 70.5504 79.8844 69.8918C79.8844 69.2332 79.4833 68.7009 78.9857 68.7009H69.0054" stroke="#342885" stroke-linecap="round" stroke-linejoin="round"/>
<path d="M69.0054 103.187H78.9857C79.4808 103.187 79.8844 102.655 79.8844 101.997C79.8844 101.338 79.4833 100.803 78.9857 100.803H69.0054" stroke="#342885" stroke-linecap="round" stroke-linejoin="round"/>
<path d="M76.5938 71.0853C76.5938 71.0853 77.0765 81.7613 68.7402 86.2402" stroke="#342885" stroke-linecap="round" stroke-linejoin="round"/>
<path d="M76.5863 100.796C76.5863 100.796 77.0815 90.7043 68.7402 86.2254" stroke="#342885" stroke-linecap="round" stroke-linejoin="round"/>
<path d="M68.4385 78.9485H72.6673C72.6673 78.9485 71.2783 82.286 68.7405 83.4844" stroke="#342885" stroke-linecap="round" stroke-linejoin="round"/>
<path d="M68.4385 98.5872H72.6673C72.6673 98.5872 71.2783 95.4355 68.7405 94.2371" stroke="#342885" stroke-linecap="round" stroke-linejoin="round"/>
<path d="M68.7402 87.6563V93.5167" stroke="#342885" stroke-linecap="round" stroke-linejoin="round"/>
<path d="M69.0056 71.0852H58.4954C58.0003 71.0852 57.5967 70.5504 57.5967 69.8918C57.5967 69.2332 58.0003 68.7009 58.4954 68.7009H69.0056" stroke="#342885" stroke-linecap="round" stroke-linejoin="round"/>
<path d="M69.4166 103.187H58.4954C58.0003 103.187 57.5967 102.655 57.5967 101.997C57.5967 101.338 58.0003 100.803 58.4954 100.803H69.0056" stroke="#342885" stroke-linecap="round" stroke-linejoin="round"/>
<path d="M60.8894 71.0853C60.8894 71.0853 60.3942 81.7613 68.7404 86.2402" stroke="#342885" stroke-linecap="round" stroke-linejoin="round"/>
<path d="M60.8947 100.796C60.8947 100.796 60.3996 90.7043 68.7408 86.2254" stroke="#342885" stroke-linecap="round" stroke-linejoin="round"/>
<path d="M68.4386 78.9485H64.8164C64.8164 78.9485 66.2054 82.286 68.7407 83.4844" stroke="#342885" stroke-linecap="round" stroke-linejoin="round"/>
<path d="M68.4386 98.5872H64.8164C64.8164 98.5872 66.2054 95.4355 68.7407 94.2371" stroke="#342885" stroke-linecap="round" stroke-linejoin="round"/>
<path d="M68.7402 87.6563V93.5167" stroke="#342885" stroke-linecap="round" stroke-linejoin="round"/>
</g>
<defs>
<clipPath id="clip0_32:1921">
<rect width="115" height="115" fill="white"/>
</clipPath>
</defs>
</svg>
