<svg width="93" height="94" viewBox="0 0 93 94" fill="none" xmlns="http://www.w3.org/2000/svg">
<g clip-path="url(#clip0_896_1819)">
<path d="M81.0567 5.91405L86.2787 9.50659L77.2867 22.5347L72.0648 18.9422L81.0567 5.91405Z" stroke="#1C2473" stroke-linecap="round" stroke-linejoin="round"/>
<path d="M86.2218 9.59001C86.5036 9.18167 87.0635 9.07859 87.4722 9.35979C87.8809 9.641 87.9838 10.2 87.702 10.6083L78.7486 23.5805C78.4668 23.9888 77.907 24.0919 77.4982 23.8107C77.0895 23.5295 76.9866 22.9705 77.2685 22.5622L86.2218 9.59001Z" stroke="#1C2473" stroke-linecap="round" stroke-linejoin="round"/>
<path fill-rule="evenodd" clip-rule="evenodd" d="M87.7307 13.0231C88.3672 13.4606 89.2031 13.3512 89.5986 12.7791L81.0097 25.2209C81.4051 24.6453 81.2103 23.8292 80.5738 23.3917C79.9373 22.9543 79.1026 23.0636 78.7071 23.6358L87.296 11.1939C86.9005 11.7672 87.0919 12.5857 87.7307 13.0231Z" stroke="#1C2473" stroke-linecap="round" stroke-linejoin="round"/>
<path d="M89.4 13.0676C89.8903 12.3572 90.8646 12.1781 91.5762 12.6676C92.2877 13.1572 92.4671 14.1299 91.9768 14.8403L83.6273 26.9376C83.137 27.648 82.1627 27.8271 81.4511 27.3375C80.7395 26.848 80.5602 25.8752 81.0505 25.1648L89.4 13.0676Z" stroke="#1C2473" stroke-linecap="round" stroke-linejoin="round"/>
<path d="M91.8454 15.0322L83.6471 26.9105C84.1995 27.2906 84.8806 27.436 85.5405 27.3147C86.2003 27.1935 86.7849 26.8155 87.1656 26.2639L92.4924 18.546C92.6811 18.2729 92.814 17.9654 92.8836 17.6409C92.9532 17.3165 92.9581 16.9816 92.8981 16.6553C92.838 16.329 92.7141 16.0177 92.5335 15.7392C92.3528 15.4607 92.119 15.2205 91.8454 15.0322V15.0322Z" stroke="#1C2473" stroke-linecap="round" stroke-linejoin="round"/>
<path d="M72.1226 18.7327C71.8408 19.141 71.281 19.2441 70.8722 18.9629C70.4635 18.6817 70.3606 18.1227 70.6424 17.7144L79.5958 4.74219C79.8776 4.33384 80.4374 4.23077 80.8462 4.51197C81.2549 4.79317 81.3578 5.35216 81.0759 5.76051L72.1226 18.7327Z" stroke="#1C2473" stroke-linecap="round" stroke-linejoin="round"/>
<path fill-rule="evenodd" clip-rule="evenodd" d="M70.6139 15.298C69.9774 14.8606 69.1415 14.9699 68.746 15.5421L77.3349 3.10022C76.9394 3.6758 77.1343 4.49198 77.7707 4.92943C78.4072 5.36687 79.242 5.25751 79.6375 4.68538L71.0486 17.1272C71.4441 16.5539 71.2492 15.7355 70.6139 15.298Z" stroke="#1C2473" stroke-linecap="round" stroke-linejoin="round"/>
<path d="M68.9438 15.2538C68.4535 15.9642 67.4791 16.1433 66.7676 15.6538C66.056 15.1642 65.8767 14.1915 66.367 13.4811L74.7165 1.38382C75.2068 0.67341 76.1811 0.494348 76.8927 0.98388C77.6042 1.47341 77.7836 2.44616 77.2932 3.15657L68.9438 15.2538Z" stroke="#1C2473" stroke-linecap="round" stroke-linejoin="round"/>
<path d="M66.4993 13.2881L74.6976 1.40979C74.4241 1.22159 74.1161 1.08903 73.7912 1.01968C73.4664 0.950322 73.131 0.945526 72.8043 1.00557C72.4775 1.06562 72.1659 1.18932 71.887 1.36962C71.6082 1.54993 71.3677 1.7833 71.1792 2.05641L65.8516 9.77526C65.6631 10.0484 65.5304 10.3559 65.4609 10.6802C65.3914 11.0046 65.3866 11.3394 65.4468 11.6656C65.5069 11.9918 65.6308 12.303 65.8114 12.5813C65.992 12.8597 66.2258 13.0999 66.4993 13.2881V13.2881Z" stroke="#1C2473" stroke-linecap="round" stroke-linejoin="round"/>
<path d="M72.9246 19.5L76.4006 21.8913C76.7356 22.1218 76.8202 22.5797 76.5895 22.914C76.3588 23.2482 75.9001 23.3323 75.5651 23.1018L72.0892 20.7105C71.7541 20.48 71.6695 20.0221 71.9002 19.6879C72.1309 19.3536 72.5896 19.2695 72.9246 19.5Z" stroke="#1C2473" stroke-linecap="round" stroke-linejoin="round"/>
<path d="M70.4572 29.706C70.4572 29.706 73.6315 24.8654 75.8569 24.7031C78.0822 24.5407 72.7172 21.1552 72.7172 21.1552" stroke="#1C2473" stroke-linecap="round" stroke-linejoin="round"/>
<path d="M67.2805 27.52C67.2805 27.52 70.6808 22.8359 70.0409 20.7016C69.401 18.5674 74.4801 22.3674 74.4801 22.3674" stroke="#1C2473" stroke-linecap="round" stroke-linejoin="round"/>
<path d="M67.0213 27.3529L70.6425 29.8442C70.8868 30.0123 70.9484 30.3463 70.7801 30.5903L70.7794 30.5912C70.611 30.8352 70.2764 30.8967 70.0321 30.7286L66.4109 28.2373C66.1665 28.0692 66.105 27.7352 66.2733 27.4912L66.274 27.4903C66.4424 27.2463 66.777 27.1848 67.0213 27.3529Z" stroke="#1C2473" stroke-linecap="round" stroke-linejoin="round"/>
<path d="M64.9283 37.6789L69.8299 30.5785L66.6002 28.3568L59.8112 38.19" stroke="#1C2473" stroke-linecap="round" stroke-linejoin="round"/>
<path d="M65.1346 37.3809C68.2928 40.1253 72.3007 46.9529 72.3007 46.9529C72.3007 46.9529 69.1229 50.2982 64.5062 43.8988" stroke="#1C2473" stroke-linecap="round" stroke-linejoin="round"/>
<path d="M62.1598 34.7895C62.1598 34.7895 60.5375 33.7695 58.9947 34.184C56.0188 34.9829 43.0276 35.9418 42.0971 36.423C41.1666 36.9042 30.8608 54.1073 28.5593 57.2108C26.2579 60.3144 25.2156 60.2039 25.2156 60.2039" stroke="#1C2473" stroke-linecap="round" stroke-linejoin="round"/>
<path d="M71.7242 47.3797C71.7242 47.3797 69.4631 46.1135 69.0722 44.5974C68.6814 43.0813 69.5876 42.7302 69.5876 42.7302" stroke="#1C2473" stroke-linecap="round" stroke-linejoin="round"/>
<path d="M56.6669 40.6307C56.6416 40.4684 48.9013 43.3647 47.528 43.1092C47.528 43.1092 46.918 47.5677 46.375 48.187C46.9789 48.4031 47.6294 48.4551 48.2601 48.3378C48.8908 48.2205 49.4789 47.938 49.9644 47.5193C51.7181 46.0677 56.6957 40.3429 58.0471 39.346C59.3985 38.3491 62.906 35.9708 65.0264 37.9278C67.1272 39.8686 64.8984 42.8962 64.3853 43.534C63.8722 44.1717 59.0157 48.6083 57.0567 50.6367C55.0977 52.6651 54.1487 53.4099 52.6267 56.6539C51.1047 59.8979 46.7889 65.0758 41.3201 66.9937C35.8513 68.9115 33.9084 71.0964 33.9084 71.0964" stroke="#1C2473" stroke-linecap="round" stroke-linejoin="round"/>
<path fill-rule="evenodd" clip-rule="evenodd" d="M60.5284 38.9049C59.3396 40.4395 58.7908 42.3711 60.0406 43.337C61.2905 44.3028 63.4548 43.7479 64.6447 42.2134C65.8346 40.6789 66.1609 39.0224 65.0264 37.923C63.9944 36.9238 61.7183 37.3704 60.5284 38.9049Z" stroke="#1C2473" stroke-linecap="round" stroke-linejoin="round"/>
<path d="M63.6253 44.6169C63.6253 44.6169 66.2865 49.3483 66.5264 51.6736C66.7662 53.999 65.1669 58.0258 65.0401 59.1447C64.9133 60.2636 64.1073 59.9033 63.6945 59.7376C63.2817 59.5718 61.4749 57.9786 62.3224 55.0431C62.3224 55.0431 62.1391 53.0239 62.3812 52.2803C62.3812 52.2803 60.458 49.8962 59.9068 47.8517" stroke="#1C2473" stroke-linecap="round" stroke-linejoin="round"/>
<path d="M62.3109 57.8854C62.2037 57.9913 60.0833 64.0027 59.9127 64.9593C59.7362 65.9517 57.4821 65.2506 57.2503 63.6413C57.1442 62.9011 57.2192 60.6735 58.2188 59.1022C58.2188 59.1022 58.0839 54.341 58.8622 53.4143C58.8622 53.4143 57.301 50.8449 57.316 50.3671" stroke="#1C2473" stroke-linecap="round" stroke-linejoin="round"/>
<path d="M65.9533 55.3713C65.0723 55.7719 64.6134 56.7412 64.3183 57.661C64.0877 58.3782 63.9147 59.1299 63.9908 59.8782" stroke="#1C2473" stroke-linecap="round" stroke-linejoin="round"/>
<path d="M61.1487 61.0767C60.7808 61.2902 60.461 61.577 60.209 61.9194C59.4288 62.9036 58.9271 64.0787 58.7562 65.3222" stroke="#1C2473" stroke-linecap="round" stroke-linejoin="round"/>
<path d="M57.1823 62.3072C57.067 62.3072 55.0111 65.511 54.7793 66.2489C54.5476 66.9868 52.6831 65.8862 52.5886 64.7132C52.494 63.5401 52.5378 60.9143 53.9192 59.5329C53.9192 59.5329 53.6989 55.9643 54.4772 55.0238L54.1313 53.9302" stroke="#1C2473" stroke-linecap="round" stroke-linejoin="round"/>
<path d="M56.6519 63.0357C56.6092 62.9712 56.5112 62.9873 56.4374 63.0138C55.1022 63.4984 53.9423 64.7647 53.4903 66.1105" stroke="#1C2473" stroke-linecap="round" stroke-linejoin="round"/>
<path d="M53.9042 56.678C53.9042 56.678 47.5314 65.0953 45.9794 67.2987C44.4274 69.502 40.5682 74.2828 38.9044 74.2897C37.2406 74.2966 38.276 72.312 38.5354 71.5188C38.8813 70.4655 41.32 66.989 41.32 66.989" stroke="#1C2473" stroke-linecap="round" stroke-linejoin="round"/>
<path d="M18.56 61.9171L20.2714 60.0427C24.0637 61.8455 35.3011 77.7385 35.7946 78.0378C35.7946 78.0378 25.3454 87.7735 18.56 90.558" stroke="#1C2473" stroke-linecap="round" stroke-linejoin="round"/>
<path d="M20.7454 60.3144C20.7454 60.3144 23.5484 58.9088 24.0442 58.7523C24.0442 58.7523 35.4304 72.8173 36.3908 74.8295L34.7927 76.7992" stroke="#1C2473" stroke-linecap="round" stroke-linejoin="round"/>
</g>
<defs>
<clipPath id="clip0_896_1819">
<rect width="93" height="94" fill="white" transform="matrix(-1 0 0 1 93 0)"/>
</clipPath>
</defs>
</svg>
