<svg width="13" height="15" viewBox="0 0 13 15" fill="none" xmlns="http://www.w3.org/2000/svg">
<path d="M8.87618 0.636609C7.69618 0.400007 6.47511 0.471631 5.33086 0.844564C4.18661 1.2175 3.15784 1.87914 2.34388 2.76562C1.52991 3.65209 0.958242 4.73345 0.68407 5.90529C0.409897 7.07713 0.44248 8.29987 0.778672 9.45544C1.11487 10.611 1.74331 11.6604 2.60333 12.5023C3.46336 13.3441 4.5259 13.95 5.68839 14.2615C6.85087 14.573 8.07402 14.5795 9.23975 14.2804C10.4055 13.9812 11.4744 13.3866 12.3433 12.554L10.7776 10.9201C10.1896 11.4836 9.4662 11.886 8.67733 12.0884C7.88845 12.2908 7.06072 12.2864 6.27404 12.0757C5.48737 11.8649 4.76832 11.4548 4.18632 10.8851C3.60433 10.3154 3.17904 9.60529 2.95153 8.82329C2.72403 8.04129 2.70198 7.21384 2.88751 6.42083C3.07305 5.62782 3.45991 4.89604 4.01074 4.29614C4.56157 3.69625 5.25776 3.2485 6.0321 2.99612C6.80643 2.74375 7.63276 2.69528 8.43129 2.8554L8.87618 0.636609Z" fill="white"/>
</svg>
