<svg width="277" height="61" viewBox="0 0 277 61" fill="none" xmlns="http://www.w3.org/2000/svg">
<g clip-path="url(#clip0)">
<path d="M62.2097 29.0097L61.4447 29.1894L61.2646 28.4258L62.5247 28.0664H63.1998V32.4684H62.2097V29.0097Z" fill="#BD9E5E"/>
<path d="M64.1897 31.9743L64.6847 31.2556C64.9998 31.5251 65.2698 31.6149 65.6298 31.6149C66.1698 31.6149 66.4399 31.2107 66.5299 30.6267C66.3049 30.8064 66.0348 30.9412 65.6298 30.9412C64.6847 30.9412 64.0547 30.4021 64.0547 29.5038C64.0547 28.6054 64.7297 27.9766 65.7198 27.9766C66.3049 27.9766 66.6649 28.1113 66.9799 28.4707C67.2949 28.7851 67.5199 29.2343 67.5199 30.1326C67.5199 31.57 66.8449 32.5133 65.6298 32.5133C64.9998 32.5133 64.5947 32.2887 64.1897 31.9743ZM66.5749 29.5038C66.5749 29.0995 66.3049 28.83 65.8098 28.83C65.3148 28.83 65.0448 29.0995 65.0448 29.5038C65.0448 29.908 65.3148 30.1775 65.8098 30.1775C66.3049 30.1326 66.5749 29.8631 66.5749 29.5038Z" fill="#BD9E5E"/>
<path d="M70.3553 28.8749H68.2852V28.0664H71.4354V28.7851L69.4552 32.4234H68.3752L70.3553 28.8749Z" fill="#BD9E5E"/>
<path d="M72.0205 31.7477L72.6956 31.1189C73.0106 31.4333 73.3256 31.6579 73.7306 31.6579C74.0907 31.6579 74.3607 31.4333 74.3607 31.1189C74.3607 30.7595 74.0457 30.5799 73.5056 30.5799H73.1006L72.9656 29.951L74.0007 28.9179H72.2905V28.1094H75.2608V28.8281L74.1357 29.8612C74.7207 29.951 75.3058 30.2654 75.3058 31.074C75.3058 31.8825 74.7207 32.5113 73.7306 32.5113C72.9206 32.5113 72.3805 32.1969 72.0205 31.7477Z" fill="#BD9E5E"/>
<path d="M1.36523 28.0664H4.65047V28.9198H2.3103V29.8182H4.38045V30.6716H2.3103V31.57H4.69547V32.4234H1.36523V28.0664Z" fill="#BD9E5E"/>
<path d="M5.23535 31.7946L5.82039 31.1208C6.22542 31.4353 6.63045 31.6598 7.12549 31.6598C7.53052 31.6598 7.75554 31.5251 7.75554 31.2556C7.75554 31.031 7.62053 30.8962 6.85547 30.7166C5.9554 30.492 5.41537 30.2674 5.41537 29.369C5.41537 28.5605 6.04541 28.0664 6.94548 28.0664C7.57552 28.0664 8.11556 28.2461 8.5656 28.6054L8.07056 29.3241C7.66553 29.0546 7.3055 28.8749 6.94548 28.8749C6.58545 28.8749 6.40544 29.0546 6.40544 29.2792C6.40544 29.5487 6.58545 29.6385 7.35051 29.8631C8.25057 30.0877 8.74561 30.4021 8.74561 31.1657C8.74561 32.0192 8.07056 32.5133 7.12549 32.5133C6.45044 32.5133 5.77539 32.2438 5.23535 31.7946Z" fill="#BD9E5E"/>
<path d="M10.5464 28.9648H9.19629V28.0664H12.8416V28.9648H11.4915V32.4234H10.5464V28.9648Z" fill="#BD9E5E"/>
<path d="M13.4707 31.4336H14.4608V32.4218H13.4707V31.4336Z" fill="#BD9E5E"/>
<path d="M50.5989 0.847656H25.082V4.17159H50.5989V0.847656Z" fill="#1C2473"/>
<path d="M34.2626 9.69531H18.7365L8.38574 16.9271L19.9516 25.0124L30.9324 17.3763V27.1684L8.38574 42.8898L19.9966 50.975H34.2626V9.69531ZM30.9324 45.7645V47.6511H24.7219L30.9324 43.294V45.7645ZM30.9324 39.2065L19.9516 46.8425L14.1912 42.8448L30.8873 31.1661V39.2065H30.9324ZM30.9324 13.2438L19.9516 20.8799L14.1912 16.8822L19.7716 12.9743H30.9324V13.2438Z" fill="#1C2473"/>
<path d="M50.5989 56.457H25.082V59.781H50.5989V56.457Z" fill="#1C2473"/>
<path d="M55.8638 35.6579L44.838 43.3839V33.5917L67.4747 17.7806L55.8638 9.69531H41.5078V50.975H57.1239L67.4747 43.7432L55.8638 35.6579ZM44.793 17.3314V13.0192H51.1385L44.793 17.4212V17.3314ZM44.793 21.5088L55.8638 13.7829L61.6242 17.7806L44.838 29.5042V21.5088H44.793ZM56.0439 47.6511H44.523L55.8638 39.7455L61.6242 43.7432L56.0439 47.6511Z" fill="#1C2473"/>
</g>
<path d="M221.401 14.6466C222.124 14.6466 222.71 14.0567 222.71 13.3291C222.71 12.6016 222.124 12.0117 221.401 12.0117C220.678 12.0117 220.092 12.6016 220.092 13.3291C220.092 14.0567 220.678 14.6466 221.401 14.6466Z" fill="#1C2473"/>
<path d="M225.423 14.6466C226.146 14.6466 226.732 14.0567 226.732 13.3291C226.732 12.6016 226.146 12.0117 225.423 12.0117C224.699 12.0117 224.113 12.6016 224.113 13.3291C224.113 14.0567 224.699 14.6466 225.423 14.6466Z" fill="#1C2473"/>
<path d="M240.807 25.3745L240.246 24.2453C241.743 23.5866 242.818 22.128 242.818 20.3401C242.818 18.0346 240.948 16.1055 238.61 16.1055H235.243H233.934H232.624H230.754L232.624 18.3639V28.7152H235.243V27.7741V24.5276H237.487L238.61 26.7861C239.171 27.9623 240.246 28.7152 241.556 28.7152H243.332V26.3626H242.444C241.556 26.3626 241.041 25.845 240.807 25.3745ZM238.469 22.128H235.29V18.5992H238.469C239.451 18.5992 240.2 19.399 240.2 20.3401C240.2 21.3752 239.405 22.128 238.469 22.128Z" fill="#1C2473"/>
<path d="M134.286 16.1992L136.157 18.4577V28.8089H138.728V16.1992H136.157H134.286Z" fill="#1C2473"/>
<path d="M99.3096 16.1992L101.18 18.4577V28.8089H103.752V16.1992H101.18H99.3096Z" fill="#1C2473"/>
<path d="M116.096 24.292L109.316 16.1992H107.773H105.902L107.773 18.4577V28.8089H110.391V21.5631L116.377 28.8089H118.715V16.1992H116.096V24.292Z" fill="#1C2473"/>
<path d="M244.781 16.1992L246.652 18.4577V28.8089H249.224V16.1992H246.652H244.781Z" fill="#1C2473"/>
<path d="M192.27 24.292L185.443 16.1992H183.947H182.076L183.947 18.4577V28.8089H186.518V21.5631L192.504 28.8089H194.842V16.1992H192.27V24.292Z" fill="#1C2473"/>
<path d="M164.307 21.2808H158.369V16.1992H155.797V28.8089H158.369V23.6804H158.93H164.307V28.8089H166.926V16.1992H164.307V21.2808Z" fill="#1C2473"/>
<path d="M260.306 25.9867C259.745 26.269 259.09 26.4102 258.436 26.4102C257.875 26.4102 257.36 26.3161 256.846 26.1279C256.331 25.9397 255.911 25.6574 255.537 25.328C255.162 24.9987 254.835 24.5752 254.648 24.1047C254.414 23.6342 254.321 23.0696 254.321 22.505C254.321 21.9403 254.414 21.3757 254.648 20.9052C254.882 20.4347 255.162 20.0112 255.537 19.6819C255.911 19.3525 256.378 19.0702 256.846 18.882C257.36 18.6938 257.875 18.5997 258.436 18.5997C259.137 18.5997 259.745 18.7409 260.306 19.0232C260.82 19.3055 261.288 19.6819 261.662 20.1524L263.72 18.5056L263.486 18.2233C262.831 17.5175 262.083 16.9529 261.241 16.5765C260.353 16.153 259.418 15.9648 258.389 15.9648C257.454 15.9648 256.565 16.1531 255.724 16.4824C254.929 16.8118 254.18 17.3293 253.619 17.8939C253.011 18.5056 252.544 19.2114 252.217 20.0583C251.889 20.8582 251.702 21.7051 251.702 22.552C251.702 23.446 251.889 24.2929 252.217 25.0457C252.544 25.8456 253.058 26.5984 253.619 27.2101C254.227 27.8217 254.929 28.2922 255.724 28.6216C256.518 28.951 257.407 29.1392 258.389 29.1392C259.418 29.1392 260.353 28.951 261.241 28.5275C262.13 28.104 262.878 27.5865 263.486 26.8807L263.72 26.5984L261.662 24.9516C261.288 25.328 260.867 25.7044 260.306 25.9867Z" fill="#1C2473"/>
<path d="M149.998 25.9867C149.437 26.269 148.783 26.4102 148.128 26.4102C147.567 26.4102 147.053 26.3161 146.538 26.1279C146.024 25.9397 145.603 25.6574 145.229 25.328C144.855 24.9987 144.527 24.5752 144.34 24.1047C144.107 23.6342 144.013 23.0696 144.013 22.505C144.013 21.9403 144.107 21.3757 144.34 20.9052C144.574 20.4347 144.855 20.0112 145.229 19.6819C145.603 19.3525 146.071 19.0702 146.538 18.882C147.053 18.6938 147.567 18.5997 148.128 18.5997C148.829 18.5997 149.437 18.7409 149.998 19.0232C150.513 19.3055 150.98 19.6819 151.355 20.1524L153.412 18.5056L153.178 18.2233C152.524 17.5175 151.775 16.9529 150.934 16.5765C150.045 16.153 149.11 15.9648 148.081 15.9648C147.146 15.9648 146.258 16.1531 145.416 16.4824C144.621 16.8118 143.873 17.3293 143.312 17.8939C142.704 18.5056 142.236 19.2114 141.909 20.0583C141.582 20.8582 141.395 21.7051 141.395 22.552C141.395 23.446 141.582 24.2929 141.909 25.0457C142.236 25.8456 142.751 26.5984 143.312 27.2101C143.92 27.8217 144.621 28.2922 145.416 28.6216C146.211 28.951 147.099 29.1392 148.081 29.1392C149.11 29.1392 150.045 28.951 150.934 28.5275C151.822 28.104 152.57 27.5865 153.178 26.8807L153.412 26.5984L151.355 24.9516C150.98 25.328 150.513 25.7044 149.998 25.9867Z" fill="#1C2473"/>
<path d="M274.382 16.1992V21.2808H268.49V16.1992H265.871V28.8089H268.49V23.6804H269.004H274.382V28.8089H277V16.1992H274.382Z" fill="#1C2473"/>
<path d="M125.449 26.1741V23.9156V23.6804H130.219V21.2808H125.449V21.1866V18.8341V18.5518H125.543H131.949V16.1992H124.14H122.83H120.96L122.83 18.4577V28.8089H124.14H125.683H132.65V26.4093H125.449V26.1741Z" fill="#1C2473"/>
<path d="M173.565 26.1741V23.9156V23.6804H178.335V21.2808H173.565V21.1866V18.8341V18.5518H173.659H180.065V16.1992H172.256H170.947H169.076L170.947 18.4577V28.8089H172.256H173.799H180.72V26.4093H173.565V26.1741Z" fill="#1C2473"/>
<path d="M226.499 23.6335C226.499 25.3273 225.003 26.4095 223.413 26.4095C221.823 26.4095 220.327 25.3273 220.327 23.6335V16.1523H217.708H215.838L217.708 18.4108V23.7746C217.708 26.3624 219.906 29.0444 223.413 29.0444C226.92 29.0444 229.118 26.3624 229.118 23.7746V16.1523H226.499V23.6335Z" fill="#1C2473"/>
<path d="M212.611 16.1992H203.726V18.5518H210.553L202.697 26.8328L204.287 28.7619L204.334 28.8089H214.341V26.4093H206.906L214.434 18.4106L212.611 16.1992Z" fill="#1C2473"/>
<path d="M101.29 42.042H99.3096V40.6719H104.756V42.042H102.776V47.3357H101.352V42.042H101.29Z" fill="#BD9E5E"/>
<path d="M107.294 40.6719H108.718V43.2876H111.441V40.6719H112.864V47.3357H111.441V44.6577H108.779V47.3357H107.356V40.6719H107.294Z" fill="#BD9E5E"/>
<path d="M115.897 40.6719H120.911V41.9797H117.383V43.3499H120.478V44.6577H117.383V46.0278H120.973V47.3357H115.959V40.6719H115.897Z" fill="#BD9E5E"/>
<path d="M127.409 46.4013L128.276 45.3425C128.895 45.8408 129.514 46.1522 130.256 46.1522C130.875 46.1522 131.185 45.903 131.185 45.5294C131.185 45.1557 130.937 44.9689 129.823 44.6575C128.461 44.3461 127.657 43.9724 127.657 42.6023C127.657 41.419 128.647 40.6094 129.947 40.6094C130.937 40.6094 131.742 40.9208 132.423 41.4813L131.68 42.6023C131.123 42.1663 130.504 41.9172 129.947 41.9172C129.39 41.9172 129.08 42.1663 129.08 42.54C129.08 42.976 129.39 43.1005 130.504 43.4119C131.866 43.7856 132.608 44.2215 132.608 45.4048C132.608 46.7127 131.618 47.46 130.194 47.46C129.266 47.46 128.214 47.0863 127.409 46.4013Z" fill="#BD9E5E"/>
<path d="M134.837 40.6717H136.384L137.746 45.1557L139.231 40.6094H140.469L141.955 45.1557L143.316 40.6717H144.864L142.636 47.3977H141.398L139.912 43.0382L138.427 47.3977H137.189L134.837 40.6717Z" fill="#BD9E5E"/>
<path d="M147.463 40.6719H148.886V47.3357H147.463V40.6719Z" fill="#BD9E5E"/>
<path d="M151.486 46.4013L152.353 45.3425C152.972 45.8408 153.591 46.1522 154.333 46.1522C154.952 46.1522 155.262 45.903 155.262 45.5294C155.262 45.1557 155.014 44.9689 153.9 44.6575C152.539 44.3461 151.734 43.9724 151.734 42.6023C151.734 41.419 152.724 40.6094 154.024 40.6094C155.014 40.6094 155.819 40.9208 156.5 41.4813L155.757 42.6023C155.2 42.1663 154.581 41.9172 154.024 41.9172C153.467 41.9172 153.157 42.1663 153.157 42.54C153.157 42.976 153.467 43.1005 154.581 43.4119C155.943 43.7856 156.685 44.2215 156.685 45.4048C156.685 46.7127 155.695 47.46 154.272 47.46C153.281 47.46 152.291 47.0863 151.486 46.4013Z" fill="#BD9E5E"/>
<path d="M158.976 46.4013L159.842 45.3425C160.461 45.8408 161.08 46.1522 161.823 46.1522C162.442 46.1522 162.751 45.903 162.751 45.5294C162.751 45.1557 162.504 44.9689 161.389 44.6575C160.028 44.3461 159.223 43.9724 159.223 42.6023C159.223 41.419 160.213 40.6094 161.513 40.6094C162.504 40.6094 163.308 40.9208 163.989 41.4813L163.246 42.6023C162.689 42.1663 162.07 41.9172 161.513 41.9172C160.956 41.9172 160.647 42.1663 160.647 42.54C160.647 42.976 160.956 43.1005 162.07 43.4119C163.432 43.7856 164.175 44.2215 164.175 45.4048C164.175 46.7127 163.184 47.46 161.761 47.46C160.771 47.46 159.78 47.0863 158.976 46.4013Z" fill="#BD9E5E"/>
<path d="M173.397 40.6719H174.759L177.606 47.398H176.058L175.439 45.9033H172.654L172.035 47.398H170.55L173.397 40.6719ZM174.944 44.5332L174.078 42.3534L173.211 44.5332H174.944Z" fill="#BD9E5E"/>
<path d="M179.896 44.4706V40.6717H181.319V44.4084C181.319 45.4671 181.876 46.0276 182.743 46.0276C183.609 46.0276 184.166 45.4671 184.166 44.4084V40.6094H185.59V44.3461C185.59 46.339 184.476 47.3355 182.681 47.3355C181.01 47.46 179.896 46.4635 179.896 44.4706Z" fill="#BD9E5E"/>
<path d="M188.251 44.0347C188.251 42.1663 189.675 40.6094 191.717 40.6094C192.955 40.6094 193.636 41.1076 194.255 41.6681L193.388 42.6646C192.893 42.2286 192.46 41.9172 191.717 41.9172C190.603 41.9172 189.798 42.8514 189.798 44.0347C189.798 45.1557 190.603 46.1522 191.717 46.1522C192.46 46.1522 192.955 45.8408 193.45 45.3425L194.378 46.339C193.698 47.0863 192.955 47.46 191.655 47.46C189.736 47.46 188.251 45.9653 188.251 44.0347Z" fill="#BD9E5E"/>
<path d="M198.527 42.042H196.546V40.6719H201.993V42.042H199.95V47.3357H198.527V42.042Z" fill="#BD9E5E"/>
<path d="M204.592 40.6719H206.015V47.3357H204.592V40.6719Z" fill="#BD9E5E"/>
<path d="M208.8 44.0347C208.8 42.1663 210.285 40.6094 212.328 40.6094C214.37 40.6094 215.856 42.1663 215.856 44.0347C215.856 45.903 214.37 47.46 212.328 47.46C210.285 47.46 208.8 45.903 208.8 44.0347ZM214.308 44.0347C214.308 42.9137 213.504 41.9172 212.328 41.9172C211.152 41.9172 210.347 42.8514 210.347 44.0347C210.347 45.1557 211.152 46.1522 212.328 46.1522C213.504 46.0899 214.308 45.1557 214.308 44.0347Z" fill="#BD9E5E"/>
<path d="M218.518 40.6719H219.879L222.974 44.7823V40.6719H224.398V47.3357H223.16L219.941 43.1007V47.3357H218.518V40.6719Z" fill="#BD9E5E"/>
<path d="M227.431 40.6719H232.444V41.9797H228.916V43.3499H232.011V44.6577H228.916V46.0278H232.506V47.3357H227.493V40.6719H227.431Z" fill="#BD9E5E"/>
<path d="M235.167 40.6719H240.18V41.9797H236.652V43.3499H239.747V44.6577H236.652V46.0278H240.242V47.3357H235.229V40.6719H235.167Z" fill="#BD9E5E"/>
<path d="M242.903 40.6719H245.936C246.803 40.6719 247.422 40.921 247.855 41.3569C248.226 41.7306 248.412 42.2288 248.412 42.9139C248.412 43.9726 247.855 44.6577 246.988 44.9691L248.598 47.3357H246.926L245.503 45.2182H244.389V47.3357H242.965V40.6719H242.903ZM245.812 43.9104C246.493 43.9104 246.926 43.5367 246.926 42.9762C246.926 42.3534 246.493 42.042 245.812 42.042H244.389V43.9726H245.812V43.9104Z" fill="#BD9E5E"/>
<defs>
<clipPath id="clip0">
<rect width="75.0553" height="59.3721" fill="white" transform="translate(0.855469 0.847656)"/>
</clipPath>
</defs>
</svg>
