<svg width="76" height="60" viewBox="0 0 76 60" fill="none" xmlns="http://www.w3.org/2000/svg">
<path d="M61.3542 28.162L60.5892 28.3417L60.4092 27.5781L61.6693 27.2188H62.3443V31.6207H61.3542V28.162Z" fill="#BD9E5E"/>
<path d="M63.3342 31.1266L63.8293 30.4079C64.1443 30.6774 64.4143 30.7673 64.7743 30.7673C65.3144 30.7673 65.5844 30.363 65.6744 29.7791C65.4494 29.9587 65.1794 30.0935 64.7743 30.0935C63.8293 30.0935 63.1992 29.5545 63.1992 28.6561C63.1992 27.7578 63.8743 27.1289 64.8643 27.1289C65.4494 27.1289 65.8094 27.2637 66.1244 27.623C66.4395 27.9374 66.6645 28.3866 66.6645 29.285C66.6645 30.7223 65.9894 31.6656 64.7743 31.6656C64.1443 31.6656 63.7393 31.441 63.3342 31.1266ZM65.7194 28.6561C65.7194 28.2519 65.4494 27.9823 64.9543 27.9823C64.4593 27.9823 64.1893 28.2519 64.1893 28.6561C64.1893 29.0604 64.4593 29.3299 64.9543 29.3299C65.4494 29.285 65.7194 29.0155 65.7194 28.6561Z" fill="#BD9E5E"/>
<path d="M69.4998 28.0273H67.4297V27.2188H70.5799V27.9374L68.5998 31.5758H67.5197L69.4998 28.0273Z" fill="#BD9E5E"/>
<path d="M71.165 30.9001L71.8401 30.2712C72.1551 30.5857 72.4701 30.8102 72.8752 30.8102C73.2352 30.8102 73.5052 30.5857 73.5052 30.2712C73.5052 29.9119 73.1902 29.7322 72.6502 29.7322H72.2451L72.1101 29.1034L73.1452 28.0702H71.4351V27.2617H74.4053V27.9804L73.2802 29.0135C73.8652 29.1034 74.4503 29.4178 74.4503 30.2263C74.4503 31.0348 73.8653 31.6637 72.8752 31.6637C72.0651 31.6637 71.5251 31.3493 71.165 30.9001Z" fill="#BD9E5E"/>
<path d="M0.509766 27.2188H3.795V28.0722H1.45483V28.9706H3.52498V29.824H1.45483V30.7224H3.84V31.5758H0.509766V27.2188V27.2188Z" fill="#BD9E5E"/>
<path d="M4.37988 30.9469L4.96492 30.2732C5.36995 30.5876 5.77498 30.8122 6.27002 30.8122C6.67505 30.8122 6.90007 30.6774 6.90007 30.4079C6.90007 30.1833 6.76506 30.0486 6 29.8689C5.09994 29.6443 4.5599 29.4197 4.5599 28.5214C4.5599 27.7128 5.18994 27.2188 6.09001 27.2188C6.72005 27.2188 7.2601 27.3984 7.71013 27.7578L7.21509 28.4765C6.81006 28.2069 6.45003 28.0273 6.09001 28.0273C5.72998 28.0273 5.54997 28.2069 5.54997 28.4315C5.54997 28.701 5.72998 28.7909 6.49504 29.0155C7.3951 29.2401 7.89014 29.5545 7.89014 30.3181C7.89014 31.1715 7.21509 31.6656 6.27002 31.6656C5.59497 31.6656 4.91992 31.3961 4.37988 30.9469Z" fill="#BD9E5E"/>
<path d="M9.69092 28.1171H8.34082V27.2188H11.9861V28.1171H10.636V31.5758H9.69092V28.1171Z" fill="#BD9E5E"/>
<path d="M12.6152 30.5859H13.6053V31.5741H12.6152V30.5859Z" fill="#BD9E5E"/>
<path d="M49.7434 0H24.2266V3.32393H49.7434V0Z" fill="#1C2473"/>
<path d="M33.4071 8.84766H17.881L7.53027 16.0795L19.0961 24.1647L30.0769 16.5286V26.3208L7.53027 42.0421L19.1411 50.1273H33.4071V8.84766ZM30.0769 44.9169V46.8034H23.8664L30.0769 42.4464V44.9169ZM30.0769 38.3588L19.0961 45.9949L13.3357 41.9972L30.0319 30.3185V38.3588H30.0769ZM30.0769 12.3962L19.0961 20.0323L13.3357 16.0345L18.9161 12.1267H30.0769V12.3962Z" fill="#1C2473"/>
<path d="M49.7434 55.6094H24.2266V58.9333H49.7434V55.6094Z" fill="#1C2473"/>
<path d="M55.0084 34.8103L43.9826 42.5362V32.7441L66.6192 16.9329L55.0084 8.84766H40.6523V50.1273H56.2685L66.6192 42.8955L55.0084 34.8103ZM43.9376 16.4837V12.1716H50.283L43.9376 16.5736V16.4837ZM43.9376 20.6611L55.0084 12.9352L60.7688 16.9329L43.9826 28.6565V20.6611H43.9376ZM55.1884 46.8034H43.6676L55.0084 38.8978L60.7688 42.8955L55.1884 46.8034Z" fill="#1C2473"/>
</svg>
