<svg width="23" height="22" viewBox="0 0 23 22" fill="none" xmlns="http://www.w3.org/2000/svg">
<path d="M15.0117 8C15.8401 8 16.5117 7.32843 16.5117 6.5C16.5117 5.67157 15.8401 5 15.0117 5C14.1833 5 13.5117 5.67157 13.5117 6.5C13.5117 7.32843 14.1833 8 15.0117 8Z" fill="#25252D"/>
<path d="M7.49842 10.2501C7.30358 10.2532 7.11761 10.332 6.97986 10.4698L4.72986 12.7198C4.65803 12.7889 4.60072 12.8717 4.56125 12.9633C4.52179 13.0548 4.50098 13.1533 4.50003 13.253C4.49909 13.3527 4.51803 13.4516 4.55574 13.5439C4.59346 13.6362 4.64919 13.72 4.71969 13.7905C4.79019 13.861 4.87404 13.9168 4.96633 13.9545C5.05862 13.9922 5.1575 14.0111 5.2572 14.0102C5.35689 14.0092 5.4554 13.9884 5.54696 13.949C5.63851 13.9095 5.72129 13.8522 5.79043 13.7804L7.51018 12.0606L10.7299 15.2804C10.7991 15.3522 10.8819 15.4095 10.9734 15.449C11.065 15.4884 11.1635 15.5092 11.2632 15.5102C11.3629 15.5111 11.4617 15.4922 11.554 15.4545C11.6463 15.4168 11.7302 15.361 11.8007 15.2905C11.8712 15.22 11.9269 15.1362 11.9646 15.0439C12.0023 14.9516 12.0213 14.8527 12.0203 14.753C12.0194 14.6533 11.9986 14.5548 11.9591 14.4633C11.9197 14.3717 11.8623 14.2889 11.7905 14.2198L11.1958 13.6251L12.7602 12.0606L16.73 16.0304C16.7991 16.1022 16.8819 16.1595 16.9734 16.199C17.065 16.2385 17.1635 16.2593 17.2632 16.2602C17.3629 16.2612 17.4618 16.2422 17.5541 16.2045C17.6464 16.1668 17.7302 16.1111 17.8007 16.0406C17.8712 15.9701 17.9269 15.8862 17.9646 15.7939C18.0024 15.7016 18.0213 15.6027 18.0204 15.5031C18.0194 15.4034 17.9986 15.3048 17.9591 15.2133C17.9197 15.1217 17.8624 15.039 17.7905 14.9698L13.2905 10.4698C13.2195 10.3988 13.1349 10.3427 13.0418 10.305C12.9487 10.2672 12.849 10.2485 12.7485 10.2501C12.5537 10.2532 12.3677 10.332 12.23 10.4698L10.1352 12.5646L8.04048 10.4698C7.96946 10.3988 7.88488 10.3427 7.79178 10.305C7.69867 10.2672 7.59894 10.2485 7.49848 10.2501L7.49842 10.2501Z" fill="#25252D"/>
<rect x="1.25" y="0.75" width="20.5" height="20.5" rx="7.25" stroke="#25252D" stroke-width="1.5"/>
</svg>
