<svg width="34" height="11" viewBox="0 0 34 11" fill="none" xmlns="http://www.w3.org/2000/svg">
<path d="M14.7332 10.8407H11.979L13.7017 0.192383H16.4558L14.7332 10.8407Z" fill="#1C2473"/>
<path d="M24.7175 0.453218C24.1743 0.237765 23.3126 -0.00012207 22.2472 -0.00012207C19.5273 -0.00012207 17.612 1.44978 17.6002 3.52271C17.5776 5.05211 18.9715 5.90158 20.0141 6.41153C21.0796 6.93262 21.4419 7.27274 21.4419 7.73722C21.431 8.45058 20.5808 8.7794 19.7879 8.7794C18.6882 8.7794 18.099 8.60987 17.2037 8.21299L16.841 8.04286L16.4556 10.4332C17.1015 10.7274 18.2917 10.9884 19.5273 10.9999C22.4172 10.9999 24.2987 9.57241 24.321 7.36338C24.332 6.15121 23.5959 5.2224 22.0091 4.46342C21.0458 3.9762 20.4558 3.64768 20.4558 3.14917C20.4671 2.69598 20.9548 2.2318 22.0422 2.2318C22.9376 2.20906 23.5955 2.42421 24.0938 2.63952L24.343 2.75259L24.7175 0.453218Z" fill="#1C2473"/>
<path d="M28.3789 7.06836C28.6058 6.45663 29.4786 4.08906 29.4786 4.08906C29.4671 4.11179 29.7049 3.46604 29.8409 3.06961L30.0334 3.98713C30.0334 3.98713 30.555 6.53598 30.6682 7.06836C30.2378 7.06836 28.9229 7.06836 28.3789 7.06836ZM31.7787 0.192383H29.6483C28.9913 0.192383 28.4922 0.3848 28.2087 1.07588L24.1177 10.8405H27.0076C27.0076 10.8405 27.4834 9.52628 27.5857 9.24322C27.9027 9.24322 30.714 9.24322 31.1219 9.24322C31.2009 9.61706 31.4505 10.8405 31.4505 10.8405H34.0007L31.7787 0.192383Z" fill="#1C2473"/>
<path d="M9.67937 0.192383L6.98206 7.4535L6.68731 5.98086C6.18864 4.28163 4.62468 2.43544 2.87939 1.51747L5.35003 10.8294H8.26256L12.5917 0.192383H9.67937Z" fill="#1C2473"/>
<path d="M4.47663 0.192383H0.045334L0 0.407534C3.45669 1.29118 5.74599 3.42117 6.68656 5.98131L5.72325 1.08747C5.56465 0.407384 5.07727 0.214816 4.47663 0.192383Z" fill="#FAA61A"/>
</svg>
