<svg width="130" height="130" viewBox="0 0 130 130" fill="none" xmlns="http://www.w3.org/2000/svg">
<rect width="130" height="130" fill="#BD9E5E"/>
<path d="M79.9615 28H47.6641V32.1989H79.9615V28Z" fill="black"/>
<path d="M59.2844 39.1758H39.6325L26.5312 48.3111L41.1705 58.5246L55.0692 48.8785V61.2482L26.5312 81.1076L41.2275 91.3211H59.2844V39.1758ZM55.0692 84.7391V87.1222H47.2085L55.0692 81.6183V84.7391ZM55.0692 76.4548L41.1705 86.1009L33.8794 81.0509L55.0123 66.2981V76.4548H55.0692ZM55.0692 43.6583L41.1705 53.3044L33.8794 48.2544L40.9426 43.3179H55.0692V43.6583Z" fill="black"/>
<path d="M79.9615 98.2461H47.6641V102.445H79.9615V98.2461Z" fill="black"/>
<path d="M86.626 71.9723L72.6703 81.7318V69.3622L101.322 49.3892L86.626 39.1758H68.4551V91.3211H88.2209L101.322 82.1857L86.626 71.9723ZM72.6133 48.8218V43.3746H80.645L72.6133 48.9353V48.8218ZM72.6133 54.0987L86.626 44.3392L93.9171 49.3892L72.6703 64.1987V54.0987H72.6133ZM86.8538 87.1222H72.2715L86.626 77.1357L93.9171 82.1857L86.8538 87.1222Z" fill="black"/>
</svg>
