<svg width="76" height="61" viewBox="0 0 76 61" fill="none" xmlns="http://www.w3.org/2000/svg">
<g clip-path="url(#clip0)">
<path d="M62.2097 29.0136L61.4447 29.1933L61.2646 28.4297L62.5247 28.0703H63.1998V32.4723H62.2097V29.0136Z" fill="#C1C1C1"/>
<path d="M64.1897 31.9782L64.6847 31.2595C64.9998 31.529 65.2698 31.6188 65.6298 31.6188C66.1698 31.6188 66.4399 31.2146 66.5299 30.6306C66.3049 30.8103 66.0348 30.9451 65.6298 30.9451C64.6847 30.9451 64.0547 30.406 64.0547 29.5077C64.0547 28.6093 64.7297 27.9805 65.7198 27.9805C66.3049 27.9805 66.6649 28.1152 66.9799 28.4746C67.2949 28.789 67.5199 29.2382 67.5199 30.1365C67.5199 31.5739 66.8449 32.5172 65.6298 32.5172C64.9998 32.5172 64.5947 32.2926 64.1897 31.9782ZM66.5749 29.5077C66.5749 29.1034 66.3049 28.8339 65.8098 28.8339C65.3148 28.8339 65.0448 29.1034 65.0448 29.5077C65.0448 29.9119 65.3148 30.1815 65.8098 30.1815C66.3049 30.1365 66.5749 29.867 66.5749 29.5077Z" fill="#C1C1C1"/>
<path d="M70.3553 28.8788H68.2852V28.0703H71.4354V28.789L69.4552 32.4274H68.3752L70.3553 28.8788Z" fill="#C1C1C1"/>
<path d="M72.0205 31.7536L72.6956 31.1247C73.0106 31.4392 73.3256 31.6638 73.7306 31.6638C74.0907 31.6638 74.3607 31.4392 74.3607 31.1247C74.3607 30.7654 74.0457 30.5857 73.5056 30.5857H73.1006L72.9656 29.9569L74.0007 28.9238H72.2905V28.1152H75.2608V28.8339L74.1357 29.867C74.7207 29.9569 75.3058 30.2713 75.3058 31.0798C75.3058 31.8883 74.7207 32.5172 73.7306 32.5172C72.9206 32.5172 72.3805 32.2028 72.0205 31.7536Z" fill="#C1C1C1"/>
<path d="M1.36523 28.0703H4.65047V28.9238H2.3103V29.8221H4.38045V30.6756H2.3103V31.5739H4.69547V32.4274H1.36523V28.0703Z" fill="#C1C1C1"/>
<path d="M5.23535 31.7985L5.82039 31.1247C6.22542 31.4392 6.63045 31.6638 7.12549 31.6638C7.53052 31.6638 7.75554 31.529 7.75554 31.2595C7.75554 31.0349 7.62053 30.9001 6.85547 30.7205C5.9554 30.4959 5.41537 30.2713 5.41537 29.3729C5.41537 28.5644 6.04541 28.0703 6.94548 28.0703C7.57552 28.0703 8.11556 28.25 8.5656 28.6093L8.07056 29.328C7.66553 29.0585 7.3055 28.8788 6.94548 28.8788C6.58545 28.8788 6.40544 29.0585 6.40544 29.2831C6.40544 29.5526 6.58545 29.6424 7.35051 29.867C8.25057 30.0916 8.74561 30.406 8.74561 31.1697C8.74561 32.0231 8.07056 32.5172 7.12549 32.5172C6.45044 32.5172 5.77539 32.2477 5.23535 31.7985Z" fill="#C1C1C1"/>
<path d="M10.5464 28.9687H9.19629V28.0703H12.8416V28.9687H11.4915V32.4274H10.5464V28.9687Z" fill="#C1C1C1"/>
<path d="M13.4707 31.4395H14.4608V32.4277H13.4707V31.4395Z" fill="#C1C1C1"/>
<path d="M50.5989 0.849609H25.082V4.17354H50.5989V0.849609Z" fill="#CACACA"/>
<path d="M34.2626 9.69922H18.7365L8.38574 16.931L19.9516 25.0163L30.9324 17.3802V27.1723L8.38574 42.8937L19.9966 50.9789H34.2626V9.69922ZM30.9324 45.7684V47.655H24.7219L30.9324 43.2979V45.7684ZM30.9324 39.2104L19.9516 46.8464L14.1912 42.8487L30.8873 31.17V39.2104H30.9324ZM30.9324 13.2477L19.9516 20.8838L14.1912 16.8861L19.7716 12.9782H30.9324V13.2477Z" fill="#CACACA"/>
<path d="M50.5989 56.459H25.082V59.7829H50.5989V56.459Z" fill="#CACACA"/>
<path d="M55.8638 35.6619L44.838 43.3878V33.5956L67.4747 17.7845L55.8638 9.69922H41.5078V50.9789H57.1239L67.4747 43.7471L55.8638 35.6619ZM44.793 17.3353V13.0232H51.1385L44.793 17.4251V17.3353ZM44.793 21.5127L55.8638 13.7868L61.6242 17.7845L44.838 29.5081V21.5127H44.793ZM56.0439 47.655H44.523L55.8638 39.7494L61.6242 43.7471L56.0439 47.655Z" fill="#CACACA"/>
</g>
<defs>
<clipPath id="clip0">
<rect width="75.0553" height="59.3721" fill="white" transform="translate(0.855469 0.849609)"/>
</clipPath>
</defs>
</svg>
