<svg width="264" height="195" viewBox="0 0 264 195" fill="none" xmlns="http://www.w3.org/2000/svg">
<g clip-path="url(#clip0_199:8999)">
<path d="M18.8379 32.0675H0.122314V194.866H131.998V29.8366C131.998 29.8366 93.2363 -8.07368 38.4369 1.73678V164.09C38.4369 164.09 112.84 159.628 131.998 194.866" stroke="#1D2474" stroke-linecap="round" stroke-linejoin="round"/>
<path d="M27.7166 20.0332H18.8379V177.48C18.8379 177.48 100.368 175.249 132 194.875" stroke="#1D2474" stroke-linecap="round" stroke-linejoin="round"/>
<path d="M245.162 32.0675H263.878V194.866H132V29.8366C132 29.8366 170.761 -8.07368 225.561 1.73678V164.09C225.561 164.09 151.157 159.628 132 194.866" stroke="#1D2474" stroke-linecap="round" stroke-linejoin="round"/>
<path d="M132 194.875C163.632 175.249 245.162 177.48 245.162 177.48V20.0332H225.561" stroke="#1D2474" stroke-linecap="round" stroke-linejoin="round"/>
<path d="M205.465 72.0104L202.471 72.4751H202.451C202.425 72.4814 202.402 72.4975 202.388 72.5201L202.201 72.7699C202.201 72.8748 202.224 72.9798 202.234 73.0847L202.528 72.68L205.408 72.2353L205.795 73.0072C205.804 73.0255 205.819 73.0403 205.837 73.0497C205.856 73.0591 205.877 73.0626 205.897 73.0597H205.912C205.96 73.0471 206.01 73.0371 206.059 73.0297H206.079C206.213 73.0078 206.351 73.013 206.483 73.0451C206.616 73.0772 206.74 73.1354 206.85 73.2164C206.959 73.2974 207.051 73.3996 207.121 73.5168C207.19 73.6341 207.236 73.764 207.254 73.8991C207.262 73.9513 207.267 74.0038 207.269 74.0565L207.372 78.4109C207.372 78.7138 207.275 79.0087 207.095 79.2524C206.915 79.4961 206.663 79.6757 206.373 79.7649C206.323 79.7816 206.271 79.7933 206.219 79.7999H206.191H206.074H206.049C206.03 79.8069 206.012 79.8178 205.997 79.832C205.982 79.8462 205.97 79.8633 205.962 79.8823L205.51 81.0565L202.62 81.5011L202.403 81.064L202.368 81.0265C202.368 81.1739 202.351 81.3213 202.341 81.4687L202.451 81.6885C202.46 81.707 202.475 81.7221 202.493 81.7315C202.512 81.7409 202.533 81.7443 202.553 81.741L205.587 81.2738H205.605C205.624 81.2678 205.642 81.2572 205.656 81.2428C205.671 81.2285 205.681 81.2108 205.687 81.1914L206.139 80.0247H206.221C206.285 80.0136 206.347 79.9986 206.408 79.9798C206.751 79.8735 207.052 79.6598 207.264 79.3703C207.477 79.0807 207.592 78.7305 207.591 78.3709L207.489 74.0165C207.489 73.9566 207.489 73.8966 207.471 73.8416V73.8067C207.445 73.6494 207.389 73.4987 207.304 73.3634C207.22 73.228 207.11 73.1106 206.981 73.0178C206.851 72.925 206.705 72.8586 206.55 72.8225C206.394 72.7864 206.234 72.7813 206.077 72.8074H206.054L205.964 72.8249L205.577 72.0605C205.569 72.0422 205.554 72.0272 205.536 72.0178C205.518 72.0083 205.498 72.0048 205.478 72.0079" stroke="#1C2473" stroke-width="0.8"/>
<path d="M183.795 28.377H183.73L160.273 31.9969C160.089 32.0318 159.914 32.0718 159.742 32.1218C158.837 32.3595 158.053 32.9259 157.543 33.7107C157.332 34.0724 157.141 34.4451 156.969 34.8274C156.772 35.262 156.587 35.7017 156.485 35.974C155.737 38.005 154.908 41.545 153.528 46.7688C153.534 46.7469 153.544 46.7268 153.56 46.7102C153.575 46.6936 153.594 46.6811 153.615 46.6738H153.633L153.783 46.6513C154.554 43.7334 155.15 41.3427 155.654 39.4615C155.632 39.4579 155.612 39.4461 155.598 39.4285C155.585 39.411 155.578 39.3889 155.579 39.3666C155.578 39.3384 155.587 39.3107 155.604 39.288C155.62 39.2653 155.644 39.249 155.672 39.2417H155.687H155.717C156.076 37.9176 156.388 36.8559 156.69 36.0464C156.787 35.7791 156.972 35.3444 157.166 34.9198C157.251 34.7374 157.339 34.555 157.416 34.3902C157.397 34.3706 157.385 34.3449 157.383 34.3177C157.383 34.2891 157.393 34.2611 157.41 34.2382C157.427 34.2152 157.451 34.1984 157.478 34.1903H157.493H157.521C157.593 34.0504 157.663 33.9405 157.723 33.8381C158.199 33.1041 158.933 32.5755 159.779 32.3566C159.944 32.3116 160.111 32.2692 160.278 32.2367L183.735 28.6193H183.795C184.175 28.5588 184.563 28.5867 184.931 28.7006C185.298 28.8145 185.634 29.0115 185.914 29.2763C186.077 29.42 186.227 29.578 186.363 29.7485L186.545 29.721C186.559 29.7189 186.573 29.7198 186.587 29.7237C186.601 29.7275 186.614 29.7344 186.624 29.7436C186.635 29.7528 186.644 29.7643 186.65 29.7772C186.656 29.7901 186.659 29.8042 186.66 29.8184C186.66 29.8472 186.651 29.8753 186.634 29.8983C186.617 29.9214 186.593 29.9381 186.565 29.9458H186.552H186.52C186.808 30.3535 187.059 30.7867 187.269 31.2399C187.578 31.8869 187.98 32.9062 188.451 34.1978L188.606 34.1753C188.628 34.1722 188.65 34.1767 188.67 34.188C188.689 34.1994 188.703 34.2169 188.711 34.2377C188.212 32.8787 187.795 31.802 187.463 31.1225C187.134 30.3585 186.656 29.6674 186.058 29.089C185.757 28.8067 185.396 28.5967 185.001 28.4751C184.607 28.3535 184.19 28.3233 183.783 28.387M153.538 46.7787C153.376 47.3933 153.204 48.0279 153.039 48.6924C151.34 54.9704 148.867 63.3718 144.934 74.1016L144.946 74.0691C145.166 73.6494 145.393 73.2372 145.625 72.82C149.281 62.7123 151.614 54.7356 153.254 48.7099C153.428 48.0754 153.59 47.4608 153.753 46.8762L153.668 46.8887C153.651 46.8914 153.633 46.8894 153.618 46.8828C153.602 46.8762 153.588 46.8652 153.578 46.8512C153.567 46.8341 153.561 46.8142 153.561 46.7937V46.7613L153.538 46.7787ZM188.748 34.2252V34.2553C188.749 34.2841 188.74 34.3124 188.723 34.3356C188.706 34.3587 188.681 34.3753 188.654 34.3827H188.639L188.559 34.3977C188.856 35.2146 189.178 36.1464 189.519 37.1307C189.926 38.3048 190.36 39.5889 190.817 40.9405C190.831 40.9383 190.846 40.9392 190.859 40.9431C190.873 40.947 190.886 40.9538 190.897 40.963C190.908 40.9723 190.916 40.9837 190.922 40.9966C190.928 41.0095 190.932 41.0236 190.932 41.0379C190.932 41.0585 190.927 41.0787 190.917 41.097C190.907 41.1152 190.894 41.1309 190.877 41.1428C191.975 44.3905 193.195 48.0353 194.435 51.5278C196.005 55.9471 197.6 60.1341 199.015 63.0196C199.264 63.3343 199.514 63.6566 199.763 63.9814C197.719 60.2166 195.174 53.0967 192.881 46.3716C191.73 43.0065 190.635 39.7413 189.717 37.0407C189.362 36.0115 189.033 35.0671 188.718 34.2302L188.748 34.2252Z" stroke="#1C2473" stroke-width="0.8"/>
<path d="M155.971 125.102V125.115V125.102ZM155.971 124.203V124.228C156.036 124.477 156.098 124.727 156.163 124.977L156.176 125.022V125.042C156.103 124.762 156.033 124.483 155.961 124.203H155.971ZM155.939 124.118V124.143L155.951 124.193C155.951 124.168 155.939 124.143 155.934 124.118H155.939ZM155.751 123.431L155.886 123.93L155.751 123.431ZM145.52 97.8491C149.982 105.911 153.126 114.49 155.502 123.376C155.501 123.368 155.501 123.359 155.502 123.351C155.502 123.326 155.51 123.303 155.524 123.283C155.541 123.256 155.567 123.236 155.597 123.226H155.609H155.699C153.478 114.897 150.571 106.838 146.533 99.2206C146.217 98.8059 145.904 98.3812 145.593 97.9465V97.934L145.54 97.8641L145.52 97.8491ZM201.368 89.2178V89.2428C201.061 89.8074 200.746 90.3645 200.432 90.9141C196.771 99.7578 194.263 108.694 192.447 117.685C191.823 120.775 191.284 123.873 190.809 126.976H190.869C190.883 126.974 190.898 126.974 190.911 126.978C190.925 126.982 190.937 126.989 190.948 126.998C190.959 127.008 190.967 127.019 190.973 127.032C190.979 127.045 190.982 127.059 190.982 127.073C190.98 127.101 190.97 127.128 190.954 127.15C190.937 127.172 190.913 127.189 190.887 127.198H190.872L190.77 127.213C190.313 130.211 189.919 133.196 189.564 136.207L189.662 136.192C189.675 136.189 189.69 136.189 189.703 136.193C189.717 136.197 189.729 136.203 189.74 136.212C189.75 136.222 189.759 136.233 189.764 136.246C189.77 136.259 189.772 136.273 189.771 136.287C189.772 136.315 189.763 136.343 189.747 136.366C189.73 136.389 189.706 136.406 189.679 136.414H189.667L189.539 136.434C189.205 139.282 188.91 142.13 188.636 144.983L188.736 144.965C188.75 144.963 188.764 144.964 188.778 144.968C188.791 144.972 188.804 144.979 188.815 144.988C188.825 144.997 188.834 145.009 188.84 145.022C188.845 145.035 188.848 145.049 188.848 145.063C188.849 145.091 188.84 145.119 188.824 145.142C188.807 145.165 188.783 145.182 188.756 145.19H188.741L188.616 145.208C188.574 145.66 188.531 146.112 188.491 146.562L186.962 149.377L162.679 153.124L161.029 150.801C160.969 150.364 160.907 149.932 160.842 149.495H160.812C160.798 149.497 160.784 149.497 160.77 149.493C160.756 149.489 160.744 149.483 160.733 149.474C160.722 149.465 160.713 149.453 160.707 149.441C160.701 149.428 160.697 149.414 160.697 149.4C160.698 149.371 160.707 149.343 160.724 149.32C160.741 149.296 160.765 149.279 160.792 149.27H160.81C160.595 147.829 160.375 146.391 160.151 144.955C159.945 143.653 159.731 142.356 159.51 141.063H159.492C159.479 141.063 159.466 141.061 159.455 141.056C159.443 141.052 159.432 141.044 159.422 141.035C159.413 141.026 159.406 141.015 159.401 141.003C159.397 140.991 159.394 140.979 159.395 140.966C159.394 140.94 159.402 140.915 159.415 140.893C159.429 140.871 159.449 140.854 159.472 140.843C158.973 137.972 158.432 135.121 157.848 132.289C157.824 132.286 157.802 132.274 157.786 132.256C157.77 132.239 157.761 132.216 157.76 132.192C157.76 132.173 157.764 132.155 157.772 132.138C157.78 132.122 157.791 132.107 157.805 132.095C157.306 129.736 156.765 127.397 156.183 125.077V125.097C156.183 125.124 156.175 125.149 156.16 125.171C156.144 125.193 156.123 125.21 156.098 125.219V125.219H156.081C156.064 125.223 156.047 125.223 156.031 125.219C156.018 125.215 156.006 125.208 155.996 125.198C155.987 125.188 155.98 125.175 155.976 125.162C157.621 131.657 158.873 138.295 159.936 145.015C160.249 146.964 160.545 148.919 160.825 150.881L160.84 150.926C161.407 151.72 161.973 152.517 162.536 153.314C162.546 153.329 162.56 153.341 162.575 153.348C162.591 153.355 162.609 153.357 162.626 153.354V153.354C170.761 152.104 178.896 150.849 187.032 149.592H187.049C187.079 149.581 187.104 149.56 187.119 149.532C187.643 148.565 188.169 147.603 188.691 146.634L188.706 146.587C189.594 136.924 190.73 127.288 192.656 117.717C194.583 108.147 197.3 98.6386 201.355 89.2378V89.2228L201.368 89.2178ZM201.355 89.1953V89.2078V89.2228V89.2078V89.1953Z" stroke="#1C2473" stroke-width="0.8"/>
<path d="M172.907 58.4395L172.755 58.4619L172.905 58.4395C184.184 56.8531 193.719 64.0904 195.451 75.025C195.538 75.5746 195.606 76.1392 195.653 76.7088C195.606 76.1292 195.538 75.5597 195.448 75.0001C193.719 64.0754 184.246 56.8806 172.972 58.432H172.907M173.728 104.854L173.464 104.894L173.728 104.854ZM174.961 104.631C174.554 104.716 174.143 104.791 173.728 104.854C174.143 104.791 174.554 104.716 174.961 104.631ZM173.713 104.631L173.404 104.676L173.554 104.654L173.703 104.631H173.713ZM150.948 88.6552C150.948 88.6877 150.948 88.7202 150.965 88.7526C152.961 99.2976 162.237 106.18 173.262 104.694L173.394 104.676C162.312 106.235 152.914 99.2726 150.948 88.6552V88.6552ZM195.728 78.3551C195.87 89.9168 187.603 100.774 176.71 103.962C175.724 104.25 174.719 104.474 173.703 104.631C174.727 104.474 175.739 104.248 176.733 103.957C187.513 100.804 195.675 90.1966 195.73 78.7648C195.73 78.6299 195.73 78.4925 195.73 78.3551H195.728ZM195.875 76.6814C195.91 77.131 195.935 77.5882 195.947 78.0479C195.935 77.5882 195.913 77.131 195.875 76.6814ZM172.603 58.4969C171.58 58.6563 170.568 58.8816 169.573 59.1714C158.793 62.3242 150.626 72.9341 150.576 84.3633V84.6356C150.496 73.1289 158.743 62.3416 169.596 59.1539C170.583 58.866 171.587 58.6424 172.603 58.4844V58.4969Z" stroke="#1C2473" stroke-width="0.8"/>
<path d="M173.324 51.5584L172.453 51.6883V51.9131L173.304 51.7882C176.957 51.2736 180.618 51.1062 184.284 51.5684C190.665 55.0809 196.379 59.4202 200.639 65.5983C201.044 67.1193 201.371 68.6602 201.617 70.215C201.769 71.1743 201.889 72.1361 201.984 73.0954V73.1179C202.483 78.4266 202.121 83.7777 201.153 89.1614C197.018 96.7959 191.748 102.769 185.853 107.84C184.362 108.548 182.816 109.133 181.23 109.589C178.809 110.268 176.349 110.799 173.863 111.178L173.386 111.245C169.162 111.84 165.244 112.132 161.795 111.558C155.761 108.363 150.286 104.106 145.839 97.8801L145.73 97.955L145.697 97.9701H145.68C145.664 97.9739 145.648 97.9739 145.632 97.9701C145.618 97.9656 145.605 97.9579 145.595 97.9475C145.904 98.3822 146.218 98.807 146.536 99.2217C150.84 104.838 156.018 108.775 161.693 111.775H161.723C165.216 112.357 169.149 112.06 173.384 111.463L173.868 111.395C176.364 111.014 178.834 110.481 181.264 109.799C182.869 109.34 184.434 108.751 185.943 108.038L185.971 108.018C191.461 103.301 196.412 97.7977 200.419 90.9051C200.734 90.3555 201.048 89.7984 201.355 89.2338V89.2088V89.1938V89.1814C201.821 86.6406 202.138 84.0747 202.306 81.4969C202.306 81.3495 202.323 81.2021 202.333 81.0547C202.485 78.4044 202.439 75.7464 202.196 73.1029C202.196 72.998 202.173 72.8931 202.164 72.7881C202.074 71.9063 201.961 71.0394 201.822 70.15C201.57 68.5815 201.237 67.0272 200.824 65.4934L200.811 65.4609C200.462 64.9612 200.102 64.4616 199.735 63.982C199.486 63.6572 199.236 63.3349 198.987 63.0201C194.949 58.0662 189.906 54.3988 184.376 51.3535H184.341C180.646 50.8889 176.965 51.0563 173.297 51.5709M145.133 74.1546C144.451 77.5051 144.104 80.9154 144.098 84.3348C144.104 80.9154 144.451 77.5051 145.133 74.1546ZM153.046 62.8053C149.971 66.263 147.315 70.0726 145.133 74.1546C147.315 70.0727 149.971 66.2632 153.046 62.8053V62.8053ZM153.129 62.7104L153.079 62.7678L153.129 62.7104ZM172.456 51.6833C170.18 52.0226 167.929 52.5124 165.718 53.1497C163.981 53.6552 162.278 54.2727 160.62 54.9984H160.637C160.654 54.9956 160.671 54.9974 160.686 55.0035C160.701 55.0097 160.715 55.02 160.725 55.0334C160.739 55.0499 160.747 55.0713 160.747 55.0933C160.748 55.1127 160.745 55.1322 160.737 55.15C160.729 55.1678 160.717 55.1835 160.702 55.1958L160.687 55.2107C162.335 54.4906 164.027 53.8773 165.753 53.3746C167.952 52.7411 170.19 52.2537 172.453 51.9156V51.6883L172.456 51.6833Z" stroke="#1C2473" stroke-width="0.8"/>
<path d="M172.935 58.2428H172.887L172.623 58.2827C171.59 58.4429 170.569 58.6698 169.566 58.9622C158.461 62.2099 150.102 73.2895 150.386 85.0935C150.41 86.131 150.503 87.1659 150.663 88.1912C152.41 99.2433 162.015 106.518 173.426 104.914H173.474L173.738 104.874C174.153 104.812 174.564 104.737 174.971 104.652C175.587 104.525 176.195 104.373 176.795 104.195C187.897 100.947 196.259 89.87 195.975 78.066C195.962 77.6063 195.938 77.1492 195.903 76.6995C195.854 76.1132 195.785 75.5362 195.695 74.9682C193.949 63.9137 184.346 56.6389 172.935 58.2453M172.925 58.4501H172.99C184.267 56.8963 193.737 64.0935 195.466 75.0182C195.556 75.5778 195.624 76.1474 195.671 76.727C195.706 77.1742 195.73 77.6288 195.743 78.0885C195.743 78.315 195.743 78.5423 195.743 78.7705C195.688 90.2023 187.525 100.81 176.745 103.962C175.751 104.254 174.739 104.479 173.716 104.637L173.566 104.659L173.416 104.682L173.284 104.699C162.259 106.198 152.976 99.3032 150.988 88.7583C150.988 88.7258 150.988 88.6934 150.97 88.6609C150.938 88.481 150.908 88.3011 150.878 88.1213C150.72 87.1083 150.628 86.086 150.603 85.061C150.603 84.971 150.603 84.8786 150.603 84.7887V84.379C150.653 72.9497 158.821 62.3398 169.601 59.1871C170.595 58.8973 171.607 58.672 172.63 58.5126L172.783 58.4901L172.935 58.4676L172.925 58.4501Z" stroke="#1C2473" stroke-width="0.8"/>
<path d="M162.601 74.7586C162.536 74.7683 162.471 74.7817 162.407 74.7986C162.121 74.8811 161.87 75.057 161.695 75.2983C161.611 75.4136 161.55 75.5444 161.516 75.6833C161.482 75.8222 161.476 75.9664 161.498 76.1077C161.542 76.3157 161.634 76.5106 161.767 76.6767C161.899 76.8428 162.069 76.9757 162.262 77.0645L169.598 81.1041C169.619 81.1104 169.64 81.1104 169.661 81.1041H169.683H169.696L170.444 80.7469C170.734 80.8743 170.983 80.9292 171.253 81.0442C171.327 80.8442 171.428 80.6552 171.552 80.4821V80.4821L171.625 80.3821L171.003 80.0474C170.981 79.6826 170.958 79.3204 170.933 78.9606C170.933 78.9441 170.928 78.9281 170.919 78.914C170.91 78.9 170.898 78.8885 170.884 78.8807L163.594 74.9485C163.292 74.7771 162.941 74.7088 162.596 74.7537M169.683 80.8718L162.392 76.8572C162.225 76.7834 162.077 76.6716 161.961 76.5306C161.845 76.3896 161.763 76.2234 161.723 76.0452C161.69 75.8232 161.745 75.597 161.878 75.4157C162.019 75.2217 162.221 75.0802 162.452 75.0134C162.505 74.9989 162.559 74.9872 162.614 74.9785C162.912 74.9436 163.214 75.0057 163.475 75.1559C165.89 76.4583 168.302 77.7599 170.711 79.0606L170.781 80.1473C170.782 80.1634 170.787 80.1789 170.796 80.1928C170.804 80.2066 170.815 80.2185 170.829 80.2272L171.475 80.577L171.33 80.8268C171.038 80.7044 170.781 80.6519 170.504 80.5245C170.485 80.5194 170.464 80.5194 170.444 80.5245H170.429H170.409L169.676 80.8767L169.683 80.8718Z" stroke="#1C2473" stroke-width="0.8"/>
<path d="M186.43 66.1577C186.369 66.1659 186.309 66.1784 186.25 66.1952C185.837 66.3364 185.475 66.5972 185.21 66.9447C183.071 69.233 176.975 75.8457 174.826 78.1291C174.814 78.1423 174.804 78.1582 174.798 78.1754C174.792 78.1926 174.79 78.2109 174.791 78.229C174.826 78.5863 174.864 78.946 174.899 79.3033L174.422 79.8229C174.04 79.5501 173.566 79.438 173.102 79.5106H173.077C172.987 79.5255 172.898 79.5456 172.81 79.5705C172.344 79.7113 171.932 79.9931 171.632 80.3775L171.56 80.4774C171.435 80.6505 171.335 80.8396 171.26 81.0395C171.158 81.3065 171.109 81.5907 171.116 81.8764C171.119 81.9684 171.127 82.0602 171.141 82.1512C171.174 82.3809 171.253 82.6015 171.372 82.8004C171.492 82.9993 171.65 83.1724 171.837 83.3096C172.023 83.4467 172.236 83.5453 172.461 83.5995C172.687 83.6536 172.921 83.6624 173.149 83.6251H173.174C173.266 83.6127 173.357 83.5935 173.446 83.5677C173.938 83.4149 174.367 83.1085 174.671 82.6935C174.976 82.2785 175.139 81.7768 175.138 81.2618C175.138 81.1694 175.138 81.077 175.113 80.9871C175.079 80.7725 175.008 80.5655 174.904 80.375L175.55 79.7505L176.324 79.7804H176.358C176.381 79.7728 176.401 79.7609 176.418 79.7455C178.569 77.4146 184.636 70.5021 186.784 68.1813C187.258 67.6816 187.431 67.182 187.368 66.7897C187.354 66.6748 187.312 66.5649 187.246 66.4694C187.181 66.3738 187.093 66.2952 186.991 66.2402C186.818 66.1518 186.622 66.1212 186.43 66.1527M174.417 80.0927H174.437C174.459 80.0863 174.479 80.0733 174.494 80.0552L175.083 79.4157C175.096 79.4024 175.105 79.3867 175.111 79.3695C175.117 79.3522 175.12 79.3339 175.118 79.3157C175.083 78.9585 175.048 78.6013 175.013 78.239C177.189 75.9157 183.231 69.3679 185.357 67.0995C185.585 66.7873 185.901 66.5513 186.265 66.4225V66.4225C186.314 66.4084 186.363 66.3975 186.413 66.39C186.561 66.3654 186.714 66.3881 186.849 66.455C186.925 66.4962 186.99 66.5549 187.038 66.6261C187.087 66.6973 187.118 66.7791 187.129 66.8647C187.176 67.1545 187.051 67.5717 186.615 68.0464C184.476 70.3597 178.465 77.2023 176.284 79.5631L175.52 79.5306H175.483L175.43 79.5606L174.682 80.2926C174.661 80.3107 174.648 80.3351 174.643 80.3619C174.639 80.3887 174.643 80.4162 174.657 80.4399C174.772 80.6295 174.849 80.8401 174.884 81.0595C174.897 81.1422 174.904 81.2257 174.906 81.3094C174.908 81.7661 174.763 82.2114 174.494 82.58C174.225 82.9487 173.844 83.2213 173.409 83.3579C173.331 83.3818 173.252 83.3993 173.172 83.4103H173.147C172.943 83.4447 172.735 83.4378 172.534 83.3901C172.333 83.3424 172.143 83.2548 171.977 83.1325C171.81 83.0102 171.67 82.8557 171.564 82.6782C171.458 82.5006 171.389 82.3036 171.36 82.0988C171.347 82.0161 171.34 81.9326 171.338 81.8489C171.336 81.3919 171.481 80.9464 171.75 80.5775C172.019 80.2085 172.4 79.9353 172.835 79.7979C172.917 79.7747 173 79.758 173.084 79.748H173.114C173.332 79.7136 173.554 79.7255 173.766 79.7827C173.978 79.84 174.176 79.9413 174.347 80.0802C174.369 80.0957 174.395 80.1029 174.422 80.1002L174.417 80.0927Z" stroke="#1C2473" stroke-width="0.8"/>
<path d="M188.541 77.4443L184.756 78.0339C184.728 78.0417 184.704 78.0584 184.687 78.0815C184.669 78.1045 184.66 78.1326 184.661 78.1614L184.736 81.2666C184.736 81.2809 184.739 81.2949 184.744 81.308C184.75 81.321 184.759 81.3327 184.769 81.3421C184.78 81.3516 184.792 81.3586 184.806 81.3629C184.82 81.3671 184.834 81.3684 184.848 81.3666V81.3666L188.621 80.782H188.636C188.661 80.7748 188.683 80.7599 188.698 80.7395C188.72 80.7163 188.731 80.6859 188.731 80.6546L188.656 77.5493C188.657 77.5349 188.654 77.5206 188.648 77.5076C188.642 77.4945 188.633 77.4831 188.621 77.4743C188.612 77.4652 188.6 77.4585 188.588 77.4546C188.575 77.4507 188.562 77.4497 188.549 77.4518M184.948 81.1143L184.878 78.2363L188.429 77.6892L188.499 80.5671L184.948 81.1143Z" stroke="#1C2473" stroke-width="0.8"/>
<path d="M182.984 61.735H182.964C182.947 61.7401 182.931 61.7487 182.917 61.7604C182.903 61.772 182.892 61.7863 182.884 61.8025L180.416 66.7614C180.409 66.774 180.405 66.788 180.403 66.8023C180.401 66.8167 180.402 66.8313 180.406 66.8452C180.41 66.8591 180.417 66.8722 180.426 66.8835C180.435 66.8949 180.446 66.9043 180.459 66.9113C180.477 66.9162 180.496 66.9162 180.513 66.9113H180.531C180.548 66.9061 180.564 66.8974 180.578 66.8858C180.592 66.8742 180.603 66.86 180.611 66.8439L183.079 61.885C183.086 61.8724 183.091 61.8585 183.093 61.844C183.095 61.8296 183.094 61.8149 183.09 61.8009C183.086 61.7868 183.079 61.7738 183.07 61.7625C183.061 61.7512 183.049 61.7418 183.036 61.735C183.019 61.7302 183.001 61.7302 182.984 61.735Z" stroke="#1C2473" stroke-width="0.8"/>
<path d="M173.606 60.3906H173.591C173.563 60.3992 173.539 60.4165 173.522 60.4399C173.505 60.4633 173.496 60.4916 173.496 60.5205L173.621 65.7668C173.621 65.7813 173.624 65.7956 173.63 65.8089C173.636 65.8221 173.645 65.8338 173.655 65.8433C173.666 65.8528 173.679 65.8598 173.693 65.8639C173.707 65.8679 173.722 65.8689 173.736 65.8667H173.751C173.778 65.8585 173.802 65.8416 173.818 65.8186C173.835 65.7956 173.844 65.7678 173.843 65.7393L173.716 60.4931C173.716 60.4792 173.713 60.4654 173.708 60.4527C173.702 60.4399 173.694 60.4286 173.683 60.4194C173.673 60.4101 173.661 60.4033 173.647 60.3992C173.634 60.3951 173.62 60.3938 173.606 60.3956" stroke="#1C2473" stroke-width="0.8"/>
<path d="M171.665 60.6932H171.645C171.617 60.7014 171.594 60.7182 171.577 60.7413C171.56 60.7643 171.552 60.7922 171.552 60.8206L171.677 66.0669C171.677 66.0811 171.68 66.0952 171.687 66.1081C171.693 66.121 171.702 66.1325 171.712 66.1417C171.723 66.1509 171.736 66.1577 171.75 66.1616C171.763 66.1655 171.778 66.1664 171.792 66.1643H171.807C171.833 66.1553 171.856 66.1381 171.872 66.1152C171.889 66.0923 171.897 66.0649 171.897 66.0369L171.774 60.7906C171.775 60.7767 171.772 60.7629 171.766 60.7502C171.76 60.7374 171.752 60.7261 171.742 60.7169C171.731 60.7076 171.719 60.7008 171.706 60.6967C171.692 60.6926 171.678 60.6914 171.665 60.6932" stroke="#1C2473" stroke-width="0.8"/>
<path d="M162.491 64.8984H162.477L162.437 64.9184C162.411 64.9353 162.393 64.9611 162.386 64.9907C162.378 65.0202 162.382 65.0515 162.397 65.0783L165.084 69.2429C165.094 69.2587 165.108 69.2713 165.125 69.2792C165.142 69.2872 165.161 69.2902 165.179 69.2878H165.194L165.236 69.2653C165.261 69.2485 165.279 69.223 165.286 69.1939C165.293 69.1648 165.289 69.1341 165.274 69.108L162.586 64.9409C162.576 64.9256 162.562 64.9136 162.545 64.9065C162.528 64.8994 162.509 64.8974 162.491 64.9009" stroke="#1C2473" stroke-width="0.8"/>
<path d="M155.175 73.719H155.16C155.142 73.7242 155.126 73.7331 155.112 73.7452C155.099 73.7573 155.088 73.7722 155.08 73.7889C155.072 73.801 155.067 73.8145 155.065 73.8287C155.063 73.8429 155.064 73.8574 155.068 73.8711C155.072 73.8848 155.079 73.8975 155.088 73.9084C155.098 73.9192 155.109 73.9279 155.122 73.9339L159.652 75.8775C159.67 75.8838 159.69 75.8838 159.709 75.8775H159.722C159.739 75.8723 159.755 75.8635 159.768 75.8519C159.782 75.8403 159.793 75.8261 159.801 75.81C159.808 75.7974 159.813 75.7836 159.814 75.7693C159.816 75.755 159.814 75.7405 159.81 75.7268C159.806 75.713 159.799 75.7003 159.79 75.6893C159.781 75.6782 159.769 75.6692 159.756 75.6626L155.23 73.7165C155.212 73.7104 155.193 73.7104 155.175 73.7165" stroke="#1C2473" stroke-width="0.8"/>
<path d="M157.838 83.8145L152.682 84.6114H152.67C152.642 84.6196 152.619 84.6365 152.602 84.6595C152.585 84.6825 152.577 84.7104 152.577 84.7389C152.577 84.753 152.58 84.767 152.586 84.78C152.592 84.7929 152.6 84.8044 152.611 84.8136C152.622 84.8229 152.634 84.8297 152.648 84.8336C152.661 84.8375 152.676 84.8384 152.69 84.8363L157.845 84.0418H157.858C157.884 84.0327 157.908 84.0157 157.925 83.9929C157.942 83.9702 157.951 83.9428 157.952 83.9144C157.953 83.9001 157.95 83.8858 157.945 83.8727C157.939 83.8596 157.931 83.8479 157.92 83.8385C157.909 83.8292 157.896 83.8223 157.882 83.8186C157.869 83.8149 157.854 83.8143 157.84 83.817" stroke="#1C2473" stroke-width="0.8"/>
<path d="M160.078 91.3322H160.063L160.021 91.3547L155.619 94.6749C155.594 94.6921 155.577 94.7182 155.57 94.7479C155.564 94.7775 155.569 94.8086 155.584 94.8347C155.593 94.8512 155.607 94.8644 155.624 94.8725C155.641 94.8805 155.66 94.8831 155.679 94.8797H155.694L155.736 94.8572L160.133 91.5346C160.159 91.5177 160.177 91.4919 160.184 91.4624C160.192 91.4328 160.188 91.4015 160.173 91.3747C160.163 91.3591 160.149 91.3467 160.132 91.3387C160.115 91.3308 160.097 91.3277 160.078 91.3297" stroke="#1C2473" stroke-width="0.8"/>
<path d="M165.825 96.203H165.811C165.793 96.2087 165.777 96.2179 165.764 96.2299C165.75 96.2419 165.739 96.2565 165.731 96.2729L163.263 101.232C163.255 101.244 163.25 101.258 163.248 101.273C163.246 101.287 163.247 101.302 163.252 101.316C163.256 101.33 163.263 101.343 163.273 101.354C163.282 101.365 163.294 101.373 163.308 101.379C163.326 101.386 163.346 101.386 163.365 101.379H163.377C163.395 101.374 163.411 101.365 163.424 101.354C163.438 101.342 163.449 101.328 163.457 101.312L165.925 96.3504C165.933 96.338 165.938 96.324 165.94 96.3096C165.942 96.2951 165.941 96.2804 165.936 96.2664C165.932 96.2525 165.925 96.2396 165.915 96.2287C165.906 96.2177 165.894 96.2089 165.88 96.203C165.863 96.1967 165.843 96.1967 165.825 96.203" stroke="#1C2473" stroke-width="0.8"/>
<path d="M173.544 97.1174H173.529C173.502 97.1253 173.478 97.1418 173.461 97.1643C173.444 97.1867 173.434 97.214 173.434 97.2423L173.561 102.509C173.561 102.523 173.564 102.537 173.57 102.55C173.575 102.563 173.584 102.575 173.595 102.584C173.605 102.593 173.618 102.601 173.631 102.605C173.645 102.609 173.659 102.61 173.673 102.608H173.688C173.716 102.6 173.74 102.584 173.757 102.561C173.774 102.538 173.783 102.51 173.783 102.481L173.656 97.2148C173.656 97.2007 173.653 97.1866 173.647 97.1737C173.642 97.1608 173.633 97.1493 173.622 97.14C173.612 97.1308 173.599 97.1239 173.586 97.12C173.572 97.1161 173.558 97.1152 173.544 97.1174" stroke="#1C2473" stroke-width="0.8"/>
<path d="M181.162 93.8371H181.145L181.105 93.8571C181.08 93.8748 181.063 93.9006 181.056 93.93C181.049 93.9594 181.053 93.9903 181.067 94.017L183.755 98.184C183.766 98.1991 183.781 98.2108 183.798 98.2179C183.815 98.225 183.834 98.2271 183.852 98.224H183.867L183.907 98.204C183.932 98.1859 183.949 98.1596 183.956 98.1298C183.963 98.1 183.959 98.0687 183.945 98.0416L181.262 93.8796C181.252 93.864 181.238 93.8518 181.221 93.8442C181.204 93.8367 181.185 93.8342 181.167 93.8371" stroke="#1C2473" stroke-width="0.8"/>
<path d="M186.632 87.2381H186.62C186.586 87.2501 186.557 87.2741 186.54 87.3056C186.533 87.3181 186.528 87.3319 186.526 87.3463C186.525 87.3607 186.526 87.3752 186.53 87.3891C186.534 87.4029 186.541 87.4157 186.551 87.4267C186.56 87.4377 186.572 87.4466 186.585 87.4529L191.114 89.399C191.13 89.4041 191.148 89.4041 191.164 89.399H191.181C191.199 89.3947 191.216 89.3864 191.23 89.3748C191.245 89.3631 191.256 89.3483 191.264 89.3316C191.271 89.319 191.275 89.3051 191.276 89.2908C191.278 89.2766 191.277 89.2621 191.272 89.2484C191.268 89.2347 191.261 89.2219 191.252 89.2109C191.243 89.1999 191.232 89.1907 191.219 89.1842L186.692 87.2381C186.672 87.2331 186.652 87.2331 186.632 87.2381" stroke="#1C2473" stroke-width="0.8"/>
<path d="M193.657 78.2834L190.55 78.7631H190.535C190.508 78.7712 190.483 78.788 190.466 78.8109C190.449 78.8339 190.44 78.8618 190.44 78.8905C190.44 78.9047 190.444 78.9187 190.45 78.9315C190.456 78.9443 190.465 78.9557 190.476 78.9647C190.486 78.9738 190.499 78.9803 190.513 78.9839C190.527 78.9874 190.541 78.988 190.555 78.9854L193.662 78.5057H193.677C193.704 78.4979 193.728 78.4811 193.745 78.458C193.762 78.4349 193.77 78.4068 193.769 78.3783C193.769 78.3645 193.766 78.3508 193.761 78.3382C193.755 78.3256 193.747 78.3144 193.736 78.3053C193.726 78.2963 193.713 78.2896 193.7 78.2859C193.687 78.2821 193.673 78.2812 193.659 78.2834" stroke="#1C2473" stroke-width="0.8"/>
<path d="M190.665 68.2432H190.647L190.605 68.2656L186.205 71.5882C186.18 71.6051 186.162 71.6313 186.156 71.6611C186.149 71.691 186.154 71.7222 186.17 71.7482C186.18 71.7637 186.194 71.7761 186.21 71.7837C186.227 71.7913 186.245 71.7937 186.263 71.7906H186.28L186.323 71.7706L190.72 68.4505C190.745 68.4331 190.763 68.407 190.771 68.377C190.778 68.347 190.774 68.3153 190.76 68.2881C190.75 68.2723 190.736 68.2598 190.719 68.2523C190.702 68.2447 190.683 68.2424 190.665 68.2457" stroke="#1C2473" stroke-width="0.8"/>
<path d="M165.725 41.908L160.827 42.6574L160.739 42.6774C160.579 42.727 160.439 42.8264 160.34 42.9612C160.24 43.096 160.186 43.2592 160.186 43.4269L160.24 45.6528L160.35 45.6353C160.364 45.6332 160.379 45.6341 160.392 45.638C160.406 45.6419 160.419 45.6487 160.43 45.6579C160.441 45.6671 160.449 45.6786 160.456 45.6915C160.462 45.7044 160.465 45.7185 160.465 45.7327C160.465 45.7609 160.455 45.7882 160.439 45.811C160.422 45.8338 160.399 45.8509 160.373 45.8602H160.358L160.245 45.8777L160.315 48.8005C160.312 48.8304 160.312 48.8606 160.315 48.8905C160.325 48.9654 160.35 49.0375 160.389 49.1025C160.427 49.1675 160.478 49.2241 160.539 49.2689C160.6 49.3137 160.669 49.3457 160.743 49.3631C160.816 49.3805 160.892 49.3829 160.967 49.3701V49.3701L165.868 48.6207C165.897 48.615 165.926 48.6074 165.955 48.5982C166.115 48.549 166.256 48.4497 166.355 48.3148C166.455 48.1799 166.509 48.0165 166.509 47.8487L166.444 45.1007L166.332 45.1182C166.315 45.1206 166.297 45.1187 166.281 45.1126C166.265 45.1065 166.251 45.0964 166.239 45.0832C166.23 45.069 166.224 45.0527 166.222 45.0357L166.289 47.8712C166.29 47.9828 166.254 48.0916 166.188 48.1815C166.122 48.2714 166.029 48.3378 165.923 48.3709H165.865L160.967 49.1203C160.917 49.1285 160.867 49.1267 160.819 49.1151C160.77 49.1035 160.724 49.0822 160.684 49.0527C160.644 49.0231 160.61 48.9858 160.584 48.943C160.559 48.9001 160.542 48.8525 160.535 48.803V48.7456L160.405 43.367C160.405 43.2558 160.44 43.1475 160.506 43.0577C160.571 42.9679 160.664 42.9012 160.769 42.8673L160.829 42.8548L165.728 42.1053C165.777 42.0972 165.828 42.0991 165.877 42.1109C165.925 42.1227 165.971 42.1441 166.011 42.1739C166.052 42.2037 166.085 42.2413 166.111 42.2845C166.136 42.3276 166.153 42.3754 166.16 42.4251V42.4826L166.22 44.9983C166.222 44.9719 166.233 44.9469 166.25 44.9265C166.267 44.9061 166.289 44.8911 166.314 44.8834H166.327L166.439 44.8659L166.382 42.4526C166.384 42.4235 166.384 42.3943 166.382 42.3652C166.371 42.2898 166.346 42.2174 166.307 42.1521C166.268 42.0867 166.217 42.0299 166.156 41.9849C166.094 41.9399 166.025 41.9077 165.951 41.8902C165.877 41.8727 165.8 41.8703 165.725 41.883" stroke="#1C2473" stroke-width="0.8"/>
<path d="M183.695 39.1367H183.683L178.784 39.8862C178.754 39.8902 178.725 39.8969 178.697 39.9061C178.537 39.9564 178.398 40.0561 178.299 40.1908C178.2 40.3255 178.146 40.4883 178.145 40.6556L178.198 42.884L178.305 42.8665C178.319 42.8644 178.333 42.8652 178.346 42.869C178.36 42.8727 178.372 42.8794 178.383 42.8884C178.393 42.8974 178.402 42.9086 178.408 42.9212C178.414 42.9338 178.417 42.9475 178.417 42.9615C178.417 42.9908 178.408 43.0193 178.39 43.0427C178.373 43.0662 178.348 43.0832 178.32 43.0913L178.208 43.1088L178.28 46.0267C178.277 46.0567 178.277 46.0868 178.28 46.1167C178.29 46.1918 178.314 46.2642 178.353 46.3295C178.391 46.3948 178.442 46.4517 178.503 46.4967C178.564 46.5418 178.633 46.574 178.707 46.5916C178.78 46.6091 178.857 46.6116 178.931 46.5988V46.5988L183.835 45.8494L183.922 45.8319C184.081 45.781 184.22 45.681 184.319 45.5465C184.418 45.4119 184.472 45.2496 184.474 45.0825L184.401 42.1595L184.292 42.177C184.278 42.1808 184.263 42.1808 184.249 42.177C184.23 42.1713 184.213 42.1598 184.201 42.1441C184.189 42.1285 184.183 42.1094 184.182 42.0896L184.254 45.1199C184.254 45.2308 184.219 45.3389 184.154 45.4287C184.089 45.5184 183.998 45.5852 183.892 45.6196V45.6196L183.832 45.6321L178.934 46.3815C178.885 46.3893 178.834 46.3873 178.786 46.3755C178.738 46.3638 178.692 46.3425 178.652 46.313C178.612 46.2835 178.578 46.2463 178.552 46.2036C178.526 46.1609 178.509 46.1136 178.502 46.0642V46.0068L178.372 40.6281C178.371 40.5167 178.406 40.4078 178.472 40.3178C178.537 40.2277 178.63 40.1613 178.737 40.1285L178.792 40.116V40.0036V40.116L183.688 39.3665C183.737 39.3591 183.787 39.3614 183.835 39.3733C183.883 39.3852 183.928 39.4065 183.968 39.436C184.008 39.4655 184.042 39.5025 184.067 39.5451C184.093 39.5876 184.11 39.6347 184.117 39.6838C184.118 39.7046 184.118 39.7255 184.117 39.7463V39.7463L184.172 42.0771C184.173 42.0507 184.183 42.0255 184.2 42.0049C184.216 41.9843 184.239 41.9694 184.264 41.9622H184.279L184.389 41.9447L184.336 39.7163C184.339 39.6864 184.339 39.6563 184.336 39.6264C184.326 39.5515 184.302 39.4794 184.263 39.4144C184.225 39.3493 184.173 39.2927 184.113 39.248C184.052 39.2032 183.983 39.1711 183.909 39.1537C183.836 39.1363 183.76 39.134 183.685 39.1467" stroke="#1C2473" stroke-width="0.8"/>
<path d="M182.792 32.8535L178.435 33.5231L178.372 33.538C178.263 33.5722 178.167 33.6406 178.099 33.7333C178.032 33.8259 177.995 33.9378 177.996 34.0527L178.04 35.8014L178.148 35.7839C178.168 35.7787 178.19 35.7787 178.21 35.7839C178.223 35.792 178.235 35.803 178.243 35.8159C178.252 35.8289 178.258 35.8435 178.26 35.8589V35.8589L178.215 34.0102C178.218 33.9539 178.237 33.8997 178.272 33.855C178.306 33.8103 178.354 33.7773 178.407 33.7604H178.437L182.797 33.0884C182.849 33.0805 182.902 33.0937 182.945 33.125C182.987 33.1564 183.016 33.2034 183.024 33.2558V33.2857L183.099 36.396C183.096 36.4524 183.076 36.5065 183.042 36.5512C183.008 36.5959 182.96 36.629 182.907 36.6458H182.877L178.517 37.3203C178.464 37.3282 178.41 37.3147 178.367 37.2829C178.324 37.251 178.296 37.2035 178.288 37.1505V37.123L178.258 35.8739C178.256 35.9009 178.247 35.9269 178.23 35.9483C178.214 35.9698 178.191 35.9856 178.165 35.9938H178.15L178.04 36.0138L178.065 37.1505C178.064 37.1713 178.064 37.1921 178.065 37.2129C178.071 37.2662 178.086 37.3179 178.112 37.3648C178.138 37.4117 178.173 37.4528 178.216 37.4856C178.258 37.5183 178.307 37.5421 178.358 37.5553C178.41 37.5686 178.464 37.5711 178.517 37.5627L182.874 36.8907L182.931 36.8782C183.041 36.8441 183.137 36.7757 183.206 36.6832C183.274 36.5906 183.311 36.4786 183.311 36.3635L183.283 35.2019C183.269 35.1931 183.256 35.1806 183.248 35.1658C183.239 35.1509 183.234 35.1341 183.233 35.1169C183.234 35.0794 183.25 35.0437 183.276 35.017L183.236 33.2533V33.1958C183.229 33.1446 183.211 33.0954 183.185 33.051C183.158 33.0066 183.123 32.9679 183.082 32.9373C183.04 32.9066 182.993 32.8845 182.943 32.8722C182.892 32.86 182.84 32.8579 182.789 32.866" stroke="#1C2473" stroke-width="0.8"/>
<path d="M165.78 35.4893L161.423 36.1613V36.3887L165.78 35.7167C165.806 35.7124 165.833 35.7133 165.858 35.7193C165.883 35.7253 165.907 35.7362 165.928 35.7516C165.95 35.7669 165.967 35.7863 165.981 35.8086C165.995 35.8309 166.004 35.8557 166.008 35.8815V35.9115L166.085 39.0243C166.083 39.0808 166.063 39.1351 166.029 39.1799C165.994 39.2247 165.947 39.2576 165.893 39.2741H165.863L161.503 39.9461C161.477 39.9508 161.45 39.95 161.425 39.9441C161.399 39.9381 161.374 39.9269 161.353 39.9113C161.332 39.8957 161.314 39.8759 161.3 39.8531C161.286 39.8303 161.277 39.8051 161.274 39.7788V39.7513L161.244 38.5022C161.243 38.5306 161.234 38.5581 161.217 38.581C161.2 38.6038 161.176 38.6208 161.149 38.6296H161.134L161.024 38.6471L161.052 39.7837C161.049 39.8053 161.049 39.8271 161.052 39.8487C161.059 39.9005 161.077 39.9503 161.104 39.9951C161.131 40.0398 161.167 40.0787 161.209 40.1094C161.252 40.1401 161.3 40.1621 161.351 40.1739C161.402 40.1858 161.454 40.1873 161.506 40.1785L165.863 39.5039L165.92 39.4914C166.03 39.4574 166.126 39.389 166.194 39.2965C166.263 39.2039 166.299 39.0919 166.3 38.9768L166.277 38.02L166.167 38.04C166.153 38.0426 166.139 38.0421 166.126 38.0385C166.112 38.0349 166.099 38.0283 166.089 38.0192C166.078 38.0101 166.069 37.9988 166.063 37.9859C166.058 37.9731 166.055 37.9592 166.055 37.9451C166.054 37.941 166.054 37.9366 166.055 37.9326C166.058 37.9059 166.068 37.8805 166.085 37.8597C166.102 37.8388 166.124 37.8233 166.15 37.8152H166.162L166.275 37.7952L166.227 35.869V35.8116C166.22 35.7602 166.203 35.7109 166.177 35.6663C166.15 35.6217 166.115 35.5829 166.074 35.5521C166.032 35.5214 165.984 35.4993 165.934 35.4872C165.884 35.4752 165.832 35.4733 165.78 35.4818M161.414 36.1514L161.351 36.1638C161.242 36.198 161.146 36.2664 161.078 36.359C161.01 36.4517 160.974 36.5636 160.974 36.6785L161.017 38.4272L161.127 38.4097C161.146 38.4032 161.167 38.4032 161.186 38.4097C161.2 38.4172 161.212 38.4275 161.221 38.4401C161.23 38.4526 161.236 38.467 161.239 38.4822V38.4947L161.194 36.6385C161.196 36.5825 161.216 36.5285 161.25 36.4838C161.284 36.4392 161.33 36.406 161.384 36.3887H161.414V36.1613V36.1514Z" stroke="#1C2473" stroke-width="0.8"/>
<path d="M182.26 29.8184L178.158 30.4529H178.12C178.057 30.4732 178.001 30.5127 177.962 30.566C177.922 30.6193 177.9 30.6837 177.898 30.7502V31.09H177.923C177.937 31.0874 177.952 31.088 177.966 31.0917C177.98 31.0954 177.993 31.1022 178.004 31.1115C178.015 31.1208 178.023 31.1324 178.029 31.1455C178.035 31.1587 178.038 31.173 178.038 31.1874C178.037 31.2158 178.028 31.2434 178.011 31.2662C177.994 31.289 177.97 31.306 177.943 31.3148H177.931H177.903L177.923 32.1342V32.1692C177.927 32.1992 177.938 32.2281 177.953 32.2541C177.969 32.2801 177.989 32.3027 178.014 32.3206C178.038 32.3385 178.066 32.3514 178.095 32.3584C178.125 32.3655 178.155 32.3665 178.185 32.3615L182.288 31.732H182.32C182.384 31.7122 182.44 31.6724 182.479 31.6184C182.519 31.5644 182.54 31.4991 182.54 31.4322L182.52 30.5528L182.41 30.5703C182.396 30.5742 182.381 30.5742 182.368 30.5703C182.348 30.5645 182.331 30.5526 182.319 30.5364C182.307 30.5202 182.3 30.5006 182.3 30.4804L182.323 31.4797L182.29 31.5222L178.188 32.1542L178.148 32.1242L178.113 30.7377L178.145 30.6927L182.248 30.0632L182.29 30.0882V30.4754C182.291 30.4478 182.3 30.4211 182.316 30.3991C182.333 30.3771 182.356 30.3609 182.383 30.353H182.397L182.51 30.3355V30.0557V30.0207C182.505 29.9907 182.495 29.9619 182.479 29.936C182.463 29.91 182.442 29.8876 182.418 29.8699C182.393 29.8522 182.365 29.8396 182.335 29.8329C182.306 29.8262 182.275 29.8255 182.245 29.8309" stroke="#1C2473" stroke-width="0.8"/>
<path d="M165.885 32.3437L161.78 32.9757H161.745C161.681 32.996 161.625 33.0363 161.586 33.0907C161.546 33.1451 161.525 33.2108 161.526 33.278V33.5553L161.638 33.5378C161.651 33.5357 161.664 33.5361 161.677 33.5391C161.689 33.5421 161.701 33.5477 161.712 33.5554C161.722 33.563 161.731 33.5728 161.738 33.5839C161.744 33.595 161.749 33.6074 161.75 33.6203V33.243L161.785 33.1956L165.89 32.561L165.93 32.5935L165.965 33.98L165.93 34.025L161.828 34.657L161.788 34.627L161.763 33.6503C161.76 33.6755 161.749 33.6993 161.733 33.7188C161.717 33.7383 161.695 33.7527 161.671 33.7602H161.656L161.543 33.7777L161.566 34.652V34.692C161.569 34.7211 161.579 34.7491 161.593 34.7745C161.608 34.7999 161.627 34.8223 161.651 34.8401C161.674 34.858 161.7 34.8711 161.729 34.8787C161.757 34.8863 161.786 34.8882 161.815 34.8844L165.923 34.2523H165.955C166.02 34.2321 166.076 34.1919 166.116 34.1376C166.156 34.0832 166.177 34.0175 166.177 33.95L166.155 33.1331H166.13C166.116 33.1357 166.102 33.1352 166.088 33.1316C166.075 33.128 166.062 33.1214 166.051 33.1123C166.041 33.1032 166.032 33.0919 166.026 33.0791C166.02 33.0663 166.017 33.0522 166.018 33.0382C166.017 33.0096 166.025 32.9816 166.042 32.9585C166.059 32.9354 166.082 32.9186 166.11 32.9107H166.125H166.15V32.5735V32.541C166.146 32.5105 166.136 32.4812 166.12 32.4547C166.105 32.4282 166.084 32.4052 166.059 32.387C166.034 32.3688 166.006 32.3558 165.976 32.3488C165.947 32.3418 165.916 32.3409 165.885 32.3462" stroke="#1C2473" stroke-width="0.8"/>
<path d="M161.274 122.352L155.716 123.211H155.627H155.614C155.584 123.221 155.558 123.241 155.542 123.269C155.527 123.288 155.519 123.312 155.519 123.336C155.518 123.344 155.518 123.353 155.519 123.361V123.361L155.539 123.436C155.604 123.686 155.672 123.936 155.734 124.185V124.213L155.749 124.265V124.293C155.811 124.543 155.879 124.792 155.939 125.042V125.082V125.115C155.942 125.128 155.949 125.14 155.959 125.15C155.969 125.16 155.98 125.168 155.994 125.172C156.01 125.176 156.027 125.176 156.043 125.172H156.061C156.086 125.163 156.107 125.146 156.122 125.124C156.137 125.102 156.146 125.076 156.146 125.05V125.015V124.995L156.133 124.95C156.068 124.7 156.006 124.45 155.941 124.2V124.173L155.926 124.115V124.088C155.869 123.861 155.806 123.631 155.746 123.403L161.251 122.552V122.324" stroke="#1C2473" stroke-width="0.8"/>
<path d="M180.219 119.432L168.291 121.27L168.296 121.498L180.226 119.656L180.219 119.432Z" stroke="#1C2473" stroke-width="0.8"/>
<path d="M167.467 116.896L161.908 117.75L161.81 117.773C161.632 117.829 161.477 117.94 161.366 118.091C161.256 118.241 161.196 118.423 161.196 118.61L161.286 122.34V122.567L161.339 124.715C161.339 124.748 161.339 124.778 161.339 124.81C161.35 124.894 161.379 124.974 161.422 125.047C161.465 125.119 161.522 125.182 161.59 125.232C161.658 125.282 161.735 125.318 161.817 125.338C161.899 125.358 161.984 125.361 162.067 125.347L167.63 124.488H167.647C167.674 124.485 167.701 124.479 167.727 124.471C167.905 124.415 168.061 124.304 168.172 124.153C168.283 124.003 168.343 123.821 168.343 123.634L168.291 121.49V121.263L168.201 117.531C168.201 117.501 168.201 117.466 168.201 117.436C168.189 117.352 168.161 117.271 168.118 117.198C168.075 117.126 168.017 117.062 167.949 117.012C167.881 116.962 167.803 116.926 167.721 116.907C167.639 116.887 167.553 116.884 167.47 116.899M161.498 122.417L161.403 118.587C161.404 118.458 161.447 118.332 161.524 118.228C161.601 118.123 161.709 118.046 161.833 118.008C161.855 118 161.879 117.995 161.903 117.993L167.462 117.133C167.578 117.118 167.694 117.148 167.788 117.217C167.881 117.287 167.944 117.39 167.961 117.506C167.963 117.528 167.963 117.551 167.961 117.573L168.109 123.679C168.108 123.808 168.067 123.934 167.99 124.038C167.913 124.142 167.805 124.22 167.682 124.258L167.615 124.273L162.055 125.13C161.997 125.139 161.939 125.136 161.883 125.122C161.827 125.107 161.774 125.082 161.728 125.048C161.682 125.013 161.643 124.97 161.613 124.92C161.583 124.87 161.564 124.815 161.556 124.758V124.69L161.503 122.442V122.407L161.498 122.417Z" stroke="#1C2473" stroke-width="0.8"/>
<path d="M186.43 114.71L180.868 115.566L180.773 115.589C180.595 115.645 180.439 115.756 180.329 115.907C180.219 116.057 180.159 116.239 180.159 116.426L180.232 119.424V119.648L180.299 122.524C180.299 122.556 180.299 122.589 180.299 122.621C180.31 122.704 180.338 122.784 180.381 122.856C180.424 122.928 180.481 122.991 180.548 123.041C180.616 123.091 180.692 123.127 180.774 123.146C180.855 123.166 180.94 123.169 181.023 123.156V123.156L186.585 122.299C186.617 122.299 186.65 122.299 186.68 122.277C186.858 122.221 187.014 122.111 187.124 121.96C187.235 121.81 187.295 121.629 187.296 121.442L187.226 118.604L187.149 115.339C187.151 115.306 187.151 115.272 187.149 115.239C187.136 115.156 187.107 115.076 187.064 115.003C187.02 114.931 186.963 114.869 186.895 114.819C186.827 114.769 186.75 114.733 186.668 114.714C186.586 114.694 186.501 114.691 186.418 114.705M181.025 122.939C180.968 122.947 180.91 122.944 180.853 122.93C180.797 122.916 180.745 122.891 180.698 122.856C180.652 122.822 180.613 122.778 180.583 122.728C180.554 122.679 180.534 122.624 180.526 122.566C180.526 122.544 180.526 122.519 180.526 122.499L180.456 119.516V119.504L180.379 116.396C180.38 116.266 180.422 116.139 180.499 116.035C180.576 115.93 180.684 115.853 180.808 115.814C180.83 115.808 180.853 115.802 180.875 115.799L186.435 114.942H186.448C186.505 114.933 186.563 114.936 186.619 114.95C186.676 114.964 186.728 114.989 186.775 115.023C186.821 115.058 186.86 115.102 186.89 115.151C186.919 115.201 186.939 115.257 186.947 115.314C186.948 115.337 186.948 115.361 186.947 115.384L187.024 118.649L187.094 121.485C187.093 121.615 187.052 121.741 186.974 121.846C186.897 121.951 186.789 122.028 186.665 122.067L186.612 122.079H186.6L181.04 122.936H181.028L181.025 122.939Z" stroke="#1C2473" stroke-width="0.8"/>
<path d="M185.746 125.172L180.99 125.907L180.913 125.924C180.768 125.969 180.642 126.059 180.552 126.181C180.462 126.302 180.414 126.45 180.414 126.601L180.518 131.018C180.518 131.043 180.518 131.068 180.518 131.095C180.528 131.163 180.551 131.228 180.586 131.287C180.621 131.345 180.668 131.397 180.723 131.437C180.778 131.477 180.841 131.507 180.907 131.523C180.973 131.538 181.042 131.541 181.11 131.53V131.53L185.866 130.798L185.943 130.781C186.088 130.737 186.214 130.647 186.304 130.526C186.394 130.404 186.443 130.257 186.442 130.106L186.39 127.858C186.376 127.849 186.364 127.837 186.355 127.823C186.347 127.808 186.343 127.792 186.343 127.775C186.342 127.757 186.346 127.738 186.353 127.721C186.361 127.704 186.371 127.688 186.385 127.675L186.338 125.692C186.338 125.664 186.338 125.637 186.338 125.612C186.33 125.543 186.308 125.477 186.274 125.417C186.239 125.358 186.193 125.306 186.137 125.265C186.082 125.224 186.018 125.195 185.951 125.18C185.884 125.165 185.814 125.164 185.746 125.177M181.09 131.298C181.048 131.305 181.005 131.304 180.963 131.294C180.922 131.285 180.883 131.267 180.849 131.242C180.814 131.216 180.786 131.184 180.764 131.148C180.742 131.111 180.728 131.07 180.723 131.028V130.98L180.618 126.566C180.617 126.472 180.646 126.381 180.701 126.305C180.756 126.229 180.833 126.172 180.923 126.144V126.144H180.972L185.729 125.41C185.771 125.402 185.814 125.404 185.855 125.414C185.897 125.423 185.936 125.441 185.97 125.467C186.005 125.492 186.034 125.523 186.056 125.56C186.078 125.597 186.092 125.637 186.098 125.679V125.732L186.203 130.146C186.204 130.241 186.174 130.333 186.118 130.409C186.063 130.485 185.984 130.541 185.894 130.568H185.846L181.105 131.3L181.09 131.298Z" stroke="#1C2473" stroke-width="0.8"/>
<path d="M167.862 127.926L163.108 128.66L163.028 128.68C162.883 128.724 162.756 128.814 162.667 128.936C162.577 129.058 162.528 129.205 162.529 129.357L162.574 131.321L162.684 131.303C162.697 131.301 162.71 131.301 162.723 131.304C162.736 131.307 162.748 131.312 162.759 131.32C162.77 131.327 162.779 131.337 162.785 131.348C162.792 131.36 162.797 131.372 162.798 131.386L162.749 129.325C162.749 129.23 162.779 129.138 162.835 129.062C162.89 128.986 162.968 128.929 163.058 128.9L163.108 128.887L167.864 128.155C167.949 128.143 168.034 128.165 168.103 128.216C168.171 128.267 168.216 128.343 168.229 128.428V128.478L168.244 129.072L168.336 132.892C168.335 132.986 168.304 133.078 168.248 133.153C168.192 133.229 168.114 133.285 168.024 133.314H167.976L163.22 134.049C163.178 134.056 163.135 134.054 163.093 134.044C163.052 134.034 163.013 134.016 162.978 133.991C162.944 133.965 162.915 133.933 162.893 133.896C162.871 133.86 162.857 133.819 162.851 133.776V133.729L162.796 131.403C162.793 131.429 162.783 131.454 162.766 131.475C162.749 131.495 162.727 131.51 162.701 131.518H162.686L162.576 131.533L162.629 133.759C162.629 133.784 162.629 133.811 162.629 133.836C162.637 133.905 162.658 133.972 162.693 134.032C162.728 134.091 162.774 134.144 162.83 134.184C162.886 134.225 162.95 134.254 163.017 134.269C163.085 134.284 163.155 134.285 163.223 134.271L167.964 133.536L168.041 133.519C168.185 133.473 168.311 133.383 168.401 133.262C168.49 133.14 168.539 132.993 168.54 132.842L168.486 130.594C168.475 130.584 168.466 130.573 168.46 130.56C168.454 130.547 168.451 130.533 168.451 130.519C168.452 130.488 168.462 130.458 168.481 130.434L168.448 129.032L168.436 128.44C168.436 128.41 168.436 128.383 168.436 128.36C168.426 128.292 168.403 128.227 168.368 128.167C168.333 128.108 168.286 128.057 168.231 128.016C168.176 127.975 168.113 127.946 168.046 127.93C167.979 127.914 167.91 127.912 167.842 127.923" stroke="#1C2473" stroke-width="0.8"/>
<path d="M185.362 134.189L181.137 134.841H181.065C180.933 134.883 180.819 134.965 180.737 135.076C180.655 135.188 180.611 135.322 180.611 135.46L180.663 137.644V137.674L180.703 139.383C180.701 139.406 180.701 139.429 180.703 139.452C180.711 139.514 180.732 139.574 180.764 139.627C180.795 139.681 180.837 139.728 180.887 139.765C180.937 139.802 180.994 139.829 181.055 139.843C181.115 139.858 181.178 139.86 181.24 139.85L185.467 139.195C185.491 139.193 185.514 139.188 185.537 139.18C185.668 139.139 185.783 139.058 185.864 138.947C185.946 138.837 185.99 138.703 185.991 138.566L185.951 136.954L185.841 136.972C185.827 136.975 185.813 136.975 185.799 136.971C185.785 136.968 185.772 136.961 185.762 136.952C185.751 136.943 185.742 136.931 185.736 136.918C185.731 136.905 185.728 136.891 185.729 136.877C185.728 136.848 185.737 136.821 185.754 136.798C185.77 136.775 185.794 136.758 185.821 136.749H185.834L185.948 136.734L185.899 134.646V134.573C185.89 134.512 185.869 134.453 185.837 134.4C185.805 134.347 185.763 134.301 185.713 134.264C185.663 134.228 185.606 134.201 185.546 134.187C185.486 134.173 185.423 134.171 185.362 134.181M181.235 139.632C181.199 139.638 181.162 139.636 181.127 139.627C181.092 139.618 181.06 139.602 181.031 139.58C181.002 139.558 180.978 139.531 180.96 139.499C180.941 139.468 180.93 139.433 180.925 139.397V139.358L180.83 135.438C180.83 135.357 180.855 135.279 180.903 135.214C180.95 135.149 181.016 135.1 181.092 135.076V135.076H181.135L185.36 134.426C185.395 134.42 185.432 134.422 185.467 134.431C185.502 134.439 185.535 134.455 185.564 134.477C185.593 134.498 185.618 134.525 185.636 134.557C185.655 134.588 185.667 134.622 185.671 134.658V134.701L185.766 138.623C185.765 138.704 185.739 138.782 185.691 138.847C185.643 138.912 185.576 138.961 185.499 138.985H185.457L181.235 139.635V139.632Z" stroke="#1C2473" stroke-width="0.8"/>
<path d="M168.126 136.841L163.899 137.49L163.827 137.508C163.695 137.549 163.581 137.631 163.5 137.742C163.419 137.853 163.376 137.988 163.377 138.125L163.427 140.209L163.537 140.194C163.551 140.191 163.565 140.192 163.579 140.196C163.592 140.2 163.605 140.207 163.615 140.216C163.626 140.226 163.634 140.237 163.639 140.25C163.645 140.263 163.648 140.277 163.647 140.291C163.646 140.319 163.637 140.345 163.62 140.368C163.604 140.39 163.581 140.407 163.555 140.416H163.54L163.43 140.431L163.467 142.04C163.466 142.064 163.466 142.088 163.467 142.112C163.476 142.174 163.498 142.233 163.53 142.287C163.562 142.34 163.605 142.387 163.655 142.423C163.706 142.46 163.763 142.486 163.824 142.501C163.884 142.515 163.947 142.517 164.009 142.507V142.507V142.394V142.507L168.234 141.855C168.257 141.851 168.28 141.846 168.303 141.84C168.435 141.799 168.55 141.717 168.632 141.606C168.713 141.495 168.757 141.361 168.758 141.223L168.718 139.579C168.707 139.569 168.699 139.558 168.693 139.545C168.687 139.532 168.683 139.518 168.683 139.504C168.682 139.474 168.693 139.445 168.713 139.422L168.663 137.303C168.666 137.279 168.666 137.255 168.663 137.231C168.655 137.169 168.635 137.11 168.603 137.056C168.572 137.002 168.53 136.955 168.48 136.918C168.43 136.881 168.374 136.855 168.313 136.84C168.253 136.825 168.19 136.823 168.129 136.833M164.014 142.29C163.941 142.301 163.866 142.283 163.806 142.24C163.746 142.196 163.706 142.13 163.694 142.057V142.015L163.602 138.09C163.602 138.01 163.627 137.931 163.675 137.866C163.723 137.802 163.79 137.754 163.867 137.73H163.907L168.131 137.076C168.167 137.07 168.204 137.071 168.239 137.08C168.274 137.088 168.308 137.104 168.337 137.125C168.366 137.147 168.39 137.175 168.409 137.206C168.427 137.237 168.439 137.272 168.443 137.308V137.351L168.538 141.275C168.537 141.356 168.511 141.434 168.463 141.499C168.415 141.563 168.348 141.611 168.271 141.635H168.231L164.006 142.29H164.014Z" stroke="#1C2473" stroke-width="0.8"/>
<path d="M184.686 142.655L181.284 143.179L181.217 143.194C181.098 143.232 180.994 143.306 180.921 143.407C180.847 143.508 180.807 143.629 180.808 143.754L180.9 147.641C180.9 147.661 180.9 147.686 180.9 147.706C180.908 147.763 180.927 147.818 180.957 147.867C180.987 147.917 181.026 147.96 181.073 147.993C181.119 148.027 181.172 148.051 181.228 148.063C181.285 148.076 181.343 148.077 181.399 148.066V148.066V147.953V147.839V147.953V148.066L184.798 147.541L184.863 147.526C184.982 147.489 185.086 147.415 185.16 147.314C185.234 147.213 185.274 147.092 185.275 146.967L185.245 145.683C185.233 145.674 185.223 145.662 185.216 145.648C185.209 145.635 185.205 145.62 185.205 145.605C185.205 145.571 185.217 145.538 185.24 145.513L185.18 143.08C185.182 143.058 185.182 143.036 185.18 143.015C185.173 142.957 185.154 142.902 185.124 142.852C185.095 142.803 185.056 142.759 185.009 142.726C184.962 142.692 184.909 142.668 184.852 142.656C184.796 142.644 184.737 142.643 184.681 142.655M181.387 147.839C181.357 147.844 181.326 147.843 181.296 147.836C181.266 147.829 181.238 147.816 181.213 147.798C181.188 147.78 181.167 147.757 181.152 147.73C181.136 147.704 181.126 147.674 181.122 147.644V147.606L181.03 143.719C181.029 143.651 181.05 143.584 181.091 143.529C181.131 143.474 181.189 143.433 181.255 143.414H181.289L184.688 142.892C184.749 142.883 184.812 142.898 184.862 142.935C184.912 142.971 184.945 143.026 184.955 143.087V143.122L185.048 147.012C185.048 147.079 185.026 147.145 184.986 147.2C184.946 147.254 184.89 147.294 184.825 147.314V147.314H184.788L181.389 147.839H181.387Z" stroke="#1C2473" stroke-width="0.8"/>
<path d="M168.373 145.17L164.974 145.693L164.91 145.708C164.79 145.744 164.685 145.818 164.611 145.919C164.536 146.02 164.497 146.142 164.498 146.267L164.555 148.673H164.568C164.581 148.671 164.595 148.672 164.608 148.675C164.622 148.679 164.634 148.686 164.644 148.695C164.654 148.704 164.662 148.715 164.668 148.728C164.673 148.741 164.676 148.754 164.675 148.768C164.676 148.796 164.667 148.824 164.65 148.847C164.634 148.87 164.61 148.887 164.583 148.895H164.56L164.59 150.144C164.589 150.166 164.589 150.188 164.59 150.209C164.598 150.266 164.618 150.321 164.648 150.37C164.677 150.419 164.717 150.462 164.763 150.496C164.81 150.529 164.863 150.553 164.919 150.566C164.975 150.578 165.033 150.579 165.089 150.569L168.49 150.044C168.512 150.041 168.534 150.036 168.555 150.029C168.675 149.992 168.779 149.918 168.852 149.817C168.926 149.717 168.965 149.595 168.965 149.47L168.935 148.181C168.915 148.161 168.903 148.134 168.902 148.106C168.904 148.075 168.914 148.046 168.932 148.021L168.875 145.583C168.874 145.56 168.874 145.538 168.875 145.515C168.866 145.459 168.846 145.404 168.816 145.356C168.786 145.307 168.747 145.265 168.7 145.232C168.654 145.198 168.601 145.175 168.545 145.162C168.49 145.149 168.432 145.148 168.376 145.158M165.087 150.354C165.056 150.36 165.024 150.359 164.993 150.352C164.963 150.345 164.934 150.332 164.909 150.314C164.883 150.295 164.862 150.272 164.846 150.245C164.829 150.218 164.819 150.188 164.815 150.157V150.124L164.723 146.237C164.722 146.169 164.743 146.102 164.783 146.047C164.823 145.991 164.879 145.95 164.945 145.93H164.982L168.381 145.403C168.411 145.398 168.442 145.399 168.472 145.406C168.501 145.413 168.529 145.426 168.554 145.444C168.579 145.463 168.599 145.486 168.615 145.512C168.631 145.538 168.641 145.567 168.645 145.598V145.638L168.74 149.522C168.74 149.591 168.718 149.657 168.678 149.713C168.638 149.768 168.581 149.809 168.515 149.83H168.48L165.082 150.354H165.087Z" stroke="#1C2473" stroke-width="0.8"/>
<path d="M160.645 54.9933H160.627L160.582 55.0183C154.738 60.1796 149.508 65.9054 145.61 72.833C145.378 73.2452 145.151 73.6574 144.931 74.0821L144.919 74.1146C143.668 80.2866 143.541 86.6337 144.542 92.8511L144.584 93.1009C144.839 94.6815 145.154 96.2462 145.53 97.7951L145.545 97.83L145.605 97.91V97.9225C145.616 97.9328 145.628 97.9404 145.642 97.9449C145.658 97.9487 145.674 97.9487 145.69 97.9449H145.707L145.74 97.9299L145.849 97.855L145.912 97.815C145.938 97.7984 145.958 97.7728 145.966 97.7429C145.975 97.7129 145.973 97.6808 145.959 97.6527C145.949 97.636 145.934 97.6228 145.916 97.6148C145.899 97.6068 145.879 97.6043 145.859 97.6077H145.845L145.81 97.6227L145.73 97.6752C145.35 96.0988 145.028 94.5049 144.774 92.8961C144.32 90.0608 144.092 87.1937 144.093 84.3222C144.092 87.1937 144.32 90.0608 144.774 92.8961C144.32 90.0608 144.092 87.1937 144.093 84.3222C144.099 80.9028 144.446 77.4925 145.128 74.142C149.064 66.6949 154.534 60.6292 160.705 55.1782C160.72 55.1659 160.732 55.1502 160.74 55.1324C160.747 55.1145 160.751 55.0952 160.75 55.0758C160.75 55.0537 160.742 55.0324 160.727 55.0158C160.717 55.0025 160.704 54.9921 160.688 54.9859C160.673 54.9797 160.656 54.978 160.64 54.9808" stroke="#1C2473" stroke-width="0.8"/>
<path d="M190.884 126.952H190.824L186.447 127.627H186.433L186.38 127.656C186.366 127.669 186.356 127.685 186.348 127.702C186.341 127.719 186.337 127.738 186.338 127.756C186.338 127.773 186.342 127.79 186.35 127.804C186.359 127.819 186.371 127.831 186.385 127.839C186.405 127.851 186.429 127.855 186.452 127.851L190.79 127.182L190.892 127.167H190.907C190.933 127.158 190.956 127.141 190.973 127.119C190.99 127.097 191 127.07 191.002 127.042C191.002 127.028 190.999 127.014 190.993 127.001C190.987 126.988 190.979 126.976 190.968 126.967C190.957 126.958 190.945 126.951 190.931 126.947C190.918 126.943 190.903 126.942 190.889 126.945" stroke="#1C2473" stroke-width="0.8"/>
<path d="M180.329 128.58L168.6 130.391H168.585C168.56 130.398 168.537 130.413 168.52 130.433C168.502 130.458 168.492 130.488 168.49 130.518C168.49 130.533 168.494 130.547 168.5 130.56C168.506 130.573 168.514 130.584 168.525 130.593C168.548 130.61 168.577 130.617 168.605 130.613L180.334 128.802H180.349C180.376 128.794 180.4 128.777 180.417 128.754C180.434 128.731 180.442 128.703 180.441 128.675C180.441 128.661 180.438 128.647 180.433 128.634C180.427 128.621 180.418 128.61 180.407 128.601C180.397 128.591 180.384 128.585 180.37 128.581C180.357 128.578 180.343 128.577 180.329 128.58" stroke="#1C2473" stroke-width="0.8"/>
<path d="M189.677 136.162L189.579 136.177L185.956 136.739L185.841 136.754H185.829C185.801 136.763 185.778 136.78 185.761 136.803C185.744 136.826 185.736 136.853 185.736 136.882C185.736 136.896 185.738 136.91 185.744 136.923C185.75 136.936 185.758 136.948 185.769 136.957C185.78 136.966 185.793 136.973 185.807 136.976C185.82 136.98 185.835 136.98 185.849 136.977L185.958 136.959L189.554 136.402L189.682 136.382H189.694C189.721 136.374 189.745 136.357 189.762 136.334C189.778 136.311 189.787 136.283 189.786 136.255C189.787 136.241 189.785 136.227 189.779 136.214C189.773 136.201 189.765 136.19 189.755 136.181C189.744 136.172 189.731 136.165 189.718 136.161C189.704 136.158 189.69 136.157 189.677 136.16" stroke="#1C2473" stroke-width="0.8"/>
<path d="M163.545 140.197L163.435 140.212L159.522 140.814H159.51H159.495C159.471 140.825 159.451 140.842 159.438 140.864C159.424 140.886 159.417 140.911 159.417 140.937C159.417 140.949 159.419 140.962 159.424 140.974C159.429 140.986 159.436 140.997 159.445 141.006C159.454 141.015 159.465 141.022 159.477 141.027C159.489 141.032 159.502 141.034 159.515 141.034H159.532L163.44 140.432L163.55 140.417H163.565C163.591 140.408 163.614 140.391 163.63 140.369C163.647 140.346 163.656 140.32 163.657 140.292C163.658 140.278 163.655 140.264 163.649 140.251C163.644 140.238 163.636 140.227 163.625 140.217C163.615 140.208 163.602 140.201 163.589 140.197C163.575 140.193 163.561 140.192 163.547 140.195" stroke="#1C2473" stroke-width="0.8"/>
<path d="M180.543 137.571L168.815 139.382H168.797C168.773 139.391 168.752 139.405 168.735 139.425C168.715 139.448 168.705 139.477 168.705 139.507C168.706 139.521 168.709 139.535 168.715 139.548C168.721 139.561 168.729 139.573 168.74 139.582C168.75 139.592 168.763 139.599 168.777 139.603C168.791 139.607 168.806 139.608 168.82 139.605L180.548 137.794H180.563C180.588 137.785 180.609 137.77 180.626 137.75C180.643 137.73 180.654 137.707 180.658 137.681V137.651C180.656 137.638 180.652 137.626 180.645 137.615C180.639 137.604 180.63 137.594 180.619 137.586C180.609 137.579 180.597 137.573 180.584 137.57C180.572 137.567 180.559 137.567 180.546 137.569" stroke="#1C2473" stroke-width="0.8"/>
<path d="M188.748 144.939L188.648 144.956L185.31 145.473H185.292C185.27 145.479 185.25 145.491 185.235 145.508C185.212 145.534 185.2 145.567 185.2 145.601C185.2 145.616 185.204 145.631 185.211 145.644C185.218 145.657 185.228 145.669 185.24 145.678C185.249 145.685 185.259 145.691 185.27 145.694C185.281 145.697 185.293 145.697 185.305 145.696L188.621 145.181L188.746 145.163H188.761C188.788 145.155 188.812 145.138 188.828 145.115C188.845 145.092 188.854 145.064 188.853 145.036C188.853 145.022 188.85 145.008 188.845 144.995C188.839 144.982 188.83 144.971 188.82 144.961C188.809 144.952 188.796 144.945 188.783 144.941C188.769 144.937 188.755 144.936 188.741 144.939" stroke="#1C2473" stroke-width="0.8"/>
<path d="M180.763 146.177L169.01 147.983C168.984 147.991 168.962 148.006 168.945 148.026C168.926 148.05 168.916 148.08 168.915 148.111C168.916 148.139 168.927 148.166 168.947 148.186C168.957 148.195 168.969 148.202 168.982 148.206C168.995 148.21 169.009 148.21 169.022 148.208V148.208L180.751 146.397H180.768C180.795 146.388 180.818 146.371 180.834 146.348C180.851 146.325 180.86 146.298 180.86 146.269C180.861 146.255 180.858 146.241 180.852 146.228C180.846 146.215 180.837 146.204 180.827 146.195C180.816 146.185 180.804 146.179 180.79 146.175C180.776 146.171 180.762 146.17 180.748 146.172" stroke="#1C2473" stroke-width="0.8"/>
<path d="M164.568 148.676H164.555L160.825 149.248H160.8C160.772 149.257 160.749 149.275 160.732 149.298C160.715 149.321 160.705 149.349 160.705 149.378C160.705 149.392 160.708 149.406 160.714 149.419C160.72 149.432 160.729 149.443 160.74 149.452C160.751 149.461 160.764 149.468 160.778 149.471C160.791 149.475 160.806 149.475 160.82 149.473H160.85L164.553 148.906H164.575C164.602 148.897 164.626 148.881 164.643 148.858C164.659 148.834 164.668 148.807 164.668 148.778C164.668 148.764 164.666 148.751 164.66 148.738C164.655 148.726 164.647 148.714 164.636 148.705C164.626 148.696 164.614 148.689 164.601 148.686C164.588 148.682 164.574 148.681 164.56 148.683" stroke="#1C2473" stroke-width="0.8"/>
<path d="M162.684 131.303L162.574 131.32L157.887 132.042H157.87L157.82 132.072C157.806 132.084 157.795 132.099 157.787 132.116C157.779 132.133 157.775 132.151 157.775 132.17C157.776 132.194 157.785 132.216 157.801 132.234C157.817 132.252 157.839 132.264 157.863 132.267H157.89L162.579 131.543L162.689 131.528H162.704C162.729 131.52 162.751 131.505 162.768 131.484C162.785 131.464 162.796 131.439 162.798 131.413V131.388C162.797 131.375 162.792 131.362 162.785 131.351C162.779 131.339 162.77 131.329 162.759 131.322C162.748 131.314 162.736 131.309 162.723 131.306C162.71 131.303 162.697 131.303 162.684 131.305" stroke="#1C2473" stroke-width="0.8"/>
<path d="M160.343 45.6445L160.233 45.662L153.792 46.6612L153.643 46.6838H153.625C153.604 46.691 153.585 46.7035 153.569 46.7201C153.554 46.7367 153.543 46.7568 153.538 46.7787V46.8112C153.538 46.8316 153.544 46.8516 153.555 46.8686C153.565 46.8826 153.579 46.8935 153.595 46.9001C153.611 46.9068 153.628 46.9088 153.645 46.9061V46.9061L153.73 46.8936L160.238 45.8943L160.35 45.8768H160.365C160.392 45.8676 160.415 45.8505 160.432 45.8277C160.448 45.8049 160.457 45.7776 160.458 45.7494C160.457 45.7352 160.454 45.7211 160.448 45.7082C160.442 45.6953 160.433 45.6838 160.422 45.6746C160.412 45.6654 160.399 45.6585 160.385 45.6547C160.371 45.6508 160.357 45.6498 160.343 45.652" stroke="#1C2473" stroke-width="0.8"/>
<path d="M178.31 42.8742L178.203 42.8917L166.452 44.8903L166.34 44.9077H166.327C166.299 44.9159 166.275 44.9332 166.258 44.9566C166.241 44.9801 166.232 45.0086 166.232 45.0376C166.232 45.0592 166.239 45.0802 166.252 45.0976C166.263 45.1107 166.278 45.1209 166.294 45.127C166.31 45.1331 166.327 45.135 166.345 45.1326V45.1326L166.457 45.1151L178.205 43.1165L178.318 43.099C178.346 43.0909 178.37 43.0739 178.388 43.0504C178.405 43.027 178.415 42.9984 178.415 42.9691C178.415 42.9552 178.411 42.9415 178.406 42.9289C178.4 42.9162 178.391 42.905 178.38 42.896C178.37 42.887 178.357 42.8804 178.344 42.8767C178.33 42.8729 178.316 42.8721 178.303 42.8742" stroke="#1C2473" stroke-width="0.8"/>
<path d="M190.819 40.9426L184.414 41.9419L184.304 41.9594H184.289C184.263 41.9666 184.241 41.9815 184.224 42.0021C184.208 42.0227 184.198 42.048 184.197 42.0744V42.0918C184.197 42.1116 184.204 42.1307 184.216 42.1464C184.228 42.1621 184.245 42.1735 184.264 42.1793C184.278 42.1831 184.293 42.1831 184.306 42.1793V42.1793L184.416 42.1618L190.827 41.1625H190.847L190.884 41.14C190.901 41.1281 190.915 41.1124 190.924 41.0942C190.934 41.0759 190.939 41.0556 190.939 41.0351C190.939 41.0208 190.936 41.0067 190.93 40.9938C190.923 40.9809 190.915 40.9694 190.904 40.9602C190.893 40.951 190.88 40.9442 190.867 40.9403C190.853 40.9364 190.838 40.9355 190.824 40.9376" stroke="#1C2473" stroke-width="0.8"/>
<path d="M161.129 38.4043L161.019 38.4217L155.729 39.2387H155.699H155.684C155.657 39.246 155.633 39.2623 155.616 39.285C155.599 39.3077 155.591 39.3354 155.592 39.3636C155.59 39.3859 155.597 39.408 155.611 39.4255C155.624 39.4431 155.644 39.4549 155.666 39.4585H155.704L161.024 38.6391L161.134 38.6216H161.149C161.176 38.6128 161.2 38.5958 161.217 38.573C161.234 38.5502 161.243 38.5227 161.244 38.4942V38.4942V38.4817C161.241 38.4665 161.235 38.4521 161.226 38.4396C161.216 38.4271 161.205 38.4167 161.191 38.4092C161.172 38.4028 161.151 38.4028 161.131 38.4092" stroke="#1C2473" stroke-width="0.8"/>
<path d="M178.14 35.7793L178.033 35.7967L166.28 37.7953L166.167 37.8153H166.155C166.129 37.8235 166.107 37.839 166.09 37.8598C166.073 37.8807 166.063 37.906 166.06 37.9327C166.059 37.9368 166.059 37.9411 166.06 37.9452C166.06 37.9593 166.063 37.9733 166.068 37.9861C166.074 37.9989 166.083 38.0103 166.094 38.0194C166.104 38.0285 166.117 38.0351 166.131 38.0387C166.144 38.0423 166.158 38.0427 166.172 38.0401L166.282 38.0202L178.035 36.0216L178.145 36.0016H178.16C178.188 35.9929 178.212 35.9756 178.228 35.9521C178.245 35.9287 178.253 35.9005 178.253 35.8717V35.8717C178.25 35.8563 178.244 35.8417 178.236 35.8288C178.227 35.8158 178.216 35.8049 178.203 35.7967C178.182 35.7916 178.161 35.7916 178.14 35.7967" stroke="#1C2473" stroke-width="0.8"/>
<path d="M177.94 31.093H177.915L166.16 32.9067H166.135H166.12C166.092 32.9145 166.068 32.9313 166.052 32.9544C166.035 32.9775 166.026 33.0056 166.027 33.0341C166.027 33.0482 166.03 33.0621 166.036 33.0749C166.042 33.0878 166.05 33.0991 166.061 33.1082C166.072 33.1173 166.084 33.1239 166.098 33.1275C166.112 33.131 166.126 33.1316 166.14 33.129H166.165L177.92 31.3153H177.948H177.96C177.987 31.3065 178.011 31.2895 178.028 31.2667C178.045 31.2438 178.055 31.2163 178.055 31.1879C178.055 31.1735 178.053 31.1591 178.047 31.146C178.041 31.1329 178.032 31.1213 178.021 31.112C178.01 31.1027 177.997 31.0959 177.983 31.0922C177.969 31.0884 177.955 31.0879 177.94 31.0905" stroke="#1C2473" stroke-width="0.8"/>
<path d="M188.633 34.1602L188.479 34.1827L183.351 34.9746L183.298 35.0046C183.272 35.0313 183.257 35.067 183.256 35.1045C183.256 35.1217 183.261 35.1386 183.27 35.1534C183.279 35.1683 183.291 35.1807 183.306 35.1895C183.327 35.196 183.35 35.196 183.371 35.1895L188.568 34.3901L188.648 34.3751H188.663C188.691 34.3677 188.716 34.3511 188.733 34.328C188.75 34.3048 188.759 34.2765 188.758 34.2477V34.2177C188.75 34.1969 188.736 34.1794 188.717 34.168C188.698 34.1566 188.675 34.1521 188.653 34.1553" stroke="#1C2473" stroke-width="0.8"/>
<path d="M161.643 33.5464L161.531 33.5639L157.538 34.1809H157.511H157.496C157.468 34.189 157.444 34.2058 157.427 34.2288C157.41 34.2518 157.401 34.2797 157.401 34.3083C157.403 34.3356 157.414 34.3612 157.433 34.3808C157.444 34.3907 157.458 34.398 157.472 34.4024C157.486 34.4067 157.501 34.4078 157.516 34.4058L161.538 33.7812L161.651 33.7637H161.666C161.69 33.7562 161.712 33.7419 161.728 33.7224C161.744 33.7029 161.755 33.6791 161.758 33.6538V33.6238C161.756 33.611 161.752 33.5986 161.745 33.5875C161.738 33.5763 161.73 33.5666 161.719 33.5589C161.709 33.5512 161.697 33.5457 161.684 33.5427C161.672 33.5397 161.658 33.5392 161.646 33.5414" stroke="#1C2473" stroke-width="0.8"/>
<path d="M186.565 29.7012L186.383 29.7286L182.542 30.3232L182.43 30.3407H182.415C182.388 30.3489 182.364 30.3658 182.347 30.3888C182.331 30.4118 182.322 30.4397 182.323 30.4681C182.322 30.4889 182.328 30.5092 182.34 30.526C182.352 30.5428 182.37 30.5549 182.39 30.5605C182.404 30.5644 182.418 30.5644 182.432 30.5605L182.542 30.543L186.535 29.9285H186.567H186.58C186.607 29.9207 186.632 29.904 186.649 29.881C186.666 29.8579 186.675 29.8298 186.675 29.8011C186.674 29.7868 186.671 29.7728 186.665 29.7598C186.659 29.7469 186.65 29.7355 186.639 29.7262C186.628 29.717 186.616 29.7102 186.602 29.7063C186.588 29.7024 186.574 29.7015 186.56 29.7037" stroke="#1C2473" stroke-width="0.8"/>
<path d="M126.42 191.865H3.42627V35.4297H18.8355" stroke="#1D2474" stroke-linecap="round" stroke-linejoin="round"/>
<path d="M137.378 191.865H260.369V35.4297H244.96" stroke="#1D2474" stroke-linecap="round" stroke-linejoin="round"/>
<path d="M38.4395 11.8535H27.7092V169.433C27.7092 169.433 110.557 174.314 131.993 194.875" stroke="#1D2474" stroke-linecap="round" stroke-linejoin="round"/>
<path d="M54.9216 55.3396C54.9216 55.3396 86.2516 49.0617 117.582 78.6804" stroke="#1D2474" stroke-linecap="round" stroke-linejoin="round"/>
<path d="M54.9216 70.6146C54.9216 70.6146 86.2516 64.3391 117.582 93.9553" stroke="#1D2474" stroke-linecap="round" stroke-linejoin="round"/>
<path d="M54.9216 85.8915C54.9216 85.8915 86.2516 79.6135 117.582 109.23" stroke="#1D2474" stroke-linecap="round" stroke-linejoin="round"/>
<path d="M54.9216 101.165C54.9216 101.165 75.3166 99.1117 95.7117 111.977" stroke="#1D2474" stroke-linecap="round" stroke-linejoin="round"/>
</g>
<defs>
<clipPath id="clip0_199:8999">
<rect width="264" height="195" fill="white"/>
</clipPath>
</defs>
</svg>
