<svg width="287" height="201" viewBox="0 0 287 201" fill="none" xmlns="http://www.w3.org/2000/svg">
<g clip-path="url(#clip0_199:8835)">
<path d="M0.132812 0.219727H37.8403V81.9652H0.132812" stroke="#1D2474" stroke-linecap="round" stroke-linejoin="round"/>
<path d="M43.656 2.38379H44.8414L47.9494 75.9717H37.8403" stroke="#1D2474" stroke-linecap="round" stroke-linejoin="round"/>
<path d="M37.8403 2.38379H43.656" stroke="#1D2474" stroke-linecap="round" stroke-linejoin="round"/>
<path d="M83.3018 6.30927C88.9318 6.26954 90.8836 6.04438 92.2122 5.5491C96.7204 3.8858 113.215 -0.542577 135.886 0.222859C157.102 0.937973 157.855 0.773726 161.191 2.10596C164.527 3.43819 169.412 7.03755 169.21 12.6525C169.067 16.7022 168.059 17.2028 168.059 17.2028C168.059 17.2028 179.394 16.3711 179.789 25.8504C180.054 32.0083 177.728 34.6834 177.561 35.3508C177.394 36.0183 187.922 38.9555 187.758 45.7809C187.593 52.6062 186.562 53.8298 181.727 56.828C181.727 56.828 189.948 61.0658 185.867 70.2298C182.711 77.3227 165.893 81.9657 136.719 81.9657" stroke="#1D2474" stroke-linecap="round" stroke-linejoin="round"/>
<path d="M44.8491 5.49902C44.8491 5.49902 53.5209 5.62872 59.6256 5.81147" stroke="#1D2474" stroke-linecap="round" stroke-linejoin="round"/>
<path d="M59.5539 63.415C53.7648 63.415 47.4268 63.5687 47.4268 63.5687" stroke="#1D2474" stroke-linecap="round" stroke-linejoin="round"/>
<path d="M175.092 77.5977C175.092 77.5977 190.338 79.5127 189.707 86.1738C189.2 91.5213 186.259 90.8988 184.355 91.1081C183.058 91.2511 170.987 93.3381 163.084 97.7586C161.469 98.6544 159.575 98.9097 157.78 98.4738C154.476 97.6792 147.905 96.0318 135.327 92.5807C125 89.7467 120.476 90.0883 115.13 85.3288C109.783 80.5693 101.74 68.7832 90.3953 65.7294C87.8759 65.0487 86.8576 64.8104 82.8877 64.4688" stroke="#1D2474" stroke-linecap="round" stroke-linejoin="round"/>
<path d="M175.673 92.8691C176.909 89.7226 179.47 87.2197 182.406 85.5405C183.589 84.8625 184.872 84.2929 186.233 84.1976C187.593 84.1022 188.837 85.1247 189.707 86.1735" stroke="#1D2474" stroke-linecap="round" stroke-linejoin="round"/>
<path d="M181.73 56.8252H166.378" stroke="#1D2474" stroke-linecap="round" stroke-linejoin="round"/>
<path d="M177.622 35.4453H164.227" stroke="#1D2474" stroke-linecap="round" stroke-linejoin="round"/>
<path d="M167.847 17.1895H156.505" stroke="#1D2474" stroke-linecap="round" stroke-linejoin="round"/>
<path d="M71.1296 53.1246C81.3877 53.1246 89.7036 44.8192 89.7036 34.574C89.7036 24.3288 81.3877 16.0234 71.1296 16.0234C60.8715 16.0234 52.5557 24.3288 52.5557 34.574C52.5557 44.8192 60.8715 53.1246 71.1296 53.1246Z" stroke="#1D2474" stroke-linecap="round" stroke-linejoin="round"/>
<path d="M71.1296 56.3011C83.1438 56.3011 92.8832 46.5739 92.8832 34.5749C92.8832 22.5758 83.1438 12.8486 71.1296 12.8486C59.1154 12.8486 49.376 22.5758 49.376 34.5749C49.376 46.5739 59.1154 56.3011 71.1296 56.3011Z" stroke="#1D2474" stroke-linecap="round" stroke-linejoin="round"/>
<path d="M64.2081 25.3016C66.1954 23.7953 68.627 22.9904 71.1216 23.0132C74.1923 23.0132 77.1374 24.2314 79.3087 26.4001C81.4801 28.5687 82.6999 31.51 82.6999 34.5769C82.6999 36.0953 82.4004 37.5988 81.8185 39.0016C81.2366 40.4044 80.3838 41.6791 79.3086 42.7526C78.2334 43.8262 76.957 44.6777 75.5523 45.2586C74.1476 45.8394 72.642 46.1382 71.1216 46.1378C69.6013 46.1382 68.0958 45.8394 66.6911 45.2586C65.2863 44.6777 64.0099 43.8262 62.9347 42.7526C61.8596 41.6791 61.0067 40.4044 60.4248 39.0016C59.8429 37.5988 59.5435 36.0953 59.5435 34.5769C59.5417 32.8833 59.9133 31.2102 60.6319 29.6762C61.3506 28.1423 62.3986 26.7852 63.7016 25.7014" stroke="#1D2474" stroke-linecap="round" stroke-linejoin="round"/>
<path d="M71.4873 17.165V20.7009" stroke="#1D2474" stroke-linecap="round" stroke-linejoin="round"/>
<path d="M71.4873 48.4473V51.9858" stroke="#1D2474" stroke-linecap="round" stroke-linejoin="round"/>
<path d="M88.9187 34.5742H85.3784" stroke="#1D2474" stroke-linecap="round" stroke-linejoin="round"/>
<path d="M57.5967 34.5742H54.0537" stroke="#1D2474" stroke-linecap="round" stroke-linejoin="round"/>
<path d="M80.2095 49.6473L78.8677 47.3271" stroke="#1D2474" stroke-linecap="round" stroke-linejoin="round"/>
<path d="M63.9799 21.6066L62.7627 19.501" stroke="#1D2474" stroke-linecap="round" stroke-linejoin="round"/>
<path d="M86.6642 26.0117L84.3252 27.3307" stroke="#1D2474" stroke-linecap="round" stroke-linejoin="round"/>
<path d="M58.4294 41.9424L56.3105 43.1395" stroke="#1D2474" stroke-linecap="round" stroke-linejoin="round"/>
<path d="M62.439 49.4567L63.8312 47.1631" stroke="#1D2474" stroke-linecap="round" stroke-linejoin="round"/>
<path d="M79.271 21.7708L80.5359 19.6943" stroke="#1D2474" stroke-linecap="round" stroke-linejoin="round"/>
<path d="M86.5929 43.407L84.2725 42.043" stroke="#1D2474" stroke-linecap="round" stroke-linejoin="round"/>
<path d="M58.5673 26.9312L56.4644 25.6943" stroke="#1D2474" stroke-linecap="round" stroke-linejoin="round"/>
<path d="M71.3122 35.7871L61.0758 42.7105C61.0539 42.7247 61.0274 42.7301 61.0016 42.7256C60.9759 42.7211 60.9528 42.7071 60.937 42.6863C60.9212 42.6655 60.9139 42.6395 60.9165 42.6135C60.9192 42.5875 60.9316 42.5635 60.9512 42.5462L70.3469 34.5078" stroke="#1D2474" stroke-linecap="round" stroke-linejoin="round"/>
<path d="M71.6172 33.4172L73.9217 31.4414L75.3193 33.0703L72.8344 34.7521" stroke="#1D2474" stroke-linecap="round" stroke-linejoin="round"/>
<path fill-rule="evenodd" clip-rule="evenodd" d="M60.9965 21.7686L75.0357 37.1648L73.4048 38.5606L60.8427 21.8957C60.8299 21.8751 60.825 21.8505 60.829 21.8265C60.8329 21.8026 60.8453 21.7807 60.8641 21.7652C60.8828 21.7497 60.9065 21.7416 60.9309 21.7422C60.9552 21.7428 60.9786 21.7522 60.9965 21.7686Z" stroke="#1D2474" stroke-linecap="round" stroke-linejoin="round"/>
<path d="M92.6019 31.0625H95.4104C95.4807 31.0625 95.5482 31.0904 95.5979 31.1401C95.6476 31.1898 95.6756 31.2571 95.6756 31.3274V38.2136C95.6756 38.2839 95.6476 38.3512 95.5979 38.4009C95.5482 38.4506 95.4807 38.4785 95.4104 38.4785H92.5356" stroke="#1D2474" stroke-linecap="round" stroke-linejoin="round"/>
<path d="M92.8564 32.4346H95.7576" stroke="#1D2474" stroke-linecap="round" stroke-linejoin="round"/>
<path d="M92.9653 33.8936H95.7578" stroke="#1D2474" stroke-linecap="round" stroke-linejoin="round"/>
<path d="M92.9653 35.5967H95.7578" stroke="#1D2474" stroke-linecap="round" stroke-linejoin="round"/>
<path d="M92.8564 37.2178H95.7576" stroke="#1D2474" stroke-linecap="round" stroke-linejoin="round"/>
<path d="M82.9066 16.1435C82.9066 16.1435 83.0126 9.8584 82.9066 9.16977C82.8005 8.48114 83.9913 8.21361 84.4288 8.54733C84.8664 8.88105 85.532 10.0862 85.6566 12.9387C85.7813 15.7912 85.707 18.4504 85.707 18.4504" stroke="#1D2474" stroke-linecap="round" stroke-linejoin="round"/>
<path d="M59.9832 15.8362C59.9832 15.8362 59.8719 9.8584 59.9832 9.16977C60.0946 8.48114 58.8987 8.21361 58.4611 8.54733C58.0235 8.88105 57.3579 10.0862 57.2306 12.9387C57.1033 15.7912 57.1696 17.9207 57.1696 17.9207" stroke="#1D2474" stroke-linecap="round" stroke-linejoin="round"/>
<path d="M82.9013 11.6621C82.7522 11.9798 82.5121 12.2462 82.2114 12.4277C81.9107 12.6092 81.563 12.6976 81.212 12.6817H61.6461C61.324 12.6811 61.0064 12.6062 60.718 12.4629C60.4296 12.3196 60.1782 12.1117 59.9834 11.8555" stroke="#1D2474" stroke-linecap="round" stroke-linejoin="round"/>
<path d="M59.5537 8.40344V6.30851C59.5551 5.75471 59.7759 5.22399 60.168 4.8324C60.5601 4.4408 61.0915 4.22015 61.646 4.21875H81.2118C81.7663 4.22015 82.2977 4.4408 82.6898 4.8324C83.0819 5.22399 83.3027 5.75471 83.3041 6.30851V8.40344" stroke="#1D2474" stroke-linecap="round" stroke-linejoin="round"/>
<path d="M62.9668 4.99512V6.62664" stroke="#1D2474" stroke-linecap="round" stroke-linejoin="round"/>
<path d="M79.9814 4.99512V6.62664" stroke="#1D2474" stroke-linecap="round" stroke-linejoin="round"/>
<path d="M80.3236 7.49023C80.3236 7.49023 80.3527 8.4755 78.6899 9.34423" stroke="#1D2474" stroke-linecap="round" stroke-linejoin="round"/>
<path d="M62.7652 7.49023C62.7652 7.49023 62.7334 8.4755 64.3988 9.34423" stroke="#1D2474" stroke-linecap="round" stroke-linejoin="round"/>
<path d="M75.7305 9.3442C75.8233 9.31242 77.364 9.3442 77.364 9.3442" stroke="#1D2474" stroke-linecap="round" stroke-linejoin="round"/>
<path d="M72.4287 9.3442C72.5215 9.31242 74.0623 9.3442 74.0623 9.3442" stroke="#1D2474" stroke-linecap="round" stroke-linejoin="round"/>
<path d="M68.9468 9.3442C69.0396 9.31242 70.5803 9.3442 70.5803 9.3442" stroke="#1D2474" stroke-linecap="round" stroke-linejoin="round"/>
<path d="M65.5337 9.3442C65.6265 9.31242 67.1673 9.3442 67.1673 9.3442" stroke="#1D2474" stroke-linecap="round" stroke-linejoin="round"/>
<path d="M82.9013 52.8491C82.9013 52.8491 83.0127 59.4307 82.9013 60.1167C82.7899 60.8027 83.9859 61.0756 84.4235 60.7419C84.861 60.4082 85.5266 59.2004 85.6513 56.3505C85.7759 53.5007 85.7256 50.6826 85.7256 50.6826" stroke="#1D2474" stroke-linecap="round" stroke-linejoin="round"/>
<path d="M59.9832 53.4536C59.9832 53.4536 59.8719 59.4313 59.9832 60.1173C60.0946 60.8033 58.8987 61.0762 58.4611 60.7425C58.0235 60.4087 57.3579 59.201 57.2306 56.3511C57.1033 53.5013 57.1696 51.3691 57.1696 51.3691" stroke="#1D2474" stroke-linecap="round" stroke-linejoin="round"/>
<path d="M82.9013 57.6246C82.7521 57.3071 82.5118 57.0409 82.2111 56.8599C81.9104 56.6788 81.5627 56.591 81.212 56.6074H61.6461C61.3239 56.6074 61.0061 56.6821 60.7176 56.8255C60.4291 56.9688 60.1777 57.1771 59.9834 57.4338" stroke="#1D2474" stroke-linecap="round" stroke-linejoin="round"/>
<path d="M59.5537 60.8828V62.9805C59.5551 63.5343 59.7759 64.065 60.168 64.4566C60.5601 64.8482 61.0915 65.0688 61.646 65.0702H81.2118C81.7663 65.0688 82.2977 64.8482 82.6898 64.4566C83.0819 64.065 83.3027 63.5343 83.3041 62.9805V60.8828" stroke="#1D2474" stroke-linecap="round" stroke-linejoin="round"/>
<path d="M62.9668 64.2914V62.6572" stroke="#1D2474" stroke-linecap="round" stroke-linejoin="round"/>
<path d="M79.9814 64.2914V62.6572" stroke="#1D2474" stroke-linecap="round" stroke-linejoin="round"/>
<path d="M80.0238 62.0952C80.0238 62.0952 80.0555 61.1099 78.3901 60.2412" stroke="#1D2474" stroke-linecap="round" stroke-linejoin="round"/>
<path d="M63.0201 62.0532C63.0201 62.0532 62.9883 61.0679 64.6537 60.1992" stroke="#1D2474" stroke-linecap="round" stroke-linejoin="round"/>
<path d="M75.7305 60.2578C75.8233 60.2896 77.364 60.2578 77.364 60.2578" stroke="#1D2474" stroke-linecap="round" stroke-linejoin="round"/>
<path d="M72.4287 60.2578C72.5215 60.2896 74.0623 60.2578 74.0623 60.2578" stroke="#1D2474" stroke-linecap="round" stroke-linejoin="round"/>
<path d="M68.9468 60.2578C69.0396 60.2896 70.5803 60.2578 70.5803 60.2578" stroke="#1D2474" stroke-linecap="round" stroke-linejoin="round"/>
<path d="M65.5337 60.2578C65.6265 60.2896 67.1673 60.2578 67.1673 60.2578" stroke="#1D2474" stroke-linecap="round" stroke-linejoin="round"/>
<path d="M27.0867 76.5992C29.4256 76.5992 31.3218 74.7054 31.3218 72.3694C31.3218 70.0334 29.4256 68.1396 27.0867 68.1396C24.7477 68.1396 22.8516 70.0334 22.8516 72.3694C22.8516 74.7054 24.7477 76.5992 27.0867 76.5992Z" stroke="#1D2474" stroke-linecap="round" stroke-linejoin="round"/>
<path d="M247.065 140.191H234.657V187.67H247.065" stroke="#1D2474" stroke-linecap="round" stroke-linejoin="round"/>
<path d="M286.867 137.357H247.065V200.867L286.867 200.224" stroke="#1D2474" stroke-linecap="round" stroke-linejoin="round"/>
<path d="M255.604 196.521C257.117 196.521 258.344 195.296 258.344 193.785C258.344 192.274 257.117 191.049 255.604 191.049C254.091 191.049 252.865 192.274 252.865 193.785C252.865 195.296 254.091 196.521 255.604 196.521Z" stroke="#1D2474" stroke-linecap="round" stroke-linejoin="round"/>
<path d="M167.966 117.808C167.966 117.808 173.461 115.075 178.258 116.534C185.586 118.767 213.547 140.194 222.895 142.93C232.243 145.666 234.657 143.91 234.657 143.91" stroke="#1D2474" stroke-linecap="round" stroke-linejoin="round"/>
<path d="M183.093 137.357C183.093 137.357 176.484 144.538 157.309 141.802C138.133 139.066 129.246 137.543 125.775 142.387C122.646 146.754 126.04 152.102 128.787 154.194C131.535 156.287 141.034 160.633 155.699 159.666C170.364 158.7 174.23 167.562 176.649 170.051C179.067 172.541 193.247 184.452 206.3 182.841C219.353 181.231 234.659 177.544 234.659 177.544" stroke="#1D2474" stroke-linecap="round" stroke-linejoin="round"/>
<path fill-rule="evenodd" clip-rule="evenodd" d="M137.111 148.015C136.316 151.146 134.725 153.442 131.489 152.613C128.254 151.784 125.191 148.124 125.997 144.993C126.803 141.863 130.983 140.864 134.218 141.696C137.453 142.528 137.931 144.885 137.111 148.015Z" stroke="#1D2474" stroke-linecap="round" stroke-linejoin="round"/>
<path d="M208.809 182.518C208.809 182.518 220.082 187.858 234.023 181.724" stroke="#1D2474" stroke-linecap="round" stroke-linejoin="round"/>
<path d="M147.491 180.648C147.491 180.648 157.881 192.935 164.286 190.75C170.69 188.565 167.118 180.648 167.118 180.648" stroke="#1D2474" stroke-linecap="round" stroke-linejoin="round"/>
<path d="M154.622 187.262C155.418 179.846 163.949 185.98 163.387 190.893" stroke="#1D2474" stroke-linecap="round" stroke-linejoin="round"/>
<path d="M166.895 189.63C166.895 189.63 178.447 195.88 182.194 194.252C185.941 192.623 186.387 187.503 183.873 185.829C181.359 184.155 174.875 182.084 173.156 182.047C173.156 182.047 172.573 179.067 169.531 178.101" stroke="#1D2474" stroke-linecap="round" stroke-linejoin="round"/>
<path d="M173.668 192.625C174.198 185.67 182.12 187.18 183.873 192.559" stroke="#1D2474" stroke-linecap="round" stroke-linejoin="round"/>
<path d="M173.467 171.458C174.793 172.253 176.535 172.163 178.036 172.115L177.922 172.062" stroke="#1D2474" stroke-linecap="round" stroke-linejoin="round"/>
<path d="M174.907 172.16C175.113 173.598 174.196 175.413 173.668 176.302" stroke="#1D2474" stroke-linecap="round" stroke-linejoin="round"/>
<path d="M173.668 176.302C176.232 175.507 180.69 174.726 182.984 175.314" stroke="#1D2474" stroke-linecap="round" stroke-linejoin="round"/>
<path d="M183.34 185.5C186.44 185.715 190.905 183.712 191.03 179.806" stroke="#1D2474" stroke-linecap="round" stroke-linejoin="round"/>
<path d="M170.884 141.802L171.571 123.402L30.9983 118.735L28.9961 178.492L169.436 180.646L170.091 163.067" stroke="#1D2474" stroke-linecap="round" stroke-linejoin="round"/>
<path d="M35.2676 133.726C36.191 134.195 37.2125 134.438 38.2483 134.436C39.1146 134.436 39.9725 134.266 40.773 133.936C41.5735 133.605 42.3009 133.119 42.9136 132.508C43.5263 131.896 44.0123 131.17 44.3439 130.371C44.6755 129.571 44.8463 128.714 44.8463 127.849C44.8484 126.536 44.4557 125.253 43.7192 124.165L154.593 127.253" stroke="#1D2474" stroke-linecap="round" stroke-linejoin="round"/>
<path d="M35.2678 133.724L35.0186 163.409" stroke="#1D2474" stroke-linecap="round" stroke-linejoin="round"/>
<path d="M162.761 137.36C161.811 137.772 160.777 137.954 159.743 137.89C157.996 137.79 156.361 137.002 155.196 135.698C154.031 134.394 153.433 132.682 153.532 130.938C153.603 129.627 154.065 128.368 154.858 127.322" stroke="#1D2474" stroke-linecap="round" stroke-linejoin="round"/>
<path d="M162.758 137.357V142.345" stroke="#1D2474" stroke-linecap="round" stroke-linejoin="round"/>
<path d="M161.838 160.175L161.751 167.774C161.061 167.48 159.724 166.918 158.932 166.873C158.067 166.823 157.2 166.944 156.382 167.229C155.564 167.514 154.81 167.956 154.163 168.532C153.517 169.108 152.99 169.805 152.613 170.585C152.236 171.364 152.017 172.209 151.968 173.073C151.895 174.336 152.188 175.593 152.811 176.694L42.9504 173.563C43.642 172.503 44.0105 171.264 44.0112 169.998C44.0112 168.251 43.316 166.575 42.0787 165.339C40.8413 164.103 39.1631 163.409 37.4132 163.409C36.6426 163.408 35.8779 163.542 35.1538 163.806" stroke="#1D2474" stroke-linecap="round" stroke-linejoin="round"/>
<path d="M40.041 118.736L44.1992 95.627L167.966 117.809V123.281" stroke="#1D2474" stroke-linecap="round" stroke-linejoin="round"/>
<path d="M46.2627 111.073C47.1097 111.669 48.0855 112.056 49.1108 112.204C50.8409 112.456 52.6005 112.012 54.0028 110.969C55.4052 109.926 56.3355 108.37 56.5892 106.642C56.7803 105.344 56.577 104.018 56.0057 102.836L152.883 119.665" stroke="#1D2474" stroke-linecap="round" stroke-linejoin="round"/>
<path d="M46.2626 111.07L45.0825 118.735" stroke="#1D2474" stroke-linecap="round" stroke-linejoin="round"/>
<path d="M151.774 122.745C151.774 121.397 152.169 120.685 152.882 119.654" stroke="#1D2474" stroke-linecap="round" stroke-linejoin="round"/>
<path d="M98.489 170.035C108.876 170.035 117.296 161.625 117.296 151.251C117.296 140.878 108.876 132.468 98.489 132.468C88.102 132.468 79.6816 140.878 79.6816 151.251C79.6816 161.625 88.102 170.035 98.489 170.035Z" stroke="#1D2474" stroke-linecap="round" stroke-linejoin="round"/>
</g>
<defs>
<clipPath id="clip0_199:8835">
<rect width="287" height="201" fill="white"/>
</clipPath>
</defs>
</svg>
