<svg width="319" height="199" viewBox="0 0 319 199" fill="none" xmlns="http://www.w3.org/2000/svg">
<g clip-path="url(#clip0_199:8921)">
<path d="M166.632 10.4406L156.302 17.543L174.09 43.3005L184.42 36.1981L166.632 10.4406Z" stroke="#1D2474" stroke-linecap="round" stroke-linejoin="round"/>
<path d="M156.412 17.7045C155.855 16.8973 154.747 16.6935 153.939 17.2494C153.13 17.8052 152.927 18.9103 153.484 19.7176L171.197 45.3649C171.754 46.1722 172.861 46.376 173.67 45.8201C174.478 45.2642 174.682 44.1592 174.124 43.3519L156.412 17.7045Z" stroke="#1D2474" stroke-linecap="round" stroke-linejoin="round"/>
<path fill-rule="evenodd" clip-rule="evenodd" d="M153.348 24.4598C152.09 25.3238 150.437 25.1084 149.656 23.9647L166.644 48.5633C165.863 47.4319 166.247 45.8128 167.505 44.9488C168.763 44.0848 170.418 44.3001 171.2 45.4439L154.204 20.8428C154.985 21.9766 154.588 23.5933 153.348 24.4598Z" stroke="#1D2474" stroke-linecap="round" stroke-linejoin="round"/>
<path d="M150.127 24.5833C149.157 23.1782 147.229 22.8237 145.821 23.7916C144.414 24.7594 144.059 26.683 145.03 28.0881L161.545 52.0027C162.516 53.4078 164.443 53.7623 165.851 52.7945C167.259 51.8266 167.613 49.903 166.643 48.4979L150.127 24.5833Z" stroke="#1D2474" stroke-linecap="round" stroke-linejoin="round"/>
<path d="M145.291 28.4655L161.51 51.95C160.417 52.7014 159.07 52.9889 157.764 52.7492C156.459 52.5094 155.302 51.762 154.549 50.6715L144.012 35.4127C143.638 34.8728 143.375 34.2647 143.237 33.6233C143.1 32.9819 143.09 32.3197 143.209 31.6746C143.328 31.0294 143.573 30.4139 143.93 29.8633C144.287 29.3127 144.75 28.8377 145.291 28.4655Z" stroke="#1D2474" stroke-linecap="round" stroke-linejoin="round"/>
<path d="M184.133 35.7096C184.69 36.5168 185.798 36.7206 186.606 36.1647C187.415 35.6088 187.618 34.5038 187.061 33.6966L169.348 8.04914C168.791 7.24188 167.683 7.03812 166.875 7.594C166.067 8.14987 165.863 9.2549 166.421 10.0622L184.133 35.7096Z" stroke="#1D2474" stroke-linecap="round" stroke-linejoin="round"/>
<path fill-rule="evenodd" clip-rule="evenodd" d="M187.204 28.9552C188.462 28.0912 190.114 28.3065 190.898 29.4379L173.907 4.8418C174.691 5.9732 174.304 7.59227 173.046 8.4563C171.788 9.32032 170.136 9.10494 169.352 7.97355L186.343 32.5722C185.561 31.4383 185.946 29.8192 187.204 28.9552Z" stroke="#1D2474" stroke-linecap="round" stroke-linejoin="round"/>
<path d="M190.418 28.8299C191.389 30.235 193.317 30.5894 194.724 29.6216C196.132 28.6537 196.486 26.7301 195.516 25.325L179 1.41037C178.03 0.00527816 176.102 -0.349171 174.695 0.618666C173.287 1.5865 172.932 3.51015 173.903 4.91525L190.418 28.8299Z" stroke="#1D2474" stroke-linecap="round" stroke-linejoin="round"/>
<path d="M195.255 24.9564L179.036 1.47196C180.129 0.7205 181.476 0.433059 182.782 0.672813C184.087 0.912568 185.243 1.65987 185.997 2.7504L196.534 18.0092C196.908 18.5492 197.171 19.1572 197.308 19.7986C197.446 20.44 197.456 21.1022 197.337 21.7474C197.218 22.3925 196.973 23.008 196.616 23.5586C196.258 24.1092 195.796 24.5842 195.255 24.9564Z" stroke="#1D2474" stroke-linecap="round" stroke-linejoin="round"/>
<path d="M182.718 37.2976L175.841 42.026C175.179 42.4814 175.012 43.3863 175.468 44.0472C175.925 44.7081 176.832 44.8747 177.494 44.4193L184.371 39.6909C185.033 39.2355 185.2 38.3306 184.744 37.6697C184.287 37.0088 183.381 36.8422 182.718 37.2976Z" stroke="#1D2474" stroke-linecap="round" stroke-linejoin="round"/>
<path d="M187.514 57.4418C187.514 57.4418 181.234 47.8731 176.832 47.5513C172.431 47.2294 183.035 40.5352 183.035 40.5352" stroke="#1D2474" stroke-linecap="round" stroke-linejoin="round"/>
<path d="M193.791 53.1185C193.791 53.1185 187.062 43.8568 188.333 39.6382C189.603 35.4196 179.552 42.9334 179.552 42.9334" stroke="#1D2474" stroke-linecap="round" stroke-linejoin="round"/>
<path d="M186.086 51.221L178.955 56.1671C178.473 56.5014 178.353 57.162 178.688 57.6424C179.023 58.1228 179.685 58.2412 180.167 57.9069L187.298 52.9608C187.78 52.6265 187.9 51.966 187.565 51.4855C187.23 51.0051 186.568 50.8867 186.086 51.221Z" stroke="#1D2474" stroke-width="0.998649" stroke-linecap="round" stroke-linejoin="round"/>
<path d="M198.448 73.2016L188.754 59.1644L195.143 54.7725L208.572 74.2142" stroke="#1D2474" stroke-linecap="round" stroke-linejoin="round"/>
<path d="M198.042 72.6152C191.806 78.0321 183.866 91.5395 183.866 91.5395C183.866 91.5395 190.154 98.1521 199.287 85.5012" stroke="#1D2474" stroke-linecap="round" stroke-linejoin="round"/>
<path d="M203.927 67.4926C203.927 67.4926 207.135 65.475 210.187 66.2944C216.075 67.8739 241.773 69.7604 243.614 70.721C245.455 71.6816 265.843 105.683 270.396 111.818C274.949 117.953 277.023 117.722 277.023 117.722" stroke="#1D2474" stroke-linecap="round" stroke-linejoin="round"/>
<path d="M185.008 92.3905C185.008 92.3905 189.474 89.8925 190.263 86.8895C191.052 83.8865 189.243 83.1982 189.243 83.1982" stroke="#1D2474" stroke-linecap="round" stroke-linejoin="round"/>
<path d="M214.792 79.0397C214.842 78.7204 230.156 84.4467 232.873 83.9392C232.873 83.9392 234.079 92.7527 235.153 93.9781C233.958 94.4054 232.671 94.5087 231.424 94.2773C230.176 94.0459 229.013 93.4882 228.052 92.6611C224.578 89.7893 214.735 78.4703 212.063 76.5046C209.391 74.5389 202.451 69.8202 198.255 73.6872C194.099 77.5221 198.503 83.5108 199.523 84.771C200.543 86.0311 210.147 94.8025 214.023 98.8132C217.899 102.824 219.774 104.297 222.786 110.697C225.799 117.096 234.334 127.346 245.152 131.139C255.97 134.931 259.816 139.251 259.816 139.251" stroke="#1D2474" stroke-linecap="round" stroke-linejoin="round"/>
<path fill-rule="evenodd" clip-rule="evenodd" d="M207.153 75.6281C209.505 78.6608 210.592 82.4808 208.118 84.3896C205.644 86.2984 201.364 85.2041 199.012 82.1614C196.66 79.1188 196.012 75.8509 198.255 73.6772C200.297 71.7115 204.801 72.5854 207.153 75.6281Z" stroke="#1D2474" stroke-linecap="round" stroke-linejoin="round"/>
<path d="M201.027 86.9229C201.027 86.9229 195.764 96.2761 195.29 100.873C194.816 105.471 197.98 113.43 198.228 115.646C198.476 117.862 200.074 117.144 200.89 116.817C201.706 116.49 205.282 113.351 203.604 107.536C203.604 107.536 203.969 103.542 203.488 102.059C203.488 102.059 207.294 97.3555 208.383 93.3052" stroke="#1D2474" stroke-linecap="round" stroke-linejoin="round"/>
<path d="M203.627 113.152C203.84 113.363 208.036 125.246 208.371 127.14C208.721 129.101 213.182 127.714 213.638 124.531C213.849 123.07 213.7 118.666 211.723 115.559C211.723 115.559 211.991 106.151 210.45 104.314C210.45 104.314 213.539 99.2338 213.509 98.2881" stroke="#1D2474" stroke-linecap="round" stroke-linejoin="round"/>
<path d="M196.424 108.182C198.161 108.974 199.074 110.89 199.649 112.71C200.101 114.128 200.448 115.614 200.297 117.092" stroke="#1D2474" stroke-linecap="round" stroke-linejoin="round"/>
<path d="M205.949 119.463C206.677 119.884 207.31 120.452 207.808 121.129C209.35 123.075 210.343 125.398 210.681 127.856" stroke="#1D2474" stroke-linecap="round" stroke-linejoin="round"/>
<path d="M213.772 121.896C214.006 121.896 218.07 128.229 218.526 129.687C218.983 131.146 222.673 128.969 222.864 126.652C223.055 124.335 222.963 119.138 220.231 116.415C220.231 116.415 220.668 109.367 219.127 107.503L219.817 105.344" stroke="#1D2474" stroke-linecap="round" stroke-linejoin="round"/>
<path d="M214.827 123.338C214.911 123.209 215.107 123.244 215.251 123.296C217.894 124.251 220.189 126.762 221.082 129.418" stroke="#1D2474" stroke-linecap="round" stroke-linejoin="round"/>
<path d="M220.258 110.766C220.258 110.766 232.863 127.407 235.935 131.765C239.006 136.122 246.641 145.572 249.931 145.587C253.221 145.601 251.172 141.675 250.66 140.108C249.978 138.026 245.152 131.151 245.152 131.151" stroke="#1D2474" stroke-linecap="round" stroke-linejoin="round"/>
<path d="M318.876 138.355L286.789 117.418C279.288 120.983 257.059 152.402 256.082 152.996C256.082 152.996 290.819 183.034 303.254 183.138" stroke="#1D2474" stroke-linecap="round" stroke-linejoin="round"/>
<path d="M285.844 117.955C285.844 117.955 280.298 115.175 279.316 114.868C279.316 114.868 256.794 142.673 254.893 146.654L258.054 150.546" stroke="#1D2474" stroke-linecap="round" stroke-linejoin="round"/>
<path d="M148.155 188.974C148.155 194.442 115.016 198.876 74.1381 198.876C33.2604 198.876 0.124023 194.442 0.124023 188.974" stroke="#1D2474" stroke-linecap="round" stroke-linejoin="round"/>
<path d="M137.895 180.439C144.413 181.912 148.155 183.633 148.155 185.473C148.155 190.941 115.016 195.375 74.1381 195.375C33.2604 195.375 0.124023 190.941 0.124023 185.473C0.124023 183.633 3.86315 181.912 10.3813 180.439" stroke="#1D2474" stroke-linecap="round" stroke-linejoin="round"/>
<path d="M148.155 185.471V188.974" stroke="#1D2474" stroke-linecap="round" stroke-linejoin="round"/>
<path d="M0.124023 185.471V188.974" stroke="#1D2474" stroke-linecap="round" stroke-linejoin="round"/>
<path d="M97.0246 149.892C120.651 151.253 137.399 154.662 137.399 158.653C137.399 163.852 109.076 168.061 74.1282 168.061C39.1805 168.061 10.8577 163.852 10.8577 158.653C10.8577 154.583 28.283 151.117 52.6583 149.812" stroke="#1D2474" stroke-linecap="round" stroke-linejoin="round"/>
<path d="M137.399 181.517C137.399 186.716 109.076 190.924 74.1282 190.924C39.1805 190.924 10.8577 186.716 10.8577 181.517" stroke="#1D2474" stroke-linecap="round" stroke-linejoin="round"/>
<path d="M137.399 158.653V181.502" stroke="#1D2474" stroke-linecap="round" stroke-linejoin="round"/>
<path d="M10.8777 158.653V181.502" stroke="#1D2474" stroke-linecap="round" stroke-linejoin="round"/>
<path d="M41.6741 106.354C43.1355 109.934 44.8203 116.119 45.7235 122.082C46.582 127.744 46.4678 131.968 49.5916 137.135C49.6951 140.322 50.6307 143.428 52.306 146.144C52.1944 148.924 53.0801 151.91 54.4745 154.903C54.6482 158.978 57.0625 158.968 59.5387 158.963C71.0341 158.931 79.3064 158.899 90.8018 158.869C93.3897 158.869 95.6824 157.839 95.4094 154.2C96.5878 151.8 97.3558 149.22 97.6821 146.567C98.9972 143.126 99.6671 139.833 99.5828 136.709C100.977 134.244 101.926 131.553 102.386 128.759C102.461 125.276 103.28 124.056 103.379 122.189C103.694 116.314 106.341 110.476 108.093 105.31" stroke="#1D2474" stroke-linecap="round" stroke-linejoin="round"/>
<path d="M121.588 71.7061L123.052 71.5947V73.2534C123.73 73.6322 124.248 75.6104 124.248 77.9945C124.248 80.3786 123.73 82.3591 123.052 82.7354V84.3941L121.34 84.2208" stroke="#1D2474" stroke-linecap="round" stroke-linejoin="round"/>
<path d="M106.205 45.7705C104.507 41.5305 103.502 37.0461 103.228 32.4884C103.171 31.607 102.858 31.0153 102.374 30.6167C102.348 29.4795 102.32 28.3448 102.29 27.2126C101.839 24.931 100.94 22.761 99.6448 20.8277C99.7142 18.3174 99.0914 15.6758 97.8533 12.9055C97.5407 10.8407 97.0594 8.78588 95.8908 6.77561C96.1389 3.85427 94.3524 3.03236 91.9208 3.02741L59.3947 2.95313C57.0599 2.95313 54.7822 2.94073 54.6184 6.21362C53.3034 8.61506 52.7129 11.0141 52.8172 13.2471C51.264 15.3518 50.3735 17.87 50.259 20.4812C47.7034 24.0883 46.7854 27.6013 47.1873 31.0376C46.6588 31.1316 46.7159 31.9759 46.6092 32.5701C45.7581 37.3581 45.0361 41.9208 43.6541 44.7951" stroke="#1D2474" stroke-linecap="round" stroke-linejoin="round"/>
<path d="M38.2205 102.119C35.9477 99.6428 34.0396 97.3033 31.2731 95.3673C29.9606 94.4512 28.9135 94.5478 28.6679 92.5623C27.9012 82.5777 27.6009 73.3681 28.6232 63.3217C28.7596 61.0094 29.7794 61.3684 31.2284 60.4103C34.5755 58.197 36.0941 55.8871 37.4588 52.7578" stroke="#1D2474" stroke-linecap="round" stroke-linejoin="round"/>
<path fill-rule="evenodd" clip-rule="evenodd" d="M53.0431 107.075C49.6407 104.522 46.6392 101.476 44.1381 98.0384C38.1336 84.5755 38.2477 71.016 43.9916 56.6544C46.4606 52.4834 49.7294 48.839 53.6112 45.9296C66.6201 41.5971 82.2567 41.6293 95.2681 45.9618C99.1908 48.893 102.804 52.0991 105.334 56.3127C111.081 70.6719 110.771 84.5755 104.766 98.0384C102.266 101.476 99.2642 104.522 95.8611 107.075C83.4874 112.848 65.4194 112.848 53.0431 107.075Z" stroke="#1D2474" stroke-linecap="round" stroke-linejoin="round"/>
<path d="M72.493 75.7099C72.0638 75.4624 71.5526 75.1776 71.2524 75.0018L70.1806 75.3559L60.2955 68.6714C58.1419 67.2182 59.953 65.042 61.9529 66.3715L71.776 72.9C71.8033 73.3951 71.8331 73.91 71.8604 74.4175C72.1085 74.5785 72.5179 74.8582 72.8727 75.0934" stroke="#1D2474" stroke-linecap="round" stroke-linejoin="round"/>
<path d="M74.7683 79.312H74.8899C75.2282 79.3071 75.5621 79.2359 75.8727 79.1023C76.1834 78.9686 76.4645 78.7752 76.7002 78.5331C76.9359 78.291 77.1216 78.005 77.2465 77.6914C77.3714 77.3777 77.4331 77.0425 77.4282 76.7051C77.4218 76.2636 77.3013 75.8313 77.0783 75.4499L78.1155 74.623L79.2271 74.8186C82.1673 72.1424 91.633 63.0961 94.5658 60.4199C96.4862 58.672 94.4442 56.8548 92.6528 58.7265C89.7275 61.3507 80.2246 70.0008 77.2968 72.6251C77.3414 73.1202 77.3885 73.6352 77.4332 74.1403L76.6242 74.883C76.4068 74.6761 76.1549 74.5086 75.8799 74.3878" stroke="#1D2474" stroke-linecap="round" stroke-linejoin="round"/>
<path d="M74.6641 74.1777C74.0079 74.2257 73.3951 74.5221 72.9509 75.0063C72.5066 75.4905 72.2647 76.1258 72.2747 76.7822C72.2826 77.3106 72.4536 77.8238 72.7644 78.2518C73.0752 78.6797 73.5107 79.0017 74.0115 79.1738" stroke="#1D2474" stroke-linecap="round" stroke-linejoin="round"/>
<path d="M75.4233 76.4127L77.5919 66.9778L76.8822 66.1162L75.8004 66.6806L74.3713 76.1057" stroke="#1D2474" stroke-linecap="round" stroke-linejoin="round"/>
<path d="M74.2398 77.2891C74.2129 77.8235 74.154 78.3559 74.0636 78.8834L69.6372 104.027L69.9672 104.079L74.7386 79.0567C74.9569 77.9104 74.8328 78.5789 75.0933 77.4426" stroke="#1D2474" stroke-linecap="round" stroke-linejoin="round"/>
<path d="M75.1628 77.4004C75.2698 77.3337 75.3579 77.241 75.4191 77.131C75.4803 77.021 75.5124 76.8973 75.5126 76.7715C75.512 76.647 75.4805 76.5245 75.4209 76.415" stroke="#1D2474" stroke-linecap="round" stroke-linejoin="round"/>
<path d="M75.4209 76.415C75.3565 76.2986 75.2619 76.2016 75.1471 76.1341C75.0323 76.0666 74.9015 76.0311 74.7683 76.0313C74.5709 76.0313 74.3816 76.1095 74.242 76.2488C74.1024 76.3881 74.0239 76.577 74.0239 76.774C74.0239 76.9709 74.1024 77.1599 74.242 77.2991C74.3816 77.4384 74.5709 77.5167 74.7683 77.5167C74.9079 77.5164 75.0447 77.4769 75.1629 77.4028" stroke="#1D2474" stroke-linecap="round" stroke-linejoin="round"/>
<path d="M110.639 102.118C112.912 99.6421 115.319 97.3025 118.083 95.3665C119.395 94.4505 120.442 94.547 120.688 92.5615L121.341 84.2208L119.852 81.8813C118.475 79.9849 117.815 77.9202 118.485 75.5806C118.956 73.8476 119.822 72.4216 121.601 71.7086C121.315 68.9143 121.03 66.1193 120.747 63.3234C120.611 61.0111 119.591 61.3701 118.142 60.412C115.108 58.4393 112.732 55.6097 111.317 52.2842" stroke="#1D2474" stroke-linecap="round" stroke-linejoin="round"/>
<path d="M87.7054 26.0391H61.9829C61.1936 26.0391 60.5537 26.6775 60.5537 27.4651V30.5077C60.5537 31.2953 61.1936 31.9337 61.9829 31.9337H87.7054C88.4947 31.9337 89.1346 31.2953 89.1346 30.5077V27.4651C89.1346 26.6775 88.4947 26.0391 87.7054 26.0391Z" stroke="#1D2474" stroke-linecap="round" stroke-linejoin="round"/>
<path d="M86.3408 18.1445H63.3476C62.8296 18.1445 62.4097 18.5635 62.4097 19.0803V21.0807C62.4097 21.5976 62.8296 22.0165 63.3476 22.0165H86.3408C86.8588 22.0165 87.2787 21.5976 87.2787 21.0807V19.0803C87.2787 18.5635 86.8588 18.1445 86.3408 18.1445Z" stroke="#1D2474" stroke-linecap="round" stroke-linejoin="round"/>
<path d="M85.487 11.0371H64.2008C63.6828 11.0371 63.2629 11.4561 63.2629 11.9729V13.9733C63.2629 14.4901 63.6828 14.9091 64.2008 14.9091H85.487C86.005 14.9091 86.4249 14.4901 86.4249 13.9733V11.9729C86.4249 11.4561 86.005 11.0371 85.487 11.0371Z" stroke="#1D2474" stroke-linecap="round" stroke-linejoin="round"/>
<path d="M84.8173 5.24805H64.8685C64.5465 5.24805 64.2854 5.50852 64.2854 5.82984V7.07017C64.2854 7.39148 64.5465 7.65196 64.8685 7.65196H84.8173C85.1393 7.65196 85.4004 7.39148 85.4004 7.07017V5.82984C85.4004 5.50852 85.1393 5.24805 84.8173 5.24805Z" stroke="#1D2474" stroke-linecap="round" stroke-linejoin="round"/>
<path d="M87.2039 124.872H62.4738C61.4913 124.872 60.6948 125.667 60.6948 126.647V130.437C60.6948 131.418 61.4913 132.213 62.4738 132.213H87.2039C88.1864 132.213 88.9829 131.418 88.9829 130.437V126.647C88.9829 125.667 88.1864 124.872 87.2039 124.872Z" stroke="#1D2474" stroke-linecap="round" stroke-linejoin="round"/>
<path d="M86.2563 134.973H63.4194C62.774 134.973 62.2507 135.495 62.2507 136.139V138.629C62.2507 139.273 62.774 139.795 63.4194 139.795H86.2563C86.9017 139.795 87.425 139.273 87.425 138.629V136.139C87.425 135.495 86.9017 134.973 86.2563 134.973Z" stroke="#1D2474" stroke-linecap="round" stroke-linejoin="round"/>
<path d="M85.2539 143.517H64.4218C63.7764 143.517 63.2532 144.039 63.2532 144.683V147.173C63.2532 147.817 63.7764 148.339 64.4218 148.339H85.2539C85.8994 148.339 86.4226 147.817 86.4226 147.173V144.683C86.4226 144.039 85.8994 143.517 85.2539 143.517Z" stroke="#1D2474" stroke-linecap="round" stroke-linejoin="round"/>
<path d="M84.6311 151.32H65.0471C64.6456 151.32 64.3201 151.645 64.3201 152.046V153.591C64.3201 153.991 64.6456 154.316 65.0471 154.316H84.6311C85.0326 154.316 85.3581 153.991 85.3581 153.591V152.046C85.3581 151.645 85.0326 151.32 84.6311 151.32Z" stroke="#1D2474" stroke-linecap="round" stroke-linejoin="round"/>
<path d="M102.205 74.5605H96.7914C96.6256 74.5605 96.4912 74.6947 96.4912 74.8601V79.3263C96.4912 79.4917 96.6256 79.6258 96.7914 79.6258H102.205C102.371 79.6258 102.506 79.4917 102.506 79.3263V74.8601C102.506 74.6947 102.371 74.5605 102.205 74.5605Z" stroke="#1D2474" stroke-linecap="round" stroke-linejoin="round"/>
<path d="M88.0501 51.765L84.4858 57.9248L86.0566 58.8297L89.6208 52.6699L88.0501 51.765Z" stroke="#1D2474" stroke-linecap="round" stroke-linejoin="round"/>
<path d="M76.8775 48.4619H75.0637V55.5449H76.8775V48.4619Z" stroke="#1D2474" stroke-linecap="round" stroke-linejoin="round"/>
<path d="M74.1878 48.4668H72.374V55.5449H74.1878V48.4668Z" stroke="#1D2474" stroke-linecap="round" stroke-linejoin="round"/>
<path d="M61.2954 51.7719L59.7246 52.6768L63.2889 58.8365L64.8596 57.9317L61.2954 51.7719Z" stroke="#1D2474" stroke-linecap="round" stroke-linejoin="round"/>
<path d="M50.5585 61.7833L49.6516 63.3506L55.825 66.9069L56.7319 65.3396L50.5585 61.7833Z" stroke="#1D2474" stroke-linecap="round" stroke-linejoin="round"/>
<path d="M53.4649 75.8018H46.3364V77.6115H53.4649V75.8018Z" stroke="#1D2474" stroke-linecap="round" stroke-linejoin="round"/>
<path d="M55.8617 86.5159L49.6882 90.0723L50.5951 91.6396L56.7686 88.0832L55.8617 86.5159Z" stroke="#1D2474" stroke-linecap="round" stroke-linejoin="round"/>
<path d="M63.2647 94.5853L59.7004 100.745L61.2712 101.65L64.8354 95.4902L63.2647 94.5853Z" stroke="#1D2474" stroke-linecap="round" stroke-linejoin="round"/>
<path d="M75.5796 97.8701H73.7659V104.983H75.5796V97.8701Z" stroke="#1D2474" stroke-linecap="round" stroke-linejoin="round"/>
<path d="M86.0652 94.5863L84.4944 95.4912L88.0586 101.651L89.6294 100.746L86.0652 94.5863Z" stroke="#1D2474" stroke-linecap="round" stroke-linejoin="round"/>
<path d="M93.4935 86.507L92.5867 88.0742L98.7601 91.6306L99.6669 90.0634L93.4935 86.507Z" stroke="#1D2474" stroke-linecap="round" stroke-linejoin="round"/>
<path d="M98.786 61.7981L92.6125 65.3545L93.5194 66.9217L99.6928 63.3654L98.786 61.7981Z" stroke="#1D2474" stroke-linecap="round" stroke-linejoin="round"/>
<path fill-rule="evenodd" clip-rule="evenodd" d="M47.4553 95.362C42.1133 83.3697 41.8379 70.9837 46.9591 58.1893C48.495 55.6318 50.465 53.4854 52.6658 51.5395C53.698 50.6309 54.7798 49.7718 55.8914 48.94C67.4687 45.0803 81.403 45.0803 92.9827 48.94C96.4713 51.5494 99.6646 54.4361 101.915 58.1893C107.026 70.9837 106.751 83.3697 101.419 95.362C99.1927 98.4243 96.5218 101.139 93.4939 103.415C82.4823 108.555 66.4042 108.555 55.3926 103.415C54.4299 102.693 53.5201 101.944 52.6633 101.17C50.7363 99.4127 48.9907 97.4669 47.4528 95.362H47.4553ZM52.6658 42.1541C49.2889 43.2508 42.8304 50.7646 40.9893 53.8964C34.7665 69.7681 35.1014 85.1324 41.6047 100.011C44.3044 103.8 47.5548 107.166 51.249 109.998C51.7154 110.221 52.1878 110.435 52.6658 110.64C66.0048 116.371 84.6882 116.156 97.6276 109.998C101.322 107.166 104.572 103.8 107.272 100.011C113.775 85.1324 114.11 69.7681 107.887 53.8964C105.146 49.2395 101.26 45.6596 97.0123 42.4214C83.1796 37.7225 66.5903 37.6359 52.6583 42.1541H52.6658Z" stroke="#1D2474" stroke-linecap="round" stroke-linejoin="round"/>
<path d="M97.0049 42.4209C101.253 45.6591 105.138 49.239 107.88 53.8958C114.103 69.7676 113.768 85.1319 107.265 100.011" stroke="#1D2474" stroke-linecap="round" stroke-linejoin="round"/>
<path d="M110.639 102.118C117.807 86.026 118.177 69.4387 111.316 52.2821C109.878 49.9176 108.163 47.7319 106.207 45.7709C105.151 44.6989 100.225 40.1759 99.0915 39.802C98.692 39.6708 98.3297 39.5544 97.9253 39.4307" stroke="#1D2474" stroke-linecap="round" stroke-linejoin="round"/>
<path d="M97.9253 39.43C83.7205 35.043 67.0468 34.8648 52.6584 38.92C51.6063 39.2171 50.5668 39.5364 49.5395 39.878C47.4752 41.3985 45.5048 43.0421 43.6392 44.7998C40.1779 48.1098 37.9945 50.8009 36.4165 55.282C30.8759 71.0151 31.4541 86.2877 37.7861 101.112C37.93 101.449 38.0738 101.783 38.2227 102.117" stroke="#1D2474" stroke-linecap="round" stroke-linejoin="round"/>
<path d="M41.5973 100.011C35.0941 85.1324 34.7592 69.7681 40.982 53.8964C42.823 50.7646 49.2816 43.2508 52.6585 42.1541C66.5904 37.6359 83.1772 37.7225 97.0049 42.4214" stroke="#1D2474" stroke-linecap="round" stroke-linejoin="round"/>
<path d="M107.265 100.012C104.565 103.8 101.314 107.166 97.6201 109.999C84.6807 116.156 65.9973 116.371 52.6584 110.64C52.1803 110.435 51.7081 110.222 51.2416 109.999C47.5475 107.166 44.2969 103.8 41.5972 100.012" stroke="#1D2474" stroke-linecap="round" stroke-linejoin="round"/>
<path d="M38.2205 102.118C41.2097 106.223 44.7947 109.861 48.8574 112.912C50.0814 113.482 51.3477 114.004 52.6561 114.479C67.1612 119.758 86.4401 119.235 99.9998 112.912C104.063 109.861 107.647 106.223 110.637 102.118" stroke="#1D2474" stroke-linecap="round" stroke-linejoin="round"/>
</g>
<defs>
<clipPath id="clip0_199:8921">
<rect width="319" height="199" fill="white"/>
</clipPath>
</defs>
</svg>
