<svg width="251" height="67" viewBox="0 0 251 67" fill="none" xmlns="http://www.w3.org/2000/svg">
<path d="M91.8184 1.0249L96.7492 6.98185V34.0249H103.523V1.0249H91.8184Z" fill="black"/>
<path d="M0 1.0249L4.93085 6.98185V34.0249H11.7045V1.0249H0Z" fill="black"/>
<path d="M44.1036 22.2855L26.248 1.0249H17.3575L22.2884 6.98185V34.0249H29.0621V15.1072L44.8009 34.0249H50.977V1.0249H44.1036V22.2855Z" fill="black"/>
<path d="M244.127 22.2855L226.271 1.0249H217.381L222.311 6.98185V34.0249H229.085V15.1072L244.824 34.0249H251V1.0249H244.127V22.2855Z" fill="black"/>
<path d="M170.737 14.4093H155.197V1.0249H148.324V34.0249H155.197V20.6405H170.737V34.0249H177.585V1.0249H170.737V14.4093Z" fill="black"/>
<path d="M133.133 26.6224C131.588 27.3975 129.88 27.7907 128.152 27.7689C125.327 27.7721 122.602 26.7238 120.507 24.8278C119.514 23.923 118.71 22.8302 118.141 21.6125C117.583 20.2741 117.295 18.8382 117.295 17.3878C117.295 15.9375 117.583 14.5016 118.141 13.1632C118.709 11.9379 119.513 10.8368 120.507 9.92296C121.545 9.01119 122.733 8.286 124.018 7.77946C125.337 7.2699 126.738 7.00798 128.152 7.00681C129.88 6.98498 131.588 7.37812 133.133 8.15331C134.523 8.86807 135.752 9.86056 136.744 11.0695L142.173 6.73264L141.55 6.03475C139.886 4.18795 137.86 2.70329 135.598 1.67297C133.45 0.661656 131.119 0.0963917 128.746 0.011288C126.373 -0.0738156 124.007 0.323003 121.792 1.1778C119.576 2.03259 117.557 3.32763 115.855 4.98485C114.153 6.64207 112.805 8.62712 111.89 10.8202C111.003 12.896 110.546 15.1302 110.546 17.3878C110.546 19.6455 111.003 21.8797 111.89 23.9554C112.767 26.052 114.044 27.9571 115.651 29.5634C117.241 31.1708 119.138 32.4422 121.229 33.3021C123.418 34.2315 125.775 34.6982 128.152 34.6729C130.727 34.6987 133.276 34.1628 135.623 33.1027C137.885 32.0724 139.911 30.5878 141.575 28.7409L142.198 28.0431L136.644 23.7311C135.679 24.9205 134.485 25.9037 133.133 26.6224Z" fill="black"/>
<path d="M68.7081 20.6405H81.1846V14.4093H68.7081V7.25602H85.7419V1.0249H56.9039L61.8348 6.98185V34.0249H87.535V27.7689H68.7081V20.6405Z" fill="black"/>
<path d="M195.067 20.6405H207.569V14.4093H195.067V7.25602H212.101V1.0249H183.263L188.194 6.98185V34.0249H213.894V27.7689H195.067V20.6405Z" fill="black"/>
<path d="M14.2447 61.7904H6.40012L4.95573 65.6288H0.298828L7.64528 48.1816H12.9995L20.4705 65.6288H15.8136L14.2447 61.7904ZM13.0742 58.7745L11.4057 54.3629C10.9456 53.348 10.595 52.2868 10.3597 51.1975C10.1269 52.2907 9.76755 53.353 9.28891 54.3629L7.62039 58.7745H13.0742Z" fill="black"/>
<path d="M30.6061 48.1569V58.5005C30.6061 59.5912 31.0391 60.6373 31.8096 61.4085C32.5802 62.1798 33.6254 62.6131 34.7152 62.6131C35.805 62.6131 36.8501 62.1798 37.6207 61.4085C38.3913 60.6373 38.8242 59.5912 38.8242 58.5005V48.1569H43.3068V58.7996C43.3068 63.2113 40.1939 66.1274 34.7152 66.1274C29.2365 66.1274 26.1235 63.2113 26.1235 58.6501V48.0322L30.6061 48.1569Z" fill="black"/>
<path d="M50.5287 56.9303C50.49 55.6417 50.7269 54.3597 51.2236 53.1702C51.7202 51.9807 52.465 50.9111 53.4083 50.0332C54.3515 49.1552 55.4713 48.4891 56.6927 48.0795C57.914 47.67 59.2087 47.5264 60.49 47.6584C65.4707 47.6584 68.8078 50.1508 69.5798 54.064L64.9975 54.8865C64.86 53.7953 64.3064 52.7997 63.4525 52.1076C62.5985 51.4155 61.5103 51.0805 60.4153 51.1727C59.6834 51.1429 58.9539 51.275 58.2788 51.5597C57.6037 51.8444 56.9997 52.2746 56.5098 52.8197C56.0199 53.3647 55.6561 54.0113 55.4445 54.7132C55.2328 55.4151 55.1784 56.1551 55.2853 56.8805C55.1769 57.6123 55.2327 58.3591 55.4486 59.0667C55.6645 59.7743 56.035 60.4249 56.5333 60.9714C57.0316 61.5179 57.6452 61.9465 58.3296 62.2261C59.014 62.5058 59.752 62.6294 60.49 62.5881C61.5626 62.6656 62.6257 62.3412 63.4726 61.6779C64.3195 61.0145 64.8896 60.0597 65.0722 58.999L69.6047 59.996C69.0195 61.9301 67.7798 63.6 66.0984 64.7188C64.417 65.8377 62.3988 66.3357 60.3904 66.1274C54.1646 66.1274 50.5287 62.5134 50.5287 56.9303Z" fill="black"/>
<path d="M91.3452 51.6711H85.3435V65.6288H80.8609V51.6711H74.8593V48.1567H91.3452V51.6711Z" fill="black"/>
<path d="M98.4426 65.6288V48.1816H102.9V65.6288H98.4426Z" fill="black"/>
<path d="M110.421 56.8803C110.421 51.2474 114.331 47.6582 120.382 47.6582C126.434 47.6582 130.344 51.2474 130.344 56.8803C130.344 62.5132 126.459 66.1272 120.382 66.1272C114.306 66.1272 110.421 62.5132 110.421 56.8803ZM125.612 56.8803C125.511 55.8637 125.118 54.8981 124.479 54.1007C123.841 53.3033 122.986 52.708 122.017 52.3871C121.048 52.0662 120.006 52.0335 119.019 52.2927C118.032 52.5519 117.141 53.092 116.454 53.8476C115.767 54.6033 115.313 55.5421 115.148 56.5503C114.983 57.5586 115.114 58.593 115.525 59.5284C115.935 60.4639 116.608 61.2601 117.461 61.8208C118.314 62.3815 119.312 62.6826 120.333 62.6877C121.079 62.716 121.823 62.5807 122.512 62.2913C123.201 62.0019 123.818 61.5654 124.321 61.0123C124.824 60.4592 125.2 59.8028 125.423 59.0891C125.646 58.3754 125.711 57.6216 125.612 56.8803Z" fill="black"/>
<path d="M137.815 48.1567H142.795L149.893 58.1266C150.361 58.8 150.761 59.5179 151.088 60.27C151.088 59.5223 151.088 58.7746 151.088 57.9271V48.1567H155.172V65.6039H150.54L143.194 55.6341C142.732 54.9746 142.331 54.2737 141.998 53.5404C141.998 54.3131 141.998 55.0608 141.998 56.0328V65.8282H137.939L137.815 48.1567Z" fill="black"/>
<path d="M178.507 62.4135V65.6288H164.038V48.1816H178.357V51.3969H168.396V55.1854H177.834V58.301H168.396V62.4384L178.507 62.4135Z" fill="black"/>
<path d="M201.243 62.4135V65.6288H186.775V48.1816H201.069V51.3969H191.108V55.1854H200.546V58.301H191.108V62.4384L201.243 62.4135Z" fill="black"/>
<path d="M217.555 59.0239H213.969V65.5291H209.511V48.082H218.949C223.93 48.082 225.673 50.5745 225.673 53.5156C225.715 54.6344 225.378 55.7346 224.719 56.6389C224.059 57.5432 223.115 58.199 222.038 58.5005L226.196 65.579H221.216L217.555 59.0239ZM213.969 56.0828H218.003C220.17 56.0828 220.992 54.9612 220.992 53.5904C220.992 52.2195 220.195 51.0979 218.003 51.0979H213.969V56.0828Z" fill="black"/>
<path d="M231.277 61.8902L234.539 59.5972C235.165 60.6136 236.052 61.4433 237.108 62C238.164 62.5567 239.349 62.8201 240.541 62.7626C242.832 62.7626 244.226 62.1395 244.226 60.7437C244.226 59.3479 243.479 59.0737 241.562 58.7746L237.951 58.2513C234.389 57.6531 232.497 56.0329 232.497 52.9922C232.497 49.9514 235.46 47.6584 240.366 47.6584C241.929 47.5246 243.5 47.7775 244.942 48.3946C246.384 49.0118 247.652 49.9744 248.634 51.1976L245.72 53.69C245.107 52.7848 244.266 52.0572 243.283 51.5803C242.299 51.1034 241.207 50.894 240.117 50.9733C238 50.9733 236.78 51.6213 236.78 52.7928C236.78 53.9642 237.502 54.4129 239.52 54.7369L243.006 55.2603C246.841 55.8585 248.634 57.3041 248.634 60.4197C248.634 63.959 245.646 66.2022 240.341 66.2022C238.584 66.3508 236.819 66.0299 235.227 65.2723C233.634 64.5147 232.271 63.3476 231.277 61.8902Z" fill="black"/>
</svg>
