<svg width="113" height="113" viewBox="0 0 113 113" fill="none" xmlns="http://www.w3.org/2000/svg">
<g clip-path="url(#clip0_32_4381)">
<path d="M56.4999 112.878C87.6368 112.878 112.878 87.6368 112.878 56.4999C112.878 25.363 87.6368 0.121582 56.4999 0.121582C25.363 0.121582 0.121582 25.363 0.121582 56.4999C0.121582 87.6368 25.363 112.878 56.4999 112.878Z" stroke="#F1E8DD" stroke-linecap="round" stroke-linejoin="round"/>
<path d="M39.4919 58.7577C43.5791 65.1779 49.6247 69.2407 56.3709 69.2407C63.6451 69.2407 70.1067 64.5138 74.1743 57.2007" stroke="#F1E8DD" stroke-linecap="round" stroke-linejoin="round"/>
<path d="M75.2962 23.2581C71.3599 14.9256 64.3484 9.55151 56.3712 9.55151C48.394 9.55151 41.4409 14.8794 37.4973 23.151" stroke="#F1E8DD" stroke-linecap="round" stroke-linejoin="round"/>
<path d="M44.7861 36.7505H50.8293" stroke="#F1E8DD" stroke-linecap="round" stroke-linejoin="round"/>
<path d="M64.0515 42.7961C67.8768 42.7961 70.9778 39.6951 70.9778 35.8699C70.9778 32.0446 67.8768 28.9436 64.0515 28.9436C60.2262 28.9436 57.1252 32.0446 57.1252 35.8699C57.1252 39.6951 60.2262 42.7961 64.0515 42.7961Z" stroke="#F1E8DD" stroke-linecap="round" stroke-linejoin="round"/>
<path d="M71.6687 36.7505V64.2025" stroke="#F1E8DD" stroke-linecap="round" stroke-linejoin="round"/>
<path d="M71.9117 36.7184C72.3981 36.7184 72.7924 36.3241 72.7924 35.8377C72.7924 35.3513 72.3981 34.957 71.9117 34.957C71.4253 34.957 71.031 35.3513 71.031 35.8377C71.031 36.3241 71.4253 36.7184 71.9117 36.7184Z" stroke="#F1E8DD" stroke-miterlimit="10"/>
<path fill-rule="evenodd" clip-rule="evenodd" d="M65.7326 54.0429C65.7326 54.0429 60.9399 47.9609 56.4197 47.939H56.3224C51.7998 47.9633 47.0095 54.0429 47.0095 54.0429C47.0095 54.0429 46.1994 55.3518 52.4931 54.5295C54.6705 54.2497 55.8091 53.3715 56.3711 52.34C56.9306 53.3666 58.0741 54.2449 60.249 54.5295C66.5427 55.3518 65.7326 54.0429 65.7326 54.0429Z" stroke="#F1E8DD" stroke-linecap="round" stroke-linejoin="round"/>
<path fill-rule="evenodd" clip-rule="evenodd" d="M74.1744 57.201C71.0118 62.0083 81.67 49.7444 83.4995 44.436C84.3413 42.1081 84.8333 39.6682 84.9592 37.1959C85.0492 34.729 84.638 32.2135 83.5384 30.002C82.1322 27.1678 79.658 24.9612 76.8895 23.4334C76.5678 23.2167 76.1898 23.0992 75.802 23.0952C74.9286 23.1658 74.5394 24.2143 74.3958 25.078C73.4079 31.2723 74.7561 37.6128 78.1789 42.8693C78.1789 42.8693 78.9087 50.0047 74.1744 57.201Z" stroke="#F1E8DD" stroke-linecap="round" stroke-linejoin="round"/>
<path fill-rule="evenodd" clip-rule="evenodd" d="M38.9838 57.8866C41.9153 62.6452 31.2814 49.7269 29.4957 44.4306C28.7075 42.0902 28.1334 39.6598 28.036 37.1905C27.9387 34.7212 28.3596 32.2081 29.4568 29.9966C30.8654 27.1624 33.3493 24.9558 36.1082 23.428C36.4296 23.211 36.8078 23.0934 37.1956 23.0898C38.069 23.1604 38.4583 24.2089 38.5994 25.0726C39.5881 31.2666 38.2407 37.6071 34.8188 42.8639C34.8188 42.8639 34.466 50.5589 38.9838 57.8866Z" stroke="#F1E8DD" stroke-linecap="round" stroke-linejoin="round"/>
<path d="M49.4155 72.591V68.0708" stroke="#F1E8DD" stroke-linecap="round" stroke-linejoin="round"/>
<path d="M63.5845 68.0708V72.591" stroke="#F1E8DD" stroke-linecap="round" stroke-linejoin="round"/>
<path fill-rule="evenodd" clip-rule="evenodd" d="M45.9023 78.2642L49.4153 72.5908H63.5841L67.6226 78.2642L58.8961 81.5436L56.7625 73.5615L54.4416 81.5436L45.9023 78.2642Z" stroke="#F1E8DD" stroke-linecap="round" stroke-linejoin="round"/>
<path d="M45.9027 78.2639L34.0815 85.071" stroke="#F1E8DD" stroke-linecap="round" stroke-linejoin="round"/>
<path d="M43.8591 80.0593L56.3712 103.451L69.2652 79.4194" stroke="#F1E8DD" stroke-linecap="round" stroke-linejoin="round"/>
<path d="M37.176 83.833L39.4921 90.0829L43.859 88.29L42.375 94.2285L56.371 103.451" stroke="#F1E8DD" stroke-linecap="round" stroke-linejoin="round"/>
<path d="M67.6982 78.2639L79.5194 85.071" stroke="#F1E8DD" stroke-linecap="round" stroke-linejoin="round"/>
<path d="M76.4249 83.833L74.1088 90.0829L69.7419 88.29L71.2259 94.2285L56.3711 103.451" stroke="#F1E8DD" stroke-linecap="round" stroke-linejoin="round"/>
</g>
<defs>
<clipPath id="clip0_32_4381">
<rect width="113" height="113" fill="white"/>
</clipPath>
</defs>
</svg>
