<svg width="115" height="115" viewBox="0 0 115 115" fill="none" xmlns="http://www.w3.org/2000/svg">
<path d="M114.376 57.5C114.376 88.9118 88.9118 114.376 57.5 114.376C26.0881 114.376 0.623779 88.9118 0.623779 57.5C0.623779 26.0881 26.0881 0.623779 57.5 0.623779C88.9118 0.623779 114.376 26.0881 114.376 57.5Z" stroke="#F1E8DD" stroke-linecap="round" stroke-linejoin="round"/>
<path d="M26.9624 43.132C29.5313 37.7537 33.4954 33.1625 38.4418 29.837C43.3882 26.5114 49.1358 24.5731 55.086 24.224C61.0361 23.8749 66.971 25.1277 72.2724 27.852C77.5738 30.5762 82.0476 34.6723 85.2278 39.7133C88.4081 44.7544 90.1783 50.556 90.3542 56.5138C90.53 62.4716 89.105 68.3675 86.2277 73.5874C83.3503 78.8072 79.1258 83.16 73.9944 86.1922C68.8629 89.2244 63.0122 90.8251 57.0519 90.8275C43.6078 90.8275 32.2435 82.823 26.9723 71.3596" stroke="#F1E8DD" stroke-linecap="round" stroke-linejoin="round"/>
<path fill-rule="evenodd" clip-rule="evenodd" d="M86.8146 57.1808C86.8146 65.0743 83.6789 72.6446 78.0973 78.2261C72.5158 83.8077 64.9455 86.9434 57.052 86.9434C40.6146 86.9434 27.2869 72.3159 27.2869 55.876C27.2869 39.4361 40.6146 27.4231 57.052 27.4231C64.9447 27.4231 72.5142 30.5581 78.0956 36.1386C83.677 41.7191 86.8133 49.2881 86.8146 57.1808V57.1808Z" stroke="#F1E8DD" stroke-linecap="round" stroke-linejoin="round"/>
<path d="M90.3774 50.9441H92.9524C93.0025 50.9447 93.0504 50.9651 93.0856 51.0008C93.1208 51.0365 93.1405 51.0846 93.1405 51.1347V60.6124C93.1409 60.6374 93.1362 60.6621 93.1269 60.6852C93.1176 60.7083 93.1038 60.7294 93.0863 60.7471C93.0688 60.7648 93.048 60.7789 93.025 60.7885C93.002 60.7981 92.9773 60.8031 92.9524 60.8031H90.3774" stroke="#F1E8DD" stroke-linecap="round" stroke-linejoin="round"/>
<path d="M98.4636 61.1518V50.6021C98.4636 49.5068 97.5757 48.6189 96.4804 48.6189H95.1237C94.0284 48.6189 93.1405 49.5068 93.1405 50.6021V61.1518C93.1405 62.2471 94.0284 63.135 95.1237 63.135H96.4804C97.5757 63.135 98.4636 62.2471 98.4636 61.1518Z" stroke="#F1E8DD" stroke-linecap="round" stroke-linejoin="round"/>
<path d="M58.2082 53.2787V50.3052H63.0659L52.8306 36.9453" stroke="#F1E8DD" stroke-linecap="round" stroke-linejoin="round"/>
<path d="M47.1756 68.6441V50.3052H42.3179L52.5532 36.9453" stroke="#F1E8DD" stroke-linecap="round" stroke-linejoin="round"/>
<path d="M62.4169 77.976C68.6591 77.976 73.7194 72.9157 73.7194 66.6735C73.7194 60.4314 68.6591 55.3711 62.4169 55.3711C56.1748 55.3711 51.1145 60.4314 51.1145 66.6735C51.1145 72.9157 56.1748 77.976 62.4169 77.976Z" stroke="#F1E8DD" stroke-linecap="round" stroke-linejoin="round"/>
<path d="M60.9193 55.8088V60.1837C60.9193 60.1837 58.2528 61.0057 58.176 63.5732C58.129 65.1231 58.6712 65.8461 59.258 66.3858C59.8448 66.9256 62.801 67.3762 63.8359 68.2947C64.492 68.8741 64.2296 70.2235 63.2219 70.4587C62.2142 70.6939 61.2412 70.1318 60.746 69.1786H57.8245C57.8245 69.1786 58.1736 72.3973 60.9565 73.0187V77.5001" stroke="#F1E8DD" stroke-linecap="round" stroke-linejoin="round"/>
<path d="M63.9178 55.8088V59.9931C63.9178 59.9931 66.4432 61.387 66.4432 63.8852H63.3137C63.3137 63.8852 63.0661 62.6968 62.2342 62.6745C61.2611 62.6497 61.021 63.2538 61.0235 63.6475C61.0259 64.0412 61.0779 64.6379 62.1549 64.9374C63.232 65.237 64.6308 65.2791 65.5222 66.0144C66.4135 66.7498 67.0077 67.5668 67.0077 68.6711C67.0314 69.5493 66.8037 70.416 66.3516 71.1692C65.9975 71.7709 65.4825 72.3799 63.8262 72.9568V77.5521" stroke="#F1E8DD" stroke-linecap="round" stroke-linejoin="round"/>
<path d="M98.4635 51.7112H93.1404" stroke="#F1E8DD" stroke-linecap="round" stroke-linejoin="round"/>
<path d="M98.4635 54.4443H93.1404" stroke="#F1E8DD" stroke-linecap="round" stroke-linejoin="round"/>
<path d="M98.4635 57.1777H93.1404" stroke="#F1E8DD" stroke-linecap="round" stroke-linejoin="round"/>
<path d="M98.4635 59.9138H93.1404" stroke="#F1E8DD" stroke-linecap="round" stroke-linejoin="round"/>
<path d="M57.0493 29.2002V32.2901" stroke="#F1E8DD" stroke-linecap="round" stroke-linejoin="round"/>
<path d="M57.0493 82.0828V85.1727" stroke="#F1E8DD" stroke-linecap="round" stroke-linejoin="round"/>
<path d="M85.0369 57.1858H81.947" stroke="#F1E8DD" stroke-linecap="round" stroke-linejoin="round"/>
<path d="M32.1541 57.1856L29.0642 55.8833" stroke="#F1E8DD" stroke-linecap="round" stroke-linejoin="round"/>
<path d="M76.8393 37.3958L74.6555 39.582" stroke="#F1E8DD" stroke-linecap="round" stroke-linejoin="round"/>
<path d="M39.4459 74.7915L37.2622 75.6729" stroke="#F1E8DD" stroke-linecap="round" stroke-linejoin="round"/>
<path d="M76.8393 76.9752L74.6555 74.7915" stroke="#F1E8DD" stroke-linecap="round" stroke-linejoin="round"/>
<path d="M39.4459 39.582L37.2622 37.3958" stroke="#F1E8DD" stroke-linecap="round" stroke-linejoin="round"/>
<path d="M89.127 46.8044C90.4841 45.8129 92.0567 45.1567 93.7161 44.8897C95.3755 44.6226 97.0745 44.7522 98.6742 45.2679C100.274 45.7836 101.729 46.6707 102.92 47.8566C104.111 49.0426 105.004 50.4936 105.527 52.0911C106.049 53.6886 106.186 55.3871 105.926 57.0476C105.666 58.7081 105.016 60.2835 104.031 61.6448C103.045 63.0061 101.751 64.1147 100.254 64.8799C98.7578 65.645 97.1014 66.045 95.4207 66.047C93.2493 66.047 91.6028 65.6311 89.9192 64.5169" stroke="#F1E8DD" stroke-linecap="round" stroke-linejoin="round"/>
<path d="M26.9724 89.5332L26.9724 25.3879C26.9724 25.031 26.6831 24.7417 26.3262 24.7417H24.6129C24.256 24.7417 23.9667 25.031 23.9667 25.3879L23.9667 89.5332C23.9667 89.8901 24.256 90.1794 24.6129 90.1794H26.3262C26.6831 90.1794 26.9724 89.8901 26.9724 89.5332Z" stroke="#F1E8DD" stroke-linecap="round" stroke-linejoin="round"/>
<path d="M23.969 88.3072C21.1787 88.3072 20.478 86.2819 20.478 83.4916V31.4286C20.478 28.6383 21.1787 26.613 23.969 26.613" stroke="#F1E8DD" stroke-linecap="round" stroke-linejoin="round"/>
</svg>
