<svg width="115" height="115" viewBox="0 0 115 115" fill="none" xmlns="http://www.w3.org/2000/svg">
<path d="M114.376 57.5C114.376 88.9118 88.9118 114.376 57.5 114.376C26.0881 114.376 0.623779 88.9118 0.623779 57.5C0.623779 26.0881 26.0881 0.623779 57.5 0.623779C88.9118 0.623779 114.376 26.0881 114.376 57.5Z" stroke="#F1E8DD" stroke-linecap="round" stroke-linejoin="round"/>
<path d="M87.0125 36.366L80.7188 38.5126L88.6416 66.8714L94.9353 64.9451" stroke="#F1E8DD" stroke-linecap="round" stroke-linejoin="round"/>
<path fill-rule="evenodd" clip-rule="evenodd" d="M86.2747 33.1796L95.9801 68.3297L107.696 65.3587L97.7281 29.8569L86.2747 33.1796Z" stroke="#F1E8DD" stroke-linecap="round" stroke-linejoin="round"/>
<path d="M27.9875 38.2354L34.2812 40.3819L26.3584 68.7408L20.0647 66.8145" stroke="#F1E8DD" stroke-linecap="round" stroke-linejoin="round"/>
<path fill-rule="evenodd" clip-rule="evenodd" d="M28.7253 35.049L19.0199 70.2016L7.30396 67.2281L17.2719 31.7263L28.7253 35.049Z" stroke="#F1E8DD" stroke-linecap="round" stroke-linejoin="round"/>
<path d="M81.5257 42.8176C78.2042 43.2131 74.8365 42.7687 71.7311 41.5252C70.3521 40.9731 69.0349 40.265 67.6335 39.7673C66.2322 39.2697 64.7046 38.9924 63.2562 39.3341C60.8768 39.8961 59.166 41.9956 56.903 42.9241C55.1699 43.6273 53.1199 43.6669 51.7235 44.9048C51.0327 45.5139 50.5895 46.3507 50.2058 47.1876C49.4952 48.7375 48.9332 50.3493 48.3736 51.9586C47.5665 54.276 46.7593 56.5935 46.0512 58.9431C45.7789 59.8493 45.5189 60.7777 45.556 61.721C45.5932 62.6643 45.9671 63.6448 46.742 64.1969C47.4204 64.6748 48.3068 64.754 49.1337 64.6921C53.1768 64.3801 56.497 60.951 57.6681 57.0713C58.1435 55.4991 58.3465 53.8106 59.2007 52.4067" stroke="#F1E8DD" stroke-linecap="round" stroke-linejoin="round"/>
<path d="M79.3572 66.2399C79.5602 66.1582 87.6365 63.2688 87.6365 63.2688" stroke="#F1E8DD" stroke-linecap="round" stroke-linejoin="round"/>
<path d="M60.6616 40.5252C58.4333 39.8691 56.1035 40.9461 53.8059 41.3274C52.1916 41.5972 50.5303 41.518 48.9185 41.8226C45.9598 42.3722 43.2438 44.1845 40.2331 44.1276C38.1707 44.0905 35.2219 43.781 33.4714 43.2932" stroke="#F1E8DD" stroke-linecap="round" stroke-linejoin="round"/>
<path d="M58.3962 54.2861C58.3962 54.2861 59.6961 51.9191 62.5062 53.1373C65.3164 54.3554 79.3422 66.3436 80.137 67.1532C82.0905 69.1637 81.4789 71.6544 80.5703 72.6571C79.6616 73.6599 78.6094 74.4844 76.1731 73.3331C74.4779 72.4867 72.8685 71.4785 71.3674 70.3224" stroke="#F1E8DD" stroke-linecap="round" stroke-linejoin="round"/>
<path d="M66.6956 76.3192C68.3643 77.6958 70.9813 78.6862 73.1031 77.9533C75.3017 76.963 75.3017 73.9226 74.0514 72.1721" stroke="#F1E8DD" stroke-linecap="round" stroke-linejoin="round"/>
<path d="M60.595 79.2755C62.8703 81.2562 69.5428 82.4174 68.8199 77.7231" stroke="#F1E8DD" stroke-linecap="round" stroke-linejoin="round"/>
<path d="M55.7322 82.3527C57.7599 83.8605 63.1277 83.8234 62.6028 80.5354" stroke="#F1E8DD" stroke-linecap="round" stroke-linejoin="round"/>
<path d="M27.1926 66.0496C29.0273 67.597 34.1251 69.038 36.5317 69.1073" stroke="#F1E8DD" stroke-linecap="round" stroke-linejoin="round"/>
<path d="M52.8585 75.0413L52.4863 74.63C51.4652 73.5015 49.7226 73.4145 48.5941 74.4356L45.5392 77.1998C44.4107 78.2209 44.3236 79.9635 45.3447 81.092L45.7168 81.5033C46.738 82.6318 48.4806 82.7188 49.6091 81.6977L52.664 78.9335C53.7925 77.9124 53.8796 76.1698 52.8585 75.0413Z" stroke="#F1E8DD" stroke-linecap="round" stroke-linejoin="round"/>
<path d="M47.5347 71.3247L47.1626 70.9135C46.1415 69.785 44.3989 69.6979 43.2704 70.719L40.2154 73.4832C39.0869 74.5043 38.9999 76.247 40.021 77.3755L40.3931 77.7867C41.4142 78.9152 43.1568 79.0023 44.2853 77.9812L47.3403 75.2169C48.4688 74.1958 48.5558 72.4532 47.5347 71.3247Z" stroke="#F1E8DD" stroke-linecap="round" stroke-linejoin="round"/>
<path d="M42.2823 68.2153L41.9467 67.8444C41.0274 66.8285 39.4586 66.7501 38.4427 67.6694L35.6907 70.1595C34.6747 71.0788 34.5963 72.6476 35.5156 73.6636L35.8512 74.0344C36.7705 75.0504 38.3393 75.1288 39.3552 74.2095L42.1072 71.7194C43.1232 70.8001 43.2016 69.2313 42.2823 68.2153Z" stroke="#F1E8DD" stroke-linecap="round" stroke-linejoin="round"/>
<path d="M56.343 78.6831L56.0889 78.4022C55.3999 77.6407 54.224 77.582 53.4626 78.271L51.3972 80.1398C50.6357 80.8288 50.577 82.0046 51.266 82.7661L51.5201 83.047C52.2091 83.8085 53.385 83.8672 54.1464 83.1782L56.2118 81.3094C56.9733 80.6204 57.032 79.4445 56.343 78.6831Z" stroke="#F1E8DD" stroke-linecap="round" stroke-linejoin="round"/>
</svg>
