<svg width="187" height="115" viewBox="0 0 187 115" fill="none" xmlns="http://www.w3.org/2000/svg">
<path d="M87.9541 80.1816C84.9755 80.1816 82.026 79.5949 79.2742 78.455C76.5223 77.3152 74.0219 75.6445 71.9157 73.5383C69.8096 71.4321 68.1388 68.9317 66.999 66.1798C65.8591 63.428 65.2725 60.4786 65.2725 57.5C65.2725 54.5214 65.8591 51.5719 66.999 48.8201C68.1388 46.0682 69.8096 43.5678 71.9157 41.4616C74.0219 39.3555 76.5223 37.6848 79.2742 36.5449C82.026 35.405 84.9755 34.8184 87.9541 34.8184" stroke="#F1E8DD" stroke-linecap="round" stroke-linejoin="round"/>
<path d="M149.376 57.5012C149.376 88.9131 123.912 114.377 92.5002 114.377C61.0884 114.377 35.624 88.9131 35.624 57.5012C35.624 26.0893 61.0884 0.625 92.5002 0.625C123.912 0.625 149.376 26.0893 149.376 57.5012Z" stroke="#F1E8DD" stroke-linecap="round" stroke-linejoin="round"/>
<path d="M87.9543 85.4896C80.5309 85.4896 73.4115 82.5406 68.1624 77.2915C62.9133 72.0424 59.9644 64.9231 59.9644 57.4997C59.9644 50.0763 62.9133 42.9569 68.1624 37.7078C73.4115 32.4587 80.5309 29.5098 87.9543 29.5098" stroke="#F1E8DD" stroke-linecap="round" stroke-linejoin="round"/>
<path d="M87.9543 45.0156V57.7268L76.5083 64.8178" stroke="#F1E8DD" stroke-linecap="round" stroke-linejoin="round"/>
<path d="M65.2725 57.5H69.8033" stroke="#F1E8DD" stroke-linecap="round" stroke-linejoin="round"/>
<path d="M87.9546 34.8184V39.3492" stroke="#F1E8DD" stroke-linecap="round" stroke-linejoin="round"/>
<path d="M87.9546 75.6504V80.1813" stroke="#F1E8DD" stroke-linecap="round" stroke-linejoin="round"/>
<path d="M67.1421 38.7845L71.5566 23.3672H87.9544" stroke="#F1E8DD" stroke-linecap="round" stroke-linejoin="round"/>
<path d="M74.2969 23.3666V11.9453H87.9539" stroke="#F1E8DD" stroke-linecap="round" stroke-linejoin="round"/>
<path d="M67.1421 76.207L71.5566 91.6244H87.9544" stroke="#F1E8DD" stroke-linecap="round" stroke-linejoin="round"/>
<path d="M74.2969 91.625V103.044H87.9539" stroke="#F1E8DD" stroke-linecap="round" stroke-linejoin="round"/>
<path d="M105.231 85.4896H102.381C100.039 85.483 97.7943 84.5498 96.1377 82.8936C94.4811 81.2375 93.5472 78.9931 93.54 76.6507V38.3512C93.5472 36.0085 94.481 33.7638 96.1375 32.1073C97.7941 30.4508 100.039 29.5169 102.381 29.5098H111.104C113.446 29.517 115.691 30.4508 117.347 32.1074C119.003 33.764 119.936 36.0087 119.943 38.3512V66.2272" stroke="#F1E8DD" stroke-linecap="round" stroke-linejoin="round"/>
<path d="M105.08 77.6659C103.582 77.6613 102.147 77.064 101.087 76.0044C100.028 74.9448 99.4317 73.5091 99.4277 72.011V41.9909C99.4317 40.4927 100.028 39.057 101.087 37.9974C102.147 36.9378 103.582 36.3405 105.08 36.3359H108.403C109.901 36.3405 111.337 36.9378 112.396 37.9973C113.456 39.0568 114.053 40.4925 114.058 41.9909V66.2273" stroke="#F1E8DD" stroke-linecap="round" stroke-linejoin="round"/>
<path d="M111.701 70.9863H111.54C110.673 70.9863 109.97 71.6891 109.97 72.556V75.6979C109.97 76.5649 110.673 77.2677 111.54 77.2677H111.701C112.568 77.2677 113.271 76.5649 113.271 75.6979V72.556C113.271 71.6891 112.568 70.9863 111.701 70.9863Z" stroke="#F1E8DD" stroke-linecap="round" stroke-linejoin="round"/>
<path d="M118.519 77.666H118.358C117.491 77.666 116.789 78.3688 116.789 79.2357V82.3776C116.789 83.2445 117.491 83.9473 118.358 83.9473H118.519C119.386 83.9473 120.089 83.2445 120.089 82.3776V79.2357C120.089 78.3688 119.386 77.666 118.519 77.666Z" stroke="#F1E8DD" stroke-linecap="round" stroke-linejoin="round"/>
<path d="M117.96 70.1914L111.876 84.861" stroke="#F1E8DD" stroke-linecap="round" stroke-linejoin="round"/>
</svg>
