<svg width="113" height="113" viewBox="0 0 113 113" fill="none" xmlns="http://www.w3.org/2000/svg">
<path d="M112.378 56.4999C112.378 87.3607 87.3607 112.378 56.4999 112.378C25.6392 112.378 0.621582 87.3607 0.621582 56.4999C0.621582 25.6392 25.6392 0.621582 56.4999 0.621582C87.3607 0.621582 112.378 25.6392 112.378 56.4999Z" stroke="#F1E8DD" stroke-linecap="round" stroke-linejoin="round"/>
<path d="M56.4999 84.0229C71.6895 84.0229 84.0031 71.7093 84.0031 56.5197C84.0031 41.3302 71.6895 29.0166 56.4999 29.0166C41.3104 29.0166 28.9968 41.3302 28.9968 56.5197C28.9968 71.7093 41.3104 84.0229 56.4999 84.0229Z" stroke="#F1E8DD" stroke-linecap="round" stroke-linejoin="round"/>
<path d="M83.3706 50.6177H88.426V62.8305H83.1614" stroke="#F1E8DD" stroke-linecap="round" stroke-linejoin="round"/>
<path d="M36.0496 38.1102L40.3849 22.9609H72.6393L76.9503 38.1102" stroke="#F1E8DD" stroke-linecap="round" stroke-linejoin="round"/>
<path d="M43.0781 22.9609V11.7383H69.3697V22.9609" stroke="#F1E8DD" stroke-linecap="round" stroke-linejoin="round"/>
<path d="M36.0496 74.8826L40.3849 90.0318H72.6393L76.9503 74.8826" stroke="#F1E8DD" stroke-linecap="round" stroke-linejoin="round"/>
<path d="M43.0781 90.0315V101.252H69.3697V90.0315" stroke="#F1E8DD" stroke-linecap="round" stroke-linejoin="round"/>
<path d="M54.5075 41.7397V47.7099C54.5075 47.7099 50.8582 48.8339 50.7658 52.3323C50.7025 54.4464 51.4592 55.4341 52.2401 56.1688C53.021 56.9036 57.0741 57.5312 58.4876 58.7768C59.3829 59.5651 59.0277 61.4067 57.6507 61.7279C56.2737 62.049 54.9454 61.2802 54.2447 59.9786H50.2598C50.2598 59.9786 50.7463 64.3845 54.5318 65.2214V71.3375" stroke="#F1E8DD" stroke-linecap="round" stroke-linejoin="round"/>
<path d="M58.5899 41.7397V47.4496C58.5899 47.4496 62.0348 49.3496 62.0348 52.7605H57.7627C57.7627 52.7605 57.4416 51.1402 56.303 51.1086C54.9747 51.0721 54.6487 51.8992 54.6487 52.4369C54.6487 52.9745 54.7241 53.7993 56.1935 54.1958C57.663 54.5924 59.5679 54.6605 60.7867 55.6677C62.0056 56.6749 62.8327 57.7842 62.8327 59.2902C62.8627 60.4873 62.5523 61.6684 61.9374 62.6961C61.4509 63.516 60.7526 64.3456 58.4901 65.129V71.3959" stroke="#F1E8DD" stroke-linecap="round" stroke-linejoin="round"/>
<path d="M80.9231 61.7669V51.8141H74.9992C74.59 50.2253 73.975 48.6967 73.1697 47.2672L73.1867 47.2842L77.4564 43.0122L70.4206 35.9764L66.2313 40.1658L66.2532 40.1852C64.8343 39.3422 63.3114 38.688 61.7232 38.239H61.7451V32.2031H51.7949V38.1271C50.2077 38.5367 48.6801 39.15 47.2504 39.9517V39.9395L42.9929 35.6723L35.9645 42.7056L40.1538 46.895C39.3182 48.3089 38.6689 49.825 38.2221 51.4054V51.3908H32.1838V61.3435H38.1054C38.5152 62.9303 39.1294 64.4571 39.9324 65.8856V65.8856L35.6604 70.1552L42.6985 77.1934L46.8879 73.0041C48.3015 73.8402 49.8176 74.4895 51.3983 74.9358H51.3837V80.9765H61.3364V75.0209C62.9232 74.6111 64.4499 73.9969 65.8785 73.1938V73.1938L70.1506 77.4659L77.1863 70.4277L72.9994 66.2408C73.8209 64.8326 74.4563 63.3239 74.8897 61.7523V61.7669H80.9231Z" stroke="#F1E8DD" stroke-linecap="round" stroke-linejoin="round"/>
<path d="M56.5536 71.5642C64.8329 71.5642 71.5447 64.8525 71.5447 56.5731C71.5447 48.2938 64.8329 41.582 56.5536 41.582C48.2742 41.582 41.5625 48.2938 41.5625 56.5731C41.5625 64.8525 48.2742 71.5642 56.5536 71.5642Z" stroke="#F1E8DD" stroke-linecap="round" stroke-linejoin="round"/>
</svg>
