<svg width="205" height="75" viewBox="0 0 205 75" fill="none" xmlns="http://www.w3.org/2000/svg">
<g clip-path="url(#clip0)">
<path d="M74.75 0.72998L78.76 5.56998V27.56H84.28V0.72998H78.76H74.75Z" fill="#1C2473"/>
<path d="M0 0.72998L4 5.56998V27.56H9.53V0.72998H4H0Z" fill="#1C2473"/>
<path d="M35.9099 18.03L21.3799 0.72998H18.1399H14.1399L18.1399 5.56998V27.56H23.6599V12.19L36.4699 27.56H41.4999V0.72998H35.9099V18.03Z" fill="#1C2473"/>
<path d="M198.75 18.03L184.22 0.72998H180.98H176.98L180.98 5.56998V27.56H186.51V12.19L199.31 27.56H204.34V0.72998H198.75V18.03Z" fill="#1C2473"/>
<path d="M138.99 11.61H126.34L126.35 0.72998H120.75V27.56H126.34V16.69H127.48H138.99V27.56H144.58V0.72998H138.99V11.61Z" fill="#1C2473"/>
<path d="M108.38 21.5701C107.14 22.1944 105.768 22.5133 104.38 22.5001C103.227 22.5057 102.083 22.2919 101.01 21.8701C99.9658 21.4669 99.0035 20.8773 98.17 20.1301C97.3163 19.3707 96.6386 18.434 96.1844 17.3856C95.7301 16.3372 95.5102 15.2023 95.54 14.0601C95.5083 12.9191 95.7273 11.785 96.1818 10.7379C96.6362 9.6908 97.3149 8.7562 98.17 8.00007C99.0031 7.2498 99.9653 6.65687 101.01 6.25007C102.083 5.82821 103.227 5.6144 104.38 5.62006C105.769 5.6103 107.141 5.93258 108.38 6.56006C109.511 7.13746 110.509 7.94469 111.31 8.93006L115.74 5.39007L115.22 4.82006C113.868 3.32561 112.224 2.1242 110.39 1.29006C108.643 0.463581 106.746 0.000197791 104.814 -0.0720467C102.882 -0.144291 100.956 0.176111 99.1521 0.869756C97.3478 1.5634 95.7031 2.61587 94.3174 3.96349C92.9316 5.31112 91.8337 6.92588 91.09 8.71006C90.3642 10.4003 89.99 12.2206 89.99 14.0601C89.99 15.8995 90.3642 17.7198 91.09 19.4101C91.7875 21.1118 92.806 22.6634 94.09 23.9801C96.2024 26.0299 98.8816 27.3984 101.781 27.9083C104.68 28.4182 107.665 28.0461 110.35 26.8401C112.184 26.0059 113.828 24.8045 115.18 23.3101L115.7 22.7401L111.27 19.2001C110.478 20.1785 109.495 20.9849 108.38 21.5701Z" fill="#1C2473"/>
<path d="M55.9201 21.94V17.23V16.69H66.1001V11.61H55.9201V11.43V6.35998V5.80998H56.1201H69.8001V0.72998H53.1201H50.3301H46.3301L50.3301 5.56998V27.56H53.1201V27.57H56.3901H71.2601V22.49H55.9201V21.94Z" fill="#1C2473"/>
<path d="M158.8 21.94V17.23V16.69H168.97V11.61H158.8V11.43V6.35998V5.80998H159H172.67V0.72998H156H153.21H149.21L153.21 5.56998V27.56H156V27.57H159.26H174.14V22.49H158.8V21.94Z" fill="#1C2473"/>
<path d="M11.58 50.1598H5.19998L4.01999 53.2898H0.23999L6.23999 39.0898H10.53L16.53 53.2898H12.75L11.58 50.1598ZM10.64 47.6998L9.27998 44.1198C8.89538 43.3026 8.60679 42.4435 8.41998 41.5598H8.35999C8.17318 42.4435 7.88459 43.3026 7.49998 44.1198L6.13998 47.6998H10.64Z" fill="#1C2473"/>
<path d="M24.9 39.08V47.48C24.9 48.3685 25.2529 49.2206 25.8812 49.8488C26.5094 50.4771 27.3615 50.83 28.25 50.83C29.1385 50.83 29.9905 50.4771 30.6188 49.8488C31.247 49.2206 31.6 48.3685 31.6 47.48V39.08H35.24V47.74C35.24 51.32 32.7 53.68 28.24 53.68C23.78 53.68 21.24 51.32 21.24 47.68V39.04L24.9 39.08Z" fill="#1C2473"/>
<path d="M41.1399 46.2202C41.1399 41.7202 44.2999 38.6802 49.1399 38.6802C53.1399 38.6802 55.8999 40.6802 56.5199 43.8802L52.7999 44.5402C52.687 43.6566 52.2368 42.8509 51.5434 42.2918C50.8501 41.7326 49.9673 41.4633 49.0799 41.5402C46.4799 41.5402 44.8999 43.3202 44.8999 46.1802C44.8999 49.0402 46.4999 50.8002 49.1399 50.8002C50.0099 50.8675 50.8736 50.6074 51.5618 50.0709C52.25 49.5345 52.7129 48.7603 52.8599 47.9002L56.5399 48.7002C55.6599 51.8002 53.0399 53.7002 49.0599 53.7002C44.0799 53.6802 41.1399 50.7402 41.1399 46.2202Z" fill="#1C2473"/>
<path d="M74.3399 41.9401H69.4599V53.2901H65.8199V41.9401H60.9399V39.0801H74.3399V41.9401Z" fill="#1C2473"/>
<path d="M80.1399 53.2898V39.0898H83.7599V53.2898H80.1399Z" fill="#1C2473"/>
<path d="M89.8999 46.1802C89.8999 41.6002 93.0799 38.6802 97.9599 38.6802C102.84 38.6802 106.02 41.6002 106.02 46.1802C106.02 50.7602 102.86 53.6802 97.9599 53.6802C93.0599 53.6802 89.8999 50.7402 89.8999 46.1802ZM102.24 46.1802C102.24 43.2802 100.6 41.4602 97.9599 41.4602C95.3199 41.4602 93.6999 43.2802 93.6999 46.1802C93.6999 49.0802 95.3399 50.9002 97.9599 50.9002C100.58 50.9002 102.24 49.0802 102.24 46.1802Z" fill="#1C2473"/>
<path d="M112.18 39.0801H116.18L121.96 47.1801C122.346 47.7281 122.681 48.3106 122.96 48.9201H123.02C123.02 48.3201 123.02 47.7001 123.02 47.0201V39.0801H126.34V53.2901H122.53L116.53 45.1101C116.149 44.5729 115.814 44.0042 115.53 43.4101C115.53 44.0301 115.53 44.6501 115.53 45.3301V53.3301H112.21L112.18 39.0801Z" fill="#1C2473"/>
<path d="M145.3 50.6598V53.2898H133.53V39.0898H145.17V41.7098H137.17V44.7898H144.85V47.2898H137.17V50.6498L145.3 50.6598Z" fill="#1C2473"/>
<path d="M163.82 50.6598V53.2898H152.03V39.0898H163.68V41.7098H155.68V44.7898H163.36V47.2898H155.68V50.6498L163.82 50.6598Z" fill="#1C2473"/>
<path d="M177.1 47.9998H174.18V53.2898H170.53V39.0898H178.21C182.21 39.0898 183.67 41.0898 183.67 43.5098C183.69 44.4161 183.405 45.3029 182.861 46.0281C182.317 46.7533 181.546 47.275 180.67 47.5098L184.07 53.2698H180.07L177.1 47.9998ZM174.18 45.5998H177.46C179.22 45.5998 179.9 44.6998 179.9 43.5398C179.9 42.3798 179.24 41.5398 177.46 41.5398H174.18V45.5998Z" fill="#1C2473"/>
<path d="M188.36 50.29L191.02 48.43C191.526 49.2592 192.246 49.9366 193.105 50.3907C193.964 50.8447 194.93 51.0587 195.9 51.01C197.76 51.01 198.9 50.49 198.9 49.37C198.9 48.25 198.28 48.01 196.72 47.75L193.8 47.33C190.9 46.85 189.36 45.53 189.36 43.05C189.36 40.37 191.76 38.73 195.76 38.73C198.76 38.73 201.14 39.67 202.48 41.61L200.12 43.61C199.629 42.8513 198.945 42.2367 198.139 41.829C197.332 41.4214 196.432 41.2354 195.53 41.29C193.81 41.29 192.81 41.83 192.81 42.77C192.81 43.71 193.39 44.09 195.03 44.35L197.87 44.79C200.99 45.27 202.45 46.45 202.45 48.97C202.45 51.85 200.01 53.67 195.71 53.67C192.18 53.68 189.53 52.34 188.36 50.29Z" fill="#1C2473"/>
<path d="M76.1 72.77V74.07H70.21V66.98H76.03V68.29H72.03V69.83H75.87V71.09H72.03V72.77H76.1Z" fill="#C6A55A"/>
<path d="M78.6201 72.5602L79.9501 71.6302C80.2032 72.0448 80.5634 72.3835 80.9928 72.6105C81.4223 72.8376 81.905 72.9446 82.3901 72.9202C83.3201 72.9202 83.8901 72.6602 83.8901 72.1002C83.8901 71.5402 83.5801 71.4202 82.8001 71.2902L81.3401 71.0802C79.8901 70.8402 79.1201 70.1802 79.1201 68.9402C79.1201 67.7002 80.3201 66.7802 82.3201 66.7802C82.9556 66.7239 83.595 66.8259 84.1814 67.0772C84.7677 67.3285 85.2827 67.7212 85.6801 68.2202L84.5001 69.2202C84.2499 68.8524 83.9078 68.5564 83.5079 68.3617C83.1079 68.167 82.664 68.0803 82.2201 68.1102C81.3601 68.1102 80.8601 68.3802 80.8601 68.8502C80.8601 69.3202 81.1501 69.5102 81.9701 69.6402L83.3901 69.8602C84.9501 70.1002 85.6801 70.6902 85.6801 71.9502C85.6801 73.3802 84.4601 74.2902 82.3101 74.2902C81.5965 74.359 80.8774 74.2347 80.2283 73.9304C79.5791 73.626 79.0237 73.1528 78.6201 72.5602Z" fill="#C6A55A"/>
<path d="M94.67 68.41H92.23V74.07H90.41V68.41H87.97V66.98H94.67V68.41Z" fill="#C6A55A"/>
<path d="M98.13 74.0702H96.27V72.4502H98.13V74.0702Z" fill="#C6A55A"/>
<path d="M107.92 69.3601C107.525 69.6849 107.02 69.8459 106.51 69.8101H106.15V68.2901H106.37C106.763 68.325 107.156 68.2292 107.489 68.0176C107.821 67.806 108.075 67.4906 108.21 67.1201H109.66V74.0601H107.92V69.3601Z" fill="#C6A55A"/>
<path d="M119.42 70.48C119.42 72.87 118.31 74.26 116.1 74.26C114.49 74.26 113.39 73.56 113.1 72.31L114.82 72.04C114.891 72.3263 115.062 72.5777 115.302 72.7484C115.543 72.9191 115.836 72.9977 116.13 72.97C117.13 72.97 117.7 72.21 117.72 70.87C117.466 71.1403 117.154 71.3492 116.808 71.4809C116.461 71.6126 116.089 71.6636 115.72 71.63C114.04 71.63 113 70.78 113 69.35C113 67.92 114.2 66.98 116.08 66.98C118.24 66.98 119.42 68.19 119.42 70.48ZM117.7 69.48C117.657 69.1058 117.47 68.763 117.179 68.5241C116.888 68.2852 116.515 68.169 116.14 68.2C115.29 68.2 114.76 68.63 114.76 69.32C114.76 70.01 115.29 70.42 116.1 70.42C116.43 70.4404 116.759 70.3619 117.044 70.1944C117.329 70.027 117.557 69.7782 117.7 69.48Z" fill="#C6A55A"/>
<path d="M123.02 73.9399C123.057 72.8856 123.327 71.8526 123.811 70.9153C124.295 69.978 124.981 69.1599 125.82 68.5199H121.72V67.1299H127.53V68.4199C126.717 69.0558 126.058 69.8673 125.602 70.7938C125.147 71.7202 124.907 72.7376 124.9 73.7699V74.0699H122.98L123.02 73.9399Z" fill="#C6A55A"/>
<path d="M129.97 71.92L131.75 71.7599C131.75 72.5499 132.31 72.9799 133.18 72.9799C134.05 72.9799 134.51 72.6399 134.51 71.9799C134.51 71.32 134.05 71.0699 133.12 71.0699H132.53V69.9599H133.08C133.91 69.9599 134.33 69.6499 134.33 69.0699C134.33 68.4899 133.9 68.2099 133.09 68.2099C132.919 68.1863 132.744 68.2007 132.579 68.2519C132.414 68.3031 132.262 68.39 132.134 68.5064C132.007 68.6227 131.906 68.7658 131.839 68.9254C131.773 69.085 131.742 69.2572 131.75 69.4299L130 69.2299C130 67.8699 131.17 66.9399 133.14 66.9399C135.11 66.9399 136.14 67.67 136.14 68.89C136.123 69.2949 135.956 69.6791 135.671 69.9675C135.387 70.2559 135.005 70.4279 134.6 70.45C135.69 70.59 136.32 71.14 136.32 72.11C136.32 73.38 135.12 74.2199 133.14 74.2199C131.16 74.2199 130.02 73.38 129.97 71.92Z" fill="#C6A55A"/>
</g>
<defs>
<clipPath id="clip0">
<rect width="204.34" height="74.28" fill="white"/>
</clipPath>
</defs>
</svg>
