<svg width="15" height="16" viewBox="0 0 15 16" fill="none" xmlns="http://www.w3.org/2000/svg">
<g clip-path="url(#clip0)">
<path d="M14.8404 8.16875C14.8404 7.675 14.7967 7.20625 14.7217 6.75H7.65918V9.56875H11.7029C11.5217 10.4938 10.9904 11.275 10.2029 11.8063V13.6813H12.6154C14.0279 12.375 14.8404 10.45 14.8404 8.16875Z" fill="#030303"/>
<path d="M7.6586 15.5004C9.6836 15.5004 11.3773 14.8254 12.6148 13.6816L10.2023 11.8066C9.52735 12.2566 8.6711 12.5316 7.6586 12.5316C5.70235 12.5316 4.0461 11.2129 3.45235 9.43164H0.964844V11.3629C2.19609 13.8129 4.72735 15.5004 7.6586 15.5004Z" fill="#030303"/>
<path d="M3.45293 9.43144C3.29668 8.98144 3.21543 8.50019 3.21543 8.00019C3.21543 7.50019 3.30293 7.01895 3.45293 6.56895V4.6377H0.965429C0.452929 5.6502 0.15918 6.78769 0.15918 8.00019C0.15918 9.21269 0.452929 10.3502 0.965429 11.3627L3.45293 9.43144Z" fill="#030303"/>
<path d="M7.65859 3.46875C8.76484 3.46875 9.75234 3.85 10.5336 4.59375L12.6711 2.45625C11.3773 1.24375 9.68359 0.5 7.65859 0.5C4.72734 0.5 2.19609 2.1875 0.964844 4.6375L3.45234 6.56875C4.04609 4.7875 5.70234 3.46875 7.65859 3.46875Z" fill="#030303"/>
</g>
<defs>
<clipPath id="clip0">
<rect width="15" height="15" fill="white" transform="translate(0 0.5)"/>
</clipPath>
</defs>
</svg>
