<svg width="45" height="45" viewBox="0 0 45 45" fill="none" xmlns="http://www.w3.org/2000/svg">
<path d="M27.333 13.875H12.958V26.3333H27.333V13.875Z" stroke="#BD9E5E" stroke-linecap="round" stroke-linejoin="round"/>
<path d="M27.333 18.6666H31.1663L34.0413 21.5416V26.3333H27.333V18.6666Z" stroke="#BD9E5E" stroke-linecap="round" stroke-linejoin="round"/>
<path d="M17.2708 31.125C18.594 31.125 19.6667 30.0524 19.6667 28.7292C19.6667 27.406 18.594 26.3334 17.2708 26.3334C15.9477 26.3334 14.875 27.406 14.875 28.7292C14.875 30.0524 15.9477 31.125 17.2708 31.125Z" stroke="#BD9E5E" stroke-linecap="round" stroke-linejoin="round"/>
<path d="M29.7288 31.125C31.052 31.125 32.1247 30.0524 32.1247 28.7292C32.1247 27.406 31.052 26.3334 29.7288 26.3334C28.4057 26.3334 27.333 27.406 27.333 28.7292C27.333 30.0524 28.4057 31.125 29.7288 31.125Z" stroke="#BD9E5E" stroke-linecap="round" stroke-linejoin="round"/>
<circle cx="22.5" cy="22.5" r="22" stroke="#B7933D"/>
</svg>
