<svg width="65" height="109" viewBox="0 0 65 109" fill="none" xmlns="http://www.w3.org/2000/svg">
<path d="M59.9395 50.1733H60.3861C62.3191 50.1733 63.8861 51.7403 63.8861 53.6733V55.5667C63.8861 57.4997 62.3191 59.0667 60.3861 59.0667H59.9395V50.1733Z" stroke="#BD9E5E"/>
<path d="M17.5703 80.8929C17.5703 80.0645 18.2419 79.3929 19.0703 79.3929H42.8289C43.6574 79.3929 44.3289 80.0645 44.3289 80.8929V104.113C44.3289 106.046 42.7619 107.613 40.8289 107.613H21.0703C19.1373 107.613 17.5703 106.046 17.5703 104.113V80.8929Z" fill="white" stroke="#BD9E5E"/>
<path d="M17.5703 4C17.5703 2.067 19.1373 0.5 21.0703 0.5H40.8289C42.7619 0.5 44.3289 2.067 44.3289 4V27.2196C44.3289 28.048 43.6574 28.7196 42.8289 28.7196H19.0703C18.2419 28.7196 17.5703 28.048 17.5703 27.2196V4Z" fill="white" stroke="#BD9E5E"/>
<path d="M10.3011 30.6319C11.3086 28.0263 12.4187 23.5933 12.9924 21.077C13.1014 20.5987 13.5259 20.2583 14.0176 20.2583H16.3625C16.9397 20.2583 17.4076 20.7251 17.4076 21.3009V28.5894C21.4014 26.5941 25.9093 25.4712 30.68 25.4712C35.4507 25.4712 39.9585 26.5941 43.9524 28.5894V21.3009C43.9524 20.7251 44.4203 20.2583 44.9975 20.2583H47.3424C47.8341 20.2583 48.2586 20.5987 48.3676 21.077C48.9413 23.5933 50.0514 28.0263 51.0589 30.6319C52.1875 33.5511 53.0454 35.2713 53.9337 36.6788C57.9568 41.7317 60.36 48.1259 60.36 55.0802C60.36 61.0649 58.5802 66.6349 55.5197 71.2921L54.9511 72.1262C54.0628 73.5337 52.1875 76.7135 51.0589 79.6327C50.0514 82.2383 48.9413 86.6713 48.3676 89.1876C48.2586 89.6659 47.8341 90.0063 47.3424 90.0063H44.9975C44.4203 90.0063 43.9524 89.5395 43.9524 88.9637V81.571L43.4298 81.8257C39.567 83.6616 35.2438 84.6892 30.68 84.6892C25.9093 84.6892 21.4014 83.5663 17.4076 81.571L17.4076 82.4998V88.9637C17.4076 89.5395 16.9397 90.0063 16.3625 90.0063H14.0176C13.5259 90.0063 13.1014 89.6659 12.9924 89.1876C12.4187 86.6713 11.3086 82.2383 10.3011 79.6327C9.33219 77.1267 7.80013 74.3097 6.80014 72.6666L6.2776 71.939C2.95005 67.1545 1 61.3445 1 55.0802C1 48.2923 3.28959 42.0379 7.14037 37.0437C8.02867 35.6362 9.17245 33.5511 10.3011 30.6319Z" fill="white" stroke="#BD9E5E"/>
<path d="M52.3237 54.8848C52.3237 67.1595 42.5151 77.098 30.4304 77.098C18.3457 77.098 8.53711 67.1595 8.53711 54.8848C8.53711 42.6101 18.3457 32.6716 30.4304 32.6716C42.5151 32.6716 52.3237 42.6101 52.3237 54.8848Z" fill="white" stroke="#BD9E5E"/>
<circle cx="30.4325" cy="7.93458" r="0.931333" fill="white" stroke="#BD9E5E" stroke-width="1.6"/>
<circle cx="30.4325" cy="15.8493" r="0.931333" fill="white" stroke="#BD9E5E" stroke-width="1.6"/>
<circle cx="30.4325" cy="92.7863" r="0.931333" fill="white" stroke="#BD9E5E" stroke-width="1.6"/>
<circle cx="30.4325" cy="100.701" r="0.931333" fill="white" stroke="#BD9E5E" stroke-width="1.6"/>
<path d="M19.7969 48.9519L30.5508 56.4638L42.5515 41.1292" stroke="#BD9E5E"/>
<circle cx="30.6795" cy="55.9691" r="2.96267" fill="white" stroke="#BD9E5E"/>
</svg>
