<svg width="141" height="141" viewBox="0 0 141 141" fill="none" xmlns="http://www.w3.org/2000/svg">
<g clip-path="url(#clip0_826_2837)">
<path d="M122.892 6.99691L130.81 12.4622L117.177 32.2815L109.259 26.8163L122.892 6.99691Z" stroke="#1C2473" stroke-linecap="round" stroke-linejoin="round"/>
<path d="M130.723 12.5891C131.151 11.9679 131.999 11.8111 132.619 12.2388C133.239 12.6666 133.395 13.517 132.968 14.1382L119.393 33.8725C118.966 34.4937 118.117 34.6505 117.497 34.2227C116.878 33.7949 116.722 32.9445 117.149 32.3233L130.723 12.5891Z" stroke="#1C2473" stroke-linecap="round" stroke-linejoin="round"/>
<path fill-rule="evenodd" clip-rule="evenodd" d="M133.011 17.8118C133.976 18.4773 135.243 18.3109 135.843 17.4405L122.821 36.368C123.421 35.4924 123.125 34.2508 122.16 33.5853C121.195 32.9198 119.93 33.0862 119.33 33.9566L132.352 15.0291C131.752 15.9012 132.043 17.1463 133.011 17.8118Z" stroke="#1C2473" stroke-linecap="round" stroke-linejoin="round"/>
<path d="M135.542 17.8794C136.285 16.7986 137.762 16.5263 138.841 17.271C139.92 18.0157 140.192 19.4955 139.449 20.5762L126.79 38.9795C126.046 40.0602 124.569 40.3326 123.49 39.5879C122.412 38.8432 122.14 37.3634 122.883 36.2827L135.542 17.8794Z" stroke="#1C2473" stroke-linecap="round" stroke-linejoin="round"/>
<path d="M139.25 20.8682L126.82 38.9384C127.657 39.5166 128.69 39.7378 129.69 39.5533C130.691 39.3688 131.577 38.7938 132.154 37.9547L140.23 26.2136C140.517 25.7981 140.718 25.3303 140.824 24.8368C140.929 24.3432 140.937 23.8337 140.845 23.3373C140.754 22.8409 140.567 22.3674 140.293 21.9437C140.019 21.52 139.664 21.1546 139.25 20.8682V20.8682Z" stroke="#1C2473" stroke-linecap="round" stroke-linejoin="round"/>
<path d="M109.347 26.4976C108.92 27.1188 108.071 27.2756 107.451 26.8478C106.832 26.42 106.676 25.5697 107.103 24.9485L120.677 5.21419C121.105 4.59298 121.953 4.43618 122.573 4.86397C123.193 5.29175 123.349 6.14213 122.922 6.76333L109.347 26.4976Z" stroke="#1C2473" stroke-linecap="round" stroke-linejoin="round"/>
<path fill-rule="evenodd" clip-rule="evenodd" d="M107.06 21.2725C106.095 20.6071 104.827 20.7734 104.228 21.6438L117.25 2.71631C116.65 3.59193 116.946 4.83357 117.91 5.49904C118.875 6.16452 120.141 5.99815 120.741 5.12778L107.719 24.0553C108.318 23.1831 108.023 21.938 107.06 21.2725Z" stroke="#1C2473" stroke-linecap="round" stroke-linejoin="round"/>
<path d="M104.528 21.2053C103.784 22.2861 102.307 22.5585 101.228 21.8138C100.149 21.069 99.8775 19.5892 100.621 18.5085L113.28 0.105219C114.023 -0.975516 115.5 -1.24792 116.579 -0.503208C117.658 0.241506 117.93 1.72132 117.187 2.80206L104.528 21.2053Z" stroke="#1C2473" stroke-linecap="round" stroke-linejoin="round"/>
<path d="M100.822 18.2148L113.251 0.144637C112.837 -0.141662 112.37 -0.343317 111.877 -0.448826C111.384 -0.554335 110.876 -0.56163 110.381 -0.470285C109.885 -0.378941 109.413 -0.190752 108.99 0.0835392C108.567 0.35783 108.203 0.712857 107.917 1.12834L99.8396 12.8708C99.5538 13.2863 99.3525 13.7541 99.2472 14.2475C99.1419 14.7409 99.1346 15.2503 99.2258 15.7465C99.3169 16.2428 99.5048 16.7162 99.7786 17.1397C100.052 17.5632 100.407 17.9285 100.822 18.2148V18.2148Z" stroke="#1C2473" stroke-linecap="round" stroke-linejoin="round"/>
<path d="M110.563 27.6649L115.833 31.3028C116.341 31.6535 116.469 32.35 116.12 32.8585C115.77 33.367 115.074 33.4949 114.566 33.1443L109.296 29.5064C108.788 29.1557 108.66 28.4592 109.01 27.9507C109.36 27.4422 110.055 27.3142 110.563 27.6649Z" stroke="#1C2473" stroke-linecap="round" stroke-linejoin="round"/>
<path d="M106.822 43.1911C106.822 43.1911 111.635 35.8271 115.009 35.5802C118.383 35.3333 110.249 30.1829 110.249 30.1829" stroke="#1C2473" stroke-linecap="round" stroke-linejoin="round"/>
<path d="M102.006 39.8656C102.006 39.8656 107.161 32.7398 106.191 29.4929C105.221 26.2461 112.921 32.027 112.921 32.027" stroke="#1C2473" stroke-linecap="round" stroke-linejoin="round"/>
<path d="M101.613 39.6113L107.103 43.4012C107.474 43.6569 107.567 44.1651 107.312 44.5362L107.311 44.5377C107.055 44.9088 106.548 45.0024 106.178 44.7466L100.687 40.9567C100.317 40.701 100.224 40.1928 100.479 39.8217L100.48 39.8203C100.735 39.4491 101.242 39.3556 101.613 39.6113Z" stroke="#1C2473" stroke-linecap="round" stroke-linejoin="round"/>
<path d="M98.4397 55.32L105.871 44.5183L100.975 41.1384L90.6815 56.0976" stroke="#1C2473" stroke-linecap="round" stroke-linejoin="round"/>
<path d="M98.7525 54.8667C103.541 59.0417 109.617 69.4283 109.617 69.4283C109.617 69.4283 104.799 74.5174 97.7997 64.7823" stroke="#1C2473" stroke-linecap="round" stroke-linejoin="round"/>
<path d="M94.2423 50.9244C94.2423 50.9244 91.7827 49.3728 89.4436 50.0032C84.9317 51.2186 65.2354 52.6774 63.8246 53.4094C62.4139 54.1414 46.789 80.3121 43.2997 85.0335C39.8104 89.7548 38.23 89.5867 38.23 89.5867" stroke="#1C2473" stroke-linecap="round" stroke-linejoin="round"/>
<path d="M108.743 70.0777C108.743 70.0777 105.315 68.1513 104.722 65.8449C104.13 63.5385 105.504 63.0044 105.504 63.0044" stroke="#1C2473" stroke-linecap="round" stroke-linejoin="round"/>
<path d="M85.9144 59.8105C85.8759 59.5636 74.1406 63.9697 72.0586 63.5809C72.0586 63.5809 71.1338 70.3635 70.3104 71.3057C71.2261 71.6344 72.2124 71.7136 73.1685 71.5351C74.1247 71.3566 75.0164 70.927 75.7524 70.29C78.4113 68.0817 85.9581 59.3727 88.0069 57.8561C90.0557 56.3395 95.3736 52.7215 98.5884 55.6986C101.774 58.6512 98.3944 63.257 97.6164 64.2272C96.8385 65.1974 89.4754 71.9467 86.5053 75.0324C83.5352 78.1181 82.0964 79.2511 79.7889 84.1861C77.4813 89.1212 70.938 96.9983 62.6466 99.9159C54.3551 102.833 51.4095 106.157 51.4095 106.157" stroke="#1C2473" stroke-linecap="round" stroke-linejoin="round"/>
<path fill-rule="evenodd" clip-rule="evenodd" d="M91.7688 57.1851C89.9665 59.5196 89.1344 62.4581 91.0294 63.9274C92.9244 65.3967 96.2056 64.5526 98.0097 62.2182C99.8138 59.8838 100.309 57.3638 98.5883 55.6913C97.0238 54.1712 93.5729 54.8507 91.7688 57.1851Z" stroke="#1C2473" stroke-linecap="round" stroke-linejoin="round"/>
<path d="M96.4642 65.8748C96.4642 65.8748 100.499 73.0724 100.863 76.6099C101.226 80.1474 98.8015 86.2733 98.6092 87.9755C98.4169 89.6777 97.1949 89.1296 96.5691 88.8774C95.9433 88.6252 93.2039 86.2015 94.4888 81.7358C94.4888 81.7358 94.2109 78.6641 94.578 77.5328C94.578 77.5328 91.6621 73.906 90.8265 70.7958" stroke="#1C2473" stroke-linecap="round" stroke-linejoin="round"/>
<path d="M94.4714 86.0597C94.3089 86.2208 91.094 95.3658 90.8353 96.8211C90.5679 98.3307 87.1502 97.2642 86.7988 94.8159C86.638 93.6899 86.7516 90.3012 88.2673 87.9108C88.2673 87.9108 88.0628 80.6676 89.2428 79.2579C89.2428 79.2579 86.8758 75.3491 86.8985 74.6223" stroke="#1C2473" stroke-linecap="round" stroke-linejoin="round"/>
<path d="M99.9937 82.2351C98.6581 82.8445 97.9623 84.3191 97.5148 85.7183C97.1652 86.8094 96.9029 87.9529 97.0183 89.0912" stroke="#1C2473" stroke-linecap="round" stroke-linejoin="round"/>
<path d="M92.7094 90.9146C92.1516 91.2393 91.6666 91.6757 91.2846 92.1965C90.1017 93.6938 89.3411 95.4814 89.082 97.3731" stroke="#1C2473" stroke-linecap="round" stroke-linejoin="round"/>
<path d="M86.6957 92.7866C86.5209 92.7866 83.4039 97.6603 83.0525 98.7828C82.7012 99.9054 79.8744 98.2312 79.7311 96.4467C79.5877 94.6621 79.6542 90.6675 81.7484 88.566C81.7484 88.566 81.4145 83.1372 82.5945 81.7064L82.0701 80.0427" stroke="#1C2473" stroke-linecap="round" stroke-linejoin="round"/>
<path d="M85.8916 93.8947C85.8269 93.7967 85.6783 93.8212 85.5664 93.8615C83.5421 94.5987 81.7835 96.5251 81.0982 98.5723" stroke="#1C2473" stroke-linecap="round" stroke-linejoin="round"/>
<path d="M81.7257 84.2229C81.7257 84.2229 72.0637 97.028 69.7107 100.38C67.3577 103.732 61.5067 111.005 58.9841 111.015C56.4615 111.026 58.0314 108.007 58.4247 106.8C58.9491 105.198 62.6465 99.9088 62.6465 99.9088" stroke="#1C2473" stroke-linecap="round" stroke-linejoin="round"/>
<path d="M28.1394 92.193L30.734 89.3416C36.4837 92.084 53.5211 116.262 54.2693 116.717C54.2693 116.717 38.4269 131.528 28.1394 135.764" stroke="#1C2473" stroke-linecap="round" stroke-linejoin="round"/>
<path d="M31.4527 89.7549C31.4527 89.7549 35.7024 87.6166 36.4541 87.3784C36.4541 87.3784 53.717 108.775 55.1732 111.836L52.7503 114.833" stroke="#1C2473" stroke-linecap="round" stroke-linejoin="round"/>
</g>
<defs>
<clipPath id="clip0_826_2837">
<rect width="141" height="141" fill="white" transform="matrix(-1 0 0 1 141 0)"/>
</clipPath>
</defs>
</svg>
