<svg width="1217" height="491" viewBox="0 0 1217 491" fill="none" xmlns="http://www.w3.org/2000/svg">
<g clip-path="url(#clip0_30_406)">
<mask id="path-1-inside-1_30_406" fill="white">
<path d="M525.205 115.782C525.205 115.782 712.528 117.428 724.636 119.512C756.704 119.512 801.188 117.647 825.974 113.194C850.76 108.74 898.359 93.7792 923.013 90.7518C944.948 88.0755 987.853 89.3039 1009.22 94.7005C1040.06 102.51 1121.74 138.861 1125.65 151.189C1128.17 159.131 1125.49 178.918 1125.49 178.918C1125.49 178.918 1154.32 189.514 1160.43 196.051C1169.21 205.419 1177.98 229.725 1174.32 240.848C1173 244.84 1165.81 251.487 1165.81 251.487C1165.81 251.487 1203.4 269.981 1207.81 282.068C1214.53 300.561 1195.77 324.232 1195.77 324.232C1195.77 324.232 1214.46 340.4 1216.02 348.056C1218.21 358.761 1213.54 384.582 1202.86 391.777C1186.69 402.592 1126.77 405.225 1126.77 405.225C1126.77 405.225 1194.57 446.906 1166.07 491C1139.53 474.24 1095.88 467.176 1095.88 467.176C1095.88 467.176 933.762 470.905 870.765 456.449C835.384 448.332 799.718 379.514 756.704 364.311C733.98 357.7 710.369 354.651 686.711 355.273L525.205 358.849"/>
</mask>
<path d="M724.636 119.512L724.466 120.497L724.55 120.512H724.636V119.512ZM923.013 90.7518L922.892 89.7592L922.891 89.7593L923.013 90.7518ZM1009.22 94.7005L1009.46 93.7311L1009.46 93.731L1009.22 94.7005ZM1125.65 151.189L1124.69 151.491L1124.69 151.492L1125.65 151.189ZM1125.49 178.918L1124.5 178.784L1124.39 179.58L1125.15 179.857L1125.49 178.918ZM1160.43 196.051L1159.7 196.735L1159.71 196.735L1160.43 196.051ZM1174.32 240.848L1175.27 241.161L1175.27 241.16L1174.32 240.848ZM1165.81 251.487L1165.13 250.753L1164.06 251.742L1165.37 252.385L1165.81 251.487ZM1207.81 282.068L1208.75 281.727L1208.75 281.725L1207.81 282.068ZM1195.77 324.232L1194.99 323.611L1194.39 324.361L1195.12 324.988L1195.77 324.232ZM1216.02 348.056L1215.04 348.255L1215.04 348.257L1216.02 348.056ZM1202.86 391.777L1203.41 392.608L1203.42 392.607L1202.86 391.777ZM1126.77 405.225L1126.72 404.226L1123.46 404.369L1126.24 406.077L1126.77 405.225ZM1166.07 491L1165.54 491.846L1166.38 492.374L1166.91 491.543L1166.07 491ZM1095.88 467.176L1096.04 466.189L1095.95 466.174L1095.86 466.176L1095.88 467.176ZM870.765 456.449L870.989 455.474L870.989 455.474L870.765 456.449ZM756.704 364.311L757.037 363.369L757.011 363.359L756.984 363.351L756.704 364.311ZM686.711 355.273L686.733 356.273L686.737 356.273L686.711 355.273ZM525.205 115.782C525.196 116.782 525.197 116.782 525.198 116.782C525.2 116.782 525.202 116.782 525.205 116.782C525.211 116.782 525.219 116.783 525.23 116.783C525.253 116.783 525.287 116.783 525.332 116.784C525.422 116.784 525.556 116.786 525.734 116.787C526.089 116.79 526.615 116.795 527.303 116.801C528.677 116.814 530.695 116.833 533.268 116.857C538.414 116.906 545.778 116.979 554.653 117.072C572.403 117.259 596.195 117.53 620.366 117.865C644.537 118.201 669.084 118.602 688.343 119.05C697.974 119.273 706.278 119.508 712.551 119.752C718.864 119.998 723.034 120.251 724.466 120.497L724.805 118.526C723.211 118.252 718.878 117.997 712.629 117.754C706.34 117.509 698.024 117.274 688.39 117.05C669.121 116.603 644.567 116.202 620.394 115.866C596.22 115.53 572.425 115.259 554.674 115.072C545.798 114.979 538.433 114.906 533.287 114.857C530.714 114.833 528.696 114.814 527.321 114.801C526.633 114.795 526.107 114.79 525.752 114.787C525.574 114.786 525.44 114.784 525.35 114.784C525.305 114.783 525.271 114.783 525.248 114.783C525.237 114.783 525.228 114.783 525.222 114.782C525.22 114.782 525.217 114.782 525.216 114.782C525.215 114.782 525.214 114.782 525.205 115.782ZM724.636 120.512C756.711 120.512 801.271 118.648 826.151 114.178L825.797 112.21C801.105 116.646 756.697 118.512 724.636 118.512V120.512ZM826.151 114.178C838.592 111.943 856.741 107.075 874.793 102.406C892.892 97.726 910.886 93.2484 923.135 91.7444L922.891 89.7593C910.486 91.2826 892.354 95.7993 874.293 100.47C856.186 105.152 838.142 109.992 825.797 112.21L826.151 114.178ZM923.134 91.7445C934.028 90.4153 950.179 90.052 966.289 90.698C982.407 91.3443 998.391 92.9975 1008.97 95.6701L1009.46 93.731C998.678 91.007 982.529 89.3476 966.369 88.6996C950.202 88.0513 933.933 88.412 922.892 89.7592L923.134 91.7445ZM1008.97 95.6699C1024.3 99.5513 1052.36 110.559 1077.11 122.156C1089.47 127.951 1100.98 133.877 1109.63 139.115C1113.95 141.736 1117.54 144.169 1120.15 146.316C1121.46 147.389 1122.51 148.376 1123.28 149.264C1124.06 150.164 1124.51 150.907 1124.69 151.491L1126.6 150.887C1126.3 149.93 1125.65 148.945 1124.79 147.954C1123.92 146.952 1122.78 145.886 1121.42 144.77C1118.7 142.538 1115.03 140.048 1110.66 137.405C1101.93 132.115 1090.36 126.155 1077.96 120.345C1053.17 108.732 1024.98 97.6596 1009.46 93.7311L1008.97 95.6699ZM1124.69 151.492C1125.28 153.345 1125.58 155.96 1125.69 158.907C1125.79 161.836 1125.69 165.02 1125.52 167.972C1125.34 170.922 1125.09 173.628 1124.88 175.596C1124.77 176.58 1124.68 177.379 1124.61 177.931C1124.58 178.207 1124.55 178.421 1124.53 178.566C1124.52 178.638 1124.51 178.693 1124.51 178.73C1124.51 178.748 1124.51 178.762 1124.5 178.771C1124.5 178.776 1124.5 178.779 1124.5 178.781C1124.5 178.782 1124.5 178.783 1124.5 178.784C1124.5 178.784 1124.5 178.784 1124.5 178.784C1124.5 178.784 1124.5 178.784 1125.49 178.918C1126.48 179.052 1126.48 179.052 1126.48 179.052C1126.48 179.052 1126.48 179.051 1126.48 179.051C1126.48 179.05 1126.48 179.049 1126.48 179.048C1126.48 179.045 1126.49 179.042 1126.49 179.037C1126.49 179.026 1126.49 179.012 1126.49 178.992C1126.5 178.954 1126.5 178.897 1126.51 178.822C1126.53 178.673 1126.56 178.455 1126.6 178.174C1126.66 177.613 1126.76 176.804 1126.87 175.809C1127.08 173.819 1127.34 171.081 1127.51 168.091C1127.69 165.104 1127.79 161.852 1127.69 158.837C1127.58 155.841 1127.27 153.005 1126.6 150.887L1124.69 151.492ZM1125.49 178.918C1125.15 179.857 1125.15 179.857 1125.15 179.857C1125.15 179.857 1125.15 179.857 1125.15 179.857C1125.15 179.858 1125.15 179.858 1125.15 179.859C1125.16 179.86 1125.16 179.862 1125.17 179.864C1125.18 179.869 1125.2 179.877 1125.23 179.887C1125.28 179.907 1125.36 179.937 1125.47 179.976C1125.68 180.055 1125.99 180.171 1126.39 180.322C1127.19 180.623 1128.33 181.061 1129.73 181.607C1132.52 182.7 1136.3 184.224 1140.27 185.95C1144.24 187.678 1148.39 189.603 1151.92 191.498C1155.48 193.411 1158.3 195.233 1159.7 196.735L1161.16 195.368C1159.51 193.601 1156.43 191.647 1152.87 189.735C1149.27 187.804 1145.07 185.855 1141.07 184.116C1137.07 182.377 1133.26 180.843 1130.46 179.745C1129.05 179.195 1127.9 178.755 1127.1 178.451C1126.7 178.299 1126.38 178.182 1126.17 178.102C1126.06 178.062 1125.98 178.032 1125.92 178.011C1125.9 178.001 1125.87 177.993 1125.86 177.988C1125.85 177.985 1125.85 177.983 1125.84 177.982C1125.84 177.981 1125.84 177.981 1125.84 177.98C1125.84 177.98 1125.84 177.98 1125.84 177.98C1125.84 177.98 1125.84 177.98 1125.49 178.918ZM1159.71 196.735C1163.95 201.27 1168.28 209.536 1171.09 218.103C1172.49 222.372 1173.5 226.678 1173.94 230.584C1174.37 234.506 1174.22 237.948 1173.37 240.535L1175.27 241.16C1176.25 238.186 1176.38 234.419 1175.92 230.363C1175.47 226.29 1174.42 221.848 1172.99 217.48C1170.14 208.771 1165.69 200.2 1161.16 195.368L1159.71 196.735ZM1173.37 240.535C1173.09 241.384 1172.47 242.447 1171.63 243.607C1170.79 244.752 1169.8 245.927 1168.83 246.992C1167.86 248.056 1166.94 248.998 1166.25 249.674C1165.91 250.012 1165.63 250.283 1165.43 250.469C1165.33 250.562 1165.26 250.634 1165.21 250.682C1165.18 250.706 1165.16 250.724 1165.15 250.736C1165.14 250.742 1165.14 250.746 1165.13 250.749C1165.13 250.75 1165.13 250.751 1165.13 250.752C1165.13 250.752 1165.13 250.753 1165.13 250.753C1165.13 250.753 1165.13 250.753 1165.13 250.753C1165.13 250.753 1165.13 250.753 1165.81 251.487C1166.49 252.222 1166.49 252.222 1166.49 252.222C1166.49 252.221 1166.49 252.221 1166.49 252.221C1166.49 252.221 1166.49 252.221 1166.49 252.22C1166.49 252.219 1166.49 252.218 1166.49 252.216C1166.5 252.212 1166.5 252.207 1166.51 252.2C1166.53 252.187 1166.55 252.167 1166.57 252.141C1166.63 252.09 1166.71 252.015 1166.81 251.918C1167.01 251.725 1167.3 251.446 1167.66 251.098C1168.36 250.404 1169.31 249.435 1170.31 248.337C1171.31 247.241 1172.36 246.007 1173.24 244.782C1174.12 243.572 1174.89 242.308 1175.27 241.161L1173.37 240.535ZM1165.81 251.487C1165.37 252.385 1165.37 252.385 1165.37 252.385C1165.37 252.385 1165.37 252.385 1165.37 252.385C1165.37 252.386 1165.37 252.387 1165.37 252.388C1165.38 252.39 1165.38 252.393 1165.39 252.397C1165.41 252.406 1165.44 252.419 1165.47 252.437C1165.54 252.471 1165.65 252.523 1165.78 252.592C1166.06 252.729 1166.46 252.933 1166.98 253.196C1168.01 253.723 1169.49 254.49 1171.28 255.447C1174.86 257.364 1179.68 260.043 1184.63 263.096C1189.59 266.152 1194.66 269.569 1198.75 272.96C1202.89 276.389 1205.87 279.663 1206.87 282.411L1208.75 281.725C1207.55 278.429 1204.18 274.859 1200.03 271.42C1195.83 267.945 1190.68 264.472 1185.68 261.394C1180.69 258.313 1175.83 255.613 1172.22 253.684C1170.42 252.719 1168.93 251.947 1167.89 251.415C1167.37 251.149 1166.96 250.943 1166.68 250.804C1166.54 250.734 1166.43 250.681 1166.36 250.645C1166.33 250.627 1166.3 250.613 1166.28 250.604C1166.27 250.6 1166.26 250.596 1166.26 250.594C1166.26 250.593 1166.25 250.592 1166.25 250.591C1166.25 250.591 1166.25 250.59 1166.25 250.59C1166.25 250.59 1166.25 250.59 1165.81 251.487ZM1206.87 282.409C1210.09 291.265 1207.23 301.489 1203.4 309.661C1201.51 313.721 1199.4 317.214 1197.76 319.694C1196.95 320.933 1196.25 321.916 1195.76 322.588C1195.51 322.924 1195.32 323.182 1195.19 323.355C1195.12 323.441 1195.07 323.506 1195.04 323.549C1195.02 323.571 1195.01 323.587 1195 323.597C1194.99 323.602 1194.99 323.606 1194.99 323.608C1194.99 323.609 1194.99 323.61 1194.99 323.611C1194.99 323.611 1194.99 323.611 1194.99 323.611C1194.99 323.611 1194.99 323.611 1195.77 324.232C1196.56 324.853 1196.56 324.852 1196.56 324.852C1196.56 324.852 1196.56 324.851 1196.56 324.851C1196.56 324.85 1196.56 324.848 1196.56 324.847C1196.56 324.843 1196.57 324.838 1196.57 324.832C1196.58 324.82 1196.6 324.801 1196.61 324.777C1196.65 324.73 1196.71 324.66 1196.78 324.568C1196.92 324.385 1197.12 324.116 1197.37 323.769C1197.88 323.074 1198.6 322.064 1199.43 320.795C1201.1 318.258 1203.26 314.679 1205.22 310.509C1209.09 302.223 1212.25 291.364 1208.75 281.727L1206.87 282.409ZM1195.77 324.232C1195.12 324.988 1195.12 324.988 1195.12 324.988C1195.12 324.988 1195.12 324.988 1195.12 324.989C1195.12 324.989 1195.12 324.99 1195.12 324.991C1195.12 324.992 1195.13 324.995 1195.13 324.999C1195.14 325.006 1195.15 325.018 1195.17 325.033C1195.2 325.063 1195.26 325.108 1195.32 325.167C1195.46 325.286 1195.66 325.462 1195.91 325.689C1196.42 326.143 1197.16 326.8 1198.04 327.613C1199.81 329.241 1202.18 331.488 1204.59 333.97C1207.01 336.456 1209.46 339.162 1211.4 341.709C1213.37 344.293 1214.7 346.582 1215.04 348.255L1217 347.856C1216.56 345.701 1214.97 343.098 1212.99 340.498C1210.99 337.86 1208.47 335.089 1206.03 332.575C1203.58 330.059 1201.18 327.785 1199.39 326.142C1198.5 325.32 1197.76 324.654 1197.24 324.194C1196.98 323.964 1196.78 323.785 1196.64 323.663C1196.57 323.602 1196.52 323.556 1196.48 323.524C1196.46 323.508 1196.45 323.496 1196.44 323.488C1196.44 323.484 1196.43 323.481 1196.43 323.479C1196.43 323.478 1196.43 323.477 1196.43 323.477C1196.43 323.476 1196.43 323.476 1196.43 323.476C1196.43 323.476 1196.43 323.476 1195.77 324.232ZM1215.04 348.257C1216.09 353.402 1215.51 362.367 1213.3 370.984C1212.2 375.276 1210.7 379.435 1208.84 382.948C1206.98 386.472 1204.78 389.277 1202.3 390.948L1203.42 392.607C1206.28 390.68 1208.67 387.559 1210.61 383.883C1212.56 380.197 1214.11 375.882 1215.23 371.481C1217.48 362.713 1218.14 353.415 1217 347.855L1215.04 348.257ZM1202.3 390.946C1198.43 393.538 1191.81 395.7 1183.93 397.465C1176.08 399.222 1167.12 400.56 1158.63 401.564C1150.15 402.566 1142.17 403.232 1136.31 403.647C1133.38 403.854 1130.98 403.999 1129.32 404.092C1128.48 404.138 1127.83 404.172 1127.39 404.194C1127.17 404.205 1127 404.213 1126.89 404.218C1126.83 404.221 1126.79 404.223 1126.76 404.224C1126.75 404.224 1126.74 404.225 1126.73 404.225C1126.73 404.225 1126.73 404.225 1126.72 404.226C1126.72 404.226 1126.72 404.226 1126.72 404.226C1126.72 404.226 1126.72 404.226 1126.77 405.225C1126.81 406.224 1126.81 406.224 1126.81 406.224C1126.81 406.224 1126.81 406.224 1126.81 406.224C1126.81 406.224 1126.82 406.223 1126.82 406.223C1126.83 406.223 1126.84 406.222 1126.85 406.222C1126.88 406.22 1126.93 406.218 1126.98 406.216C1127.1 406.21 1127.27 406.202 1127.49 406.191C1127.94 406.169 1128.59 406.136 1129.43 406.089C1131.1 405.996 1133.51 405.85 1136.45 405.642C1142.33 405.225 1150.34 404.557 1158.87 403.55C1167.38 402.543 1176.43 401.195 1184.37 399.417C1192.27 397.647 1199.2 395.424 1203.41 392.608L1202.3 390.946ZM1126.77 405.225C1126.24 406.077 1126.24 406.077 1126.24 406.077C1126.24 406.077 1126.24 406.077 1126.24 406.078C1126.25 406.079 1126.25 406.081 1126.25 406.083C1126.26 406.087 1126.27 406.095 1126.29 406.104C1126.32 406.124 1126.36 406.153 1126.43 406.192C1126.55 406.27 1126.74 406.388 1126.98 406.544C1127.46 406.856 1128.17 407.32 1129.06 407.928C1130.84 409.144 1133.36 410.932 1136.3 413.216C1142.18 417.786 1149.7 424.326 1156.34 432.22C1162.98 440.121 1168.68 449.325 1170.98 459.222C1173.27 469.082 1172.2 479.675 1165.23 490.457L1166.91 491.543C1174.19 480.278 1175.33 469.125 1172.93 458.769C1170.53 448.449 1164.62 438.965 1157.87 430.934C1151.11 422.896 1143.47 416.26 1137.53 411.637C1134.55 409.324 1132 407.511 1130.19 406.276C1129.28 405.658 1128.56 405.184 1128.06 404.863C1127.81 404.703 1127.62 404.582 1127.49 404.499C1127.43 404.458 1127.38 404.427 1127.34 404.406C1127.33 404.395 1127.31 404.387 1127.3 404.382C1127.3 404.379 1127.3 404.377 1127.29 404.375C1127.29 404.375 1127.29 404.374 1127.29 404.374C1127.29 404.373 1127.29 404.373 1126.77 405.225ZM1166.61 490.154C1153.21 481.693 1135.54 475.706 1121.29 471.838C1114.15 469.901 1107.84 468.489 1103.32 467.562C1101.06 467.098 1099.24 466.755 1097.99 466.528C1097.36 466.415 1096.88 466.33 1096.55 466.274C1096.38 466.246 1096.26 466.224 1096.17 466.21C1096.13 466.203 1096.1 466.198 1096.07 466.194C1096.06 466.193 1096.06 466.191 1096.05 466.19C1096.05 466.19 1096.04 466.19 1096.04 466.189C1096.04 466.189 1096.04 466.189 1096.04 466.189C1096.04 466.189 1096.04 466.189 1095.88 467.176C1095.72 468.163 1095.72 468.163 1095.72 468.163C1095.72 468.163 1095.72 468.163 1095.72 468.163C1095.72 468.164 1095.73 468.164 1095.73 468.164C1095.73 468.165 1095.74 468.166 1095.75 468.168C1095.77 468.171 1095.8 468.176 1095.84 468.183C1095.92 468.197 1096.05 468.217 1096.21 468.245C1096.53 468.3 1097.01 468.384 1097.63 468.496C1098.87 468.721 1100.67 469.061 1102.92 469.521C1107.41 470.442 1113.67 471.844 1120.76 473.768C1134.96 477.622 1152.4 483.547 1165.54 491.846L1166.61 490.154ZM1095.88 467.176C1095.86 466.176 1095.86 466.176 1095.86 466.176C1095.86 466.176 1095.85 466.176 1095.85 466.176C1095.85 466.177 1095.84 466.177 1095.83 466.177C1095.81 466.177 1095.78 466.178 1095.74 466.179C1095.66 466.181 1095.55 466.183 1095.39 466.187C1095.08 466.193 1094.63 466.203 1094.03 466.215C1092.82 466.238 1091.05 466.271 1088.78 466.308C1084.22 466.382 1077.65 466.471 1069.56 466.533C1053.38 466.657 1031.16 466.671 1006.96 466.234C958.543 465.359 902.368 462.675 870.989 455.474L870.541 457.423C902.158 464.679 958.542 467.359 1006.93 468.233C1031.14 468.671 1053.38 468.657 1069.57 468.533C1077.67 468.471 1084.25 468.382 1088.81 468.308C1091.09 468.271 1092.86 468.238 1094.06 468.214C1094.67 468.202 1095.13 468.193 1095.44 468.186C1095.59 468.183 1095.71 468.18 1095.79 468.178C1095.82 468.178 1095.85 468.177 1095.87 468.176C1095.88 468.176 1095.89 468.176 1095.9 468.176C1095.9 468.176 1095.9 468.176 1095.9 468.176C1095.9 468.176 1095.9 468.176 1095.88 467.176ZM870.989 455.474C862.387 453.501 853.676 447.81 844.722 440.012C835.779 432.223 826.698 422.427 817.329 412.356C807.977 402.303 798.347 391.984 788.356 383.228C778.369 374.474 767.963 367.23 757.037 363.369L756.371 365.254C766.952 368.994 777.135 376.053 787.038 384.732C796.939 393.409 806.501 403.652 815.865 413.718C825.212 423.767 834.37 433.648 843.409 441.52C852.438 449.383 861.452 455.338 870.541 457.423L870.989 455.474ZM756.984 363.351C734.16 356.71 710.446 353.648 686.684 354.274L686.737 356.273C710.292 355.653 733.8 358.689 756.425 365.272L756.984 363.351ZM686.688 354.273L525.183 357.849L525.227 359.849L686.733 356.273L686.688 354.273Z" fill="black" mask="url(#path-1-inside-1_30_406)"/>
<path d="M1038.87 132.455L1040.06 141.405C1040.5 144.809 1041.93 148.01 1044.16 150.62C1046.39 153.229 1049.33 155.134 1052.63 156.103L1111.37 173.193" stroke="black" stroke-miterlimit="10"/>
<path d="M1050.04 204.651L1052.23 209.894C1053.43 212.747 1055.25 215.298 1057.56 217.362C1059.86 219.426 1062.6 220.951 1065.57 221.828L1152.06 247.319" stroke="black" stroke-miterlimit="10"/>
<path d="M1067.19 287.267L1069.38 293.848C1070.23 296.244 1071.69 298.377 1073.61 300.035C1075.53 301.694 1077.86 302.821 1080.35 303.303L1180.18 322.148" stroke="black" stroke-miterlimit="10"/>
<path d="M960.895 415.711L972.3 407.857C983.205 400.351 996.417 396.954 1009.59 398.27L1113.47 408.756" stroke="black" stroke-miterlimit="10"/>
<path d="M0 98.4078L525.052 103.673V369.949L0 443.549" stroke="black" stroke-miterlimit="10"/>
<path d="M333.87 119.285L339.798 364.001" stroke="black" stroke-miterlimit="10"/>
<path d="M507.847 341L18.8467 407" stroke="black" stroke-miterlimit="10"/>
<path d="M471.079 179.181C485.991 179.181 498.08 167.091 498.08 152.176C498.08 137.262 485.991 125.172 471.079 125.172C456.166 125.172 444.077 137.262 444.077 152.176C444.077 167.091 456.166 179.181 471.079 179.181Z" stroke="black" stroke-miterlimit="10"/>
</g>
<rect x="526" width="211" height="418.135" fill="white"/>
<defs>
<clipPath id="clip0_30_406">
<rect width="1216.52" height="450.205" fill="white" transform="translate(0 40.7952)"/>
</clipPath>
</defs>
</svg>
