<svg width="155" height="262" viewBox="0 0 155 262" fill="none" xmlns="http://www.w3.org/2000/svg">
<path d="M142.916 120.703H150.386C152.319 120.703 153.886 122.27 153.886 124.203V140.144C153.886 142.077 152.319 143.644 150.386 143.644H142.916V120.703Z" stroke="#BD9E5E"/>
<path d="M40.3877 192.911C40.3877 192.082 41.0593 191.411 41.8877 191.411H105.06C105.888 191.411 106.56 192.082 106.56 192.911V257.618C106.56 259.551 104.993 261.118 103.06 261.118H43.8877C41.9547 261.118 40.3877 259.551 40.3877 257.618V192.911Z" fill="white" stroke="#BD9E5E"/>
<path d="M40.3877 4C40.3877 2.06701 41.9547 0.5 43.8877 0.5H103.06C104.993 0.5 106.56 2.067 106.56 4V68.7076C106.56 69.536 105.888 70.2076 105.06 70.2076H41.8877C41.0593 70.2076 40.3877 69.536 40.3877 68.7076V4Z" fill="white" stroke="#BD9E5E"/>
<path d="M23.5075 74.1252C25.9454 67.8199 28.6317 57.0928 30.0199 51.0036C30.2838 49.8461 31.311 49.0225 32.501 49.0225H38.1753C39.572 49.0225 40.7042 50.152 40.7042 51.5453V69.1825C50.3688 64.3542 61.2772 61.6369 72.8217 61.6369C84.3662 61.6369 95.2746 64.3542 104.939 69.1825V51.5453C104.939 50.152 106.071 49.0225 107.468 49.0225H113.142C114.332 49.0225 115.36 49.8461 115.623 51.0036C117.012 57.0928 119.698 67.8199 122.136 74.1252C124.867 81.1892 126.943 85.352 129.093 88.7579C138.828 100.985 144.643 116.459 144.643 133.287C144.643 147.769 140.336 161.248 132.931 172.518L131.555 174.536C129.405 177.942 124.867 185.637 122.136 192.701C119.698 199.006 117.012 209.733 115.623 215.822C115.36 216.98 114.332 217.803 113.142 217.803H107.468C106.071 217.803 104.939 216.674 104.939 215.281V197.391L103.675 198.007C94.3271 202.45 83.8655 204.937 72.8217 204.937C61.2772 204.937 50.3688 202.219 40.7042 197.391L40.7042 199.639V215.281C40.7042 216.674 39.572 217.803 38.1753 217.803H32.501C31.311 217.803 30.2838 216.98 30.0199 215.822C28.6317 209.733 25.9454 199.006 23.5075 192.701C21.1628 186.636 17.4554 179.82 15.0356 175.844L13.7711 174.083C5.71887 162.505 1 148.446 1 133.287C1 116.861 6.54052 101.726 15.8589 89.6409C18.0085 86.235 20.7763 81.1892 23.5075 74.1252Z" fill="white" stroke="#BD9E5E"/>
<path d="M125.907 132.814C125.907 162.9 101.863 187.277 72.2181 187.277C42.5733 187.277 18.5293 162.9 18.5293 132.814C18.5293 102.728 42.5733 78.3511 72.2181 78.3511C101.863 78.3511 125.907 102.728 125.907 132.814Z" fill="white" stroke="#BD9E5E"/>
<circle cx="72.2228" cy="19.2006" r="3.3896" fill="white" stroke="#BD9E5E" stroke-width="1.6"/>
<circle cx="72.2228" cy="38.3531" r="3.3896" fill="white" stroke="#BD9E5E" stroke-width="1.6"/>
<circle cx="72.2228" cy="224.531" r="3.3896" fill="white" stroke="#BD9E5E" stroke-width="1.6"/>
<circle cx="72.2228" cy="243.683" r="3.3896" fill="white" stroke="#BD9E5E" stroke-width="1.6"/>
<path d="M46.4863 118.457L72.5094 136.635L101.55 99.5272" stroke="#BD9E5E"/>
<circle cx="72.8206" cy="135.438" r="7.8792" fill="white" stroke="#BD9E5E"/>
</svg>
