<svg width="261" height="261" viewBox="0 0 261 261" fill="none" xmlns="http://www.w3.org/2000/svg">
<g clip-path="url(#clip0_826_2129)">
<path d="M33.5182 14.8027L18.863 24.9192L44.0985 61.6061L58.7536 51.4896L33.5182 14.8027Z" stroke="#BD9E5E" stroke-linecap="round" stroke-linejoin="round"/>
<path d="M19.0227 25.1544C18.2318 24.0045 16.6607 23.7143 15.5136 24.5061C14.3665 25.298 14.0777 26.8721 14.8687 28.022L39.9958 64.5514C40.7867 65.7013 42.3579 65.9915 43.505 65.1996C44.6521 64.4078 44.9408 62.8337 44.1498 61.6838L19.0227 25.1544Z" stroke="#BD9E5E" stroke-linecap="round" stroke-linejoin="round"/>
<path fill-rule="evenodd" clip-rule="evenodd" d="M14.7881 34.8219C13.0019 36.0538 10.6558 35.7458 9.5459 34.1347L33.6503 69.1707C32.5404 67.5499 33.0873 65.2515 34.8735 64.0197C36.6597 62.7878 39.0025 63.0958 40.1124 64.7069L16.008 29.6709C17.118 31.2853 16.5808 33.5901 14.7881 34.8219Z" stroke="#BD9E5E" stroke-linecap="round" stroke-linejoin="round"/>
<path d="M10.1036 34.9471C8.72754 32.9466 5.99314 32.4424 3.99618 33.8209C1.99922 35.1994 1.49589 37.9386 2.87196 39.9391L26.3043 74.0048C27.6804 76.0053 30.4148 76.5095 32.4117 75.131C34.4087 73.7525 34.9121 71.0132 33.536 69.0127L10.1036 34.9471Z" stroke="#BD9E5E" stroke-linecap="round" stroke-linejoin="round"/>
<path d="M3.24034 40.4796L26.2486 73.9286C24.6981 74.9989 22.7867 75.4083 20.9349 75.0669C19.0831 74.7254 17.4425 73.6609 16.3741 72.1077L1.42454 50.3743C0.895016 49.6052 0.52191 48.7392 0.326584 47.8256C0.131258 46.9121 0.117525 45.9689 0.28615 45.0501C0.454775 44.1312 0.80248 43.2546 1.30937 42.4704C1.81626 41.6862 2.4724 41.0097 3.24034 40.4796V40.4796Z" stroke="#BD9E5E" stroke-linecap="round" stroke-linejoin="round"/>
<path d="M58.5913 50.8998C59.3822 52.0497 60.9534 52.3399 62.1005 51.548C63.2476 50.7562 63.5363 49.1821 62.7453 48.0322L37.6182 11.5028C36.8273 10.3529 35.2562 10.0627 34.1091 10.8545C32.962 11.6464 32.6732 13.2205 33.4642 14.3704L58.5913 50.8998Z" stroke="#BD9E5E" stroke-linecap="round" stroke-linejoin="round"/>
<path fill-rule="evenodd" clip-rule="evenodd" d="M62.8253 41.2279C64.6116 39.9961 66.9576 40.304 68.0675 41.9151L43.9631 6.87915C45.073 8.49999 44.5262 10.7983 42.7399 12.0302C40.9537 13.262 38.6109 12.954 37.501 11.3429L61.6054 46.3789C60.4955 44.7646 61.0423 42.4598 62.8253 41.2279Z" stroke="#BD9E5E" stroke-linecap="round" stroke-linejoin="round"/>
<path d="M67.5126 41.1032C68.8887 43.1037 71.6231 43.6079 73.62 42.2294C75.617 40.8509 76.1203 38.1117 74.7442 36.1112L51.3119 2.04553C49.9358 0.0450251 47.2014 -0.459215 45.2045 0.919299C43.2075 2.29781 42.7042 5.03704 44.0803 7.03755L67.5126 41.1032Z" stroke="#BD9E5E" stroke-linecap="round" stroke-linejoin="round"/>
<path d="M74.3729 35.568L51.3647 2.11901C52.1324 1.58905 52.9968 1.21577 53.9085 1.02047C54.8203 0.825167 55.7615 0.811663 56.6784 0.980748C57.5953 1.14983 58.47 1.49818 59.2526 2.00591C60.0351 2.51364 60.7102 3.17082 61.2392 3.9399L76.1906 25.676C76.7196 26.4451 77.0922 27.311 77.2872 28.2244C77.4822 29.1377 77.4956 30.0806 77.3268 30.9991C77.1581 31.9177 76.8103 32.794 76.3035 33.5779C75.7966 34.3618 75.1407 35.0381 74.3729 35.568V35.568Z" stroke="#BD9E5E" stroke-linecap="round" stroke-linejoin="round"/>
<path d="M56.3407 53.0607L46.5857 59.7946C45.6454 60.4437 45.4079 61.733 46.0554 62.6743C46.7029 63.6156 47.9901 63.8524 48.9304 63.2033L58.6854 56.4694C59.6258 55.8203 59.8632 54.531 59.2157 53.5897C58.5682 52.6484 57.2811 52.4116 56.3407 53.0607Z" stroke="#BD9E5E" stroke-linecap="round" stroke-linejoin="round"/>
<path d="M63.2653 81.8006C63.2653 81.8006 54.3568 68.1693 48.1115 67.7123C41.8661 67.2552 56.9229 57.7214 56.9229 57.7214" stroke="#BD9E5E" stroke-linecap="round" stroke-linejoin="round"/>
<path d="M72.1804 75.6449C72.1804 75.6449 62.6377 62.4545 64.4337 56.4444C66.2296 50.4344 51.9753 61.1351 51.9753 61.1351" stroke="#BD9E5E" stroke-linecap="round" stroke-linejoin="round"/>
<path d="M72.908 75.1744L62.7454 82.1897C62.0596 82.6631 61.8867 83.6038 62.3593 84.2908L62.3611 84.2934C62.8337 84.9804 63.7727 85.1536 64.4584 84.6802L74.6211 77.6649C75.3069 77.1915 75.4797 76.2508 75.0072 75.5638L75.0053 75.5612C74.5328 74.8742 73.5938 74.701 72.908 75.1744Z" stroke="#BD9E5E" stroke-linecap="round" stroke-linejoin="round"/>
<path d="M78.7815 104.252L65.0256 84.2574L74.0895 78.001L93.1426 105.691" stroke="#BD9E5E" stroke-linecap="round" stroke-linejoin="round"/>
<path d="M78.2026 103.413C69.3394 111.141 58.0913 130.367 58.0913 130.367C58.0913 130.367 67.0095 139.788 79.9662 121.767" stroke="#BD9E5E" stroke-linecap="round" stroke-linejoin="round"/>
<path d="M86.5515 96.1154C86.5515 96.1154 91.1045 93.2433 95.4342 94.4103C103.786 96.66 140.245 99.3603 142.857 100.715C145.468 102.07 174.391 150.514 180.85 159.253C187.309 167.993 190.234 167.682 190.234 167.682" stroke="#BD9E5E" stroke-linecap="round" stroke-linejoin="round"/>
<path d="M59.7092 131.569C59.7092 131.569 66.0549 128.004 67.1519 123.734C68.2489 119.465 65.7054 118.476 65.7054 118.476" stroke="#BD9E5E" stroke-linecap="round" stroke-linejoin="round"/>
<path d="M101.967 112.564C102.038 112.107 123.761 120.263 127.615 119.543C127.615 119.543 129.327 132.098 130.851 133.842C129.156 134.451 127.33 134.597 125.561 134.267C123.791 133.937 122.14 133.141 120.778 131.962C115.856 127.874 101.886 111.754 98.0938 108.946C94.3013 106.139 84.4576 99.4418 78.5067 104.953C72.6109 110.418 78.8659 118.944 80.3059 120.74C81.7459 122.535 95.3756 135.029 100.873 140.741C106.371 146.453 109.034 148.55 113.306 157.685C117.577 166.82 129.689 181.401 145.037 186.802C160.385 192.202 165.838 198.355 165.838 198.355" stroke="#BD9E5E" stroke-linecap="round" stroke-linejoin="round"/>
<path fill-rule="evenodd" clip-rule="evenodd" d="M91.1302 107.704C94.4665 112.026 96.0068 117.465 92.499 120.185C88.9913 122.905 82.9174 121.342 79.578 117.021C76.2385 112.7 75.3227 108.035 78.5069 104.939C81.403 102.125 87.7907 103.383 91.1302 107.704Z" stroke="#BD9E5E" stroke-linecap="round" stroke-linejoin="round"/>
<path d="M82.4385 123.79C82.4385 123.79 74.97 137.113 74.2969 143.661C73.6239 150.209 78.1121 161.549 78.4681 164.699C78.824 167.85 81.0859 166.836 82.2444 166.369C83.4029 165.902 88.4735 161.416 86.0951 153.149C86.0951 153.149 86.6097 147.463 85.9301 145.369C85.9301 145.369 91.3276 138.656 92.8744 132.899" stroke="#BD9E5E" stroke-linecap="round" stroke-linejoin="round"/>
<path d="M86.1272 161.153C86.4281 161.451 92.379 178.379 92.8579 181.073C93.353 183.867 99.6792 181.893 100.33 177.361C100.627 175.277 100.417 169.004 97.6115 164.579C97.6115 164.579 97.9901 151.172 95.8058 148.562C95.8058 148.562 100.187 141.327 100.145 139.982" stroke="#BD9E5E" stroke-linecap="round" stroke-linejoin="round"/>
<path d="M75.9053 154.073C78.3775 155.202 79.6654 157.931 80.4938 160.521C81.141 162.541 81.6264 164.658 81.4128 166.765" stroke="#BD9E5E" stroke-linecap="round" stroke-linejoin="round"/>
<path d="M89.3889 170.139C90.4213 170.741 91.3191 171.548 92.0262 172.512C94.2158 175.284 95.6237 178.593 96.1035 182.095" stroke="#BD9E5E" stroke-linecap="round" stroke-linejoin="round"/>
<path d="M100.521 173.605C100.844 173.605 106.614 182.627 107.264 184.705C107.915 186.782 113.147 183.683 113.413 180.38C113.678 177.077 113.555 169.683 109.678 165.793C109.678 165.793 110.296 155.743 108.112 153.095L109.083 150.015" stroke="#BD9E5E" stroke-linecap="round" stroke-linejoin="round"/>
<path d="M102.009 175.656C102.129 175.475 102.404 175.52 102.611 175.595C106.358 176.96 109.613 180.525 110.882 184.315" stroke="#BD9E5E" stroke-linecap="round" stroke-linejoin="round"/>
<path d="M109.721 157.753C109.721 157.753 127.606 181.456 131.961 187.661C136.317 193.865 147.147 207.328 151.817 207.347C156.486 207.367 153.58 201.778 152.852 199.545C151.882 196.578 145.038 186.789 145.038 186.789" stroke="#BD9E5E" stroke-linecap="round" stroke-linejoin="round"/>
<path d="M208.912 172.506L204.109 167.228C193.466 172.304 161.929 217.059 160.544 217.902C160.544 217.902 189.869 245.317 208.912 253.159" stroke="#BD9E5E" stroke-linecap="round" stroke-linejoin="round"/>
<path d="M202.779 167.993C202.779 167.993 194.913 164.035 193.521 163.594C193.521 163.594 161.566 203.201 158.871 208.867L163.356 214.414" stroke="#BD9E5E" stroke-linecap="round" stroke-linejoin="round"/>
</g>
<defs>
<clipPath id="clip0_826_2129">
<rect width="261" height="261" fill="white"/>
</clipPath>
</defs>
</svg>
