<svg width="254" height="254" viewBox="0 0 254 254" fill="none" xmlns="http://www.w3.org/2000/svg">
<path d="M169.333 31.75H10.583V169.333H169.333V31.75Z" stroke="#BD9E5E" stroke-linecap="round" stroke-linejoin="round"/>
<path d="M169.333 84.6665H211.666L243.416 116.416V169.333H169.333V84.6665Z" stroke="#BD9E5E" stroke-linecap="round" stroke-linejoin="round"/>
<path d="M58.2083 222.25C72.8209 222.25 84.6667 210.404 84.6667 195.792C84.6667 181.179 72.8209 169.333 58.2083 169.333C43.5958 169.333 31.75 181.179 31.75 195.792C31.75 210.404 43.5958 222.25 58.2083 222.25Z" stroke="#BD9E5E" stroke-linecap="round" stroke-linejoin="round"/>
<path d="M195.791 222.25C210.404 222.25 222.25 210.404 222.25 195.792C222.25 181.179 210.404 169.333 195.791 169.333C181.179 169.333 169.333 181.179 169.333 195.792C169.333 210.404 181.179 222.25 195.791 222.25Z" stroke="#BD9E5E" stroke-linecap="round" stroke-linejoin="round"/>
</svg>
